<?xml version="1.0" encoding="utf-8"?>
<!-- Generator: Adobe Illustrator 23.0.3, SVG Export Plug-In . SVG Version: 6.00 Build 0)  -->
<svg version="1.1" xmlns="http://www.w3.org/2000/svg" xmlns:xlink="http://www.w3.org/1999/xlink" x="0px" y="0px"
	 viewBox="0 0 51.8 51.8" style="enable-background:new 0 0 51.8 51.8;" xml:space="preserve">
<style type="text/css">
	.st0{fill:#FFFFFF;}
	.st1{fill:none;}
	.st2{fill:#1C3A69;}
</style>
<g id="Layer_1">
	<circle class="st0" cx="26" cy="26" r="24.7"/>
</g>
<g id="Layer_2">
	<g>
		<path class="st1" d="M19.6,23.6c0,0.1,0,0.2,0,0.3C19.7,23.8,19.7,23.7,19.6,23.6z"/>
		<path class="st1" d="M26.6,13.9c-0.2,0.1-0.4,1.1-0.3,1.3c0.5-0.1,2.2-0.3,2.7-0.3c0.1-0.4,0.1-0.8,0.2-1.3
			c-0.3,0-0.5,0.1-0.9,0.1C28.1,13.7,26.8,13.9,26.6,13.9z"/>
		<path class="st1" d="M27.4,42.4c-0.1,0.2,0.2,0.6-0.3,0.6c-0.1,0,0,0.4-0.1,0.5c0,0.2-0.3,0.3-0.5,0.3c-0.6-0.1-0.9,0.4-0.9,0.6
			c0,0.1,0,0.4,0,0.7c0.1,0,0.3,0,0.4,0c1,0,2-0.1,3-0.3c-0.2-1.1-0.4-2.1-0.5-2.3c-0.2,0-0.3,0-0.5,0
			C27.9,42.4,27.6,42.4,27.4,42.4z"/>
		<path class="st1" d="M24.6,16.5c-0.1,0.1-0.1,0.2,0.1,0.2c0,0,0.1,0,0.2,0.1c0.1,0,0.3,0,0.3,0c0.1,0,0.3,0.1,0.5,0.1
			c0,0,0.1,0,0.1,0c0,0,0,0,0,0c0,0,0,0,0.1-0.1c0.2-0.1,0.4-0.2,0.6-0.2c0.2,0,0.3,0,0.5,0c0-0.1-0.1-0.1-0.1-0.2
			c-0.1-0.1,0.1-0.1,0.1-0.1c0,0,0.2,0.2,0.3,0.3c0.1,0,0.2,0,0.3,0c0,0,0,0,0,0c-0.6-0.1-0.6-1,0.1-1c2,0.1,3.7,0.8,5.5,1.5
			c0.6,0.2,0.3,1.2-0.3,1c-0.2-0.1-0.5-0.2-0.7-0.3c0,0,0,0,0,0c1.2,0.6,2.3,1.4,3.2,2.5c0,0,0.1-0.1,0.2-0.1c0.1-0.1,0-0.4-0.1-0.5
			c-0.1-0.1-0.3-0.4-0.3-0.6c0-0.2,0.1-0.6,0-0.8C34.8,18.2,35,18,35.2,18c0.2,0,0.7-0.1,0.8-0.1c0.1,0,0.4,0,0.5,0.1
			c0,0,0.1,0,0.1,0C32.7,14.7,27.9,14.9,24.6,16.5z"/>
		<path class="st1" d="M28.6,18c-0.1,0.1-0.4-0.2-0.5-0.3c-0.1-0.1-0.3-0.1-0.2,0.1c0.1,0.1,0.4,0.4,0.7,0.8c0.6,0.6,1,1.2,1.3,1.6
			l0.2,0.3c0.6,0.8,1.4,0.7,2.4,0.7l0.1,0c0.3,0,0.8,0.1,1.2,0.2c-0.6-1-1.5-2-2.6-2.8c-0.9-0.6-1.7-0.9-2.6-1c0,0,0,0,0,0
			c0,0.1-0.3-0.1-0.2,0.2C28.5,17.9,28.6,18,28.6,18z"/>
		<path class="st1" d="M26.8,17c-0.1,0-0.2,0-0.3,0c0.1,0.1,0.1,0.1,0.2,0.1C26.7,17.1,26.8,17,26.8,17z"/>
		<path class="st1" d="M21,26.8c0.3-0.6,1-1.1,1.8-1.3c0.4-0.1,0.6-0.4,0.7-0.6c0.3-0.8,0.8-1.6,1.6-2.4c0.4-0.4,0.5-0.8,0.5-1.3
			l0-0.1c0.1-0.5-0.1-0.6-0.5-0.8c-0.3-0.1-0.6-0.3-0.9-0.4c-0.1,0-0.2,0-0.2-0.1c0,0-0.1-0.1-0.1-0.1c-0.1-0.1-0.3-0.2-0.4-0.3
			c-0.1-0.1-0.2-0.1-0.2-0.2c-0.1-0.1-0.5-0.2-0.6-0.4c-0.4-0.5-0.8-0.6-1.2-0.5c0,0.1,0,0.3,0,0.6c0,0.2,0.1,0.5,0,0.8
			c0.2,0.1,0.2,0.3,0,0.3c-0.1,0.7-0.3,1.6-0.6,2.2c-0.4,0.9-0.4,3.2-0.1,4c0,0,0,0,0,0c0.1,0.1,0,0.2,0.1,0.3
			C20.9,26.7,20.9,26.7,21,26.8z"/>
		<path class="st1" d="M16.7,19.7c-0.1-0.6-0.1-1.3-0.1-2.1c0-1.2,0-2.3-0.2-3.5c-0.1-0.3-0.2-0.5-0.4-0.5c-0.2,0-0.4,0.1-0.5,0.5
			c-0.1,0.3-0.2,0.5-0.2,0.7c0,0.1-0.1,0.2-0.1,0.2l0.3,2.5l0.3,3C16.1,20.2,16.4,19.9,16.7,19.7z"/>
		<path class="st1" d="M13.2,31.3C13.2,31.3,13.2,31.3,13.2,31.3c-1.3-1.7-1.7-3.9-1.1-5.5c0.3-0.8,0.4-1.4,0-2.7
			c-0.3-0.9-0.1-1.6,0.3-2c0.2-0.2,0.4-0.3,0.7-0.4c-0.1-2.2-0.2-3.8-0.3-4.5c0-0.1,0-0.3,0.1-0.4c0-0.1,0.1-0.2,0.2-0.2
			c0.3-0.2,0.9-0.3,1.4-0.4c0.4-0.1,0.6-0.2,0.7-0.6c0.1-0.2,0.2-0.4,0.2-0.7c0.3-0.8,1.2-0.9,1.3,0.1c0.3,1.8,0.2,3.8,0.3,5.4
			c0.2-0.2,0.4-0.3,0.6-0.4c0-1.6,0.1-3.5,0.1-4.6c0-1.1,0.1-2.4,0-3.2c0-0.8,0.1-1.4,0.3-2.1c0.1-0.2,0.1-0.3,0.1-0.5
			c-6.6,3-11.2,9.6-11.2,17.3c0,5.8,2.7,11.1,6.8,14.6c-0.1-2.2-0.2-5.5-0.3-9C13.4,31.5,13.3,31.4,13.2,31.3z"/>
		<path class="st1" d="M32.3,22.3C32.3,22.3,32.3,22.3,32.3,22.3c-0.2,0-0.4,0-0.6,0c0,0,0,0,0,0C31.9,22.3,32.1,22.3,32.3,22.3z"/>
		<path class="st1" d="M18.4,35.2c0,0,0-0.1,0-0.2c-0.3-0.8-0.5-1.9-0.6-2.3c0-0.2,0-0.3,0.1-0.3c0.1-0.1,0.2,0,0.4,0.1
			c0.5,0.3,1,0.7,1.4,1.3c0.2,0.3,0.6,0.7,1.2,0.8c0.1,0,0.1,0,0.2-0.1c0,0,0,0,0,0c0,0,0-0.2-0.1-0.3c-0.4-0.1-0.6-0.3-0.9-0.8
			c-0.1,0-0.1-0.1-0.3-0.2c-0.3-0.1-0.6-0.7-0.8-0.8c-0.1-0.1-0.9-0.6-1.1-0.7c-0.8-0.3-1.1-1.1-1.2-1.4l0,0c-0.2-0.3-0.4-0.7-0.7-1
			c0,0.1-0.3-0.5-0.4-0.6v0c-0.1-0.1-0.4-0.3-0.4-0.2c0,0.1,0.2,0.5,0.3,0.6c0.1,0.1,0.4,0.6,0.4,0.8c0,0.2,0.4,0.7,0.5,0.8
			c0.3,0.5,0.5,0.9,0.7,1.2c0.2,0.5,0.3,0.7,0.4,1.2c0.1,0.6,0.4,1.5,0.7,2C18.4,35.2,18.4,35.2,18.4,35.2z"/>
		<path class="st1" d="M23.3,41.4c-2.3-0.8-4.2-2.2-5.6-4c0,0,0.1,0.1,0.1,0.1c0.1,1.6,0.2,3.8,0.2,5.6c1.9,0.9,3.9,1.5,6,1.7
			C23.8,43.7,23.5,42.3,23.3,41.4L23.3,41.4z"/>
		<path class="st1" d="M14,23.9l-0.4-0.6c-0.2-0.3-0.3-0.5-0.5-0.7c-0.1-0.2-0.1-0.5,0-0.8c0.1-0.3,0.4-0.5,0.8-0.5
			c0.2,0,0.2-0.1,0.3-0.1c0-0.1-0.1-0.2-0.3-0.3c-0.2-0.1-0.5-0.1-0.7,0c-0.7,0.3-1,1-0.7,1.8c0,0.1,0.1,0.1,0.1,0.2
			c0.3,0.5,0.9,0.9,1,1.1c0.1,0.1,0.2,0.4,0,0.2c-0.2-0.2-0.5-0.4-0.6-0.5c-0.1-0.1-0.1,0.7,0,1c0,0.1,0.8,0.8,1,1
			c0.2,0.1-0.1,0.2-0.1,0.1c-0.1-0.1-0.5-0.5-0.7-0.6c-0.2-0.1-0.2,0.1-0.1,0.2c0.1,0.1,0.5,0.4,0.6,0.5c0.1,0.1,0,0.2-0.1,0.1
			c-0.1-0.1-0.3-0.2-0.4-0.3c-0.3-0.2-0.3,0-0.4,0.2c-0.1,0.1,0,0.2,0.1,0.3c0.1,0.1,1,0.9,1.1,1c0.1,0.1,0.1,0.2-0.1,0.1
			c-0.2-0.1-0.7-0.7-0.8-0.7c-0.2-0.1-0.3,0.1-0.2,0.2c0.2,0.2,0.6,0.6,0.8,0.7c0.1,0.1,0,0.2-0.1,0.1c-0.1-0.1-0.8-0.8-0.9-0.9
			c-0.1-0.1-0.2,0.1-0.2,0.1c0,0-0.1,0.5,0.2,0.7c0.1,0.1,1,0.8,1.1,1c0.2,0.2,0.1,0.3-0.1,0.2c-0.2-0.1-1.1-0.9-1.2-0.9
			c-0.1,0-0.3,0.6,0.1,0.9c0.2,0.2,0.7,0.6,0.8,0.7c0.1,0.1,0,0.3-0.1,0.1c-0.1-0.1-0.6-0.5-0.7-0.6s-0.1,0.2,0.1,0.3
			c0.1,0.1,0.5,0.5,0.8,0.7c0.2,0.1,0.1,0.3,0,0.1c-0.2-0.1-0.5-0.4-0.7-0.5c-0.1-0.1,0,0.3,0.2,0.4c0.2,0.1,0.3,0.3,0.2,0.4
			c-0.3,0.1,0.1,0.7,0.3,0.8c0.1,0.1,0.3,0.2,0.4,0.2c0.2,0,0.3-0.1,0.4-0.3c0.4-0.6,0.5-1.2,0.4-2.1c-0.1-0.9-0.1-1.5,0-2
			C14.6,26.2,14.6,24.8,14,23.9z"/>
		<path class="st1" d="M17.5,42.2c0-0.1,0.1-5.3-0.4-5.2c-0.2,0-0.6-0.3-0.9-0.7l-0.1-0.1l-0.1-0.1h0C16,36.1,16,36.1,15.9,36
			c-0.2-0.1-0.4-0.2-0.5,0.4c-0.1,0.4-0.2,0.8-0.2,1c0,0,0.1,0,0.1,0.1c0.1,0.1,0,0.1-0.1,0.1c0,0.2-0.1,0.3-0.1,0.3v1.4l-0.2,0.8
			l0,0L14.7,41l0,0.2c0.9,0.7,1.9,1.3,2.9,1.8C17.5,42.7,17.5,42.5,17.5,42.2z"/>
		<path class="st1" d="M33.6,22.6c-0.1-0.1-0.1-0.1-0.1,0c0,0,0,0,0,0C33.6,22.6,33.6,22.6,33.6,22.6z"/>
		<path class="st1" d="M26.2,8.8c0,0.2,0.1,0.5,0.1,0.7c0,0.2,0,0.3,0,0.5c0,0,0,0,0,0c0,0.2,0,0.4,0,0.6c0,0,0,0,0,0
			c0,0.4,0,0.9,0,1.4l0,0c0.4-0.2,1-0.2,1.7,0c0.3,0.1,0.5,0.1,0.8,0.1c0.2,0,0.3,0,0.5,0c0.1-1.3,0.2-2.7,0.2-3.8
			c0-0.4,0-0.7-0.1-1c-1.1-0.2-2.2-0.3-3.4-0.3c-0.2,0-0.4,0-0.6,0c0,0,0.1,0.1,0.1,0.1C25.8,7.5,26,8.1,26.2,8.8z"/>
		<path class="st1" d="M19.1,18.4c0.7-0.6,1.9-1.4,2.2-1.6c-0.1-0.1-0.2-0.2,0.1-0.4c1.4-0.9,2.8-2.3,4.4-2.9
			c1.3-0.5,2.9-0.6,4.3-0.7c-0.1-0.1-0.2-0.1-0.3-0.2l-0.6-0.2c-0.2,0-0.3,0-0.5,0c-0.1,0-0.2,0-0.3,0c-0.1,0-0.1-0.1-0.2-0.1h0
			c0,0-0.1,0-0.1,0c-0.1,0-0.2,0-0.2,0c-0.6-0.2-1.1-0.2-1.5-0.1h0c-0.2,0.1-0.4,0.2-0.6,0.1c-0.2-0.1-0.7,0-1.1,0.2
			c-0.1,0.1-0.3,0.1-0.4,0c-0.1-0.1-0.1-0.1-0.1-0.2c0-0.1,0-0.1,0-0.2c0.3-0.9,0.7-1.7,1.3-2.4c0-0.2,0.1-0.3-0.1-0.4
			c-0.2-0.1-0.6-0.6-0.7-0.6c-0.1-0.1,0-0.3,0.2-0.2c0.2,0.2,0.5,0.4,0.6,0.4c0.1,0,0.1-0.2,0-0.3c-0.1-0.1-0.3-0.3-0.5-0.4
			C25,8.2,25,8,25.2,8.1c0.1,0.1,0.2,0.2,0.3,0.1c0.1-0.1-0.2-0.5-0.1-0.6c0-0.1-0.3-0.4-0.3-0.4c0,0-0.1,0-0.1,0.1
			c-0.7,1.5-1.4,2.7-3.1,4.3c-0.9,0.8-1.7,1.6-2.2,2.7c0,0.1-0.7,1.2-0.8,1.3C17.9,17.4,18.4,18.5,19.1,18.4z"/>
		<path class="st1" d="M29.9,7.3C30,7.6,30,7.9,30,8.2c0,1.2-0.1,2.6-0.2,3.9c0.3,0.1,0.9,0.4,1.1,0.5c0.3,0.1,0.6,0.6,0.6,0.7
			c0.1,0.1-0.2,0.2-0.4,0.2c-0.3,0-0.8,0-1.1,0c-0.1,0-0.2,0-0.3,0c-0.1,0.6-0.2,1.2-0.2,1.6c2.7-0.1,5.7,0.8,8.2,3.1
			c0.2,0.1,0.1,0.4-0.1,0.5c-0.6,0.1-0.8,0.7-0.4,1.8c0.3,0.7,0.4,1.3,0.3,1.7c0,0.3,0.1,0.5,0.2,0.7c0.1,0.2,0.3,0.4,0.3,0.5
			c0.1,0.2,0.2,0.3,0,0.5c-0.3,0.2-0.7,0.3-1,0.2c-0.3-0.1-0.6-0.4-0.8-0.6c-0.1,0-0.1-0.1-0.1-0.2c0.3,0.6,0.5,1.2,0.6,1.9
			c0.1,0.7,0.1,1.3,0,1.9c-0.1,0.8-0.3,1.6-0.1,2.3c0.3,1.8,1.3,3.3,2.3,5l0,0.1c0.3,0.5,0.6,1.1,0.7,1.6c0.2,0.9,0,1.8-0.5,2.6
			c-0.6,1.1-1.7,2-3.1,2.6c-1.4,0.6-3.2,1-5,0.9c-0.2,0-0.3,0-0.5,0c-0.3,0.1-0.6,0.1-1,0.1c-0.2,0-0.4,0-0.5,0l0.5,2.3
			c8.9-1.6,15.6-9.4,15.6-18.7C45.1,16.8,38.6,9.1,29.9,7.3z"/>
		<path class="st1" d="M35.3,29.7c0,0.2,0,0.3,0.1,0.5c0.2,0.7,0.7,1.2,1.1,1.6c-0.5-1-0.8-2.1-0.8-3.3
			C35.5,28.9,35.3,29.2,35.3,29.7z"/>
		<path class="st1" d="M36.9,18.7c0-0.1-0.1-0.2-0.2-0.1c-0.2,0.1-0.5,0.3-0.6,0.4c-0.3,0.3-0.1,1-0.1,1c0.1,0.2,0.2,0.4,0.3,0.5
			c0.1,0.1,0.6,1.1,0.4,1.6c0,0.1,0,0.3,0,0.4c0,0.1,0,0.1,0.1,0.2c0.1,0.1,0.2,0.2,0.2,0.3c0.1,0.1,0.1,0.1,0.2,0.2
			c0.1,0,0.1,0,0.2-0.1c0,0,0,0,0-0.1c-0.1-0.2-0.2-0.3-0.3-0.6c0-0.1,0-0.2,0-0.3c0-0.2,0-0.4,0-0.6c-0.1-0.3-0.1-0.6-0.3-1
			c-0.1-0.2-0.2-0.5-0.2-0.7c-0.1-0.3,0-0.7,0.1-0.9C36.6,18.9,36.7,18.8,36.9,18.7z"/>
		<path class="st1" d="M25,34.3c0.2,0.5,0.4,0.9,0.6,1.1c0,0,0,0,0,0.1c0.5,0.7-0.4,0.4,0,1.4c0.1,0.2,0.1,0.3,0.1,0.4
			c0.1,0.1,0.3,0.1,0.3,0.2c0,0.1-0.1,0-0.3,0c0,0.1,0,0.1-0.1,0.2c0.1,0,0.2,0.1,0.4,0.1c0.3,0.1,0.4,0.3,0.1,0.2
			c-0.1,0-0.4-0.1-0.6-0.2c-0.2,0.3-0.4,0.6-0.3,1c0.1,0,0.2,0.1,0.3,0.1c0.1,0.1,0.4,0.3,0,0.2c-0.1,0-0.1,0-0.2,0c0,0,0,0,0,0
			c0.5,0.9,2.7,1.9,4.3,2c0.3,0,0.6,0,0.8,0c0.5,0,1,0,1.6,0c1.2-0.1,3-0.4,4.7-1.2c0.6-0.3,1.1-0.6,1.4-0.9
			c0.1-0.1,0.2-0.2,0.2-0.3c0.1-0.2,0.6-1.2,0.6-1.5c0-0.3,0-1-0.1-1.2c0,0,0-0.1-0.1-0.1c0,0,0,0-0.1,0c-0.1,0-0.2,0-0.2-0.2
			c-0.4-1.7-1.8-2.9-2.4-3.3c-0.1-0.1-0.2-0.1-0.3-0.1c0,0,0,0.1,0,0.2c0.2,0.5,0.4,0.7,0.6,0.9c0.2,0.3,0.6,0.8,0.6,1.4
			c0.1,0.8,0.4,1.2,0.4,1.3c0.1,0.1,0.1,0.2,0,0.3c-0.1,0.1-0.2,0.1-0.3,0c-0.4-0.4-0.6-0.9-0.7-1.4c-0.1-0.5-0.2-0.8-0.6-1.2
			c-0.6-0.6-0.9-1.3-1.1-1.8c-0.1-0.3-0.1-0.5-0.1-0.7c0-0.2,0-0.5-0.1-0.8c-0.2-1-0.1-2.1,0.5-2.9c0.5-0.8,0.5-1.8,0.1-3
			c-0.2-0.4-0.4-0.9-0.6-1.1c0.2,0.3,0.3,0.6,0.5,0.9c0.4,0.5-0.5,1-0.9,0.5c-0.3-0.4-0.4-1-0.8-1.4c-0.5-0.4-1.7-0.2-2.3-0.2
			c-0.6,0-0.6-0.7-0.2-0.9c0.1,0,0.1-0.1,0.2-0.1c0.2,0,0.4,0,0.6,0c0,0,0,0,0,0c-0.2,0-0.4,0-0.6,0c-0.1,0-0.2,0-0.2,0.1
			c-0.2-0.1-1.1-0.3-1.4-0.8c-0.2-0.5-0.6-0.8-0.6-1c0-0.1-0.1-0.2-0.2-0.3c-0.3-0.3-0.6-0.7-0.9-1c-0.3-0.1-0.7-0.3-1-0.5
			c-0.3-0.3-0.9-0.3-1.2-0.2c-0.3,0.1-0.9-0.3-1.1-0.3c-0.2,0.1-0.4,0.1-0.3,0.2c0,0,0.1,0.1,0.1,0.2c0.6,0.4,1.3,0.7,2.2,0.8
			c0.8,0.1,1.2,0.6,1.5,1.3c0.4,0.6,0.8,1.3,1.3,1.6c0.5,0.3,1.1,0.7,1.5,1.5c0.1,0.2,0.3,0.3,0.5,0.3l0.1,0c0,0,0.3,0.1,0.3,0.1
			c0,0,0.1,0,0.1,0c0.1,0,0.2,0,0.4,0.2c1.5,0.6,1.7,2.1,1.8,2.7c0,0.2-0.1,0.3-0.2,0.3s-0.2,0-0.2-0.2c-0.2-1.2-0.9-1.9-2-2.2
			c-0.1,0-0.2,0-0.3,0.1c0,0-0.1,0.1-0.1,0.2c0.1,0.9-0.4,1.8-1.3,2.3c-0.8,0.5-1.3,1.2-1.3,1.8c-0.1,0.8,0.3,1.7,1.1,2.6
			c0.2,0.2,0.3,0.3,0.6,0.4l0.3,0.2c0.6,0.3,0.8,0.9,1.1,1.6l0.2,0.4c0.2,0.4,0.3,0.5,0.8,0.8l0.1,0.1c0.7,0.5,1.3,0.9,1.4,1.7
			c0,0.1,0,0.2-0.1,0.3c-0.1,0-0.2,0-0.2-0.2c-0.2-0.6-1-1.1-1.5-1.4c-0.3-0.2-0.7-0.4-0.9-0.8l0-0.1c-0.2-0.4-0.5-1.1-0.9-1.5
			c0-0.1-0.1-0.1-0.1-0.1c-0.1,0-0.1,0.1-0.2,0.2l-0.1,0.3l-0.3,0.6c-0.2,0.5-0.3,1.5,0,2.1l0.1,0.1c0.2,0.4,0.5,0.9,0.7,1.4
			c0.1,0.2,0,0.3-0.1,0.3c-0.1,0-0.2,0-0.3-0.2c-0.1-0.3-0.4-0.9-0.8-1.4c-0.6-0.8-0.6-2-0.1-3.1c0.2-0.3,0.1-0.7-0.1-1l0-0.1
			c-0.2-0.3-0.5-0.7-0.9-1.3c-0.7-1.3-1.1-3.1,1-4.5c0.6-0.4,0.8-1,0.8-1.6c0-0.7-0.6-1.3-1.4-1.9C27.9,22.8,27.4,22,27,21
			c0-0.1,0-0.1-0.1-0.1c0,0-0.1,0.1-0.1,0.1c0.1,0.9-0.3,1.7-0.9,2.2c-0.5,0.4-1.2,1.2-1.4,2.1c-0.1,0.5-0.2,0.9-0.1,1.3
			c0.1,0.5,0.4,1.1,0.8,1.7c0.4,0.5,0.6,1.1,0.6,1.6c0,0.3-0.1,0.3-0.1,0.3c0,0-0.2,0-0.2-0.2c-0.1-0.4-0.4-0.8-0.8-1.3
			c-0.4-0.5-0.8-1.2-1-1.9c0-0.1,0-0.1-0.1-0.2c0,0-0.1-0.1-0.1-0.1c0,0-0.1,0-0.1,0c-0.2,0-0.8,0.2-1.1,0.4c0,0-0.3,0.6,0.4,2.1
			c0.5,1.2,1.6,2.7,2,3.3c0.5,0.2,0.9,0.4,1.4,0.6c0.1,0.1,0.2,0.2,0.1,0.3c-0.1,0.1-0.2,0.1-0.3,0.1c-0.4-0.2-0.9-0.4-1.3-0.5
			c0.1,0.3,0.3,0.9,0.6,1.4C24.9,34.2,24.9,34.3,25,34.3z M32.5,40.1c0.5,0.2,2.9-0.6,3.4-0.7c0.5-0.1,0.3,0.3-0.2,0.6
			c-0.4,0.3-3.1,0.6-3.7,0.6C31.5,40.5,32.2,40,32.5,40.1z"/>
		<path class="st1" d="M21.5,11.2c0.2-0.1,0.3-0.3,0.4-0.4c0-0.1,1.3-1.5,1.4-1.6c0,0,1-1.7,1.1-1.9c0-0.2,0-0.3,0-0.4
			c-1.2,0.1-2.4,0.3-3.6,0.7c-0.1,0.6-0.2,1.7-0.2,2.3c0,0,0,0,0,0c-0.1,0.6-0.4,2-0.6,2.7C20.6,12.2,21.3,11.4,21.5,11.2z"/>
		<path class="st1" d="M30.9,22.5c-0.4,0.2-0.3,1,0.2,0.9c0.6,0,1.8-0.2,2.3,0.2c0.4,0.3,0.5,0.9,0.8,1.4c0.4,0.5,1.3,0,0.9-0.5
			c-0.2-0.3-0.3-0.6-0.5-0.9c0,0,0,0,0,0c-0.1-0.1-0.1-0.2-0.2-0.3c0,0-0.1-0.1-0.1-0.1c-0.1-0.1-0.2-0.3-0.4-0.4
			c-0.1-0.1-0.2-0.1-0.2-0.1c0,0,0,0,0,0c0,0-0.1,0-0.1,0c0,0,0,0,0,0c0,0,0,0,0,0c-0.4-0.1-0.8-0.2-1.2-0.2c-0.2,0-0.4,0-0.6,0
			c0,0,0,0,0,0h0c-0.2,0-0.4,0-0.6,0C31,22.4,31,22.4,30.9,22.5z"/>
		<path class="st1" d="M33,17.1c-1.8-0.8-3.6-1.4-5.5-1.5c-0.6,0-0.7,0.9-0.1,1c0,0,0,0,0,0c0,0,0,0,0,0c0.1,0,0.1,0,0.1,0
			c1.5,0.1,3,0.5,4.3,1.1c0,0,0.1,0,0.1,0.1c0,0,0,0,0,0c0.2,0.1,0.5,0.2,0.7,0.3C33.3,18.4,33.5,17.4,33,17.1z"/>
		<path class="st0" d="M20.1,21.5c0-0.1,0.1-0.3,0.1-0.3c0-0.1,0.1-0.3,0.1-0.4c0-0.1,0-0.2,0-0.3v0c0-0.2,0-0.4,0-0.6l0-0.7
			c0-0.1,0-0.1,0-0.1c0-0.3,0.1-0.5,0.3-0.7c0.2-0.1,0.4-0.3,0.7-0.5c-0.1,0-0.2,0-0.4,0.1c-0.3,0.1-0.7,0.1-1,0.2
			c0,0-0.1,0.1-0.1,0.1c-0.3,0.3-0.6,0.4-0.8,0.5c-0.4,0.1-0.8,0.3-1.1,0.5c-0.2,0.1-0.4,0.3-0.6,0.4c-0.8,0.5-1.5,1.3-1.9,2.3
			c0.9-1.3,2.3-2.3,3.8-2.8c0.2-0.1,0.4,0,0.5,0.1c0.1,0.1,0.2,0.3,0.2,0.5c0,0.4,0.1,0.7,0.1,0.9c0,0.2,0,0.4-0.1,0.6
			c-0.1,0.2-0.2,0.5-0.3,0.7l-0.1,0.3c-0.1,0.3-0.2,0.6-0.2,1c0,0.1,0,0.2,0,0.2l0,0.2c0,0.3,0.1,0.7,0.1,1.2c0,0.6-0.1,1.3-0.5,1.9
			c0,0,0,0,0,0c0,0,0,0,0,0c0.2-0.2,0.4-0.5,0.5-0.8c0-0.1,0.1-0.2,0.1-0.3c0.1-0.4,0.1-0.8,0.1-1.2c0-0.3,0-0.5,0-0.8
			c0-0.1,0-0.1,0-0.2c0-0.1,0-0.3,0-0.4c0-0.3,0.1-0.6,0.5-1.2C20.1,21.7,20.1,21.6,20.1,21.5z"/>
		<g>
			<path class="st2" d="M26.1,3.4C13.6,3.4,3.5,13.5,3.5,25.9S13.6,48.5,26,48.5s22.5-10.1,22.5-22.5C48.6,13.5,38.5,3.4,26.1,3.4z
				 M36.5,19.9c0,0.2,0.1,0.4,0.2,0.7c0.2,0.4,0.2,0.7,0.3,1c0,0.2,0,0.4,0,0.6c0,0.1,0,0.2,0,0.3c0,0.2,0.2,0.4,0.3,0.6
				c0,0,0,0,0,0.1c-0.1,0-0.1,0-0.2,0.1C37.1,23.1,37,23,36.9,23c-0.1-0.1-0.2-0.2-0.2-0.3c0-0.1-0.1-0.1-0.1-0.2c0-0.1,0-0.3,0-0.4
				c0.2-0.4-0.3-1.4-0.4-1.6c-0.1-0.1-0.2-0.3-0.3-0.5c0-0.1-0.2-0.7,0.1-1c0.1-0.1,0.4-0.4,0.6-0.4c0.2-0.1,0.2,0,0.2,0.1
				c-0.1,0.1-0.2,0.2-0.3,0.3C36.4,19.3,36.4,19.6,36.5,19.9z M15.2,37.5C15.2,37.5,15.2,37.5,15.2,37.5c0-0.3,0.1-0.7,0.2-1.1
				c0.1-0.5,0.4-0.5,0.5-0.4c0.1,0.1,0.1,0.1,0.2,0.2h0l0.1,0.1l0.1,0.1c0.3,0.4,0.7,0.7,0.9,0.7c0.4-0.1,0.4,5.1,0.4,5.2
				c0,0.2,0,0.4,0,0.7c-1-0.5-2-1.1-2.9-1.8l0-0.2l0.2-0.8l0,0l0.2-0.8V38c0,0,0-0.1,0.1-0.3C15.2,37.6,15.3,37.5,15.2,37.5z
				 M17.1,19.6c0.2-0.2,0.4-0.3,0.6-0.4c0.3-0.2,0.7-0.4,1.1-0.5c0.3-0.1,0.6-0.2,0.8-0.5c0,0,0.1-0.1,0.1-0.1
				c0.3-0.1,0.7-0.1,1-0.2c0.1,0,0.2,0,0.4-0.1c-0.3,0.1-0.5,0.3-0.7,0.5c-0.2,0.2-0.3,0.4-0.3,0.7c0,0.1,0,0.1,0,0.1l0,0.7
				c0,0.2,0,0.4,0,0.6v0c0,0.1,0,0.2,0,0.3c0,0.1,0,0.3-0.1,0.4c0,0.1,0,0.2-0.1,0.3c0,0.1-0.1,0.2-0.1,0.3
				c-0.4,0.6-0.5,0.9-0.5,1.2c0,0.1,0,0.3,0,0.4c0,0.1,0,0.1,0,0.2c0,0.3,0,0.6,0,0.8c0,0.4,0,0.8-0.1,1.2c0,0.1-0.1,0.2-0.1,0.3
				c-0.1,0.3-0.3,0.6-0.5,0.8c0,0,0,0,0,0c0,0,0,0,0,0c0.4-0.6,0.5-1.3,0.5-1.9c0-0.4,0-0.8-0.1-1.2l0-0.2c0-0.1,0-0.2,0-0.2
				c0-0.3,0.1-0.7,0.2-1l0.1-0.3c0.1-0.2,0.2-0.5,0.3-0.7c0.1-0.2,0.1-0.4,0.1-0.6c0-0.3,0-0.6-0.1-0.9c0-0.2-0.1-0.4-0.2-0.5
				c-0.1-0.1-0.2-0.1-0.5-0.1c-1.5,0.5-2.9,1.5-3.8,2.8C15.6,20.9,16.4,20.2,17.1,19.6z M15.2,15.1c0.1-0.1,0.1-0.2,0.1-0.2
				c0.1-0.2,0.2-0.4,0.2-0.7c0.1-0.3,0.3-0.5,0.5-0.5c0.2,0,0.3,0.2,0.4,0.5c0.2,1.1,0.2,2.3,0.2,3.5c0,0.7,0,1.4,0.1,2.1
				c-0.3,0.2-0.7,0.6-1,0.9l-0.3-3L15.2,15.1z M21,26.8c-0.1-0.1-0.1-0.1-0.2-0.1c-0.1,0,0-0.2-0.1-0.3c0,0,0,0,0,0
				c-0.2-0.8-0.2-3.2,0.1-4c0.3-0.7,0.5-1.5,0.6-2.2c0.3-0.1,0.2-0.2,0-0.3c0-0.3,0-0.6,0-0.8c-0.1-0.3-0.1-0.5,0-0.6
				c0.3-0.1,0.8-0.1,1.2,0.5c0.1,0.2,0.5,0.3,0.6,0.4c0,0,0.1,0.1,0.2,0.2c0.1,0.1,0.3,0.2,0.4,0.3c0,0,0.1,0.1,0.1,0.1
				c0,0.1,0.1,0.1,0.2,0.1c0.3,0.2,0.6,0.3,0.9,0.4c0.4,0.2,0.6,0.3,0.5,0.8l0,0.1c-0.1,0.4-0.1,0.9-0.5,1.3
				c-0.8,0.7-1.3,1.5-1.6,2.4c-0.1,0.3-0.3,0.6-0.7,0.6C21.9,25.7,21.3,26.2,21,26.8z M19.6,23.6c0,0.1,0,0.2,0,0.3
				C19.6,23.9,19.6,23.8,19.6,23.6z M17.2,31.9c-0.2-0.3-0.4-0.7-0.7-1.2c-0.1-0.2-0.5-0.7-0.5-0.8c0-0.2-0.3-0.7-0.4-0.8
				c-0.1-0.1-0.2-0.5-0.3-0.6c0-0.1,0.3,0.1,0.4,0.2v0c0.1,0.1,0.4,0.7,0.4,0.6c0.2,0.4,0.5,0.7,0.7,1l0,0c0.2,0.3,0.4,1.1,1.2,1.4
				c0.1,0,0.9,0.6,1.1,0.7c0.1,0.1,0.5,0.6,0.8,0.8c0.1,0.1,0.2,0.2,0.3,0.2c0.4,0.5,0.6,0.7,0.9,0.8c0.1,0,0.1,0.2,0.1,0.3
				c0,0,0,0,0,0c0,0-0.1,0.1-0.2,0.1c-0.6-0.1-1-0.5-1.2-0.8c-0.4-0.5-0.9-1-1.4-1.3c-0.2-0.1-0.3-0.1-0.4-0.1
				c-0.1,0.1-0.1,0.2-0.1,0.3c0.1,0.4,0.3,1.5,0.6,2.3c0,0.1,0,0.2,0,0.2c0,0-0.1,0-0.1-0.1c-0.3-0.5-0.6-1.3-0.7-2
				C17.5,32.6,17.4,32.4,17.2,31.9z M23.3,41.4L23.3,41.4c0.2,0.9,0.5,2.3,0.7,3.4c-2.1-0.2-4.2-0.8-6-1.7c0-1.8-0.1-4-0.2-5.6
				c0,0-0.1-0.1-0.1-0.1C19.1,39.2,21,40.6,23.3,41.4z M38.3,38.8c0,0.1-0.1,0.2-0.2,0.3c-0.4,0.3-0.9,0.6-1.4,0.9
				c-1.7,0.8-3.5,1.1-4.7,1.2c-0.6,0-1.1,0-1.6,0c-0.1,0-0.4,0-0.8,0c-1.5-0.1-3.7-1.1-4.3-2c0,0,0,0,0,0c0.1,0,0.2,0,0.2,0
				c0.3,0,0.1-0.2,0-0.2c0,0-0.2-0.1-0.3-0.1c-0.1-0.4,0.1-0.7,0.3-1c0.2,0.1,0.5,0.1,0.6,0.2c0.3,0.1,0.2-0.1-0.1-0.2
				c-0.2-0.1-0.3-0.1-0.4-0.1c0-0.1,0.1-0.1,0.1-0.2c0.2,0,0.4,0.1,0.3,0c0-0.1-0.1-0.1-0.3-0.2c0-0.1,0-0.3-0.1-0.4
				c-0.3-1,0.5-0.7,0-1.4c0,0,0,0,0-0.1c-0.2-0.3-0.4-0.7-0.6-1.1c0,0,0-0.1-0.1-0.1c-0.2-0.5-0.4-1.1-0.6-1.4
				c0.4,0.1,0.9,0.3,1.3,0.5c0.1,0.1,0.2,0,0.3-0.1c0-0.1,0-0.2-0.1-0.3c-0.4-0.2-0.9-0.5-1.4-0.6c-0.4-0.6-1.4-2.2-2-3.3
				c-0.7-1.4-0.4-2.1-0.4-2.1c0.3-0.2,0.9-0.4,1.1-0.4c0.1,0,0.1,0,0.1,0c0,0,0.1,0.1,0.1,0.1c0,0,0.1,0.1,0.1,0.2
				c0.2,0.7,0.6,1.4,1,1.9c0.4,0.5,0.6,0.9,0.8,1.3c0.1,0.2,0.2,0.2,0.2,0.2c0,0,0.2-0.1,0.1-0.3c0-0.5-0.3-1.1-0.6-1.6
				c-0.4-0.5-0.7-1.2-0.8-1.7c-0.1-0.5,0-0.9,0.1-1.3c0.2-0.9,0.9-1.7,1.4-2.1c0.7-0.5,1-1.3,0.9-2.2c0-0.1,0-0.1,0.1-0.1
				c0.1,0,0.1,0,0.1,0.1c0.5,1,1,1.8,1.7,2.2c0.8,0.5,1.4,1.2,1.4,1.9c0,0.6-0.2,1.2-0.8,1.6c-2.1,1.4-1.7,3.2-1,4.5
				c0.4,0.7,0.6,1,0.9,1.3l0,0.1c0.2,0.3,0.3,0.7,0.1,1c-0.6,1.1-0.5,2.3,0.1,3.1c0.4,0.5,0.7,1,0.8,1.4c0.1,0.2,0.2,0.3,0.3,0.2
				c0.1,0,0.1-0.1,0.1-0.3c-0.1-0.5-0.4-1-0.7-1.4l-0.1-0.1c-0.3-0.6-0.2-1.6,0-2.1l0.3-0.6l0.1-0.3c0-0.1,0.1-0.2,0.2-0.2
				c0,0,0.1,0,0.1,0.1c0.4,0.4,0.7,1.1,0.9,1.5l0,0.1c0.2,0.5,0.6,0.7,0.9,0.8c0.6,0.3,1.3,0.7,1.5,1.4c0.1,0.2,0.2,0.2,0.2,0.2
				c0.1,0,0.2-0.1,0.1-0.3c-0.2-0.8-0.7-1.2-1.4-1.7l-0.1-0.1c-0.4-0.3-0.6-0.4-0.8-0.8l-0.2-0.4c-0.3-0.7-0.5-1.3-1.1-1.6l-0.3-0.2
				c-0.2-0.1-0.4-0.2-0.6-0.4c-0.7-0.9-1.1-1.8-1.1-2.6c0.1-0.7,0.5-1.3,1.3-1.8c0.9-0.6,1.4-1.4,1.3-2.3c0-0.1,0-0.1,0.1-0.2
				c0.1-0.1,0.2-0.1,0.3-0.1c1.1,0.3,1.8,1,2,2.2c0,0.2,0.1,0.2,0.2,0.2S34,27.1,34,27c-0.1-0.6-0.2-2.1-1.8-2.7
				c-0.2-0.1-0.3-0.2-0.4-0.2c0,0-0.1,0-0.1,0c0,0-0.3-0.1-0.3-0.1l-0.1,0c-0.2,0-0.4-0.1-0.5-0.3c-0.4-0.7-1-1.2-1.5-1.5
				c-0.5-0.3-0.9-0.9-1.3-1.6c-0.4-0.6-0.7-1.2-1.5-1.3c-0.9-0.1-1.6-0.3-2.2-0.8c-0.1-0.1-0.1-0.1-0.1-0.2c0-0.2,0.1-0.1,0.3-0.2
				c0.2-0.1,0.9,0.3,1.1,0.3c0.3-0.1,0.8-0.1,1.2,0.2c0.2,0.2,0.7,0.4,1,0.5c0.4,0.3,0.7,0.7,0.9,1c0.1,0.1,0.2,0.3,0.2,0.3
				c0,0.2,0.4,0.5,0.6,1c0.2,0.5,1.1,0.8,1.4,0.8c0.1,0,0.1-0.1,0.2-0.1c0.2,0,0.4,0,0.6,0c0,0,0,0,0,0h0c0.2,0,0.4,0,0.6,0
				c0,0,0,0,0,0c0.4,0,0.8,0.1,1.2,0.2c0,0,0,0,0,0c0,0,0.1,0,0.1,0c0,0,0,0,0,0c0.1,0,0.2,0.1,0.2,0.1c0.2,0.1,0.3,0.2,0.4,0.4
				c0,0,0.1,0.1,0.1,0.1c0.1,0.1,0.1,0.2,0.2,0.3c0,0,0,0,0,0c0.2,0.2,0.4,0.7,0.6,1.1c0.4,1.2,0.4,2.2-0.1,3
				c-0.6,0.9-0.8,1.9-0.5,2.9c0.1,0.3,0.1,0.5,0.1,0.8c0,0.2,0,0.4,0.1,0.7c0.1,0.6,0.5,1.2,1.1,1.8c0.4,0.4,0.5,0.7,0.6,1.2
				c0.1,0.4,0.3,1,0.7,1.4c0.1,0.1,0.2,0.1,0.3,0c0.1-0.1,0.1-0.2,0-0.3c0,0-0.3-0.5-0.4-1.3c-0.1-0.7-0.4-1.2-0.6-1.4
				c-0.2-0.2-0.4-0.5-0.6-0.9c0-0.1,0-0.2,0-0.2c0,0,0.2,0,0.3,0.1c0.6,0.4,1.9,1.6,2.4,3.3c0.1,0.2,0.2,0.2,0.2,0.2c0,0,0,0,0.1,0
				c0,0.1,0,0.1,0.1,0.1c0.1,0.2,0.1,0.9,0.1,1.2C38.9,37.6,38.4,38.6,38.3,38.8z M26.5,17c0.1,0,0.2,0,0.3,0c0,0.1,0,0.1-0.1,0.1
				C26.6,17.1,26.5,17,26.5,17z M32.4,21.1c-1-0.1-1.8,0.1-2.4-0.7l-0.2-0.3c-0.3-0.4-0.7-1-1.3-1.6c-0.3-0.3-0.6-0.7-0.7-0.8
				c-0.1-0.2,0.1-0.2,0.2-0.1c0.1,0.1,0.4,0.4,0.5,0.3c0.1,0-0.1-0.1-0.2-0.3c-0.2-0.2,0.1,0,0.2-0.2c0,0,0,0,0,0
				c0.9,0.1,1.7,0.5,2.6,1c1.1,0.7,2,1.7,2.6,2.8C33.2,21.2,32.8,21.1,32.4,21.1L32.4,21.1z M35.4,30.2c0-0.2-0.1-0.3-0.1-0.5
				c0-0.4,0.1-0.8,0.3-1.2c0,1.2,0.3,2.3,0.8,3.3C36.1,31.4,35.5,30.9,35.4,30.2z M36.5,18c-0.1-0.1-0.4-0.1-0.5-0.1
				c-0.1,0-0.6,0.1-0.8,0.1c-0.2,0-0.4,0.2-0.4,0.4c0.1,0.2,0,0.6,0,0.8c0,0.2,0.2,0.5,0.3,0.6c0.1,0.1,0.2,0.4,0.1,0.5
				c-0.1,0-0.1,0-0.2,0.1c-0.9-1-1.9-1.9-3.2-2.5c0,0,0,0,0,0c0,0,0,0,0,0c0,0-0.1,0-0.1-0.1c-1.3-0.7-2.8-1.1-4.3-1.1
				c-0.1,0-0.1,0-0.1,0c0,0,0,0,0,0c0,0,0,0,0,0c0,0,0,0,0,0c-0.1,0-0.2,0-0.3,0c-0.1-0.1-0.2-0.2-0.3-0.3c-0.1-0.1-0.2,0-0.1,0.1
				c0,0,0.1,0.1,0.1,0.2c-0.2,0-0.3,0-0.5,0c-0.1,0-0.4,0.1-0.6,0.2c0,0,0,0-0.1,0.1c0,0,0,0,0,0c0,0-0.1,0-0.1,0
				c-0.2-0.1-0.4-0.1-0.5-0.1c0,0-0.2,0-0.3,0c-0.1,0-0.1-0.1-0.2-0.1c-0.1,0-0.1-0.1-0.1-0.2c3.3-1.6,8.1-1.7,12.1,1.5
				C36.6,18,36.6,18,36.5,18z M29,14.9c-0.6,0-2.2,0.2-2.7,0.3c0-0.2,0.1-1.2,0.3-1.3c0.2,0,1.5-0.2,1.7-0.2c0.4,0,0.6-0.1,0.9-0.1
				C29.1,14.1,29.1,14.6,29,14.9z M25.9,13.5c-1.6,0.6-3,1.9-4.4,2.9c-0.2,0.2-0.2,0.3-0.1,0.4c-0.4,0.1-1.5,1-2.2,1.6
				c-0.7,0.2-1.2-1-0.3-2.7c0-0.1,0.7-1.3,0.8-1.3c0.5-1.1,1.4-2,2.2-2.7c1.7-1.5,2.4-2.7,3.1-4.3C25,7.2,25,7.2,25,7.2
				c0,0,0.3,0.3,0.3,0.4c0,0,0.2,0.5,0.1,0.6c-0.1,0.1-0.2,0-0.3-0.1C25,8,25,8.2,25.1,8.3c0.1,0.1,0.4,0.3,0.5,0.4
				c0.1,0.1,0.1,0.3,0,0.3c-0.1,0-0.5-0.3-0.6-0.4c-0.2-0.2-0.3,0.1-0.2,0.2c0.1,0.1,0.6,0.5,0.7,0.6c0.2,0.1,0.1,0.2,0.1,0.4
				c-0.6,0.7-1.1,1.5-1.3,2.4c0,0.1,0,0.1,0,0.2c0,0.1,0.1,0.2,0.1,0.2c0.1,0.1,0.3,0.1,0.4,0c0.3-0.2,0.8-0.3,1.1-0.2
				c0.2,0.1,0.4,0,0.6-0.1h0c0.3-0.2,0.8-0.1,1.5,0.1c0.1,0,0.2,0,0.2,0c0,0,0.1,0,0.1,0h0c0.1,0,0.2,0,0.2,0.1c0.1,0,0.2,0,0.3,0
				c0.2,0,0.3,0,0.5,0l0.6,0.2c0.1,0,0.2,0.1,0.3,0.2C28.8,12.9,27.2,13.1,25.9,13.5z M20.1,12.8c0.2-0.8,0.5-2.1,0.6-2.7
				c0,0,0,0,0,0c0.1-0.6,0.2-1.7,0.2-2.3C22,7.4,23.2,7.1,24.5,7c0,0.1,0,0.2,0,0.4c-0.1,0.1-1.1,1.8-1.1,1.9
				c-0.1,0.1-1.4,1.5-1.4,1.6c-0.1,0.1-0.3,0.3-0.4,0.4C21.3,11.4,20.6,12.2,20.1,12.8z M29.3,12.1c-0.2,0-0.3,0-0.5,0
				c-0.3,0-0.6,0-0.8-0.1c-0.7-0.2-1.3-0.2-1.7,0l0,0c0-0.5,0.1-1,0-1.4c0,0,0,0,0,0c0-0.2,0-0.4,0-0.6c0,0,0,0,0,0
				c0-0.2,0-0.3,0-0.5c0-0.2-0.1-0.5-0.1-0.7c-0.1-0.8-0.4-1.4-0.6-1.8c0,0-0.1-0.1-0.1-0.1c0.2,0,0.4,0,0.6,0
				c1.2,0,2.3,0.1,3.4,0.3c0.1,0.3,0.1,0.7,0.1,1C29.5,9.5,29.5,10.8,29.3,12.1z M18.2,8.7c0,0.2,0,0.3-0.1,0.5
				c-0.2,0.6-0.3,1.2-0.3,2.1c0,0.8,0,2.1,0,3.2c0,1.1-0.2,3-0.1,4.6c-0.2,0.1-0.4,0.2-0.6,0.4c-0.1-1.6,0.1-3.6-0.3-5.4
				c-0.2-0.9-1.1-0.9-1.3-0.1c-0.1,0.3-0.2,0.4-0.2,0.7c-0.1,0.3-0.3,0.5-0.7,0.6c-0.5,0.1-1,0.2-1.4,0.4c-0.1,0-0.2,0.1-0.2,0.2
				c-0.1,0.1-0.1,0.2-0.1,0.4c0.1,0.7,0.2,2.3,0.3,4.5c-0.2,0.1-0.5,0.2-0.7,0.4c-0.4,0.5-0.6,1.1-0.3,2c0.4,1.3,0.3,1.9,0,2.7
				c-0.6,1.6-0.3,3.8,1,5.4c0,0,0.1,0.1,0.1,0.1c0.1,0.1,0.2,0.2,0.3,0.2c0.1,3.4,0.2,6.7,0.3,9C9.7,37,7.1,31.8,7.1,25.9
				C7.1,18.3,11.6,11.6,18.2,8.7z M14.5,29.1c0.1,0.8,0,1.5-0.4,2.1c-0.1,0.2-0.3,0.3-0.4,0.3c-0.1,0-0.3-0.1-0.4-0.2
				c-0.1-0.2-0.5-0.7-0.3-0.8c0.1-0.1,0-0.2-0.2-0.4c-0.2-0.1-0.3-0.5-0.2-0.4c0.1,0.1,0.5,0.4,0.7,0.5c0.2,0.1,0.3,0,0-0.1
				c-0.2-0.1-0.6-0.6-0.8-0.7c-0.1-0.1-0.2-0.4-0.1-0.3s0.6,0.4,0.7,0.6c0.1,0.1,0.2,0,0.1-0.1c-0.1-0.1-0.5-0.5-0.8-0.7
				c-0.4-0.4-0.3-1-0.1-0.9c0.1,0,1.1,0.8,1.2,0.9c0.1,0.1,0.2,0,0.1-0.2c-0.2-0.2-1-0.9-1.1-1c-0.3-0.3-0.2-0.7-0.2-0.7
				c0-0.1,0.1-0.2,0.2-0.1c0.1,0.1,0.8,0.8,0.9,0.9c0.1,0.1,0.2,0,0.1-0.1c-0.1-0.1-0.6-0.6-0.8-0.7c-0.2-0.2,0-0.3,0.2-0.2
				c0.2,0.1,0.7,0.7,0.8,0.7c0.2,0.1,0.1-0.1,0.1-0.1c-0.1-0.1-1-0.9-1.1-1c-0.1-0.1-0.2-0.1-0.1-0.3c0.1-0.2,0.1-0.3,0.4-0.2
				c0.1,0.1,0.3,0.2,0.4,0.3c0.1,0.1,0.2,0,0.1-0.1c-0.1-0.1-0.5-0.4-0.6-0.5c-0.1-0.1-0.1-0.3,0.1-0.2c0.2,0.1,0.7,0.6,0.7,0.6
				c0.1,0.1,0.3,0,0.1-0.1c-0.2-0.1-1-0.9-1-1c-0.1-0.2-0.1-1.1,0-1c0.1,0.1,0.4,0.3,0.6,0.5c0.2,0.2,0.1-0.1,0-0.2
				c-0.1-0.1-0.7-0.6-1-1.1c0-0.1-0.1-0.2-0.1-0.2c-0.3-0.8,0-1.5,0.7-1.8c0.3-0.1,0.5-0.1,0.7,0c0.2,0.1,0.3,0.2,0.3,0.3
				c0,0.1-0.1,0.1-0.3,0.1c-0.4,0-0.7,0.2-0.8,0.5c-0.1,0.3-0.1,0.6,0,0.8c0.1,0.2,0.3,0.4,0.5,0.7l0.4,0.6c0.6,0.9,0.7,2.3,0.6,3.2
				C14.5,27.6,14.4,28.2,14.5,29.1z M25.6,44.3c0-0.2,0.3-0.6,0.9-0.6c0.3,0,0.5-0.1,0.5-0.3c0-0.1-0.1-0.5,0.1-0.5
				c0.5,0,0.3-0.4,0.3-0.6c0.2,0,0.5,0,0.7,0c0.1,0,0.3,0,0.5,0c0,0.2,0.3,1.3,0.5,2.3c-1,0.2-2,0.3-3,0.3c-0.1,0-0.3,0-0.4,0
				C25.6,44.6,25.6,44.4,25.6,44.3z M29,42.4c0.2,0,0.3,0,0.5,0c0.3,0,0.6,0,1-0.1c0.2,0,0.3,0,0.5,0c1.9,0,3.6-0.3,5-0.9
				c1.4-0.6,2.5-1.5,3.1-2.6c0.5-0.8,0.6-1.7,0.5-2.6c-0.1-0.6-0.3-1.1-0.7-1.6l0-0.1c-1-1.6-2-3.2-2.3-5c-0.1-0.7,0-1.5,0.1-2.3
				c0.1-0.6,0.1-1.3,0-1.9c-0.1-0.7-0.3-1.3-0.6-1.9c0.1,0.1,0.1,0.1,0.1,0.2c0.2,0.2,0.5,0.5,0.8,0.6c0.3,0.1,0.8,0,1-0.2
				c0.2-0.2,0.2-0.3,0-0.5c-0.1-0.1-0.2-0.3-0.3-0.5c-0.2-0.2-0.3-0.4-0.2-0.7c0.1-0.4-0.1-1-0.3-1.7c-0.4-1.1-0.2-1.7,0.4-1.8
				c0.2-0.1,0.3-0.3,0.1-0.5C35,15.9,32.1,15,29.4,15c0.1-0.4,0.2-1,0.2-1.6c0.1,0,0.2,0,0.3,0c0.3,0,0.8,0,1.1,0
				c0.2,0,0.4-0.1,0.4-0.2c-0.1-0.1-0.3-0.6-0.6-0.7c-0.2,0-0.7-0.3-1.1-0.5c0.1-1.3,0.2-2.7,0.2-3.9c0-0.3,0-0.6-0.1-0.9
				c8.6,1.8,15.1,9.5,15.1,18.6c0,9.3-6.8,17.1-15.6,18.7L29,42.4z"/>
			<path class="st2" d="M35.9,39.4c-0.5,0.1-2.9,0.9-3.4,0.7c-0.3-0.2-1.1,0.4-0.5,0.4c0.6,0,3.3-0.3,3.7-0.6
				C36.2,39.7,36.3,39.3,35.9,39.4z"/>
		</g>
	</g>
</g>
</svg>
