<?xml version="1.0" encoding="utf-8"?>
<!-- Generator: Adobe Illustrator 23.0.3, SVG Export Plug-In . SVG Version: 6.00 Build 0)  -->
<svg version="1.1" id="Layer_1" xmlns="http://www.w3.org/2000/svg" xmlns:xlink="http://www.w3.org/1999/xlink" x="0px" y="0px"
	 viewBox="0 0 158.61 51.83" style="enable-background:new 0 0 158.61 51.83;" xml:space="preserve">
<style type="text/css">
	.st0{fill:#FFFFFF;}
	.st1{fill:#00386B;}
	.st2{clip-path:url(#SVGID_2_);}
</style>
<path class="st0" d="M50.83,26.05c0,13.72-11.12,24.84-24.84,24.84c-13.72,0-24.84-11.12-24.84-24.84
	C1.15,12.33,12.27,1.2,25.99,1.2C39.71,1.2,50.83,12.33,50.83,26.05z"/>
<g>
	<path class="st1" d="M60.53,12.1c-0.34,0-0.38,0-0.23-0.41l0.6-1.66C61.16,9.36,61.27,9,61.33,8.9h0.03
		c0.07,0.1,0.16,0.37,0.4,1.12l0.6,1.71c0.11,0.34,0.06,0.37-0.34,0.37H60.53z M62.19,12.74c0.4,0,0.44,0,0.58,0.38l0.67,1.93
		c0.18,0.61,0.14,0.7-0.37,0.75l-0.31,0.04c-0.08,0.09-0.07,0.34,0.04,0.41c0.5-0.01,1.12-0.04,1.73-0.04
		c0.74,0,1.26,0.01,1.85,0.04c0.1-0.07,0.1-0.31-0.01-0.41l-0.21-0.04c-0.73-0.13-0.8-0.23-1.12-1.18l-2.05-5.95
		c-0.23-0.64-0.41-1.31-0.64-1.95c-0.06-0.07-0.13-0.11-0.24-0.11c-0.03,0-0.5,0.58-0.99,0.68c0.04,0.24-0.09,0.58-0.27,1.04
		l-1.95,5.06c-0.3,0.77-0.53,1.37-0.7,1.73c-0.21,0.47-0.37,0.6-0.78,0.65l-0.43,0.07c-0.1,0.13-0.08,0.34,0.01,0.41
		c0.5-0.03,0.94-0.04,1.41-0.04c0.58,0.01,1.05,0.01,1.51,0.04c0.11-0.06,0.13-0.31,0.03-0.41l-0.41-0.07
		c-0.53-0.07-0.58-0.11-0.3-0.95l0.58-1.71c0.13-0.38,0.11-0.38,0.48-0.38H62.19z"/>
	<path class="st1" d="M79.41,15.85c0.14,0.06,0.13,0.35-0.03,0.41c-0.61-0.03-1.17-0.04-1.73-0.04c-0.67,0-1.28,0.01-1.9,0.04
		c-0.11-0.06-0.17-0.33-0.03-0.41l0.38-0.07c0.57-0.08,0.61-0.2,0.61-1.16v-4.49V8.81h-0.03c-0.38,0.78-0.58,1.21-0.85,1.78
		l-1.22,2.5c-0.48,1-1.19,2.57-1.45,3.24c-0.06,0.06-0.27,0.06-0.37,0c-0.24-0.77-0.85-2.16-1.18-2.87l-1.26-2.73
		c-0.27-0.6-0.65-1.49-0.82-1.92H69.5c-0.03,0.7-0.06,1.8-0.08,2.4c-0.03,0.87-0.06,2.13-0.06,3.3c0,0.94,0.01,1.16,0.63,1.26
		l0.47,0.09c0.1,0.09,0.1,0.35-0.01,0.41c-0.53-0.03-0.97-0.04-1.49-0.04c-0.46,0-0.97,0.01-1.52,0.04
		c-0.13-0.07-0.13-0.34-0.04-0.41l0.24-0.03c0.68-0.09,0.8-0.3,0.88-1.16c0.11-0.9,0.14-1.82,0.21-3.3
		c0.06-0.96,0.14-2.15,0.14-3.01c0-0.67-0.21-0.97-0.77-1.05l-0.48-0.09c-0.09-0.1-0.07-0.37,0.06-0.41
		c0.43,0.03,0.81,0.04,1.33,0.04c0.5,0,1,0,1.52-0.04c0.06,0.85,0.43,1.59,0.78,2.36l1.56,3.28c0.11,0.24,0.48,0.95,0.67,1.28
		c0.23-0.41,0.43-0.81,0.74-1.48l1.34-2.73c0.45-0.94,0.91-1.78,1.15-2.71c0.38,0.03,0.85,0.04,1.16,0.04c0.6,0,1.09-0.01,1.49-0.04
		c0.16,0.06,0.19,0.33,0.04,0.41l-0.47,0.07c-0.63,0.09-0.77,0.33-0.77,1.08c0,2.1,0.03,4.21,0.13,6.31
		c0.04,0.95,0.2,1.05,0.65,1.11L79.41,15.85z"/>
	<path class="st1" d="M82.46,8.89c0-1.51-0.13-1.55-0.8-1.65l-0.23-0.03c-0.1-0.1-0.09-0.36,0.03-0.41
		c0.54,0.03,1.21,0.04,1.83,0.04h2.71c0.91,0,1.73-0.01,1.92-0.04c0.05,0.24,0.14,1.36,0.23,1.97c-0.06,0.11-0.34,0.14-0.46,0.06
		c-0.23-0.82-0.44-1.18-0.89-1.29c-0.33-0.1-0.75-0.13-1.14-0.13h-0.95c-0.61,0-0.61,0.03-0.61,0.84v2.4c0,0.37,0.02,0.38,0.34,0.38
		h0.68c1.24,0,1.48-0.01,1.58-0.63l0.1-0.48c0.11-0.1,0.38-0.1,0.46,0.01c-0.02,0.39-0.04,0.9-0.04,1.42c0,0.54,0.03,1.04,0.04,1.49
		c-0.07,0.1-0.34,0.1-0.46,0.02l-0.1-0.57c-0.1-0.6-0.34-0.63-1.58-0.63h-0.68c-0.33,0-0.34,0.03-0.34,0.38v1.8
		c0,0.72,0.03,1.24,0.24,1.48c0.17,0.2,0.41,0.31,1.61,0.31c1.8,0.03,2.12-0.38,2.62-1.53c0.13-0.1,0.37-0.06,0.45,0.09
		c-0.08,0.6-0.4,1.68-0.6,2.06c-0.63-0.03-1.85-0.04-3.51-0.04h-1.62c-0.63,0-1.49,0.01-2.13,0.04c-0.12-0.06-0.13-0.31-0.03-0.41
		l0.53-0.06c0.67-0.07,0.8-0.11,0.8-1.62V8.89z"/>
	<path class="st1" d="M93.05,8.07c0-0.65,0.01-0.7,0.75-0.7c1.24,0,1.96,0.98,1.96,2.1c0,1.35-0.64,2.03-2.03,2.03
		c-0.68,0-0.68-0.03-0.68-0.48V8.07z M91.4,14.18c0,1.51-0.13,1.55-0.79,1.63l-0.31,0.04c-0.13,0.1-0.09,0.35,0.03,0.41
		c0.65-0.03,1.29-0.04,1.92-0.04c0.63,0,1.27,0.01,1.89,0.04c0.12-0.06,0.13-0.31,0.03-0.41l-0.31-0.04
		c-0.67-0.08-0.79-0.13-0.79-1.63v-1.82c0-0.3,0.01-0.31,0.44-0.31c0.47,0,0.63,0.06,0.88,0.48c0.34,0.55,0.74,1.34,1.12,1.93
		c0.87,1.32,1.61,1.88,2.97,1.88c0.5,0,0.77-0.04,0.94-0.08c0.04-0.07,0.04-0.23-0.03-0.29c-0.17-0.01-0.58-0.1-0.98-0.44
		c-0.67-0.55-1.38-1.76-2.51-3.68c-0.06-0.09-0.09-0.2,0-0.24c0.7-0.28,1.71-0.94,1.71-2.24c0-1.02-0.53-1.69-1.25-2.07
		c-0.63-0.34-1.59-0.48-2.7-0.48c-1.17,0-2.37,0.04-3.27,0.13c-0.11,0.07-0.11,0.3-0.01,0.4l0.37,0.04
		c0.67,0.07,0.68,0.24,0.68,1.61V14.18z"/>
	<path class="st1" d="M103.08,14.18c0,1.51,0.13,1.55,0.79,1.63l0.31,0.04c0.1,0.1,0.09,0.35-0.03,0.41
		c-0.63-0.03-1.26-0.04-1.89-0.04s-1.29,0.01-1.92,0.04c-0.12-0.06-0.13-0.31-0.03-0.41l0.31-0.04c0.67-0.08,0.79-0.13,0.79-1.63
		V8.89c0-1.51-0.13-1.55-0.79-1.63l-0.31-0.04c-0.1-0.1-0.09-0.36,0.03-0.41c0.63,0.03,1.26,0.04,1.92,0.04
		c0.63,0,1.26-0.01,1.89-0.04c0.12,0.06,0.13,0.31,0.03,0.41l-0.31,0.04c-0.67,0.08-0.79,0.13-0.79,1.63V14.18z"/>
	<path class="st1" d="M114.85,9.23c-0.1,0.11-0.36,0.13-0.45,0.03c-0.24-0.89-0.88-2.07-2.76-2.07c-1.8,0-3.62,1.28-3.62,4.19
		c0,3.03,1.89,4.5,3.72,4.5c1.79,0,2.57-1.19,2.97-2.12c0.13-0.13,0.36-0.07,0.43,0.06c-0.1,0.95-0.48,1.89-0.68,2.16
		c-0.17,0.03-0.34,0.09-0.5,0.13c-0.31,0.1-1.29,0.34-2.21,0.34c-1.41,0-2.62-0.28-3.64-0.95c-1.15-0.75-2.02-2.05-2.02-3.91
		c0-1.66,0.74-2.96,1.79-3.77c1.05-0.8,2.49-1.21,3.92-1.21c0.81,0,1.79,0.14,2.46,0.31c0.17,0.04,0.27,0.06,0.4,0.09
		C114.68,7.34,114.71,8.18,114.85,9.23z"/>
	<path class="st1" d="M119.24,12.1c-0.34,0-0.38,0-0.23-0.41l0.6-1.66c0.26-0.67,0.37-1.02,0.43-1.12h0.03
		c0.07,0.1,0.15,0.37,0.4,1.12l0.6,1.71c0.11,0.34,0.06,0.37-0.34,0.37H119.24z M120.9,12.74c0.4,0,0.44,0,0.58,0.38l0.67,1.93
		c0.19,0.61,0.14,0.7-0.37,0.75l-0.31,0.04c-0.09,0.09-0.07,0.34,0.04,0.41c0.5-0.01,1.12-0.04,1.73-0.04
		c0.74,0,1.27,0.01,1.85,0.04c0.1-0.07,0.1-0.31-0.01-0.41l-0.21-0.04c-0.72-0.13-0.79-0.23-1.12-1.18l-2.05-5.95
		c-0.23-0.64-0.41-1.31-0.64-1.95c-0.06-0.07-0.13-0.11-0.24-0.11c-0.03,0-0.5,0.58-0.99,0.68c0.04,0.24-0.09,0.58-0.27,1.04
		l-1.95,5.06c-0.3,0.77-0.53,1.37-0.7,1.73c-0.21,0.47-0.37,0.6-0.78,0.65l-0.43,0.07c-0.1,0.13-0.08,0.34,0.01,0.41
		c0.5-0.03,0.94-0.04,1.41-0.04c0.58,0.01,1.05,0.01,1.51,0.04c0.11-0.06,0.13-0.31,0.03-0.41l-0.41-0.07
		c-0.53-0.07-0.58-0.11-0.3-0.95l0.58-1.71c0.13-0.38,0.11-0.38,0.48-0.38H120.9z"/>
	<path class="st1" d="M135.18,13.81c0,0.43,0,2.17,0.04,2.5c-0.11,0.16-0.31,0.21-0.48,0.2c-0.23-0.3-0.64-0.78-1.66-1.95
		l-3.32-3.79c-0.92-1.04-1.38-1.58-1.62-1.79c-0.04,0-0.04,0.16-0.04,0.91v2.77c0,1.07,0.01,2.37,0.26,2.8
		c0.13,0.21,0.37,0.3,0.72,0.35l0.31,0.04c0.13,0.1,0.11,0.37-0.03,0.41c-0.53-0.03-1.08-0.04-1.62-0.04c-0.6,0-0.98,0.01-1.48,0.04
		c-0.11-0.07-0.14-0.31-0.03-0.41l0.31-0.07c0.27-0.04,0.53-0.1,0.63-0.33c0.19-0.44,0.19-1.68,0.19-2.8V9.29
		c0-1.11,0.01-1.34-0.47-1.75c-0.16-0.13-0.55-0.24-0.75-0.28l-0.21-0.04c-0.1-0.08-0.09-0.37,0.06-0.41
		c0.54,0.06,1.32,0.04,1.68,0.04c0.3,0,0.64-0.01,0.98-0.04c0.24,0.61,1.79,2.4,2.29,2.94l1.42,1.53c0.6,0.65,1.92,2.16,2.06,2.25
		c0.04-0.04,0.04-0.11,0.04-0.34v-2.77c0-1.07-0.01-2.37-0.27-2.8c-0.13-0.21-0.36-0.3-0.71-0.36l-0.33-0.04
		c-0.13-0.1-0.12-0.37,0.03-0.41c0.55,0.03,1.08,0.04,1.63,0.04c0.61,0,0.98-0.01,1.49-0.04c0.12,0.07,0.14,0.31,0.03,0.41
		l-0.33,0.07c-0.27,0.04-0.51,0.1-0.61,0.33c-0.2,0.44-0.2,1.68-0.2,2.8V13.81z"/>
	<path class="st1" d="M66.07,23.8c-0.1,0.11-0.36,0.13-0.45,0.03c-0.24-0.89-0.88-2.07-2.76-2.07c-1.8,0-3.62,1.28-3.62,4.19
		c0,3.03,1.89,4.5,3.72,4.5c1.79,0,2.57-1.19,2.97-2.12c0.13-0.13,0.36-0.07,0.43,0.06c-0.1,0.95-0.48,1.89-0.68,2.16
		c-0.17,0.03-0.34,0.09-0.5,0.13c-0.31,0.1-1.29,0.34-2.22,0.34c-1.41,0-2.62-0.28-3.64-0.95c-1.15-0.75-2.02-2.05-2.02-3.91
		c0-1.66,0.74-2.95,1.79-3.76c1.05-0.8,2.49-1.21,3.92-1.21c0.81,0,1.79,0.14,2.46,0.31c0.17,0.04,0.27,0.06,0.4,0.09
		C65.9,21.91,65.93,22.75,66.07,23.8z"/>
	<path class="st1" d="M72.65,21.76c2.26,0,3.23,2.49,3.23,4.63c0,2.86-1.31,4.07-2.93,4.07c-2.43,0-3.27-2.67-3.27-4.63
		C69.68,22.79,71.23,21.76,72.65,21.76z M72.83,21.19c-2.98,0-5.09,2.15-5.09,5.04c0,2.53,1.85,4.79,5.06,4.79c2.87,0,5-2.09,5-4.89
		C77.81,23.55,76.12,21.19,72.83,21.19z"/>
	<path class="st1" d="M82.33,28.45c0,0.71,0.03,1.22,0.24,1.46c0.17,0.2,0.4,0.31,1.53,0.31c1.58,0,1.8-0.07,2.46-1.54
		c0.14-0.07,0.37-0.03,0.44,0.09c-0.11,0.6-0.43,1.68-0.6,2.06c-0.6-0.03-1.82-0.04-3.41-0.04h-1.48c-0.72,0-1.44,0.01-2.03,0.04
		c-0.11-0.06-0.16-0.34-0.03-0.41l0.43-0.07c0.67-0.08,0.8-0.13,0.8-1.61v-5.29c0-1.48-0.13-1.52-0.8-1.62l-0.4-0.06
		c-0.1-0.07-0.1-0.35,0.03-0.41c0.71,0.03,1.35,0.04,2,0.04c0.63,0,1.27-0.01,1.89-0.04c0.13,0.06,0.14,0.34,0.03,0.41l-0.31,0.06
		c-0.67,0.1-0.79,0.14-0.79,1.62V28.45z"/>
	<path class="st1" d="M90.87,28.45c0,0.71,0.03,1.22,0.24,1.46c0.17,0.2,0.4,0.31,1.53,0.31c1.58,0,1.81-0.07,2.46-1.54
		c0.14-0.07,0.37-0.03,0.44,0.09c-0.12,0.6-0.43,1.68-0.6,2.06c-0.6-0.03-1.82-0.04-3.41-0.04h-1.48c-0.73,0-1.44,0.01-2.03,0.04
		c-0.11-0.06-0.16-0.34-0.03-0.41l0.43-0.07c0.67-0.08,0.8-0.13,0.8-1.61v-5.29c0-1.48-0.13-1.52-0.8-1.62l-0.4-0.06
		c-0.1-0.07-0.1-0.35,0.03-0.41c0.71,0.03,1.35,0.04,2,0.04c0.63,0,1.26-0.01,1.89-0.04c0.13,0.06,0.14,0.34,0.03,0.41l-0.31,0.06
		c-0.67,0.1-0.8,0.14-0.8,1.62V28.45z"/>
	<path class="st1" d="M97.76,23.46c0-1.51-0.13-1.55-0.8-1.65l-0.23-0.03c-0.1-0.1-0.09-0.35,0.03-0.41
		c0.54,0.03,1.21,0.04,1.83,0.04h2.71c0.91,0,1.73-0.01,1.92-0.04c0.06,0.24,0.14,1.36,0.23,1.97c-0.06,0.11-0.34,0.14-0.46,0.06
		c-0.23-0.83-0.44-1.18-0.89-1.29c-0.33-0.1-0.75-0.13-1.14-0.13h-0.95c-0.61,0-0.61,0.03-0.61,0.84v2.4c0,0.37,0.01,0.38,0.34,0.38
		h0.68c1.24,0,1.48-0.01,1.58-0.63l0.1-0.48c0.11-0.1,0.38-0.1,0.45,0.01c-0.01,0.38-0.04,0.9-0.04,1.42c0,0.54,0.03,1.04,0.04,1.49
		c-0.07,0.1-0.34,0.1-0.45,0.02l-0.1-0.57c-0.1-0.6-0.34-0.63-1.58-0.63h-0.68c-0.33,0-0.34,0.03-0.34,0.38v1.8
		c0,0.72,0.03,1.24,0.24,1.48c0.17,0.2,0.41,0.31,1.61,0.31c1.8,0.03,2.12-0.38,2.62-1.54c0.13-0.1,0.37-0.06,0.46,0.09
		c-0.09,0.6-0.4,1.68-0.6,2.06c-0.63-0.03-1.85-0.04-3.51-0.04H98.6c-0.63,0-1.49,0.01-2.13,0.04c-0.12-0.06-0.13-0.31-0.03-0.41
		l0.53-0.06c0.67-0.07,0.8-0.11,0.8-1.62V23.46z"/>
	<path class="st1" d="M114.22,29.31c0,0.5,0.07,0.87,0.34,1c0.04,0.06,0.04,0.17-0.02,0.21c-0.16,0-0.41,0.04-0.68,0.12
		c-0.88,0.2-1.95,0.38-2.76,0.38c-1.71,0-3.31-0.45-4.38-1.56c-0.84-0.87-1.25-2.06-1.25-3.25c0-1.19,0.41-2.42,1.31-3.34
		c1.01-1.07,2.56-1.68,4.53-1.68c0.67,0,1.39,0.11,1.89,0.21c0.33,0.07,0.74,0.13,0.91,0.13c0.01,0.43,0.11,1.15,0.19,2.26
		c-0.07,0.14-0.38,0.16-0.46,0.03c-0.31-1.38-1.32-2.06-2.73-2.06c-2.5,0-3.71,1.8-3.71,4.22c0,1.14,0.25,2.36,1.02,3.27
		c0.77,0.91,1.9,1.21,2.74,1.21c0.68,0,1.09-0.11,1.26-0.33c0.09-0.13,0.13-0.38,0.13-0.89v-0.51c0-1.01-0.01-1.09-0.96-1.25
		l-0.51-0.09c-0.1-0.1-0.1-0.34,0.01-0.41c0.55,0.03,1.24,0.04,2.21,0.04c0.64,0,1.12-0.01,1.73-0.04c0.14,0.07,0.16,0.31,0.03,0.41
		l-0.26,0.04c-0.53,0.07-0.61,0.2-0.61,1.07V29.31z"/>
	<path class="st1" d="M117.72,23.46c0-1.51-0.13-1.55-0.79-1.65l-0.23-0.03c-0.1-0.1-0.09-0.35,0.03-0.41
		c0.54,0.03,1.21,0.04,1.83,0.04h2.71c0.91,0,1.73-0.01,1.92-0.04c0.05,0.24,0.14,1.36,0.23,1.97c-0.06,0.11-0.34,0.14-0.46,0.06
		c-0.23-0.83-0.44-1.18-0.89-1.29c-0.33-0.1-0.75-0.13-1.14-0.13h-0.95c-0.61,0-0.61,0.03-0.61,0.84v2.4c0,0.37,0.01,0.38,0.34,0.38
		h0.68c1.24,0,1.48-0.01,1.58-0.63l0.1-0.48c0.11-0.1,0.38-0.1,0.45,0.01c-0.01,0.38-0.04,0.9-0.04,1.42c0,0.54,0.03,1.04,0.04,1.49
		c-0.07,0.1-0.34,0.1-0.45,0.02l-0.1-0.57c-0.1-0.6-0.34-0.63-1.58-0.63h-0.68c-0.33,0-0.34,0.03-0.34,0.38v1.8
		c0,0.72,0.03,1.24,0.24,1.48c0.17,0.2,0.41,0.31,1.61,0.31c1.8,0.03,2.12-0.38,2.62-1.54c0.13-0.1,0.37-0.06,0.46,0.09
		c-0.09,0.6-0.4,1.68-0.6,2.06c-0.63-0.03-1.85-0.04-3.51-0.04h-1.62c-0.63,0-1.49,0.01-2.13,0.04c-0.11-0.06-0.13-0.31-0.03-0.41
		l0.53-0.06c0.67-0.07,0.79-0.11,0.79-1.62V23.46z"/>
	<path class="st1" d="M130.56,30.48c-0.33,0-0.51-0.31-0.51-0.74c0-1.05,0.74-2.74,1.41-3.61c0.37-0.47,0.67-0.63,0.92-0.63
		c0.4,0,0.46,0.38,0.46,0.77c0,0.92-0.68,2.63-1.19,3.37C131.22,30.25,130.9,30.48,130.56,30.48z M128.75,29.13
		c-0.03,1.04,0.57,1.86,1.76,1.86c0.63,0,1.42-0.17,2.24-0.98c0.95-0.91,1.39-2.2,1.39-3.08c0.03-1.07-0.48-1.93-1.75-1.93
		c-0.64,0-1.35,0.18-2.16,0.95C129.36,26.74,128.77,28.09,128.75,29.13z"/>
	<path class="st1" d="M138.56,25.82c-0.48,1.42-1.13,4.01-1.58,5.4c-0.36,1.11-0.74,1.96-1.09,2.42c-0.3,0.38-1.05,0.98-1.93,0.98
		c-0.68,0-1.19-0.46-1.19-0.95c0-0.38,0.26-0.67,0.54-0.67c0.2,0,0.33,0.1,0.44,0.28c0.27,0.42,0.58,0.71,0.82,0.71
		c0.21,0,0.41-0.23,0.7-1.21c0.48-1.7,1.16-4.46,1.88-6.96h-1.26c-0.14-0.2-0.03-0.54,0.17-0.63h1.26c0.33-1.09,0.64-2.07,1.22-2.91
		c0.71-1.04,1.61-1.65,2.71-1.65c0.88,0,1.42,0.51,1.42,1.09c0,0.6-0.45,0.97-0.77,0.97c-0.2,0-0.29-0.08-0.31-0.29
		c-0.11-0.97-0.53-1.26-0.81-1.26c-0.31,0-0.65,0.35-0.95,0.95c-0.47,0.94-0.78,2.02-1.1,3.1h1.69c0.12,0.17,0.06,0.51-0.17,0.63
		H138.56z"/>
	<path class="st1" d="M65.96,38.36c-0.1,0.11-0.36,0.13-0.45,0.03c-0.24-0.89-0.88-2.07-2.76-2.07c-1.8,0-3.62,1.28-3.62,4.19
		c0,3.03,1.89,4.5,3.72,4.5c1.79,0,2.57-1.19,2.97-2.12c0.13-0.13,0.35-0.07,0.43,0.06c-0.1,0.95-0.48,1.89-0.68,2.16
		c-0.17,0.03-0.34,0.08-0.5,0.13c-0.31,0.1-1.29,0.34-2.22,0.34c-1.41,0-2.61-0.28-3.64-0.95c-1.15-0.75-2.02-2.04-2.02-3.91
		c0-1.66,0.74-2.96,1.79-3.77c1.05-0.79,2.49-1.21,3.92-1.21c0.81,0,1.79,0.14,2.46,0.31c0.17,0.04,0.27,0.06,0.4,0.08
		C65.79,36.47,65.82,37.31,65.96,38.36z"/>
	<path class="st1" d="M70.35,41.23c-0.34,0-0.38,0-0.23-0.41l0.6-1.66c0.26-0.67,0.37-1.02,0.43-1.12h0.03
		c0.07,0.1,0.16,0.37,0.4,1.12l0.6,1.7c0.11,0.34,0.06,0.37-0.34,0.37H70.35z M72.02,41.87c0.4,0,0.44,0,0.58,0.38l0.67,1.93
		c0.19,0.61,0.14,0.7-0.37,0.75l-0.31,0.04c-0.08,0.09-0.07,0.34,0.04,0.41c0.5-0.01,1.12-0.04,1.73-0.04
		c0.74,0,1.26,0.02,1.85,0.04c0.1-0.07,0.1-0.31-0.01-0.41l-0.21-0.04c-0.72-0.13-0.8-0.23-1.12-1.18l-2.05-5.95
		c-0.23-0.64-0.41-1.31-0.64-1.95c-0.06-0.07-0.13-0.11-0.24-0.11c-0.03,0-0.5,0.58-0.99,0.68c0.04,0.24-0.08,0.58-0.27,1.04
		l-1.95,5.06c-0.3,0.77-0.53,1.36-0.7,1.73c-0.21,0.47-0.37,0.6-0.78,0.65l-0.43,0.07c-0.1,0.13-0.08,0.34,0.01,0.41
		c0.5-0.03,0.94-0.04,1.41-0.04c0.58,0.02,1.05,0.02,1.51,0.04c0.11-0.06,0.13-0.31,0.03-0.41l-0.41-0.07
		c-0.53-0.07-0.58-0.11-0.3-0.95l0.58-1.71c0.13-0.38,0.11-0.38,0.48-0.38H72.02z"/>
	<path class="st1" d="M80.13,37.19c0-0.65,0.01-0.7,0.75-0.7c1.24,0,1.96,0.98,1.96,2.1c0,1.35-0.64,2.03-2.03,2.03
		c-0.68,0-0.68-0.03-0.68-0.48V37.19z M78.48,43.3c0,1.51-0.13,1.55-0.8,1.63l-0.31,0.04c-0.13,0.1-0.09,0.35,0.03,0.41
		c0.65-0.03,1.29-0.04,1.92-0.04c0.63,0,1.27,0.02,1.89,0.04c0.11-0.06,0.13-0.31,0.03-0.41l-0.31-0.04
		c-0.67-0.09-0.8-0.13-0.8-1.63v-1.82c0-0.3,0.01-0.31,0.44-0.31c0.47,0,0.62,0.06,0.88,0.48c0.34,0.55,0.74,1.33,1.12,1.93
		c0.87,1.32,1.61,1.88,2.97,1.88c0.5,0,0.77-0.04,0.94-0.09c0.04-0.07,0.04-0.23-0.03-0.28c-0.17-0.01-0.58-0.1-0.98-0.44
		c-0.67-0.55-1.38-1.76-2.51-3.68c-0.06-0.08-0.09-0.2,0-0.24c0.7-0.29,1.7-0.94,1.7-2.25c0-1.02-0.53-1.69-1.25-2.07
		c-0.63-0.34-1.59-0.48-2.7-0.48c-1.17,0-2.37,0.04-3.27,0.13c-0.11,0.07-0.11,0.3-0.01,0.4l0.37,0.04
		c0.67,0.07,0.68,0.24,0.68,1.61V43.3z"/>
	<path class="st1" d="M90.16,37.75c0-0.67,0.01-0.97,0.11-1.05c0.1-0.08,0.55-0.2,1.15-0.2c2.37,0,4.01,1.36,4.01,4.18
		c0,2.4-1.14,4.19-3.67,4.19c-1.51,0-1.61-0.74-1.61-2.12V37.75z M88.51,43.3c0,1.51-0.13,1.55-0.8,1.63l-0.31,0.04
		c-0.1,0.1-0.08,0.35,0.03,0.41c0.63-0.03,1.27-0.04,1.8-0.04c0.53,0,1.19,0.08,2.06,0.08c1.29,0,2.52-0.17,3.53-0.68
		c1.76-0.9,2.54-2.52,2.54-4.09c0-2.12-1.21-3.62-2.91-4.25c-1.04-0.37-2-0.48-3.35-0.48c-1.39,0-2.53,0.04-3.55,0.13
		c-0.11,0.07-0.11,0.33-0.01,0.4l0.3,0.03c0.67,0.08,0.68,0.25,0.68,1.62V43.3z"/>
	<path class="st1" d="M102.01,43.3c0,1.51,0.13,1.55,0.79,1.63l0.31,0.04c0.1,0.1,0.09,0.35-0.03,0.41
		c-0.63-0.03-1.27-0.04-1.89-0.04c-0.63,0-1.29,0.02-1.92,0.04c-0.11-0.06-0.13-0.31-0.03-0.41l0.31-0.04
		c0.67-0.09,0.8-0.13,0.8-1.63v-5.29c0-1.51-0.13-1.55-0.8-1.63l-0.31-0.04c-0.1-0.1-0.09-0.36,0.03-0.41
		c0.63,0.03,1.27,0.04,1.92,0.04c0.62,0,1.26-0.01,1.89-0.04c0.11,0.06,0.13,0.31,0.03,0.41l-0.31,0.04
		c-0.67,0.09-0.79,0.13-0.79,1.63V43.3z"/>
	<path class="st1" d="M109.91,36.31c2.26,0,3.22,2.49,3.22,4.63c0,2.86-1.31,4.06-2.93,4.06c-2.43,0-3.27-2.67-3.27-4.63
		C106.94,37.35,108.49,36.31,109.91,36.31z M110.1,35.75c-2.98,0-5.09,2.14-5.09,5.04c0,2.53,1.85,4.79,5.06,4.79
		c2.87,0,5-2.09,5-4.89C115.07,38.1,113.38,35.75,110.1,35.75z"/>
	<path class="st1" d="M119.71,43.01c0,0.71,0.03,1.22,0.24,1.46c0.17,0.2,0.4,0.31,1.54,0.31c1.58,0,1.8-0.07,2.46-1.53
		c0.14-0.07,0.37-0.03,0.44,0.09c-0.11,0.6-0.43,1.67-0.6,2.06c-0.6-0.03-1.82-0.04-3.41-0.04h-1.48c-0.72,0-1.43,0.02-2.03,0.04
		c-0.11-0.06-0.16-0.34-0.03-0.41l0.43-0.07c0.67-0.08,0.79-0.13,0.79-1.6v-5.29c0-1.48-0.13-1.52-0.79-1.62l-0.4-0.06
		c-0.1-0.07-0.1-0.36,0.03-0.41c0.71,0.03,1.35,0.04,2,0.04c0.63,0,1.27-0.01,1.89-0.04c0.13,0.06,0.14,0.34,0.03,0.41l-0.31,0.06
		c-0.67,0.1-0.8,0.14-0.8,1.62V43.01z"/>
	<path class="st1" d="M130.29,36.31c2.26,0,3.23,2.49,3.23,4.63c0,2.86-1.31,4.06-2.93,4.06c-2.43,0-3.27-2.67-3.27-4.63
		C127.32,37.35,128.87,36.31,130.29,36.31z M130.47,35.75c-2.98,0-5.09,2.14-5.09,5.04c0,2.53,1.85,4.79,5.06,4.79
		c2.87,0,5-2.09,5-4.89C135.45,38.1,133.76,35.75,130.47,35.75z"/>
	<path class="st1" d="M146.09,43.87c0,0.5,0.07,0.87,0.34,1c0.04,0.06,0.04,0.17-0.02,0.21c-0.15,0-0.41,0.04-0.68,0.11
		c-0.88,0.2-1.95,0.38-2.76,0.38c-1.7,0-3.31-0.45-4.38-1.56c-0.84-0.87-1.25-2.06-1.25-3.25c0-1.19,0.41-2.42,1.31-3.34
		c1.01-1.07,2.56-1.67,4.53-1.67c0.67,0,1.39,0.11,1.89,0.21c0.33,0.07,0.74,0.13,0.91,0.13c0.02,0.43,0.12,1.15,0.19,2.26
		c-0.07,0.14-0.38,0.16-0.46,0.03c-0.31-1.38-1.32-2.06-2.73-2.06c-2.5,0-3.71,1.8-3.71,4.22c0,1.14,0.26,2.36,1.02,3.27
		c0.77,0.91,1.9,1.21,2.74,1.21c0.68,0,1.09-0.11,1.26-0.33c0.09-0.13,0.13-0.38,0.13-0.9v-0.51c0-1.01-0.02-1.09-0.97-1.25
		l-0.51-0.09c-0.1-0.1-0.1-0.34,0.01-0.41c0.55,0.03,1.24,0.04,2.22,0.04c0.64,0,1.12-0.01,1.73-0.04c0.14,0.07,0.16,0.31,0.03,0.41
		l-0.26,0.04c-0.53,0.07-0.61,0.2-0.61,1.07V43.87z"/>
	<path class="st1" d="M151.16,42.47c0-0.79-0.06-1.01-0.45-1.76L149,37.34c-0.31-0.61-0.43-0.78-1.07-0.91l-0.37-0.09
		c-0.09-0.1-0.06-0.37,0.06-0.41c0.61,0.03,1.21,0.04,1.79,0.04c0.63,0,1.49-0.01,1.82-0.04c0.11,0.06,0.14,0.31,0.03,0.41
		l-0.43,0.07c-0.23,0.03-0.3,0.07-0.3,0.18c0,0.11,0.06,0.27,0.26,0.74c0.57,1.22,1.08,2.37,1.65,3.41
		c0.58-1.08,1.11-2.07,1.66-3.14c0.24-0.48,0.38-0.8,0.38-0.95c0-0.14-0.13-0.18-0.33-0.21l-0.43-0.1c-0.1-0.1-0.1-0.34,0.04-0.41
		c0.63,0.03,1.07,0.04,1.49,0.04c0.44,0,0.89-0.01,1.35-0.04c0.13,0.07,0.13,0.3,0.03,0.41l-0.41,0.09
		c-0.64,0.11-0.81,0.38-1.55,1.63c-0.48,0.81-0.91,1.59-1.35,2.39c-0.43,0.74-0.53,1.04-0.53,2v0.85c0,1.51,0.13,1.55,0.83,1.62
		l0.54,0.06c0.1,0.1,0.09,0.35-0.03,0.41c-0.88-0.03-1.52-0.04-2.14-0.04c-0.65,0-1.29,0.02-2.06,0.04
		c-0.11-0.06-0.13-0.31-0.03-0.41l0.46-0.06c0.67-0.07,0.79-0.11,0.79-1.62V42.47z"/>
</g>
<path class="st1" d="M49.98,26.05c0,13.25-10.74,23.99-23.99,23.99C12.74,50.04,2,39.29,2,26.05C2,12.79,12.74,2.05,25.99,2.05
	C39.24,2.05,49.98,12.79,49.98,26.05z"/>
<g>
	<path class="st0" d="M46.89,26.05c0,11.54-9.36,20.9-20.9,20.9c-11.54,0-20.9-9.36-20.9-20.9c0-11.55,9.36-20.91,20.9-20.91
		C37.53,5.14,46.89,14.5,46.89,26.05z"/>
	<path class="st1" d="M25.99,47.25c-11.7,0-21.21-9.51-21.21-21.21c0-11.7,9.52-21.21,21.21-21.21c11.7,0,21.21,9.52,21.21,21.21
		C47.2,37.74,37.69,47.25,25.99,47.25z M25.99,5.45c-11.36,0-20.6,9.24-20.6,20.6c0,11.35,9.24,20.59,20.6,20.59
		c11.36,0,20.6-9.24,20.6-20.59C46.59,14.69,37.35,5.45,25.99,5.45z"/>
</g>
<path class="st1" d="M25.99,45.28c-10.6,0-19.23-8.63-19.23-19.23S15.39,6.81,25.99,6.81c10.6,0,19.23,8.63,19.23,19.23
	S36.59,45.28,25.99,45.28z M25.99,7.43c-10.27,0-18.62,8.35-18.62,18.62s8.35,18.62,18.62,18.62c10.26,0,18.61-8.35,18.61-18.62
	S36.26,7.43,25.99,7.43z"/>
<g>
	<defs>
		<circle id="SVGID_1_" cx="25.99" cy="26.04" r="18.79"/>
	</defs>
	<clipPath id="SVGID_2_">
		<use xlink:href="#SVGID_1_"  style="overflow:visible;"/>
	</clipPath>
	<g class="st2">
		<path class="st0" d="M26.98,26.7c-0.29-0.07-2.28-0.89-2.31-0.92c-0.16-0.12-0.03-0.37,0.28-0.25c0.12,0.05,2.05,0.79,2.2,0.84
			C27.36,26.43,27.4,26.79,26.98,26.7z"/>
		<g>
			<path class="st1" d="M20.37,4.7c0.14,0.02,0.38-0.07,0.34-0.15c-0.04-0.08-0.08-0.05-0.24-0.05C20.26,4.5,20.22,4.67,20.37,4.7z"
				/>
			<path class="st1" d="M21.43,7.17c0.13,0.09,0.84,0.2,1.05,0.21c0.21,0.01,0.18-0.17,0.09-0.15c-0.09,0.02-1.21-0.25-1.36-0.25
				c-0.13,0-0.34-0.12-0.44-0.15c-0.1-0.03-0.3-0.13-0.23,0L20.5,6.9C20.59,7,21.3,7.08,21.43,7.17z"/>
			<path class="st1" d="M21.64,5.89c0,0-0.06-0.22-0.2-0.22c-0.14,0-0.24,0.09-0.3,0.1C20.91,5.82,21.64,5.89,21.64,5.89z"/>
			<path class="st1" d="M20.66,5.17c-0.17,0.13,0.33,0.03,0.27-0.02C20.87,5.09,20.74,5.11,20.66,5.17z"/>
			<path class="st1" d="M20.87,5.62c0.01-0.07-0.11-0.12-0.19-0.06l-0.02,0.05c-0.02,0.17,0.17,0.18,0.17,0.18
				S20.86,5.69,20.87,5.62z"/>
			<path class="st1" d="M35.68,39.29c0.16-0.09,0.23-0.27,0.06-0.22c-0.17,0.05-1.08,0.35-1.25,0.27c-0.13-0.06-0.4,0.15-0.18,0.16
				C34.53,39.51,35.52,39.38,35.68,39.29z"/>
			<path class="st1" d="M20.85,6.1c0.09,0.06,0.55,0.25,0.67,0.27c0.12,0.03,0.52-0.07,0.25-0.11c-0.26-0.05-0.59-0.22-0.73-0.24
				C20.9,6,20.77,6.05,20.85,6.1z"/>
			<path class="st1" d="M23.77,6.25c0.12,0.02,0.32-0.1,0.32-0.1s-0.24,0.07-0.26-0.04C23.81,5.94,23.65,6.23,23.77,6.25z"/>
			<path class="st1" d="M21.65,6.77c0.1,0.05,0.33,0.15,0.44,0.13c0.11-0.02,0.28-0.12,0.2-0.15c-0.07-0.03-0.35-0.01-0.52-0.09
				C21.56,6.55,21.55,6.71,21.65,6.77z"/>
			<path class="st1" d="M37.86,38.86c0.11-0.24-0.06,0.08-0.3,0.25c-3.11,2.15-7.13,1.93-7.36,1.87c-0.22-0.06-1.59-0.03-1.71-0.02
				c-0.13,0.01-0.19,0.13-0.27,0.15c-0.08,0.02-0.31,0.09-0.01,0.13c0.3,0.04,1.72-0.05,1.84-0.05c2.52,0.1,4.44-0.43,4.89-0.56
				C35.39,40.49,37.53,39.55,37.86,38.86z"/>
			<path class="st1" d="M24.17,18.76c-0.04-0.15,0.14-0.13,0.31-0.21c0.18-0.08,0.84,0.33,1.1,0.26c0.26-0.06,0.81-0.05,1.15,0.2
				c0.33,0.25,1.09,0.52,1.26,0.54c0.17,0.02,0.3,0.21,0.2,0.29c-0.1,0.08,0.56,0.79,0.6,0.98c0.03,0.19,0.37,0.53,0.6,1.01
				c0.24,0.49,1.23,0.78,1.38,0.82c0.15,0.04,0.24,0.25,0.39,0.22c0.16-0.03-0.02-0.19-0.03-0.25c-0.02-0.06,0.09-0.03,0.2,0.01
				c0.1,0.05,0.21,0.19,0.23,0.12c0.02-0.07,0.05-0.07,0.19-0.02c0.14,0.06,0.15,0.15,0.24,0.17c0.09,0.02,0.06-0.04-0.02-0.14
				c-0.08-0.1,0.03-0.2,0.13-0.14c0.11,0.06,0.34,0.36,0.48,0.35c0.14-0.01-0.02-0.17-0.05-0.3c-0.04-0.12,0.12-0.12,0.21,0
				c0.08,0.11,0.38,0.42,0.58,0.43c0.19,0.02-0.04-0.22-0.03-0.35c0.01-0.13,0.1-0.05,0.21,0.07c0.1,0.13,0.6,0.85,0.72,0.79
				c0.12-0.07,0.74,1.06,0.88,1.57c0.14,0.51,0.31,0.42,0.29,0.34c-0.73-2.68-1.59-2.85-1.86-3.04c-0.28-0.19-4.09-1.04-4.13-1.24
				c-0.04-0.21-0.79-1.08-0.79-1.08s-0.55-0.74-0.65-0.84c-0.1-0.1-1.4-0.96-1.75-1.13c-0.35-0.16-0.65-0.18-1.27-0.34
				c-0.62-0.16-0.64-0.19-0.95-0.27c-0.3-0.08-0.7,0.42-0.77,0.56c0.28,0.29,0.71,0.73,1.06,1.13c0.22,0.07,0.44,0.12,0.47,0.12
				C24.8,19.38,24.21,18.91,24.17,18.76z"/>
			<path class="st1" d="M28.97,37.45c-0.21-0.01-0.3-0.03-0.48-0.05c-0.18-0.03-0.27,0.14-0.13,0.2c0.14,0.06,0.39,0.1,0.54,0.07
				C29.07,37.64,29.19,37.47,28.97,37.45z"/>
			<path class="st1" d="M27.91,36.19c0.2-0.05,0.13-0.18,0.12-0.22c-0.01-0.05-0.53-0.14-0.63-0.18c-0.18-0.06-0.31,0.19-0.11,0.25
				C27.5,36.1,27.71,36.24,27.91,36.19z"/>
			<path class="st1" d="M28.24,36.81c-0.2-0.02-0.45-0.11-0.59-0.14c-0.19-0.03-0.29,0.18-0.14,0.22c0.16,0.04,0.55,0.15,0.63,0.13
				C28.21,37.01,28.36,36.82,28.24,36.81z"/>
			<path class="st1" d="M28.8,38.22c0.09,0.07,1.02,0.16,1.16,0.12c0.14-0.04,0.22-0.14,0.21-0.18c0-0.05-0.13-0.08-0.28-0.02
				c-0.15,0.06-0.77-0.02-0.86-0.04C28.86,38.06,28.71,38.16,28.8,38.22z"/>
			<path class="st1" d="M28.93,38.94c0.09,0.07,1.02,0.16,1.16,0.12c0.14-0.04,0.22-0.14,0.21-0.18c0-0.05-0.13-0.08-0.28-0.02
				c-0.15,0.06-0.77-0.02-0.86-0.05C28.99,38.77,28.83,38.88,28.93,38.94z"/>
			<path class="st1" d="M29.33,39.53c0.09,0.07,1.02,0.16,1.15,0.12c0.14-0.04,0.22-0.14,0.21-0.18c0-0.05-0.12-0.08-0.28-0.02
				c-0.15,0.06-0.77-0.02-0.87-0.04C29.39,39.37,29.24,39.47,29.33,39.53z"/>
		</g>
		<path class="st1" d="M37.29,18.39L37.29,18.39c-2.5-2.23-5.38-3.08-8.04-3.02c0.08-0.45,0.16-1,0.23-1.61
			c0.32,0.02,0.97,0.03,1.39,0.05c0.21,0.01,0.42-0.11,0.37-0.22c-0.05-0.11-0.27-0.6-0.59-0.67c-0.17-0.04-0.7-0.34-1.03-0.45
			c0.11-1.24,0.19-2.6,0.22-3.8c0.05-2.63-1.42-4.67-3.73-4.76c-0.4-0.02-0.58-0.27-0.49-0.76c0.15-0.8,0.49-1.81,0.74-2.62
			c0.13-0.42-0.11-0.82-0.51-0.75c-0.28,0.05-0.53,0.07-0.78,0.01c-0.24-0.05-0.54,0.13-0.54,0.13c-0.32,0.13-0.46,0.43-0.53,0.65
			c-0.07,0.22-0.59,1.51-0.67,1.71c-0.08,0.2-0.16,1.06-0.34,0.82c-0.12-0.17-0.22-0.2-0.28-0.26c-0.11-0.86-0.17-1.72-0.24-2.11
			c-0.1-0.55-0.63-0.66-0.97-0.24c-0.15,0.19-0.29,0.38-0.46,0.55c-0.19,0.19-0.41,0.23-0.67,0.18c-0.26-0.05-0.5,0.05-0.68,0.24
			c-0.19,0.21-0.54,0.28-0.78,0.13c-0.17-0.11-0.34-0.23-0.54-0.26c-0.2-0.03-0.32,0.08-0.3,0.25c0.09,0.87,0.23,1.78,0.3,2.53
			l0.08,1.48c0,0.65-0.01,1.3-0.05,1.73c-0.06,0.6-0.08,1.16-0.04,1.56c0.03,0.3-0.01,0.5-0.09,0.74c-0.19,0.63-0.29,1.21-0.27,2.02
			c0.02,0.82,0.01,2.05-0.03,3.17c-0.03,1.11-0.19,3.08-0.13,4.73c0.01,0,0.01-0.01,0.02-0.01c-0.25,0.15-0.49,0.31-0.71,0.48
			c0.02-0.02,0.04-0.03,0.06-0.05v-0.01c-0.15-1.66,0.05-3.7-0.28-5.57c-0.16-0.89-1.03-0.88-1.3-0.05
			c-0.09,0.27-0.15,0.44-0.24,0.68c-0.13,0.33-0.32,0.48-0.71,0.54c-0.47,0.08-1.02,0.23-1.36,0.38c-0.18,0.08-0.28,0.27-0.25,0.54
			c0.07,0.67,0.16,2.27,0.27,4.38c-0.24,0.08-0.46,0.21-0.64,0.41c-0.41,0.47-0.55,1.11-0.28,1.99c0.39,1.26,0.31,1.89,0,2.68
			c-0.62,1.56-0.27,3.77,0.97,5.32c0.02,0.03,0.05,0.06,0.07,0.08c0.11,0.12,0.23,0.19,0.35,0.22c0,0-0.01-0.01-0.02-0.01
			c0.18,4.69,0.33,9.07,0.37,10.85c-0.01,0.25,0.15,0.53,0.43,0.74c0.41,0.31,0.91,0.07,1.14-0.2c0.23-0.28,0.53-0.1,0.54,0.3
			c0.02,0.34,0.29,0.57,0.47,0.73c0.17,0.14,0.41,0.32,0.63,0.49c0.36,0.29,0.73,0.19,0.74-0.07l0,0c-0.02-1.92-0.12-4.97-0.24-7.02
			c-0.03-0.04-0.06-0.07-0.09-0.11c1.45,1.76,3.31,3.17,5.53,3.95h-0.01l0,0c0.46,1.79,1.02,5.15,1.03,5.23
			c0.06,0.38,0.43,0.73,1.11,0.78c0.42,0.03,0.84-0.19,1.2-0.26c0.37-0.06,0.69,0.07,0.99,0.24c0.5,0.29,1.28,0.33,1.8,0.08
			c0.32-0.16,0.41-0.41,0.35-0.64c0,0.01,0.01,0.01,0.01,0.03l-0.94-4.56l0.16-0.02c0.51,0.09,1.02,0.07,1.53-0.05
			c1.93,0.05,3.72-0.28,5.19-0.93c1.39-0.61,2.44-1.49,3.03-2.53c0.47-0.83,0.63-1.71,0.47-2.58c-0.09-0.54-0.31-1.08-0.64-1.59
			l-0.04-0.06c-1.02-1.58-1.99-3.1-2.3-4.86c-0.13-0.71-0.01-1.48,0.13-2.29c0.09-0.59,0.07-1.25-0.04-1.91
			c-0.14-0.81-0.44-1.63-0.84-2.31c0,0,1.03,0.47,1.88,0.91v0c0.32,0.16,0.5-0.08,0.38-0.33c-0.07-0.14-0.2-0.35-0.35-0.58
			c-0.16-0.23-0.28-0.43-0.24-0.71c0.07-0.41-0.05-0.97-0.32-1.66c-0.44-1.07-0.18-1.62,0.36-1.76
			C37.42,18.79,37.45,18.54,37.29,18.39z M29.61,46.71c-0.01-0.02-0.01-0.03-0.01-0.04C29.6,46.68,29.61,46.7,29.61,46.71z
			 M28.88,15.27c-0.55,0.02-2.14,0.22-2.67,0.32c-0.04-0.2,0.11-1.22,0.32-1.3c0.21-0.01,1.47-0.21,1.66-0.21
			c0.37-0.01,0.58-0.08,0.87-0.07C29,14.47,28.94,14.9,28.88,15.27z M19.47,12.6c0.09-0.01,0.2-0.04,0.5,0.02
			c0.31,0.06,0.11-0.13,0.02-0.16c-0.1-0.03-0.32-0.07-0.58-0.1c-0.72-0.08-0.55-0.49-0.32-0.49c0.23,0,0.91,0.06,1.17,0.08
			c0.26,0.02,0.15-0.13-0.02-0.19c-0.17-0.06-0.72-0.1-0.96-0.16c-0.76-0.19-0.58-0.59-0.39-0.55c0.19,0.04,0.86,0.1,1.07,0.16
			c0.22,0.05,0.21-0.2-0.03-0.25c-0.24-0.05-0.92-0.2-1.02-0.23c-0.1-0.03-0.3-0.4,0.25-0.42c0.25-0.01,1.12,0.15,1.37,0.17
			c0.26,0.03,0.22-0.06,0.04-0.17c-0.18-0.1-1.09-0.26-1.36-0.35c-0.27-0.09-0.5-0.36-0.08-0.33c0.42,0.04,0.83,0.13,1.18,0.18
			c0.35,0.05,0.22-0.17,0.03-0.2c-0.19-0.04-0.97-0.25-1.23-0.32c-0.27-0.07-0.31-0.35-0.15-0.31c0.17,0.04,1.23,0.29,1.51,0.33
			c0.29,0.04,0.3-0.14,0.01-0.23C20.18,9,19.2,8.74,18.88,8.66c-0.31-0.08-0.25-0.25-0.04-0.22c0.21,0.03,1.34,0.25,1.67,0.3
			c0.33,0.06,0.09-0.22-0.11-0.28c-0.2-0.06-1.23-0.22-1.44-0.34c-0.21-0.12-0.21-0.29-0.01-0.18c0.2,0.1,0.74,0.03,0.63-0.04
			c-0.1-0.07-0.25-0.23-0.08-0.21c0.16,0.02,0.39,0.14,0.58,0.17c0.19,0.04,0.18-0.03-0.03-0.16c-0.2-0.13-0.6-0.17-0.8-0.23
			c-0.19-0.05-0.31-0.33-0.12-0.3c0.19,0.04,0.71,0.22,1.04,0.3c0.33,0.08,0.21-0.11-0.02-0.13C19.93,7.3,19.43,7.05,19,6.87
			c-0.42-0.18-0.2-0.26,0.05-0.24c0.26,0.03,0.59,0.22,0.72,0.26c0.12,0.05,0.3-0.01,0.03-0.1c-0.27-0.09-0.58-0.29-0.8-0.34
			c-0.22-0.05-0.25-0.23,0.03-0.21c0.28,0.02,0.82,0.22,1.11,0.29c0.29,0.07,0.43-0.12,0.1-0.18c-0.33-0.05-1.05-0.36-1.17-0.39
			c-0.12-0.02-0.2-0.22-0.04-0.2c0.16,0.02,0.63,0.17,0.77,0.19c0.14,0.02,0.28-0.09-0.07-0.13c-0.35-0.03-0.47-0.19-0.77-0.3
			c-0.29-0.11-0.06-0.24,0.1-0.22c0.16,0.02,0.58,0.15,0.84,0.22c0.26,0.07,0.14-0.12-0.12-0.16c-0.26-0.04-0.78-0.28-0.99-0.4
			c-0.2-0.13-0.19-0.17,0.05-0.15c0.23,0.03,0.58,0.17,0.89,0.25c0.31,0.08,0.4-0.09,0.18-0.15c-0.22-0.05-0.92-0.37-1.04-0.41
			c-0.12-0.05-0.23-0.17-0.07-0.15c0.17,0.02,0.53,0.14,0.73,0.21c0.2,0.08,0.44-0.1,0.19-0.2c-0.25-0.1-0.78-0.25-1.02-0.35
			c-0.25-0.09-0.13-0.21,0.03-0.21c0.16,0,0.77,0.21,1,0.21c0.23,0.01,0.18-0.15-0.05-0.15c-0.23,0-0.85-0.29-1.01-0.42
			c-0.17-0.13-0.07-0.13,0.12-0.11c0.19,0.01,0.41,0.09,0.55,0.11c0.14,0.02,0.31-0.08,0-0.12c-0.3-0.04-0.39-0.16-0.61-0.21
			c-0.22-0.05-0.17-0.2-0.08-0.21c0.09-0.02,0.23,0.03,0.33,0.06c0.1,0.03,0.59-0.04,0.24-0.09c-0.35-0.05-0.28-0.16-0.48-0.26
			c-0.2-0.1-0.34-0.1-0.19-0.15c0.15-0.05,0.26,0.02,0.54,0.06c0.28,0.04,0.51,0.14,0.46-0.01C19.5,2.37,19.33,2.47,18.7,2.3
			c-0.63-0.17-0.43-0.2-0.34-0.35c0.06-0.11,0.21-0.05,0.33-0.08c0.31,0.16,0.75,0.08,0.99-0.19c0.08-0.09,0.25-0.23,0.48-0.18
			c0.35,0.07,0.63,0,0.85-0.23c0.13-0.13,0.25-0.28,0.35-0.42l0.12-0.15c0.11-0.14,0.25-0.21,0.37-0.17
			c0.11,0.03,0.2,0.14,0.23,0.32c0.04,0.22,0.08,0.6,0.13,1.05c0.05,0.51,0.11,1.08,0.19,1.63c0.07,0.46,0.33,0.51,0.41,0.52
			c0.2,0.01,0.37-0.14,0.44-0.38c0-0.01,0-0.03,0.01-0.04c0.06,0.02,0.16-0.08,0.13-0.14c-0.03-0.08,0.08-0.23,0.12-0.27
			c0.05-0.04,0.13-0.2,0.1-0.29c-0.03-0.09,0.08-0.32,0.19-0.51c0.08-0.15,0.02-0.29-0.04-0.44c0.05-0.15,0.1-0.3,0.15-0.44
			c0.04,0.05,0.1,0.01,0.19,0.06c0.1,0.06,0.34-0.17,0.35-0.28c0.01-0.11,0.2-0.56,0.27-0.69c0.05-0.1,0.15-0.35,0.16-0.54
			c0.3,0.06,0.6,0.03,0.83-0.01c0.09-0.02,0.16,0.01,0.22,0.07c0.04,0.04,0.06,0.1,0.07,0.16c0.02,0.08,0.01,0.17-0.02,0.25
			l-0.08,0.26c-0.24,0.78-0.53,1.66-0.66,2.38c-0.03,0.16-0.03,0.31-0.01,0.44c0.02,0.12,0.07,0.22,0.14,0.31
			c0.12,0.16,0.31,0.24,0.56,0.25c1.77,0.07,3.07,1.4,3.42,3.35c0.07,0.38,0.1,0.78,0.09,1.2c-0.02,1.14-0.1,2.46-0.21,3.74
			c-0.16-0.02-0.31-0.03-0.48-0.03c-0.28,0.01-0.54-0.02-0.79-0.09c-0.73-0.2-1.3-0.21-1.71-0.02c0,0-0.02,0.01-0.02,0.01
			c0.03-0.47,0.05-0.96,0.04-1.37c0.03-0.01,0.08,0.01,0.11,0c0.1-0.02,0.12,0.1,0.12,0.24c0,0.12,0.01,0.74,0.03,0.88
			c0.02,0.14,0.15,0.02,0.13-0.07c-0.01-0.09,0.01-0.23,0.01-0.48c0-0.25-0.03-0.99-0.05-1.2c-0.02-0.18,0-0.43-0.05-0.6
			c-0.05-0.17-0.17-0.05-0.16,0.08c0.01,0.13-0.01,0.31,0.01,0.52c0.02,0.18-0.06,0.08-0.19,0.07c-0.01-0.15-0.03-0.3-0.04-0.45
			c-0.02-0.24-0.06-0.47-0.09-0.69c-0.14-0.76-0.35-1.35-0.63-1.75c-0.12-0.17-0.27-0.26-0.43-0.28c-0.02-0.17-0.18-0.15-0.24-0.16
			c-0.06-0.01-0.18-0.16-0.17-0.23c0.01-0.06,0.18-0.17-0.07-0.25c-0.24-0.09-0.23-0.02-0.3,0.05c-0.07,0.07-0.38,0.07-0.21,0.17
			c0.17,0.1,0.47,0.24,0.42,0.3c-0.05,0.05-0.07,0.13-0.18,0.09c-0.11-0.04-0.4-0.1-0.51-0.13c-0.11-0.03-0.2,0.08-0.07,0.13
			c0.14,0.04,0.47-0.04,0.57,0.06c0.04,0.04,0.23-0.01,0.12,0.58C24.34,8,23.32,9.67,23.34,9.69c-0.06,0.08-1.38,1.45-1.36,1.54
			c-0.14,0.13-0.28,0.26-0.43,0.4c-0.26,0.23-1.59,1.64-1.82,1.99c-0.08-0.03-0.22-0.09-0.38-0.15
			C18.63,13.19,18.85,12.65,19.47,12.6z M19.63,14.62c0.5-1.07,1.35-1.92,2.19-2.67c1.67-1.5,2.39-2.66,3.08-4.17
			c0.03-0.07,0.07-0.09,0.09-0.1c0.02,0,0.27,0.34,0.3,0.41c-0.04,0.03,0.19,0.48,0.11,0.55c-0.08,0.07-0.17-0.04-0.31-0.1
			c-0.13-0.06-0.18,0.12-0.04,0.22c0.13,0.1,0.41,0.29,0.47,0.35c0.06,0.06,0.11,0.31-0.02,0.28c-0.13-0.04-0.45-0.28-0.63-0.43
			c-0.18-0.15-0.26,0.12-0.16,0.18c0.1,0.06,0.57,0.53,0.73,0.62c0.16,0.08,0.05,0.22,0.07,0.42c-0.62,0.68-1.05,1.45-1.3,2.34
			c-0.02,0.07-0.02,0.13-0.01,0.19c0.02,0.09,0.06,0.17,0.13,0.22c0.12,0.09,0.29,0.1,0.43,0.01c0.34-0.2,0.81-0.28,1.03-0.16
			c0.22,0.12,0.43,0.02,0.59-0.05l0.01,0c0.32-0.15,0.8-0.13,1.43,0.05c0.28,0.08,0.59,0.11,0.91,0.1c0.16,0,0.31,0.01,0.46,0.03
			l0.57,0.16c0.14,0.06,0.28,0.14,0.4,0.24c-0.03,0.07-0.06,0.11-0.14,0.13c-0.16,0.05-1.29,0.19-1.28,0.19
			c-0.08,0.02-0.16,0.03-0.24,0.04c-0.19-0.17-0.66-0.47-0.72-0.58c-0.07-0.11-0.23,0.01-0.14,0.1c0.09,0.09,0.41,0.36,0.53,0.49
			c-0.07,0-0.19,0-0.33,0.01c-0.01-0.01-0.02-0.02-0.03-0.03c-0.15-0.13-0.37-0.37-0.5-0.5c-0.13-0.13-0.25,0.02-0.13,0.1
			c0.12,0.08,0.29,0.36,0.33,0.42c0,0.01,0,0.01,0,0.02c-0.04,0-0.07,0.01-0.11,0.01c-0.05-0.01-0.12-0.04-0.16-0.08
			c-0.09-0.09-0.42-0.36-0.53-0.44c-0.12-0.08-0.28-0.03-0.22,0.04c0.06,0.07,0.46,0.32,0.51,0.44c0.02,0.04,0,0.07-0.03,0.08
			c-0.02,0-0.05,0-0.07,0.01c-0.06,0-0.14-0.03-0.2-0.09c-0.15-0.13-0.37-0.37-0.49-0.42c-0.11-0.06-0.16,0.08-0.07,0.19
			c0.1,0.11,0.28,0.18,0.34,0.32c0.01,0.03,0.01,0.06,0,0.09c0,0-0.01,0-0.01,0c-0.07,0.02-0.13,0.04-0.19,0.06
			c-0.03-0.01-0.06-0.03-0.09-0.05c-0.15-0.13-0.26-0.31-0.4-0.39c-0.14-0.08-0.29-0.05-0.19,0.06c0.1,0.11,0.46,0.28,0.47,0.38
			c0.01,0.04-0.01,0.09-0.03,0.11c-0.01,0.01-0.03,0.02-0.04,0.02c-0.03,0-0.06,0-0.09-0.03c-0.09-0.08-0.09-0.06-0.23-0.14
			c-0.14-0.07-0.11,0.23,0.03,0.33c0.01,0.01,0.02,0.01,0.02,0.02c-0.07,0.05-0.14,0.11-0.21,0.17c-0.16-0.15-0.54-0.39-0.54-0.39
			s-0.26-0.05-0.12,0.05c0.15,0.1,0.39,0.34,0.31,0.43c-0.09,0.09-0.37-0.11-0.52-0.19c-0.14-0.08-0.23-0.01-0.14,0.08
			c0.09,0.09,0.5,0.22,0.55,0.36c0.05,0.14-0.03,0.23-0.22,0.17c-0.19-0.07-0.41-0.15-0.58-0.25c-0.17-0.1-0.14,0.1-0.05,0.16
			c0.09,0.06,0.55,0.38,0.45,0.5c-0.11,0.12-0.63-0.12-0.78-0.22c-0.14-0.1-0.27,0.03-0.16,0.11c0.11,0.08,0.68,0.39,0.57,0.51
			c-0.11,0.12-0.62-0.22-0.74-0.33c-0.12-0.11-0.21-0.02-0.11,0.09c0.09,0.11,0.68,0.39,0.57,0.51c-0.11,0.12-0.79-0.27-0.96-0.36
			c-0.17-0.1-0.26,0.1-0.1,0.17c0.17,0.07,1,0.48,0.8,0.67c-0.2,0.19-0.79-0.29-1.04-0.43c-0.25-0.13-0.35,0.01-0.18,0.13
			c0.17,0.13,0.58,0.36,0.69,0.46c0.12,0.11,0.15,0.25-0.08,0.14c-0.22-0.11-1.04-0.58-1.22-0.57c-0.18,0-0.21,0.14-0.01,0.23
			c0.2,0.09,0.81,0.29,0.94,0.42c0.13,0.13-0.1,0.12-0.29,0.05c-0.19-0.07-0.68-0.39-0.8-0.37c-0.12,0.02-0.31,0-0.08,0.14
			c0.23,0.14,0.73,0.25,0.56,0.31c-0.17,0.06-0.51,0.04-0.8,0.04c-0.22,0-1.54,0.92-2.28,1.56c-0.72,0.19-1.21-0.95-0.31-2.69
			C18.91,15.83,19.61,14.66,19.63,14.62z M17.91,20.52c0.05-0.04,0.13-0.06,0.2-0.03c0.16,0.08,0.97,0.51,1.1,0.6
			c0.06,0.04,0.09,0.1,0.06,0.16c-0.03,0.07-0.14,0.11-0.29,0.06c-0.14-0.05-0.41-0.2-0.65-0.34c-0.18-0.1-0.35-0.2-0.42-0.22
			c-0.06-0.02-0.08-0.07-0.08-0.09C17.83,20.62,17.86,20.56,17.91,20.52z M17.18,21.16c0-0.03,0.03-0.06,0.07-0.08
			c0.05-0.02,0.13-0.01,0.18,0.05l0,0c0.06,0.07,1.37,0.66,1.58,0.71c0.19,0.05,0.18,0.1,0.17,0.12c-0.01,0.04-0.07,0.15-0.31,0.14
			c-0.27-0.01-1.01-0.38-1.43-0.61l-0.26-0.14C17.1,21.32,17.18,21.19,17.18,21.16z M20.69,27.02c0.13,0.04,0.14,0.08,0.13,0.12
			c-0.02,0.07-0.17,0.1-0.34,0.05c-0.17-0.04-0.5-0.16-0.76-0.27c-0.15-0.06-0.28-0.11-0.33-0.12c-0.08-0.03-0.13-0.09-0.13-0.14
			c-0.01-0.04,0-0.07,0.03-0.1c0.03-0.02,0.08-0.03,0.17,0.01C19.62,26.66,20.45,26.94,20.69,27.02z M18.56,34.11
			c0-0.02,0-0.03,0.01-0.04c0.04-0.04,0.19,0.01,1.16,0.38c0.28,0.11,0.55,0.21,0.61,0.23c0.14,0.03,0.91,0.3,0.94,0.43
			c0.01,0.05,0.03,0.11,0,0.16c-0.02,0.04-0.1,0.17-0.15,0.18c-0.09,0.02-0.77-0.24-0.77-0.24c-0.46-0.19-1.35-0.49-1.49-0.52
			c-0.23-0.05-0.31-0.33-0.3-0.45C18.57,34.2,18.57,34.16,18.56,34.11z M21.7,35.02l-0.16-0.09c-0.08-0.04-0.1-0.1-0.1-0.13
			c0-0.04,0.02-0.07,0.06-0.09c0.05-0.02,0.13-0.03,0.22,0.03c0.03,0.02,0.12,0.06,0.21,0.09c0.22,0.09,0.85,0.28,0.86,0.32
			c0.01,0.03,0,0.09-0.04,0.13c-0.03,0.04-0.07,0.06-0.11,0.06C22.55,35.34,21.84,35.11,21.7,35.02z M22.53,33.7
			c-0.01,0.03-0.05,0.08-0.16,0.08c-0.14,0-1.34-0.4-1.55-0.46l-0.09-0.03l-0.07-0.02c-0.08-0.01-0.16-0.02-0.19-0.16
			c0-0.05-0.02-0.23,0.02-0.24c0.09-0.04,1.34,0.41,1.49,0.43c0.17,0.02,0.33,0.03,0.4,0.08C22.47,33.45,22.55,33.65,22.53,33.7z
			 M22.04,32.74c-0.24,0.02-1.54-0.47-1.71-0.57c-0.06-0.03-0.25-0.12-0.48-0.22c-0.53-0.23-1-0.42-1.11-0.46
			c-0.56-0.22-1.28-0.26-1.22-0.69c0.01-0.06,0.08-0.24,0.12-0.26c0.02-0.02,0.08-0.03,0.14,0.02c0.04,0.03,0.17,0.08,0.32,0.13
			c0.23,0.08,0.98,0.41,1.24,0.48c0.24,0.07,2.25,0.86,2.34,0.88c0.15,0.04,0.3,0.07,0.37,0.15c0.02,0.02,0.04,0.05,0.04,0.09
			c0,0.03,0,0.11,0,0.14C22.08,32.53,22.2,32.73,22.04,32.74z M15.25,27.58c0.02-0.07,0.04-0.2,0.24-0.11
			c0.08,0.04,2.79,1.06,2.91,1.1c0.02,0.01,0.06,0.2,0.05,0.22c-0.02,0.06-0.16,0.1-0.25,0.07l-1.87-0.66
			c-0.51-0.15-1-0.31-1.08-0.45C15.22,27.67,15.24,27.62,15.25,27.58z M15.14,30.29c0.12,0,1.11,0.49,1.21,0.57
			c0.23,0.18,0.34,0.78,0.35,0.79c0.08,0.08-0.69-0.23-0.83-0.27c-0.28-0.09-0.75-0.27-0.8-0.34c-0.05-0.07-0.07-0.24-0.04-0.28
			C15.05,30.72,15.03,30.29,15.14,30.29z M15.15,32.17c0.02-0.06,0.03-0.34,0.09-0.34c0.03,0,1.51,0.44,1.55,0.46
			c0.3,0.14,0.29,0.72,0.29,0.72c-0.02,0.04-0.06,0.06-0.1,0.06c-0.08,0.01-1.23-0.4-1.34-0.43c-0.11-0.02-0.35-0.08-0.41-0.13
			C15.19,32.47,15.12,32.23,15.15,32.17z M16.06,28.7c-0.01-0.05,0.04-0.19,0.13-0.21c0.09-0.02,0.96,0.33,1.15,0.41
			c0.22,0.09,0.35,0.15,0.39,0.19c0.05,0.04,0.06,0.12,0.05,0.16c-0.01,0.04-0.04,0.16-0.07,0.17c-0.02,0.01-0.07,0.01-0.12-0.05
			C17.47,29.25,16.08,28.79,16.06,28.7z M21.83,31.5c0.02,0.09,0,0.17-0.06,0.2c-0.07,0.04-2.52-0.88-2.64-0.97
			c-0.03-0.03-1.15-0.49-1.3-0.61c-0.04-0.04,0.07-0.21,0.09-0.24c0.05-0.06,0.14-0.1,0.23-0.04c0.09,0.06,1.27,0.4,1.47,0.48
			l0.33,0.14c0.24,0.11,1.1,0.42,1.2,0.45l0.08,0.02c0.08,0.01,0.19,0.03,0.38,0.13C21.84,31.18,21.83,31.47,21.83,31.5z
			 M21.63,30.63c-0.02,0.1-0.2,0.09-0.24,0.06c0,0-2.21-0.88-2.41-0.93c-0.32-0.09-0.68-0.16-0.69-0.28
			c-0.01-0.1,0.12-0.61,0.95-0.25c0.17,0.07,2.16,0.73,2.16,0.73c0.16,0.06,0.14,0.25,0.21,0.44C21.6,30.4,21.67,30.46,21.63,30.63z
			 M15.33,23.72c0.07-0.12,0.31-0.12,0.38-0.04c0.07,0.08,2.87,1.15,3.12,1.2c0.1,0.02,0.13,0.06,0.14,0.09
			c0.01,0.04-0.01,0.55-0.05,0.59c-0.06,0.06-0.17,0.11-0.28,0.09c-0.22-0.05-3.18-1.32-3.33-1.45c-0.03-0.03-0.08-0.08-0.07-0.12
			C15.26,24.07,15.31,23.76,15.33,23.72z M15.34,24.86c0.05,0.03,0.23,0.09,0.38,0.15c0.11,0.04,0.2,0.08,0.24,0.09
			c0.07,0.03,1.45,0.55,1.93,0.74l0.34,0.13c0.07,0.03,0.12,0.1,0.13,0.15c0,0.02-0.02,0.18-0.04,0.2
			c-0.02,0.02,0.04,0.22-0.49,0.06c-0.71-0.21-2.87-0.75-2.75-1.37C15.09,24.97,15.29,24.83,15.34,24.86z M20.45,27.76l-0.29-0.08
			c-0.35-0.09-0.84-0.21-1.02-0.31c-0.14-0.08-0.15-0.15-0.14-0.2c0.02-0.08,0.07-0.05,0.22-0.05c0.2,0.01,0.62,0.19,0.96,0.27
			c0.19,0.04,0.33,0.14,0.41,0.17c0.09,0.03,0.14,0.06,0.15,0.1c0.01,0.03,0,0.06-0.02,0.07C20.66,27.78,20.56,27.79,20.45,27.76z
			 M18.76,24.18c-0.1,0.06-1.27-0.43-1.53-0.5c-0.26-0.06-1-0.39-1.19-0.48c-0.08-0.04-0.11-0.15-0.11-0.18
			c0.01-0.07,0.12-0.35,0.2-0.37c0.04-0.01,0.21,0,0.25,0.05c0.06,0.06,0.93,0.43,1.17,0.49c0.14,0.03,0.43,0.15,0.71,0.26
			c0.22,0.1,0.44,0.18,0.53,0.21c0.08,0.02,0.1,0.06,0.1,0.09C18.91,23.81,18.81,24.14,18.76,24.18z M16.62,21.8
			c0.06,0,0.22,0.03,0.24,0.08c0.07,0.08,1.2,0.55,1.81,0.8c0.1,0.04,0.3,0.13,0.3,0.18c0,0.16-0.14,0.27-0.29,0.28
			c-0.29,0.01-2.01-0.83-2.11-0.95c-0.04-0.05-0.1-0.15-0.09-0.17C16.49,21.98,16.56,21.8,16.62,21.8z M13.68,16.24
			c0.15,0.07,1.07,0.43,1.19,0.48c0.13,0.05,0.14-0.09,0.04-0.14c-0.1-0.05-0.67-0.41-0.85-0.5c-0.18-0.08,0.07-0.13,0.17-0.1
			c0.1,0.03,0.53,0.16,0.66,0.21c0.12,0.05,0.24-0.07,0.16-0.12c-0.07-0.05-0.16-0.16-0.36-0.28l0,0c0.39-0.09,0.62-0.28,0.76-0.65
			c0.09-0.23,0.15-0.4,0.24-0.69l0,0c0.11-0.34,0.33-0.49,0.5-0.47c0.19,0.01,0.34,0.2,0.39,0.5c0.2,1.11,0.2,2.27,0.21,3.4
			c0,0.73,0.01,1.41,0.06,2.05c-0.33,0.26-0.64,0.56-0.93,0.89l-0.01-0.02c0,0-0.09,0.01-0.27,0.02c-0.18,0.01-0.33-0.17-0.2-0.19
			c0.13-0.02,0.25-0.16,0.13-0.17c-0.12,0-0.19-0.03-0.43-0.08c-0.24-0.05-0.22-0.21-0.11-0.24c0.11-0.02,0.29,0.07,0.44,0.16
			c0.15,0.09,0.37-0.14,0.13-0.19c-0.24-0.05-0.58-0.29-0.87-0.33c-0.28-0.04-0.37-0.26-0.15-0.2c0.22,0.05,0.52,0.09,0.81,0.11
			c0.28,0.02,0.17-0.17,0.03-0.21c-0.15-0.04-0.67-0.13-0.89-0.21c-0.22-0.08-0.18-0.25-0.02-0.25c0.16,0,0.85,0.24,1.04,0.3
			c0.19,0.06,0.28-0.14-0.06-0.22c-0.34-0.08-0.96-0.34-1.08-0.39c-0.12-0.04-0.15-0.18,0.06-0.15c0.22,0.03,0.8,0.21,0.92,0.23
			c0.12,0.03,0.17-0.06-0.06-0.11c-0.24-0.05-0.76-0.35-1-0.4c-0.24-0.05-0.2-0.22-0.03-0.18c0.17,0.04,0.81,0.25,1,0.29
			c0.19,0.04,0.23-0.11-0.08-0.17c-0.31-0.06-0.92-0.37-1.14-0.45c-0.22-0.08-0.18-0.25,0.03-0.19c0.22,0.05,0.61,0.31,0.79,0.3
			c0.18-0.01,0.12-0.11-0.02-0.13c-0.14-0.02-0.61-0.31-0.73-0.38c-0.13-0.07-0.07-0.13,0.02-0.14c0.09-0.02,0.35,0.15,0.47,0.17
			c0.12,0.02,0.21-0.11,0.05-0.15c-0.17-0.04-0.5-0.21-0.67-0.25c-0.16-0.04-0.12-0.18,0-0.16c0.12,0.02,0.54,0.18,0.71,0.22
			c0.17,0.04,0.18-0.03,0.01-0.07c-0.17-0.04-0.8-0.36-1.03-0.49C13.47,16.37,13.53,16.18,13.68,16.24z M15.54,26.21
			c1.14,0.28,2.18,0.79,2.86,1.04c0.54,0.2,0.18,0.35,0.33,0.43c0.18,0.1,0.55,0.25,1.09,0.44c0.49,0.17,0.96,0.33,1.08,0.4
			c0.12,0.07,0.15,0.3,0.14,0.36c0,0.05-0.03,0.08-0.07,0.1c-0.05,0.02-0.11,0-0.17-0.05c-0.08-0.08-0.72-0.29-1.34-0.51
			c-0.6-0.21-1.22-0.42-1.41-0.53c-0.22-0.12-0.56-0.22-0.85-0.31c-0.25-0.08-0.48-0.15-0.62-0.23c-0.42-0.23-0.93-0.32-1.35-0.57
			C15.17,26.76,15.27,26.15,15.54,26.21z M13.25,30.42c0.09-0.04-0.02-0.23-0.18-0.34c-0.16-0.11-0.33-0.45-0.2-0.36
			c0.13,0.09,0.5,0.35,0.66,0.46c0.16,0.11,0.28,0,0.04-0.14c-0.23-0.14-0.62-0.54-0.76-0.65c-0.13-0.11-0.21-0.42-0.08-0.33
			c0.13,0.09,0.58,0.43,0.7,0.54c0.11,0.12,0.18-0.03,0.09-0.13c-0.09-0.1-0.5-0.45-0.74-0.65c-0.4-0.35-0.28-0.94-0.14-0.92
			c0.13,0.02,1.03,0.79,1.19,0.93c0.11,0.09,0.2-0.04,0.05-0.2c-0.15-0.17-0.98-0.88-1.1-0.97c-0.32-0.25-0.23-0.68-0.22-0.71
			c0.03-0.07,0.14-0.17,0.21-0.12c0.13,0.09,0.81,0.76,0.89,0.86c0.09,0.1,0.2-0.04,0.07-0.13c-0.13-0.09-0.59-0.56-0.75-0.72
			c-0.17-0.16,0-0.28,0.15-0.21c0.15,0.07,0.67,0.65,0.82,0.71c0.15,0.07,0.13-0.06,0.05-0.12c-0.08-0.06-0.94-0.87-1.05-0.97
			C12.9,26.2,12.8,26.12,12.87,26c0.1-0.18,0.12-0.33,0.39-0.17c0.08,0.05,0.27,0.21,0.35,0.28c0.08,0.08,0.18-0.01,0.09-0.11
			c-0.09-0.1-0.46-0.38-0.57-0.47c-0.11-0.1-0.05-0.29,0.13-0.19c0.18,0.11,0.64,0.54,0.7,0.6c0.06,0.06,0.3,0.01,0.12-0.12
			c-0.19-0.13-0.94-0.88-0.96-0.96c-0.05-0.23-0.08-1.07,0.04-0.96c0.11,0.12,0.42,0.28,0.61,0.47c0.2,0.2,0.12-0.09,0.01-0.23
			c-0.09-0.11-0.69-0.54-0.98-1.04c-0.03-0.08-0.06-0.15-0.09-0.22c-0.32-0.78,0.01-1.51,0.67-1.8c0.25-0.06,0.51-0.05,0.71,0.01
			c0.17,0.06,0.26,0.18,0.25,0.25c-0.01,0.06-0.1,0.11-0.25,0.13c-0.37,0.04-0.67,0.23-0.81,0.52c-0.13,0.25-0.12,0.55,0.01,0.77
			c0.13,0.22,0.26,0.41,0.45,0.67l0.41,0.59c0.58,0.86,0.66,2.22,0.54,3.12c-0.06,0.47-0.14,1.11-0.01,1.95
			c0.13,0.83,0.01,1.48-0.35,2.03c-0.13,0.19-0.28,0.3-0.44,0.3c-0.06,0-0.3-0.1-0.39-0.2C13.36,31.06,12.97,30.55,13.25,30.42z
			 M15.69,42.7c-0.07,0.03-0.14,0.09-0.21,0.16c-0.12,0.14-0.42,0.35-0.7,0.25l-0.03-0.07c-0.04-0.13,0.05-0.32,0.2-0.3
			c0.14,0.02,0.46-0.13,0.48-0.2c0.02-0.07,0.26-0.12,0.26-0.02C15.7,42.56,15.7,42.63,15.69,42.7z M17.8,44.47
			c-0.05,0.04-0.21,0.03-0.39-0.11l-0.04-0.04c0.02-0.08,0.11-0.17,0.2-0.21c0.1,0.08,0.2,0.16,0.23,0.25
			C17.8,44.38,17.83,44.45,17.8,44.47z M17.63,42.01c-0.05,0.56,0.17,1.2,0.18,1.77c-0.07-0.04-0.13-0.09-0.18-0.13l-0.16-0.11
			c-0.12-0.09-2.9-2.42-3.1-2.19c-0.03,0.04-0.07,0.08-0.11,0.14c0,0,0.15-0.28,0.05-0.36c-0.1-0.07-0.02-0.42,0.05-0.52
			c0.07-0.1,0.11,0,0.28,0.06c0.16,0.06,0.1-0.12,0.02-0.17c-0.07-0.06-0.21-0.1-0.3-0.17c-0.08-0.08-0.09-0.25,0.01-0.18
			c0.1,0.07,0.2,0.07,0.34,0.14c0.15,0.06,0.1-0.08,0-0.15c-0.1-0.07-0.25-0.13-0.38-0.24c-0.13-0.11-0.05-0.28,0.08-0.19
			c0.13,0.09,0.32,0.19,0.52,0.31c0.2,0.12,0.14-0.15,0-0.19c-0.14-0.04-0.4-0.25-0.51-0.31c-0.16-0.1-0.29-0.53,0.02-0.5
			c0.21,0.02,0.36,0.16,0.55,0.25c0.18,0.08,0.23-0.09,0.07-0.21c-0.15-0.13-0.48-0.32-0.65-0.42c-0.21-0.11-0.12-0.46,0.08-0.44
			c0.09,0.01,0.26,0.09,0.38,0.15c0.12,0.07,0.19-0.06,0.09-0.13c-0.1-0.07-0.28-0.16-0.38-0.23c-0.1-0.07-0.11-0.41,0.09-0.29
			c0.2,0.12,0.25,0.12,0.42,0.18c0.16,0.06,0.12-0.12,0.05-0.18c-0.08-0.05-0.37-0.16-0.5-0.25c-0.13-0.09-0.08-0.29,0.07-0.2
			c0.15,0.09,0.34,0.17,0.47,0.23c0.14,0.06,0.29-0.05,0.19-0.12c-0.1-0.07-0.24-0.19-0.35-0.23c-0.6-0.21-0.34-2.29,0.73-1.48
			c0.24,0.18,1.18,1.32,1.48,1.27C17.67,36.84,17.64,41.9,17.63,42.01z M15.84,34.12c-0.14-0.03-0.46-0.73-0.29-0.77
			c0.15-0.03,1.37,0.42,1.65,0.48c0.48,0.11,0.47,0.84,0.22,0.8C17.08,34.58,16.03,34.17,15.84,34.12z M22.43,39.65
			c-0.11-0.03-1.81-0.73-1.96-0.85c-0.16-0.12-0.06-0.52,0.25-0.4c0.12,0.04,1.73,0.68,1.88,0.74
			C23.38,39.45,23.29,39.9,22.43,39.65z M19.27,35.9c-0.19-0.04-0.38-0.2-0.45-0.36c-0.03-0.07,0.1-0.3,0.6-0.13
			c0.17,0.06,0.83,0.32,1.21,0.41l0.25,0.07l0.17,0.05c0.15,0.05,1.15,0.4,1.23,0.43c0.25,0.11,1.08,0.39,1.3,0.45
			c0.08,0.02,0.09,0.23,0.05,0.34C23.51,37.57,19.45,35.94,19.27,35.9z M26.67,46.84c-0.29-0.02-1.12,0.2-1.43,0.28
			c-0.3,0.08-0.31-0.13-0.29-0.27c0.02-0.14,0.31-0.4,0.51-0.53c0.21-0.12,0.63-0.36,0.77-0.22c0.29,0.29,0.5,0.3,0.81,0.52
			C27.37,46.85,26.96,46.86,26.67,46.84z M29.03,47.06c0,0.21-0.49,0.3-0.72,0.34c-0.22,0.04-0.72-0.22-0.93-0.35
			c-0.22-0.14,0.07-0.38,0.2-0.47c0.17-0.12,0.41-0.03,0.56,0.03c0.11,0.04,0.48-0.06,0.62,0.01C28.9,46.68,29.04,46.84,29.03,47.06
			z M27.8,46.01c-0.2,0.05-0.36,0.08-0.52,0.06c0.04-0.07,0.06-0.16-0.04-0.18c-0.2-0.04-0.57-0.33-0.64-0.43
			c-0.08-0.1-0.05,0.03-0.19-0.01c-0.14-0.03-0.28-0.04-0.56,0c-0.28,0.04-0.28-1.27-0.29-1.46c0-0.17,0.3-0.63,0.85-0.54
			c0.27,0.04,0.52-0.09,0.53-0.26c0.01-0.09-0.05-0.5,0.05-0.5c0.45,0.03,0.25-0.38,0.3-0.54c0.35,0,0.71-0.02,1.07-0.06
			c0.03,0.01,0.07,0.02,0.1,0.03c0.04,0.19,0.6,2.9,0.81,3.92C28.77,45.8,28.2,45.9,27.8,46.01z M35.84,27.29
			c0.01-0.05,0.02-0.09,0.02-0.13C35.85,27.2,35.85,27.25,35.84,27.29z M35.86,27.11c0.01-0.03,0.01-0.06,0.01-0.1
			C35.87,27.05,35.87,27.08,35.86,27.11z M35.88,26.96c0-0.03,0-0.06,0-0.09C35.88,26.9,35.88,26.93,35.88,26.96z M35.89,26.81
			c0.01-0.03,0.01-0.05,0.01-0.08C35.89,26.76,35.89,26.78,35.89,26.81z M35.82,25.6c-0.01-0.05-0.02-0.1-0.02-0.15
			C35.81,25.5,35.82,25.55,35.82,25.6z M35.89,26.67c0-0.03,0-0.05,0-0.08C35.89,26.61,35.89,26.64,35.89,26.67z M35.89,26.52
			c0-0.03,0-0.06,0-0.09C35.89,26.46,35.89,26.49,35.89,26.52z M35.89,26.37c0-0.03,0-0.06,0-0.08
			C35.89,26.31,35.89,26.34,35.89,26.37z M35.89,26.22c0-0.03,0-0.06,0-0.09C35.88,26.16,35.88,26.19,35.89,26.22z M35.88,26.07
			c-0.01-0.03-0.01-0.06-0.01-0.09C35.87,26,35.87,26.04,35.88,26.07z M35.86,25.91c0-0.03-0.01-0.07-0.01-0.1
			C35.86,25.85,35.86,25.88,35.86,25.91z M35.85,25.76c-0.01-0.04-0.01-0.09-0.02-0.13C35.83,25.67,35.84,25.72,35.85,25.76z
			 M35.24,23.67c-0.02-0.04-0.03-0.07-0.05-0.11C35.21,23.6,35.22,23.63,35.24,23.67z M35.79,25.4c-0.01-0.04-0.02-0.07-0.02-0.11
			C35.77,25.33,35.78,25.36,35.79,25.4z M35.76,25.23c0-0.03-0.01-0.07-0.02-0.1C35.74,25.17,35.75,25.2,35.76,25.23z M35.72,25.07
			c-0.01-0.03-0.02-0.06-0.02-0.09C35.7,25.01,35.72,25.04,35.72,25.07z M35.68,24.92c-0.01-0.03-0.02-0.06-0.02-0.09
			C35.67,24.86,35.68,24.88,35.68,24.92z M35.64,24.76c-0.01-0.03-0.01-0.06-0.02-0.09C35.63,24.7,35.64,24.73,35.64,24.76z
			 M35.6,24.6c0-0.03-0.02-0.06-0.02-0.09C35.58,24.54,35.59,24.57,35.6,24.6z M35.55,24.45c-0.01-0.03-0.02-0.06-0.03-0.09
			C35.53,24.39,35.54,24.42,35.55,24.45z M35.5,24.3c-0.01-0.03-0.02-0.06-0.03-0.09C35.48,24.24,35.49,24.26,35.5,24.3z
			 M35.45,24.14c-0.02-0.03-0.03-0.06-0.04-0.09C35.42,24.08,35.43,24.11,35.45,24.14z M35.38,24c-0.02-0.04-0.03-0.08-0.05-0.12
			C35.35,23.92,35.37,23.96,35.38,24z M35.32,23.85c-0.02-0.05-0.04-0.1-0.07-0.15C35.28,23.75,35.3,23.8,35.32,23.85z M34.85,22.96
			c-0.02-0.03-0.03-0.05-0.05-0.07C34.82,22.91,34.84,22.94,34.85,22.96z M35.17,23.51c-0.02-0.03-0.03-0.06-0.05-0.09
			C35.14,23.45,35.15,23.48,35.17,23.51z M35.09,23.37c-0.02-0.03-0.03-0.05-0.05-0.08C35.06,23.31,35.07,23.34,35.09,23.37z
			 M35.01,23.23c-0.01-0.03-0.03-0.05-0.04-0.08C34.98,23.18,35,23.2,35.01,23.23z M34.93,23.09c-0.01-0.03-0.03-0.05-0.05-0.08
			C34.9,23.04,34.92,23.07,34.93,23.09z M35.48,27.17c-0.48,2.94,0.96,5.2,2.36,7.38l0.04,0.06c0.25,0.39,0.56,1.12,0.63,1.35
			c0.08,0.23,0.11,0.9,0.09,1.2c-0.03,0.3-0.5,1.3-0.62,1.48c-0.11,0.19-0.4,0.51-0.6,0.68c-0.04,0.04-1.89,3.13-10.54,2.33
			c-0.72-0.22-0.87-0.76-0.93-0.94c-0.05-0.18-1.1-0.65-1.33-0.67c-0.24-0.03-0.2-0.22-0.02-0.28c0.18-0.05-0.17-0.22-0.38-0.31
			c-0.87-0.35-0.43-0.93-0.18-0.84c0.25,0.1,1.15,0.41,1.46,0.45c0.31,0.04,0.09-0.16-0.04-0.21c-0.13-0.05-0.85-0.25-1.05-0.35
			c-0.81-0.41,0.05-0.9,0.36-0.86c0.12,0.02,0.97,0.22,1.27,0.31c0.3,0.09,0.15-0.07-0.12-0.17c-0.27-0.09-0.4-0.14-0.72-0.25
			c-0.32-0.11,0-0.14,0.09-0.15c0.09-0.02,0.68,0.16,0.63,0.05c-0.07-0.15-0.5-0.26-0.92-0.44c-0.47-0.19-2.08-1.99,0.39-1.32
			c0.23,0.07,0.28-0.24,0.18-0.29c-0.1-0.05-1.41-0.59-1.63-0.65c-0.64-0.18-0.67-0.87-0.54-0.82c0.12,0.05,1.26,0.5,1.42,0.5
			c0.16,0,0.17-0.24,0.02-0.31c-0.15-0.07-1.12-0.43-1.29-0.47c-0.17-0.04-0.39-0.16-0.34-0.26c0.05-0.1-0.13-0.08-0.3-0.26
			c-0.17-0.18,0.04-0.29,0.36-0.18c0.32,0.11,0.16-0.14,0.06-0.21c-0.11-0.08-0.39-0.23-0.57-0.44c-0.19-0.22-0.26-0.68-0.36-0.85
			c-0.1-0.17,0.15-0.05,0.34-0.04c0.19,0.01,0.05-0.13-0.17-0.18c-0.22-0.06-0.26-0.19-0.34-0.34c-0.07-0.15,0.35-0.01,0.54-0.02
			c0.18-0.01,0.08-0.06-0.12-0.16c-0.21-0.11-0.39-0.21-0.39-0.33c0-0.12,0.21,0.01,0.51-0.02c0.24-0.02,0.1-0.18-0.07-0.24
			c-0.17-0.06-0.35-0.04-0.53-0.15c-0.18-0.11-0.09-0.18-0.12-0.31c-0.03-0.14,0.13-0.15,0.34-0.14c0.21,0.01,0.31-0.05,0.28-0.11
			c-0.06-0.16-0.42-0.13-0.54-0.14c-0.12,0-0.27-0.18-0.16-0.26c0.1-0.09-0.05-0.29-0.16-0.35c-0.1-0.05,0.14-0.13,0.23-0.13
			c0.1,0.01,0.12-0.32-0.25-0.26c-0.39,0.06-0.15-0.3-0.16-0.65c-0.01-0.35,0.09-0.3-0.03-0.44c-0.12-0.14-0.55,0.35-0.49,0.04
			c0.06-0.32-0.14-0.39-0.19-0.43c-0.05-0.04-0.01-0.21-0.09-0.27c-0.08-0.05-1.11-0.34-1.39-0.45c-0.28-0.11,0.03-0.59,0.63-0.43
			c0.24,0.06,0.53,0.12,0.55-0.06c0.01-0.11-0.19-0.13-0.64-0.31c-0.45-0.17-0.32-0.58,0.17-0.56c0.21,0.01,0.31-0.09,0.25-0.18
			c-0.06-0.08-0.29-0.05-0.46-0.14c-0.29-0.15-0.59-1.06,0.18-0.95c0.15,0.02,0.23-0.15,0.01-0.21c-0.22-0.05-0.22-0.07-0.37-0.12
			c-0.15-0.04,0.03-0.73,0.19-0.76c0.16-0.03,0.32,0.09,0.5,0.15c0.17,0.06,0.2-0.08,0.04-0.17c-0.16-0.09-0.29-0.18-0.42-0.25
			c-0.13-0.07,0.03-0.12,0.13-0.2c0.1-0.08,0.37,0.09,0.61,0.17c0.23,0.08,0.26-0.17,0.02-0.29c-0.14-0.07-0.58-0.17-0.57-0.29
			c0-0.12,0.02-0.43,0.16-0.43c0.14,0,0.59,0.12,0.59,0.12s0.23-0.23,0-0.3c-0.12-0.04-0.15,0.02-0.54-0.16
			c-0.32-0.15-0.01-0.5,0.16-0.47c0.11,0.02,0.61,0.19,0.91,0.13c0.31-0.06,0.22-0.26,0-0.34c-0.23-0.08-0.83-0.21-1.03-0.31
			c-0.2-0.1,0.18-0.75,0.45-0.83c0.29-0.09,1.03-0.68,1.71,0.23c0.12,0.17,0.48,0.3,0.61,0.4c0.13,0.09,0.63,0.4,0.73,0.57
			c0.1,0.17,0.35,0.14,0.63,0.01c0.15-0.07-0.12-0.45-0.5-0.89c-0.21-0.07-0.42-0.15-0.49-0.2c-0.15-0.12-0.64-0.79-0.57-0.93l0,0
			c-0.18-0.19-0.3-0.3-0.3-0.3l-0.42-0.36c1.24-0.22,2.66-0.05,4.31,0.48c0,0,2.54,2.82,2.57,2.88c0.04,0.06,0.43,0.19,0.54,0.1
			c0.1-0.08-0.03-0.55-0.24-0.55c-0.21,0-0.44-0.71-0.58-0.86c-0.13-0.15-1.09-1.23-1.22-1.41c-0.14-0.17,0.1-0.18,0.2-0.06
			c0.1,0.11,0.41,0.39,0.51,0.33c0.1-0.05-0.04-0.12-0.22-0.34c-0.18-0.22,0.14-0.03,0.16-0.15c0-0.01,0-0.02,0-0.02
			c0.84,0.11,1.71,0.45,2.55,1.01c1.24,0.82,2.27,2.02,2.76,3.19l0.02,0.05l0.04,0.03C35.1,23.19,35.74,25.61,35.48,27.17z
			 M35.91,22.98c0,0.05,0,0.09,0.01,0.14c-0.11-0.06-0.21-0.12-0.31-0.17c-0.09-0.29-0.56-0.85-0.66-0.93
			c-0.11-0.09,0.1-0.26,0.4-0.04C35.65,22.2,35.91,22.78,35.91,22.98z M35,18.25c-0.24,0-0.44,0.22-0.38,0.41
			c0.07,0.19,0.03,0.59,0.01,0.75c-0.02,0.16,0.2,0.48,0.3,0.54c0.1,0.06,0.2,0.43,0.08,0.48c-0.12,0.05-0.28,0.08-0.22,0.24
			c0.06,0.16-0.07,0.39-0.13,0.29c-0.06-0.1-0.1-0.22-0.17-0.42c-0.07-0.21-0.22-0.27-0.15-0.07c0.07,0.21,0.09,0.34,0.16,0.54
			c0.07,0.21-0.1,0.3-0.16,0.05c-0.06-0.25-0.27-0.48-0.31-0.68c-0.03-0.2-0.16-0.13-0.11,0.07c0.05,0.19-0.1,0.3-0.18,0.05
			c-0.08-0.25-0.33-0.99-0.4-1.19c-0.07-0.21-0.23-0.18-0.19-0.08c0.05,0.1,0.07,0.3,0.09,0.39c0.02,0.09-0.14,0.24-0.17,0.05
			c-0.04-0.2-0.16-0.44-0.19-0.59c-0.03-0.15-0.32-0.33-0.24-0.14c0.08,0.19,0.05,0.3,0.06,0.52c0.01,0.22-0.13,0.05-0.16-0.05
			c-0.03-0.1-0.12-0.29-0.15-0.43c-0.04-0.13-0.19-0.26-0.17-0.14c0.02,0.12,0.04,0.24-0.05,0.21c-0.1-0.03-0.12-0.21-0.15-0.33
			c-0.04-0.12-0.17-0.47-0.24-0.64c-0.06-0.18-0.26-0.22-0.19-0.11c0.07,0.11,0.09,0.42,0.13,0.57c0.04,0.15-0.2,0.08-0.24-0.02
			c-0.03-0.1-0.28-0.62-0.35-0.75c-0.07-0.13-0.21-0.04-0.13,0.07c0.08,0.11,0.16,0.36,0.2,0.51c0.05,0.15-0.2-0.09-0.26-0.16
			c-0.06-0.07-0.24-0.39-0.3-0.54c-0.06-0.14-0.26-0.12-0.17,0c0.08,0.13,0.06,0.16,0.12,0.34c0.06,0.18-0.22-0.02-0.27-0.09
			c-0.04-0.07-0.29-0.53-0.33-0.64c-0.03-0.12-0.23-0.01-0.13,0.13c0.1,0.14,0.06,0.25,0.11,0.37c0.05,0.12-0.29-0.09-0.33-0.19
			c-0.05-0.1-0.27-0.46-0.39-0.68c-0.12-0.23-0.15,0.01-0.1,0.11c0.05,0.1,0.16,0.28,0.18,0.44c0.03,0.15-0.13,0.07-0.17,0
			c-0.04-0.07-0.17-0.38-0.22-0.47c-0.05-0.1-0.33-0.19-0.14,0.16c0.19,0.36,0.05,0.3-0.05,0.3c-0.11,0-0.24-0.13-0.24-0.13
			s-0.09-0.24-0.14-0.4c-0.04-0.17-0.17-0.1-0.13-0.02c0.05,0.07,0.01,0.21,0.03,0.36c0.03,0.15-0.16,0.05-0.18-0.03
			c-0.01-0.08-0.15-0.33-0.2-0.39c-0.04-0.06-0.18-0.06-0.12,0.01c0.06,0.07,0.07,0.17,0.08,0.31c0.01,0.14-0.02,0.14-0.08,0.08
			c-0.06-0.07-0.2-0.18-0.31-0.34c-0.1-0.15-0.3,0.08-0.39,0.1c-0.09,0.01-0.35-0.3-0.41-0.35c-0.06-0.05-0.16,0-0.11,0.08
			c0.05,0.09,0.22,0.23,0.17,0.33c-0.04,0.1,0.02,0.29-0.15,0.31c-0.17,0.01-0.37-0.31-0.55-0.32c-0.19-0.01-0.42,0.01-0.49,0.15
			c0,0-0.01,0-0.01,0.01c-0.19-0.04-0.37-0.07-0.55-0.1c-0.17-0.07-0.33-0.14-0.4-0.16c-0.12-0.03-0.11-0.08-0.06-0.18
			c3.27-1.57,7.97-1.69,11.87,1.46c-0.04,0.01-0.08,0.02-0.12,0.03c-0.1-0.07-0.37-0.09-0.48-0.1C35.66,18.13,35.23,18.25,35,18.25z
			 M36.57,18.91c-0.12,0.09-0.22,0.2-0.29,0.34c-0.11,0.24-0.14,0.53-0.08,0.88c0.04,0.21,0.1,0.43,0.2,0.67
			c0.15,0.36,0.24,0.68,0.29,0.96c0.04,0.23,0.04,0.42,0.02,0.59c-0.02,0.11-0.02,0.21,0,0.3c0.04,0.22,0.16,0.39,0.27,0.56
			c0.11,0.17,0.27,0.41,0.34,0.55c0.01,0.02,0.02,0.03,0.02,0.05c0,0.02,0,0.03,0,0.04c-0.01,0-0.14-0.03-0.21-0.07
			c-0.16-0.09-0.43-0.38-0.63-0.7c-0.07-0.14-0.12-0.26-0.15-0.41c-0.01-0.06,0-0.3,0.02-0.35c0.16-0.44-0.32-1.38-0.41-1.52
			c-0.06-0.09-0.21-0.31-0.3-0.5c-0.02-0.08-0.21-0.7,0.09-1.02c0.12-0.14,0.44-0.35,0.62-0.44C36.51,18.75,36.57,18.8,36.57,18.91z
			"/>
		<path class="st0" d="M27.1,17.89c-0.01-0.01-0.01-0.01-0.02-0.02c-0.02-0.03-0.13-0.08-0.3-0.15c-0.42-0.21-0.86-0.37-1.33-0.49
			c-0.2-0.07-0.37-0.11-0.45-0.12c-0.09-0.01-0.25-0.03-0.45-0.05c-0.19-0.02-0.37-0.04-0.56-0.05c-0.39-0.03-0.8-0.05-1.04-0.02
			c-0.1,0.01-0.25,0.04-0.41,0.09c-0.7,0.11-1.36,0.32-1.94,0.65c-0.01,0-0.02,0.01-0.02,0.01c-0.33,0.19-0.63,0.42-0.9,0.68
			c-0.25,0.25-0.55,0.37-0.79,0.45c-1.57,0.56-3.09,1.61-3.81,3.42c-0.04,0.11,0.06,0.16,0.12,0.08c0.96-1.57,2.54-2.54,3.83-2.92
			c0.38-0.11,0.57,0.16,0.59,0.43c0.06,0.6,0.1,1.1,0,1.45c-0.1,0.35-0.25,0.68-0.38,1.01c-0.13,0.33-0.21,0.81-0.17,1.24
			c0.1,0.89,0.29,2.04-0.34,3.15c-0.09,0.15,0.02,0.25,0.16,0.11c0.78-0.75,0.8-1.93,0.72-3.07c-0.03-0.46,0.07-0.87,0.21-1.13
			c0.43-0.81,0.65-1.36,0.61-2.03c-0.03-0.39-0.03-0.81-0.07-1.16c-0.04-0.34,0.07-0.58,0.26-0.77c0.26-0.26,0.81-0.59,1.27-0.67
			c0.32-0.06,0.49,0.12,0.64,0.36c0.65,1.05,1.46,1.56,2.72,2.04c0.5,0.19,0.6,0.5,0.54,0.96c-0.06,0.45-0.11,0.94-0.57,1.36
			c-0.81,0.73-1.31,1.47-1.54,2.26c-0.09,0.3-0.34,0.64-0.75,0.74c-1.5,0.38-2.4,1.46-1.92,2.71c0.4,1.04,0.58,1.45,0.77,2.28
			c0.19,0.83,0.55,2.1,0.85,2.94c0.46,1.3,1.02,2.43,1.47,3.04c0.12,0.16,0.25,0.05,0.16-0.12c-0.62-1.15-1.23-2.91-1.48-3.92
			c-0.03-0.13,0.04-0.29,0.21-0.27c0.5,0.05,1.75,0.37,2.66,0.79c0.15,0.07,0.24-0.09,0.09-0.18c-0.88-0.5-2.21-1.01-2.89-1.15
			c-0.18-0.04-0.28-0.25-0.33-0.48c-0.2-0.89-0.39-1.95-0.82-3.03c-0.26-0.66-0.02-1.08,0.41-1.43c0.27-0.21,0.89-0.42,1.14-0.41
			c0.07,0,0.13,0.02,0.19,0.05c0.04,0.04,0.08,0.08,0.12,0.11c0.04,0.06,0.06,0.12,0.08,0.19c0.15,0.6,0.52,1.33,0.95,1.82
			c0.44,0.48,0.66,0.89,0.77,1.31c0.07,0.24,0.22,0.22,0.2-0.04c-0.03-0.42-0.25-1.01-0.61-1.51c-0.37-0.49-0.7-1.16-0.79-1.66
			c-0.09-0.5-0.01-0.9,0.11-1.35c0.24-0.88,0.89-1.7,1.45-2.12c0.56-0.43,0.96-1.18,0.89-2.1c-0.02-0.23,0.26-0.37,0.41-0.07
			c0.45,0.93,1.07,1.7,1.75,2.13c1.69,1.07,1.76,2.67,0.36,3.58c-1.85,1.2-1.8,2.82-0.98,4.32c0.37,0.68,0.62,1.01,0.86,1.34
			c0.25,0.33,0.27,0.72,0.1,1.08c-0.53,1.06-0.51,2.17,0.05,2.95c0.42,0.58,0.68,1.06,0.8,1.35c0.11,0.26,0.28,0.2,0.21-0.04
			c-0.15-0.54-0.5-1.12-0.7-1.5c-0.32-0.6-0.22-1.65-0.03-2.11c0.15-0.37,0.29-0.64,0.38-0.85c0.09-0.2,0.28-0.31,0.44-0.14
			c0.39,0.43,0.7,1.12,0.9,1.55c0.2,0.43,0.52,0.62,0.82,0.76c0.68,0.31,1.35,0.79,1.55,1.41c0.07,0.21,0.22,0.12,0.18-0.03
			c-0.17-0.78-0.73-1.15-1.44-1.65c-0.43-0.3-0.61-0.45-0.78-0.86c-0.34-0.85-0.5-1.6-1.16-1.98c-0.41-0.24-0.7-0.3-0.95-0.61
			c-0.72-0.9-1.1-1.83-1.05-2.59c0.05-0.76,0.62-1.43,1.32-1.88c0.81-0.52,1.31-1.33,1.27-2.19c-0.01-0.25,0.22-0.35,0.45-0.3
			c0.84,0.19,1.81,0.73,2.07,2.19c0.04,0.24,0.26,0.17,0.24-0.04c-0.08-0.77-0.29-2-1.68-2.57c-0.13-0.09-0.26-0.15-0.35-0.15
			c-0.03,0-0.06,0-0.09,0c-0.1-0.02-0.2-0.05-0.31-0.07c-0.25-0.04-0.52-0.04-0.69-0.34c-0.37-0.68-0.91-1.09-1.43-1.4
			c-0.52-0.31-0.92-0.93-1.29-1.58c-0.36-0.65-0.71-1.13-1.42-1.18c-1.22-0.09-2.27-0.57-2.98-1.53c-0.12-0.17-0.03-0.4,0.24-0.39
			c1.78,0.1,2.85,0.45,3.83,1.32c0.69,0.61,1.14,1.25,1.6,1.89c0.76,1.08,1.84,1.27,3.05,1.27c1.3,0,2.16,0.5,2.79,2.16
			c0.47,1.25,0.55,2.36-0.05,3.26c-0.58,0.86-0.71,1.88-0.49,2.8c0.14,0.57,0.07,0.89,0.2,1.46c0.13,0.57,0.49,1.18,1.04,1.77
			c0.37,0.4,0.51,0.73,0.62,1.21c0.12,0.49,0.28,0.94,0.63,1.33c0.1,0.11,0.26,0.01,0.15-0.14c-0.11-0.15-0.37-0.61-0.43-1.28
			c-0.06-0.67-0.37-1.13-0.58-1.37c-0.21-0.25-0.4-0.49-0.56-0.95c-0.11-0.32,0.15-0.43,0.41-0.24c0.94,0.67,2.01,1.8,2.38,3.25
			c0.06,0.21,0.21,0.19,0.2-0.01c-0.1-1.24-1.02-2.76-2.15-3.69c-0.47-0.39-1.09-0.88-1.26-1.73c-0.18-0.84,0.1-1.49,0.56-2.27
			c0.46-0.79,0.48-2.09-0.06-3.72c-0.43-1.3-1.06-1.94-1.7-2.27v0c-0.02-0.02-0.07-0.04-0.13-0.06c-0.56-0.25-1.12-0.27-1.55-0.29
			c-0.97-0.05-1.78-0.14-2.4-0.93c-0.25-0.33-0.8-1.19-1.72-2.04"/>
		<path class="st1" d="M22.95,16.91L22.52,17c-0.72,0.11-1.38,0.33-1.96,0.66c-0.01,0,0,0,0,0l-0.01,0l-0.01,0.01
			c-0.35,0.2-0.66,0.44-0.92,0.7c-0.23,0.23-0.5,0.34-0.76,0.43c-1.32,0.47-3.07,1.46-3.87,3.48c-0.04,0.11,0,0.2,0.07,0.23
			c0.07,0.04,0.16,0.01,0.2-0.07c0.82-1.34,2.23-2.42,3.78-2.88c0.13-0.04,0.23-0.03,0.31,0.03c0.09,0.06,0.15,0.18,0.17,0.33
			c0.06,0.6,0.1,1.09,0,1.41c-0.07,0.24-0.17,0.48-0.26,0.71l-0.12,0.29c-0.12,0.29-0.22,0.79-0.17,1.28c0,0,0.02,0.19,0.02,0.19
			c0.1,0.85,0.22,1.9-0.35,2.91c-0.08,0.14-0.04,0.23,0.02,0.28c0.06,0.05,0.17,0.06,0.29-0.06c0.81-0.77,0.83-1.97,0.74-3.14
			c-0.03-0.4,0.04-0.8,0.2-1.08c0.45-0.83,0.67-1.39,0.62-2.08c0,0-0.02-0.46-0.02-0.46l-0.04-0.7c-0.03-0.28,0.04-0.5,0.23-0.7
			c0.25-0.25,0.79-0.57,1.22-0.64c0.26-0.05,0.41,0.08,0.55,0.31c0.69,1.12,1.44,1.71,2.63,2.17c0.42,0.16,0.56,0.32,0.5,0.79
			l-0.01,0.05c-0.06,0.43-0.09,0.84-0.51,1.23c-0.81,0.73-1.32,1.49-1.57,2.31c-0.08,0.25-0.26,0.54-0.65,0.63
			c-0.9,0.23-1.55,0.75-1.87,1.37c-0.24,0.46-0.26,0.98-0.06,1.5l0.14,0.37c0.3,0.79,0.45,1.18,0.62,1.9
			c0.19,0.81,0.54,2.08,0.85,2.95c0.45,1.28,1.01,2.42,1.48,3.06c0.1,0.13,0.21,0.13,0.27,0.09c0.07-0.04,0.11-0.16,0.04-0.31
			c-0.59-1.11-1.21-2.85-1.47-3.9c-0.01-0.05,0-0.1,0.03-0.13c0.02-0.02,0.05-0.03,0.09-0.03c0.5,0.05,1.74,0.37,2.63,0.78
			c0.13,0.06,0.23,0.01,0.28-0.07c0.04-0.08,0.02-0.19-0.11-0.27c-0.93-0.53-2.25-1.03-2.92-1.16c-0.15-0.03-0.22-0.24-0.26-0.41
			l-0.1-0.44c-0.17-0.79-0.36-1.69-0.72-2.6c-0.22-0.54-0.1-0.95,0.38-1.32c0.25-0.2,0.85-0.41,1.08-0.39c0.06,0,0.1,0.01,0.14,0.04
			c0.02,0.02,0.08,0.07,0.1,0.09c0.03,0.04,0.05,0.09,0.07,0.16c0.17,0.65,0.55,1.38,0.97,1.85c0.4,0.45,0.63,0.84,0.75,1.28
			c0.07,0.24,0.2,0.24,0.23,0.23c0.04-0.01,0.16-0.05,0.14-0.3c-0.03-0.46-0.28-1.07-0.63-1.55c-0.38-0.5-0.69-1.15-0.77-1.62
			c-0.08-0.46-0.02-0.84,0.11-1.31c0.24-0.87,0.89-1.67,1.42-2.08c0.64-0.49,0.99-1.3,0.93-2.17c-0.01-0.08,0.04-0.13,0.08-0.14
			c0.06-0.01,0.06,0.02,0.1,0.11c0.47,0.97,0.95,1.77,1.63,2.2c0.83,0.53,1.39,1.16,1.39,1.85c0,0.59-0.21,1.16-0.82,1.55
			c-2.09,1.36-1.7,3.16-1.01,4.44c0.36,0.66,0.6,0.99,0.84,1.31l0.03,0.04c0.22,0.3,0.25,0.65,0.09,0.98
			c-0.54,1.09-0.52,2.23,0.06,3.04c0.36,0.5,0.65,1,0.79,1.34c0.09,0.21,0.21,0.25,0.29,0.22c0.08-0.03,0.14-0.13,0.09-0.31
			c-0.14-0.49-0.43-1.01-0.64-1.39l-0.07-0.13c-0.3-0.56-0.22-1.58-0.03-2.04l0.27-0.59l0.11-0.25c0.04-0.09,0.1-0.16,0.17-0.17
			c0.04-0.01,0.08,0.01,0.12,0.06c0.36,0.39,0.65,1.03,0.84,1.45l0.04,0.08c0.21,0.45,0.54,0.65,0.86,0.8
			c0.57,0.27,1.3,0.72,1.51,1.35c0.06,0.16,0.16,0.2,0.23,0.18c0.1-0.02,0.15-0.13,0.12-0.25c-0.17-0.79-0.72-1.17-1.4-1.65
			l-0.08-0.05c-0.43-0.3-0.59-0.44-0.74-0.82c0,0-0.17-0.44-0.17-0.44c-0.25-0.67-0.46-1.25-1.03-1.58l-0.34-0.18
			c-0.24-0.12-0.42-0.21-0.58-0.41c-0.71-0.89-1.08-1.79-1.03-2.53c0.05-0.66,0.51-1.32,1.28-1.81c0.86-0.55,1.35-1.4,1.3-2.27
			c0-0.07,0.02-0.13,0.06-0.16c0.06-0.05,0.17-0.07,0.27-0.05c1.12,0.26,1.8,0.97,2,2.12c0.03,0.18,0.14,0.24,0.24,0.22
			c0.1-0.02,0.2-0.12,0.18-0.29c-0.07-0.61-0.22-2.02-1.73-2.64c-0.16-0.11-0.29-0.16-0.38-0.15c0,0-0.06,0-0.08,0
			c-0.03-0.01-0.3-0.07-0.3-0.07c0,0-0.11-0.02-0.11-0.02c-0.21-0.03-0.39-0.06-0.52-0.28c-0.4-0.73-0.99-1.15-1.46-1.43
			c-0.51-0.31-0.9-0.93-1.25-1.55c-0.36-0.63-0.71-1.16-1.49-1.23c-1.27-0.09-2.25-0.6-2.92-1.5c-0.02-0.03-0.04-0.07-0.04-0.1
			c0-0.02,0-0.04,0.02-0.06c0.03-0.05,0.09-0.08,0.18-0.08c1.8,0.1,2.82,0.45,3.78,1.3c0.69,0.61,1.14,1.26,1.58,1.88
			c0.81,1.16,1.98,1.31,3.12,1.31c1.14,0,2.04,0.35,2.71,2.1c0.51,1.34,0.49,2.38-0.04,3.18c-0.57,0.84-0.75,1.86-0.51,2.87
			c0.07,0.29,0.08,0.51,0.1,0.74c0.02,0.22,0.03,0.44,0.1,0.72c0.13,0.58,0.5,1.21,1.06,1.81c0.37,0.39,0.49,0.71,0.6,1.17
			c0.1,0.44,0.26,0.94,0.65,1.37c0.08,0.09,0.2,0.1,0.28,0.04c0.06-0.05,0.09-0.17,0.01-0.29c-0.01-0.02-0.34-0.46-0.41-1.24
			c-0.06-0.67-0.36-1.14-0.6-1.42c-0.19-0.22-0.38-0.46-0.55-0.92c-0.03-0.09-0.03-0.16,0.01-0.19c0.04-0.03,0.15-0.03,0.26,0.05
			c0.56,0.4,1.91,1.52,2.34,3.2c0.05,0.18,0.15,0.23,0.23,0.22c0.08-0.02,0.16-0.1,0.15-0.25c-0.1-1.23-0.99-2.78-2.18-3.76l0,0
			l-0.05-0.04c-0.45-0.38-1.02-0.85-1.18-1.63c-0.04-0.17-0.05-0.33-0.05-0.49c0-0.56,0.22-1.07,0.6-1.72
			c0.24-0.41,0.36-0.94,0.36-1.56c0-0.66-0.14-1.42-0.41-2.24c-0.39-1.15-0.95-1.91-1.72-2.3c-0.01,0-0.08-0.19-0.08-0.19
			c-0.54-0.24-1.15-0.36-1.59-0.39l-0.07-0.01c-1-0.05-1.75,0.05-2.33-0.7l-0.18-0.25c-0.3-0.42-0.8-1.11-1.54-1.8
			c-0.27-0.26-0.6-0.5-0.96-0.71c-0.03-0.04-0.09-0.07-0.33-0.18c-0.41-0.2-0.86-0.37-1.34-0.5c-0.15-0.05-0.36-0.11-0.46-0.12l0,0
			c0,0-0.45-0.05-0.45-0.05c0,0-0.56-0.05-0.56-0.05C23.5,16.89,23.16,16.88,22.95,16.91z M20.66,17.81c0.55-0.31,1.2-0.53,1.9-0.63
			c0.01,0,0.41-0.09,0.41-0.09c0.19-0.02,0.53-0.02,1.02,0.02c0,0,0.56,0.05,0.56,0.05c0,0,0.45,0.05,0.45,0.05
			c0.07,0.01,0.22,0.05,0.43,0.12c0.48,0.12,0.92,0.29,1.31,0.49c0.06,0.03,0.24,0.11,0.27,0.13l0,0l0.02,0.02l-0.02-0.01l0,0
			l0.03,0.03c0.35,0.21,0.67,0.44,0.93,0.69c0.73,0.68,1.22,1.36,1.52,1.77l0.19,0.25c0.63,0.8,1.42,0.91,2.46,0.97l0,0l0.07,0
			c0.42,0.03,0.94,0.06,1.45,0.28c0.01,0,0.09,0.04,0.09,0.04l0.03,0.02c0.74,0.37,1.28,1.1,1.66,2.22c0.26,0.79,0.4,1.54,0.4,2.18
			c0,0.58-0.11,1.09-0.33,1.47c-0.39,0.68-0.63,1.21-0.63,1.81c0,0.17,0.02,0.35,0.06,0.53c0.17,0.84,0.77,1.34,1.24,1.73l0.05,0.04
			c1.15,0.95,2.02,2.45,2.12,3.63c0,0.01,0,0.01,0,0.02c0,0.01,0,0.01,0,0.01c-0.01-0.01-0.01-0.03-0.02-0.05
			c-0.44-1.74-1.84-2.88-2.41-3.3c-0.17-0.12-0.35-0.14-0.47-0.05c-0.04,0.03-0.1,0.1-0.1,0.22c0,0.05,0.01,0.11,0.03,0.17
			c0.17,0.48,0.38,0.74,0.58,0.97c0.23,0.26,0.5,0.69,0.56,1.31c0.06,0.66,0.31,1.15,0.44,1.33c0.02,0.02,0.02,0.03,0.02,0.04
			c-0.01,0-0.02,0-0.03-0.02c-0.36-0.4-0.51-0.88-0.61-1.29c-0.11-0.49-0.25-0.83-0.64-1.26c-0.54-0.58-0.89-1.18-1.01-1.73
			c-0.06-0.27-0.08-0.49-0.09-0.7c-0.02-0.23-0.03-0.46-0.11-0.77c-0.07-0.28-0.1-0.56-0.1-0.83c0-0.67,0.2-1.33,0.58-1.9
			c0.3-0.44,0.45-0.95,0.45-1.53c0-0.54-0.13-1.14-0.38-1.81c-0.61-1.58-1.44-2.22-2.88-2.22c-1.1,0-2.21-0.14-2.97-1.23
			c-0.44-0.63-0.9-1.28-1.61-1.91c-0.98-0.87-2.07-1.25-3.88-1.35c-0.16-0.01-0.29,0.05-0.35,0.17c-0.02,0.05-0.04,0.1-0.04,0.15
			c0,0.07,0.02,0.14,0.07,0.21c0.69,0.93,1.74,1.47,3.05,1.57c0.69,0.06,1.02,0.55,1.35,1.14c0.36,0.65,0.77,1.29,1.32,1.62
			c0.48,0.29,1.03,0.67,1.4,1.36c0.16,0.3,0.42,0.34,0.65,0.37l0.1,0.02l0.32,0.07h0.02l0.09,0c0.02,0,0.1,0.01,0.29,0.13
			c1.26,0.52,1.54,1.56,1.64,2.5c0,0.01,0,0.02,0,0.02c0,0.05-0.02,0.07-0.03,0.07c0,0-0.02-0.02-0.04-0.08
			c-0.27-1.53-1.31-2.07-2.14-2.26c-0.16-0.04-0.32-0.01-0.43,0.08c-0.08,0.07-0.12,0.17-0.12,0.28c0,0.01,0,0.02,0,0.03
			c0,0.03,0,0.07,0,0.1c0,0.77-0.45,1.52-1.22,2.01c-0.81,0.52-1.31,1.23-1.36,1.95c0,0.05,0,0.1,0,0.15c0,0.75,0.38,1.63,1.07,2.5
			c0.19,0.24,0.4,0.34,0.64,0.46l0.33,0.17c0.51,0.29,0.72,0.85,0.95,1.48l0.17,0.45c0.17,0.42,0.36,0.59,0.81,0.9l0.08,0.05
			c0.68,0.48,1.18,0.82,1.33,1.54c0,0,0,0.01,0,0.01c0-0.01-0.01-0.01-0.01-0.03c-0.22-0.7-0.99-1.18-1.6-1.46
			c-0.27-0.13-0.58-0.3-0.78-0.71L31.2,34.7c-0.2-0.43-0.5-1.08-0.88-1.5c-0.08-0.09-0.18-0.13-0.29-0.11
			c-0.13,0.02-0.24,0.13-0.3,0.28l-0.11,0.24l-0.27,0.6c-0.11,0.26-0.19,0.68-0.19,1.11c0,0.39,0.06,0.79,0.22,1.08l0.07,0.13
			c0.21,0.37,0.49,0.88,0.62,1.35c0.01,0.03,0.01,0.05,0.01,0.07c-0.01-0.02-0.03-0.05-0.05-0.09c-0.14-0.35-0.45-0.86-0.81-1.37
			c-0.28-0.39-0.42-0.86-0.42-1.37c0-0.48,0.12-0.99,0.37-1.49c0.08-0.17,0.12-0.34,0.12-0.51c0-0.23-0.08-0.46-0.23-0.66
			l-0.03-0.04c-0.23-0.32-0.47-0.64-0.83-1.29c-0.66-1.21-1.02-2.92,0.95-4.2c0.67-0.43,1.03-1.03,1.03-1.68
			c0-0.76-0.49-1.49-1.38-2.05c-0.66-0.42-1.27-1.16-1.72-2.1c-0.1-0.2-0.25-0.24-0.37-0.21c-0.13,0.04-0.21,0.16-0.21,0.3
			c0,0.01,0,0.02,0,0.03c0,0.06,0.01,0.13,0.01,0.19c0,0.73-0.31,1.41-0.86,1.82c-0.56,0.43-1.23,1.26-1.48,2.18
			c-0.09,0.34-0.15,0.64-0.15,0.95c0,0.14,0.01,0.29,0.04,0.44c0.09,0.49,0.41,1.18,0.8,1.7c0.34,0.45,0.57,1.02,0.6,1.46
			c0,0.01,0,0.02,0,0.03c0,0.02,0,0.02,0,0.04c-0.01-0.02-0.02-0.04-0.02-0.06c-0.13-0.46-0.37-0.88-0.79-1.35
			c-0.4-0.45-0.78-1.16-0.93-1.78c-0.02-0.09-0.05-0.16-0.1-0.22l0-0.01L23.6,26.6l-0.12-0.11l-0.01-0.01
			c-0.07-0.04-0.14-0.06-0.23-0.06c-0.27-0.01-0.91,0.2-1.2,0.43c-0.37,0.29-0.55,0.61-0.55,0.98c0,0.17,0.04,0.35,0.12,0.55
			c0.36,0.9,0.55,1.79,0.72,2.57l0.1,0.44c0.07,0.33,0.21,0.51,0.4,0.55c0.64,0.13,1.97,0.63,2.86,1.13
			c0.02,0.02,0.03,0.02,0.03,0.03c-0.01,0-0.02,0-0.03-0.01c-0.95-0.44-2.19-0.75-2.69-0.8c-0.1-0.01-0.18,0.02-0.24,0.09
			c-0.05,0.05-0.08,0.13-0.08,0.21c0,0.03,0,0.06,0.01,0.08c0.26,1.06,0.89,2.82,1.49,3.94c0.01,0.02,0.01,0.03,0.01,0.04
			c-0.01-0.01-0.01-0.01-0.02-0.02c-0.47-0.62-1.01-1.75-1.46-3.01c-0.31-0.86-0.66-2.12-0.84-2.92c-0.17-0.73-0.32-1.13-0.63-1.92
			l-0.14-0.37c-0.08-0.21-0.12-0.43-0.12-0.63c0-0.25,0.06-0.49,0.18-0.72c0.29-0.57,0.95-1.03,1.8-1.24
			c0.46-0.12,0.73-0.51,0.82-0.8c0.23-0.79,0.73-1.51,1.52-2.22c0.47-0.43,0.54-0.93,0.59-1.37l0.01-0.05
			c0.01-0.08,0.01-0.15,0.01-0.22c0-0.41-0.19-0.67-0.62-0.83c-1.19-0.45-2-0.93-2.67-2c-0.15-0.23-0.35-0.47-0.73-0.4
			c-0.47,0.08-1.04,0.42-1.32,0.69c-0.2,0.2-0.29,0.43-0.29,0.7c0,0.05,0,0.09,0.01,0.14l0.04,0.69l0.02,0.46c0,0.05,0,0.1,0,0.15
			c0,0.58-0.21,1.09-0.61,1.83c-0.14,0.26-0.23,0.62-0.23,0.99c0,0.06,0,0.12,0.01,0.18c0.02,0.27,0.03,0.54,0.03,0.8
			c0,0.85-0.15,1.65-0.72,2.2c-0.02,0.02-0.02,0.01-0.03,0.02c0-0.01,0-0.01,0.01-0.02c0.36-0.63,0.46-1.28,0.46-1.88
			c0-0.4-0.04-0.79-0.08-1.13l-0.02-0.18c-0.01-0.08-0.01-0.16-0.01-0.24c0-0.33,0.06-0.68,0.17-0.96l0.12-0.29
			c0.1-0.23,0.2-0.48,0.27-0.72c0.05-0.16,0.07-0.35,0.07-0.56c0-0.27-0.03-0.57-0.06-0.92c-0.02-0.2-0.11-0.37-0.24-0.46
			c-0.09-0.06-0.24-0.12-0.46-0.05c-1.5,0.45-2.88,1.47-3.73,2.74c0.81-1.8,2.42-2.71,3.65-3.15c0.26-0.09,0.56-0.21,0.82-0.47
			c0.25-0.25,0.55-0.48,0.88-0.67l-0.02,0.01L20.66,17.81z M33.91,21.86L33.91,21.86l-0.02-0.01C33.89,21.85,33.9,21.86,33.91,21.86
			z"/>
		<g>
			<path class="st0" d="M21.1,34.1c-0.36-0.11-0.54-0.33-0.9-0.8c-0.05-0.01-0.14-0.09-0.27-0.17c-0.25-0.14-0.62-0.66-0.76-0.77
				c-0.13-0.12-0.91-0.63-1.03-0.67c-0.8-0.28-1.03-1.07-1.22-1.36l-0.01-0.02l0,0c-0.2-0.31-0.42-0.65-0.65-1l0,0
				c0.03,0.05-0.32-0.49-0.4-0.61c0,0,0,0,0-0.01c-0.07-0.11-0.4-0.31-0.37-0.17c0.02,0.13,0.17,0.52,0.26,0.62
				c0.09,0.1,0.4,0.63,0.43,0.79c0.03,0.16,0.41,0.67,0.5,0.83h0c0.28,0.46,0.51,0.87,0.65,1.17c0.23,0.48,0.31,0.67,0.42,1.15
				c0.14,0.6,0.41,1.46,0.68,1.93c0.05,0.08,0.09,0.11,0.11,0.1c0.02-0.01,0.04-0.07,0-0.17c-0.26-0.75-0.49-1.9-0.55-2.24
				c-0.03-0.16-0.01-0.26,0.06-0.31c0.08-0.06,0.21-0.03,0.4,0.08c0.45,0.26,0.95,0.71,1.38,1.23c0.23,0.29,0.63,0.64,1.2,0.74
				c0.09,0.02,0.14-0.02,0.15-0.05c0-0.01,0-0.01,0-0.02C21.16,34.32,21.18,34.13,21.1,34.1z"/>
		</g>
	</g>
</g>
</svg>
