<?xml version="1.0" encoding="utf-8"?>
<!-- Generator: Adobe Illustrator 23.0.3, SVG Export Plug-In . SVG Version: 6.00 Build 0)  -->
<svg version="1.1" id="Layer_1" xmlns="http://www.w3.org/2000/svg" xmlns:xlink="http://www.w3.org/1999/xlink" x="0px" y="0px"
	 viewBox="0 0 51.84 51.84" style="enable-background:new 0 0 51.84 51.84;" xml:space="preserve">
<style type="text/css">
	.st0{fill:none;}
	.st1{fill:#FFFFFF;}
	.st2{fill:#1C3A69;}
</style>
<g>
	<path class="st0" d="M34.36,23.38c-0.03-0.04-0.05-0.09-0.08-0.13c-0.11-0.14-0.23-0.26-0.38-0.36c-0.11-0.08-0.24-0.13-0.37-0.18
		h0c-0.36-0.14-0.77-0.18-1.18-0.19c-0.01,0-0.01,0-0.02,0c-0.2,0-0.4,0-0.6,0.01c-0.01,0-0.02,0-0.02,0
		c-0.19,0.01-0.37,0.02-0.54,0.03c-0.09,0.01-0.16,0.03-0.22,0.07c-0.4,0.23-0.33,0.97,0.22,0.93c0.61-0.04,1.73-0.22,2.23,0.2
		c0.37,0.32,0.5,0.93,0.78,1.33c0.37,0.52,1.23,0.02,0.86-0.5c-0.19-0.28-0.33-0.6-0.5-0.9l0,0C34.5,23.58,34.43,23.48,34.36,23.38z
		"/>
	<path class="st0" d="M31.86,18.02c0.28,0.11,0.56,0.23,0.84,0.34c0.59,0.25,0.85-0.72,0.27-0.96c-1.76-0.74-3.48-1.41-5.42-1.51
		c-0.64-0.03-0.64,0.97,0,1c0.05,0,0.09,0.01,0.14,0.02C29.15,17,30.56,17.38,31.86,18.02z"/>
	<g>
		<path class="st1" d="M26.22,1.21C12.5,1.21,1.37,12.33,1.37,26.05c0,13.72,11.12,24.84,24.84,24.84
			c13.72,0,24.84-11.12,24.84-24.84C51.05,12.33,39.93,1.21,26.22,1.21z M26.22,50.04c-13.25,0-23.99-10.74-23.99-23.99
			c0-13.25,10.74-23.99,23.99-23.99c13.25,0,23.99,10.74,23.99,23.99C50.21,39.3,39.47,50.04,26.22,50.04z"/>
		<path class="st1" d="M26.75,14.29c-0.21,0.08-0.36,1.1-0.32,1.3c0.54-0.09,2.13-0.3,2.67-0.32c0.06-0.37,0.12-0.8,0.18-1.27
			c-0.29,0-0.5,0.07-0.87,0.07C28.22,14.08,26.96,14.27,26.75,14.29z"/>
		<path class="st1" d="M21.78,11.64c0.15-0.14,0.29-0.27,0.43-0.4c-0.02-0.09,1.3-1.46,1.36-1.54c-0.02-0.02,1-1.7,1.06-1.83
			c0.03-0.17,0.03-0.28,0.03-0.36c-1.21,0.1-2.38,0.32-3.51,0.64c-0.05,0.57-0.15,1.65-0.22,2.27v0c0.01,0.02,0.01,0.03-0.01,0.04
			c-0.07,0.63-0.39,1.94-0.57,2.68C20.84,12.59,21.59,11.81,21.78,11.64z"/>
		<path class="st1" d="M26.92,17.28c-0.1,0-0.2-0.01-0.31-0.01c0.07,0.06,0.14,0.1,0.2,0.1C26.88,17.36,26.9,17.32,26.92,17.28z"/>
		<path class="st1" d="M26.32,9.3c0.04,0.22,0.07,0.44,0.09,0.69c0.02,0.15,0.04,0.29,0.04,0.45c0.01,0,0.01,0,0.02,0
			c0.02,0.19,0.03,0.37,0.03,0.57c-0.01,0-0.01,0-0.02,0c0,0.41-0.01,0.9-0.04,1.37c0.01,0,0.02-0.01,0.02-0.01
			c0.42-0.19,0.98-0.18,1.71,0.02c0.24,0.07,0.51,0.1,0.79,0.09c0.16,0,0.32,0.01,0.48,0.03c0.11-1.28,0.19-2.6,0.21-3.74
			c0-0.35-0.03-0.69-0.08-1.01c-1.09-0.2-2.21-0.32-3.35-0.32c-0.21,0-0.41,0.02-0.61,0.03c0.03,0.03,0.06,0.05,0.08,0.08
			C25.97,7.95,26.18,8.54,26.32,9.3z"/>
		<path class="st1" d="M17.85,42.01c0.01-0.11,0.05-5.17-0.38-5.11c-0.17,0.03-0.55-0.33-0.89-0.68l0,0l-0.07-0.07
			c-0.02-0.02-0.03-0.04-0.05-0.05l-0.01-0.01l0,0c-0.06-0.06-0.11-0.12-0.17-0.17c-0.15-0.12-0.38-0.17-0.51,0.36
			c-0.1,0.4-0.18,0.75-0.23,1.02c0.02,0.02,0.05,0.04,0.07,0.05c0.08,0.05,0,0.13-0.1,0.13c-0.04,0.21-0.07,0.34-0.07,0.34v1.39
			l-0.16,0.76c0,0.01,0,0.02-0.01,0.02l-0.16,0.77l-0.04,0.16c0.88,0.66,1.82,1.25,2.82,1.75C17.86,42.45,17.83,42.23,17.85,42.01z"
			/>
		<path class="st1" d="M19.43,18.61c0.69-0.59,1.86-1.42,2.2-1.54c-0.13-0.07-0.17-0.19,0.07-0.35c1.41-0.93,2.74-2.26,4.35-2.84
			c1.26-0.45,2.85-0.57,4.19-0.65c-0.08-0.05-0.16-0.11-0.25-0.15l-0.57-0.16c-0.15-0.02-0.3-0.03-0.46-0.03
			c-0.12,0-0.23-0.01-0.34-0.01c-0.07-0.04-0.15-0.07-0.24-0.07h-0.01c-0.04,0-0.06,0.01-0.09,0.02c-0.07-0.01-0.15-0.02-0.22-0.04
			c-0.63-0.17-1.11-0.19-1.43-0.05l-0.01,0c-0.17,0.07-0.38,0.17-0.59,0.05c-0.22-0.12-0.69-0.04-1.03,0.16
			c-0.14,0.09-0.31,0.09-0.43-0.01c-0.07-0.05-0.12-0.14-0.13-0.22c-0.01-0.06,0-0.13,0.01-0.19c0.25-0.89,0.68-1.66,1.3-2.34
			c-0.03-0.21,0.08-0.34-0.07-0.42c-0.16-0.09-0.63-0.56-0.73-0.62c-0.1-0.06-0.02-0.33,0.16-0.18c0.18,0.15,0.49,0.4,0.63,0.43
			c0.14,0.03,0.08-0.22,0.02-0.28c-0.06-0.06-0.33-0.25-0.47-0.35c-0.13-0.1-0.09-0.28,0.04-0.22c0.14,0.06,0.24,0.17,0.31,0.1
			c0.08-0.07-0.15-0.53-0.11-0.55c-0.03-0.07-0.28-0.41-0.3-0.41c-0.02,0-0.06,0.03-0.09,0.1c-0.69,1.51-1.41,2.68-3.08,4.17
			c-0.84,0.76-1.69,1.61-2.19,2.67c-0.03,0.05-0.73,1.22-0.74,1.3C18.22,17.66,18.71,18.8,19.43,18.61z"/>
		<path class="st1" d="M28.58,42.1c-0.36,0.04-0.72,0.05-1.07,0.06c-0.05,0.16,0.16,0.57-0.3,0.54c-0.1-0.01-0.04,0.41-0.05,0.5
			c-0.01,0.17-0.26,0.3-0.53,0.26c-0.55-0.09-0.86,0.37-0.85,0.54c0,0.08,0,0.36,0.03,0.66c0.14,0,0.28,0.02,0.42,0.02
			c1,0,1.98-0.1,2.93-0.25c-0.22-1.06-0.45-2.16-0.47-2.28C28.64,42.12,28.61,42.11,28.58,42.1z"/>
		<path class="st1" d="M20.92,27.02c-0.24-0.07-1.07-0.35-1.24-0.43c-0.09-0.05-0.14-0.03-0.17-0.01c-0.03,0.02-0.04,0.06-0.03,0.1
			c0.01,0.05,0.05,0.11,0.13,0.14c0.05,0.01,0.18,0.06,0.33,0.12c0.26,0.1,0.58,0.23,0.76,0.27c0.17,0.04,0.33,0.02,0.34-0.05
			C21.06,27.11,21.04,27.06,20.92,27.02z"/>
		<path class="st1" d="M23.52,41.19c-2.22-0.78-4.08-2.19-5.53-3.95c0.03,0.04,0.06,0.08,0.09,0.11c0.09,1.57,0.17,3.73,0.22,5.52
			c1.83,0.87,3.82,1.46,5.92,1.68C24.01,43.46,23.75,42.11,23.52,41.19L23.52,41.19z"/>
		<path class="st1" d="M14,31.53c-0.13-0.04-0.24-0.11-0.35-0.22c-0.02-0.02-0.04-0.05-0.07-0.08c-1.24-1.55-1.58-3.76-0.97-5.32
			c0.31-0.79,0.38-1.42,0-2.68c-0.27-0.88-0.13-1.52,0.28-1.99c0.17-0.2,0.4-0.33,0.64-0.41c-0.1-2.1-0.19-3.71-0.27-4.38
			c-0.01-0.14,0.01-0.26,0.05-0.35l0,0l0,0c0.04-0.09,0.11-0.15,0.19-0.19c0.34-0.15,0.89-0.3,1.36-0.38
			c0.38-0.07,0.57-0.21,0.71-0.54c0.09-0.24,0.15-0.41,0.24-0.68c0.27-0.82,1.14-0.84,1.3,0.05c0.32,1.78,0.16,3.71,0.27,5.32
			c0.21-0.14,0.42-0.27,0.63-0.39c-0.04-1.59,0.11-3.43,0.14-4.49c0.04-1.11,0.05-2.35,0.03-3.17c-0.02-0.81,0.09-1.39,0.27-2.02
			c0.05-0.17,0.08-0.33,0.09-0.5C12.1,12.04,7.6,18.52,7.6,26.05c0,5.73,2.61,10.87,6.7,14.28c-0.07-2.2-0.18-5.42-0.31-8.8
			C13.99,31.53,14,31.53,14,31.53z"/>
		<path class="st1" d="M33.54,22.71c0.13,0.05,0.26,0.11,0.37,0.18c-0.07-0.05-0.15-0.09-0.23-0.13
			C33.61,22.7,33.56,22.67,33.54,22.71z"/>
		<path class="st1" d="M27.67,16.91c-0.05,0-0.09-0.02-0.14-0.02C27.59,16.89,27.63,16.9,27.67,16.91
			C27.67,16.91,27.67,16.91,27.67,16.91z"/>
		<path class="st1" d="M16.14,20.77c0.29-0.34,0.6-0.64,0.93-0.89c-0.05-0.63-0.06-1.3-0.06-2.01c-0.01-1.13-0.02-2.29-0.21-3.4
			c-0.05-0.29-0.2-0.49-0.39-0.5c-0.17-0.01-0.39,0.13-0.5,0.47c-0.09,0.29-0.15,0.46-0.24,0.69c-0.04,0.09-0.08,0.17-0.12,0.24l0,0
			l0.27,2.43L16.14,20.77z"/>
		<path class="st1" d="M20.81,27.56c-0.08-0.03-0.22-0.13-0.41-0.17c-0.34-0.08-0.76-0.25-0.96-0.27c-0.16-0.01-0.2-0.03-0.22,0.04
			c-0.02,0.04,0,0.12,0.14,0.2c0.18,0.1,0.67,0.22,1.02,0.31l0.29,0.08c0.11,0.03,0.22,0.03,0.26-0.02
			c0.02-0.02,0.03-0.05,0.02-0.07C20.95,27.63,20.9,27.59,20.81,27.56z"/>
		<path class="st1" d="M36.8,18.92c-0.01-0.11-0.06-0.16-0.21-0.08c-0.18,0.09-0.5,0.31-0.62,0.44c-0.29,0.32-0.11,0.94-0.09,1.02
			c0.09,0.19,0.24,0.41,0.3,0.5c0.09,0.14,0.57,1.08,0.41,1.52c-0.02,0.05-0.03,0.28-0.02,0.35c0.01,0.06,0.04,0.12,0.06,0.18
			c0.08,0.09,0.16,0.18,0.24,0.27c0.07,0.07,0.14,0.13,0.21,0.2c0.05-0.02,0.1-0.04,0.15-0.06c-0.01-0.01-0.02-0.03-0.03-0.05
			c-0.11-0.17-0.23-0.34-0.27-0.56c-0.02-0.09-0.02-0.19,0-0.3c0.02-0.16,0.02-0.36-0.02-0.59c-0.05-0.27-0.15-0.59-0.29-0.96
			c-0.1-0.24-0.16-0.47-0.2-0.67c-0.06-0.35-0.03-0.64,0.08-0.88C36.58,19.12,36.67,19,36.8,18.92z"/>
		<path class="st1" d="M28.14,17.97c-0.1-0.12-0.34-0.12-0.2,0.06c0.07,0.09,0.37,0.44,0.66,0.77c0.59,0.6,1.02,1.17,1.28,1.54
			l0.18,0.25c0.58,0.75,1.33,0.64,2.33,0.7l0.07,0.01c0.33,0.02,0.76,0.09,1.18,0.23c-0.55-1.01-1.44-2-2.51-2.71
			c-0.84-0.56-1.72-0.9-2.55-1.01c0,0.01,0.01,0.01,0,0.02c-0.02,0.12-0.34-0.07-0.16,0.15c0.18,0.22,0.31,0.29,0.22,0.34
			C28.55,18.36,28.24,18.09,28.14,17.97z"/>
		<path class="st1" d="M21.26,26.92c0.33-0.58,0.95-1.08,1.81-1.29c0.39-0.1,0.58-0.38,0.65-0.63c0.24-0.82,0.76-1.58,1.57-2.31
			c0.42-0.38,0.46-0.8,0.51-1.23l0.01-0.05c0.06-0.47-0.08-0.63-0.5-0.79c-0.33-0.12-0.62-0.26-0.88-0.42
			c-0.1,0-0.18-0.03-0.23-0.11c-0.02-0.03-0.06-0.07-0.1-0.11c-0.14-0.1-0.28-0.2-0.41-0.31c-0.09-0.06-0.18-0.12-0.22-0.15
			c-0.13-0.09-0.49-0.23-0.61-0.4c-0.68-0.91-1.42-0.32-1.71-0.23c-0.18,0.06-0.41,0.37-0.47,0.6l0.01,0.19
			c0.01,0.01,0,0.04,0.01,0.04c0.21,0.1,0.81,0.24,1.03,0.31c0.22,0.08,0.31,0.28,0,0.34c-0.3,0.05-0.8-0.11-0.91-0.13
			c-0.03-0.01-0.07,0-0.1,0.02c0.01,0.13,0.02,0.37,0.02,0.38c0,0.04,0,0.07,0,0.1c0.31,0.14,0.36,0.1,0.47,0.13
			c0.23,0.07,0,0.3,0,0.3s-0.29-0.08-0.47-0.11c-0.02,0.18-0.05,0.36-0.11,0.54c0.14,0.06,0.32,0.11,0.41,0.16
			c0.23,0.13,0.2,0.37-0.02,0.29c-0.17-0.06-0.36-0.16-0.49-0.18c-0.04,0.1-0.07,0.19-0.12,0.3c0.09,0.06,0.18,0.11,0.29,0.17
			c0.16,0.09,0.14,0.23-0.04,0.17c-0.13-0.04-0.24-0.1-0.36-0.12c-0.05,0.11-0.1,0.21-0.16,0.33c-0.06,0.12-0.11,0.27-0.14,0.42
			c0.12,0.04,0.14,0.06,0.35,0.11c0.22,0.06,0.14,0.23-0.01,0.21c-0.18-0.02-0.3,0.01-0.38,0.07c0,0.09-0.02,0.18-0.01,0.27
			c0.01,0.14,0.02,0.27,0.02,0.41c0.05,0.09,0.12,0.17,0.19,0.2c0.17,0.09,0.4,0.06,0.46,0.14c0.06,0.08-0.04,0.19-0.25,0.18
			c-0.21-0.01-0.33,0.06-0.4,0.16c0,0.08,0,0.15-0.01,0.23c0.04,0.07,0.12,0.13,0.23,0.17c0.45,0.18,0.65,0.19,0.64,0.31
			c-0.02,0.18-0.31,0.12-0.55,0.06c-0.16-0.04-0.29-0.04-0.4-0.01c-0.03,0.16-0.08,0.32-0.14,0.47c0.35,0.13,1.23,0.37,1.31,0.42
			c0.08,0.06,0.04,0.23,0.09,0.27C21.15,26.81,21.21,26.84,21.26,26.92z"/>
		<path class="st1" d="M35.31,29.69c0,0.16,0.02,0.32,0.05,0.49c0.15,0.72,0.64,1.18,1.07,1.54c-0.46-1-0.78-2.06-0.81-3.23
			C35.43,28.91,35.31,29.28,35.31,29.69z"/>
		<path class="st1" d="M32.54,39.93c0.46,0.22,2.85-0.59,3.3-0.71c0.45-0.13,0.27,0.34-0.16,0.58c-0.42,0.25-3.05,0.58-3.61,0.56
			C31.5,40.33,32.2,39.77,32.54,39.93z"/>
		<path class="st1" d="M14.38,24.02l-0.41-0.59c-0.19-0.27-0.32-0.45-0.45-0.67c-0.13-0.23-0.14-0.52-0.01-0.77
			c0.15-0.29,0.44-0.48,0.81-0.52c0.15-0.02,0.25-0.07,0.25-0.13c0.01-0.07-0.08-0.2-0.25-0.25c-0.21-0.07-0.47-0.08-0.71-0.01
			c-0.66,0.29-0.99,1.02-0.67,1.8c0.03,0.07,0.06,0.15,0.09,0.22c0.29,0.51,0.89,0.93,0.98,1.04c0.12,0.14,0.19,0.43-0.01,0.23
			c-0.19-0.19-0.5-0.35-0.61-0.47c-0.12-0.12-0.09,0.73-0.04,0.96c0.02,0.08,0.77,0.83,0.96,0.96c0.18,0.13-0.06,0.17-0.12,0.12
			c-0.06-0.06-0.52-0.49-0.7-0.6c-0.18-0.11-0.24,0.09-0.13,0.19c0.11,0.1,0.48,0.38,0.57,0.47c0.09,0.1-0.01,0.19-0.09,0.11
			c-0.08-0.08-0.27-0.23-0.35-0.28c-0.27-0.17-0.29-0.01-0.39,0.17c-0.07,0.12,0.04,0.21,0.09,0.25c0.11,0.09,0.97,0.91,1.05,0.97
			c0.08,0.06,0.1,0.19-0.05,0.12c-0.15-0.06-0.67-0.64-0.82-0.71c-0.15-0.07-0.32,0.06-0.15,0.21c0.16,0.15,0.62,0.63,0.75,0.72
			c0.14,0.09,0.02,0.23-0.07,0.13c-0.09-0.1-0.76-0.77-0.89-0.86c-0.07-0.05-0.17,0.05-0.21,0.12c-0.01,0.03-0.1,0.46,0.22,0.71
			c0.11,0.09,0.94,0.8,1.1,0.97c0.15,0.16,0.06,0.28-0.05,0.2c-0.16-0.13-1.07-0.91-1.19-0.93c-0.14-0.02-0.26,0.57,0.14,0.92
			c0.23,0.21,0.65,0.55,0.74,0.65c0.09,0.1,0.02,0.25-0.09,0.13c-0.11-0.12-0.56-0.45-0.7-0.54c-0.13-0.09-0.05,0.22,0.08,0.33
			c0.14,0.11,0.53,0.51,0.76,0.65c0.24,0.14,0.11,0.25-0.04,0.14c-0.16-0.11-0.53-0.37-0.66-0.46c-0.13-0.09,0.05,0.24,0.2,0.36
			c0.16,0.11,0.27,0.3,0.18,0.34c-0.29,0.13,0.11,0.64,0.25,0.79c0.09,0.1,0.33,0.21,0.39,0.2c0.15,0,0.31-0.11,0.44-0.3
			c0.37-0.55,0.48-1.2,0.35-2.03c-0.13-0.84-0.04-1.48,0.01-1.95C15.04,26.24,14.96,24.88,14.38,24.02z"/>
		<path class="st1" d="M30.01,7.82c0.03,0.27,0.05,0.55,0.04,0.84c-0.03,1.21-0.11,2.56-0.22,3.8c0.33,0.11,0.86,0.41,1.03,0.45
			c0.32,0.07,0.54,0.56,0.59,0.67c0.05,0.12-0.16,0.23-0.37,0.22c-0.31-0.01-0.74-0.02-1.08-0.03c-0.11,0.01-0.21,0.01-0.32,0.02
			c-0.07,0.59-0.15,1.13-0.23,1.57c2.67-0.06,5.55,0.79,8.04,3.02c0.16,0.15,0.13,0.4-0.1,0.46c-0.54,0.15-0.8,0.69-0.36,1.76
			c0.28,0.68,0.4,1.24,0.32,1.66c-0.04,0.27,0.08,0.47,0.24,0.71c0.13,0.2,0.24,0.37,0.32,0.51c0.13,0.18,0.2,0.34-0.03,0.51
			c-0.25,0.19-0.7,0.28-1,0.19c-0.31-0.09-0.59-0.4-0.81-0.62c-0.05-0.05-0.09-0.1-0.14-0.15c0.28,0.58,0.49,1.22,0.6,1.86
			c0.12,0.66,0.14,1.32,0.04,1.91c-0.14,0.81-0.25,1.58-0.13,2.29c0.31,1.76,1.29,3.28,2.3,4.86l0.04,0.06
			c0.33,0.52,0.55,1.05,0.64,1.59c0.16,0.87,0,1.76-0.47,2.58c-0.59,1.04-1.64,1.92-3.03,2.53c-1.46,0.65-3.26,0.97-5.19,0.93
			c-0.51,0.13-1.03,0.14-1.53,0.05l-0.16,0.02l0.47,2.26c8.69-1.57,15.31-9.17,15.31-18.31C44.83,17.08,38.46,9.58,30.01,7.82z"/>
		<path class="st1" d="M26.22,5.45c-11.36,0-20.6,9.24-20.6,20.6c0,11.35,9.24,20.59,20.6,20.59c11.36,0,20.6-9.24,20.6-20.59
			C46.81,14.7,37.57,5.45,26.22,5.45z M26.22,45.28c-10.6,0-19.23-8.63-19.23-19.23S15.61,6.82,26.22,6.82
			c10.6,0,19.23,8.63,19.23,19.23S36.82,45.28,26.22,45.28z"/>
		<path class="st1" d="M35.43,23.6c-0.11-0.24-0.24-0.46-0.37-0.65c-0.29-0.41-0.63-0.73-1.03-0.93l-0.03-0.02
			c0,0-0.09-0.04-0.09-0.04c-0.02-0.01-0.03-0.01-0.05-0.02c-0.5-0.21-1-0.24-1.41-0.27l-0.07,0c-1-0.06-1.77-0.16-2.39-0.88
			c-0.03-0.03-0.05-0.06-0.08-0.09l-0.19-0.25c-0.3-0.41-0.79-1.1-1.52-1.77c-0.27-0.25-0.58-0.48-0.93-0.69l-0.03-0.02l0,0l0,0l0,0
			l0.01,0.01l-0.02-0.02l0,0c-0.03-0.03-0.21-0.1-0.27-0.13c-0.4-0.2-0.84-0.36-1.31-0.49c-0.21-0.07-0.37-0.11-0.43-0.12
			c0,0-0.45-0.05-0.45-0.05c0,0-0.55-0.05-0.56-0.05c-0.49-0.04-0.83-0.04-1.02-0.02c0,0-0.4,0.09-0.41,0.09
			c-0.7,0.11-1.35,0.32-1.9,0.63l-0.05,0.03l0.02-0.01c-0.33,0.19-0.63,0.42-0.88,0.67c-0.26,0.26-0.56,0.38-0.82,0.47
			c-0.36,0.13-0.74,0.3-1.14,0.51c-0.21,0.12-0.42,0.25-0.63,0.4c-0.74,0.52-1.44,1.24-1.89,2.24c0.86-1.27,2.23-2.29,3.73-2.74
			c0.22-0.07,0.38-0.01,0.46,0.05c0.14,0.09,0.23,0.26,0.24,0.46c0.04,0.34,0.06,0.65,0.06,0.92c0,0.22-0.02,0.4-0.07,0.56
			c-0.07,0.25-0.17,0.49-0.27,0.72l-0.12,0.29c-0.11,0.28-0.17,0.63-0.17,0.96c0,0.08,0,0.16,0.01,0.24l0.02,0.18
			c0.04,0.35,0.08,0.73,0.08,1.13c0,0.6-0.1,1.25-0.46,1.88c-0.01,0.01,0,0.01-0.01,0.02c0.01-0.01,0.01,0,0.03-0.02
			c0.24-0.23,0.39-0.5,0.5-0.8c0.03-0.09,0.07-0.17,0.09-0.26c0.09-0.36,0.13-0.74,0.13-1.14c0-0.26-0.01-0.53-0.03-0.8
			c0-0.06-0.01-0.12-0.01-0.18c0-0.37,0.08-0.73,0.23-0.99c0.01-0.02,0.02-0.04,0.03-0.05c0.02-0.04,0.04-0.08,0.06-0.12
			c0.07-0.13,0.14-0.27,0.19-0.39c0.02-0.04,0.03-0.07,0.04-0.11c0.07-0.17,0.13-0.33,0.17-0.48c0.04-0.13,0.06-0.26,0.08-0.39
			c0.01-0.1,0.03-0.19,0.03-0.29c0-0.05,0-0.1,0-0.15l0-0.03l-0.01-0.18l-0.01-0.25l-0.04-0.69c-0.01-0.05-0.01-0.09-0.01-0.14
			c0-0.28,0.1-0.51,0.29-0.7c0.28-0.27,0.84-0.61,1.32-0.69c0.38-0.07,0.59,0.16,0.73,0.4c0.53,0.86,1.17,1.33,2.01,1.72
			c0.21,0.1,0.43,0.19,0.66,0.28c0.42,0.16,0.62,0.42,0.62,0.83c0,0.07-0.01,0.14-0.01,0.22l-0.01,0.05
			c-0.06,0.44-0.13,0.94-0.59,1.37c-0.78,0.71-1.28,1.43-1.52,2.22c-0.09,0.29-0.35,0.69-0.82,0.8c-0.85,0.22-1.51,0.67-1.8,1.24
			c-0.03,0.05-0.04,0.11-0.06,0.16c-0.07,0.18-0.12,0.37-0.12,0.56c0,0.21,0.04,0.42,0.12,0.63l0.14,0.37
			c0.3,0.79,0.46,1.19,0.63,1.92c0.19,0.8,0.54,2.07,0.84,2.92c0.45,1.27,0.99,2.39,1.46,3.01c0.01,0.01,0.01,0.01,0.02,0.02
			c0-0.01,0-0.03-0.01-0.04c-0.6-1.12-1.23-2.88-1.49-3.94c-0.01-0.03-0.01-0.06-0.01-0.08c0-0.08,0.03-0.15,0.08-0.21
			c0.01-0.02,0.03-0.02,0.05-0.03c0.05-0.04,0.12-0.07,0.19-0.06c0.5,0.05,1.74,0.36,2.69,0.8c0.01,0.01,0.02,0.01,0.03,0.01
			c0-0.01-0.01-0.02-0.03-0.03c-0.9-0.51-2.23-1.01-2.86-1.13c-0.19-0.04-0.33-0.22-0.4-0.55l-0.01-0.03l-0.05-0.22l-0.04-0.19
			c-0.01-0.04-0.02-0.08-0.03-0.13c-0.06-0.29-0.13-0.58-0.2-0.89c-0.02-0.1-0.05-0.2-0.08-0.3c-0.11-0.41-0.24-0.83-0.41-1.26
			c-0.03-0.06-0.04-0.12-0.06-0.19c0-0.01-0.01-0.02-0.01-0.03c-0.03-0.12-0.05-0.23-0.05-0.33c0-0.18,0.04-0.34,0.13-0.5
			c0.09-0.17,0.23-0.33,0.42-0.48c0.29-0.23,0.93-0.44,1.2-0.43c0.09,0,0.16,0.02,0.23,0.06l0.01,0.01l0.12,0.11l0.02,0.01l0,0.01
			c0.04,0.06,0.07,0.13,0.1,0.22c0.16,0.62,0.53,1.33,0.93,1.78c0.42,0.46,0.66,0.88,0.79,1.35c0.01,0.03,0.02,0.04,0.02,0.06
			c0-0.01,0-0.02,0-0.04c0-0.01,0-0.02,0-0.03c-0.03-0.43-0.26-1.01-0.6-1.46c-0.39-0.52-0.71-1.2-0.8-1.7
			c-0.03-0.15-0.04-0.3-0.04-0.44c0-0.31,0.06-0.61,0.15-0.95c0.25-0.91,0.92-1.75,1.48-2.18c0.55-0.42,0.86-1.09,0.86-1.82
			c0-0.07,0-0.13-0.01-0.19c0-0.01,0-0.02,0-0.03c0-0.14,0.09-0.27,0.21-0.3c0.11-0.03,0.27,0.01,0.37,0.21
			c0.45,0.93,1.06,1.68,1.72,2.1c0.89,0.57,1.38,1.29,1.38,2.05c0,0.65-0.36,1.25-1.03,1.68c-1.98,1.28-1.61,2.99-0.95,4.2
			c0.36,0.65,0.6,0.98,0.83,1.29l0.03,0.04c0.15,0.21,0.23,0.43,0.23,0.66c0,0.17-0.04,0.34-0.12,0.51
			c-0.25,0.5-0.37,1.01-0.37,1.49c0,0.51,0.14,0.98,0.42,1.37c0.36,0.51,0.67,1.03,0.81,1.37c0.02,0.04,0.04,0.07,0.05,0.09
			c0-0.02,0-0.04-0.01-0.07c-0.13-0.47-0.42-0.98-0.62-1.35l-0.07-0.13c-0.16-0.29-0.22-0.69-0.22-1.08c0-0.43,0.08-0.85,0.19-1.11
			l0.27-0.6l0.11-0.24c0.06-0.15,0.18-0.26,0.3-0.28c0.1-0.02,0.2,0.02,0.29,0.11c0.38,0.41,0.68,1.06,0.88,1.5l0.04,0.08
			c0.19,0.42,0.5,0.59,0.78,0.71c0.61,0.28,1.38,0.76,1.6,1.46c0.01,0.01,0.01,0.02,0.01,0.03c0,0,0-0.01,0-0.01
			c-0.15-0.72-0.65-1.06-1.33-1.54l-0.08-0.05c-0.44-0.31-0.64-0.48-0.81-0.9l-0.17-0.45c-0.24-0.64-0.44-1.19-0.95-1.48l-0.33-0.17
			c-0.24-0.12-0.46-0.22-0.64-0.46c-0.7-0.87-1.07-1.75-1.07-2.5c0-0.05,0-0.1,0-0.15c0.05-0.72,0.55-1.43,1.36-1.95
			c0.77-0.49,1.22-1.24,1.22-2.01c0-0.03,0-0.07,0-0.1c0-0.01,0-0.02,0-0.03c0-0.11,0.04-0.21,0.12-0.28
			c0.11-0.09,0.27-0.12,0.43-0.08c0.83,0.19,1.87,0.73,2.14,2.26c0.01,0.06,0.03,0.07,0.04,0.08c0.01,0,0.03-0.02,0.03-0.07
			c0-0.01,0-0.01,0-0.02c-0.1-0.95-0.37-1.98-1.64-2.5c-0.19-0.12-0.27-0.13-0.29-0.13l-0.09,0h-0.02l-0.32-0.07l-0.1-0.02
			c-0.23-0.03-0.48-0.07-0.65-0.37c-0.37-0.69-0.92-1.08-1.4-1.36C28.77,22.28,28.36,21.64,28,21c-0.33-0.59-0.66-1.08-1.35-1.14
			c-0.65-0.05-1.25-0.21-1.76-0.48c-0.51-0.26-0.95-0.63-1.29-1.1c-0.05-0.06-0.07-0.14-0.07-0.21c0-0.04,0.01-0.07,0.03-0.11
			c0.01-0.01,0-0.03,0.01-0.04c0.03-0.06,0.09-0.11,0.15-0.13c0.06-0.02,0.12-0.04,0.2-0.03c1.32,0.07,2.26,0.3,3.04,0.74
			c0.14,0.08,0.28,0.17,0.41,0.26c0.15,0.1,0.29,0.22,0.43,0.34c0.18,0.16,0.34,0.32,0.49,0.48c0.06,0.06,0.11,0.12,0.16,0.18
			c0.37,0.42,0.67,0.84,0.96,1.25c0.76,1.09,1.88,1.23,2.97,1.23c1.44,0,2.27,0.64,2.88,2.22c0.15,0.4,0.24,0.76,0.3,1.11
			c0.04,0.24,0.08,0.48,0.08,0.71c0,0.58-0.15,1.09-0.45,1.53c-0.38,0.57-0.58,1.22-0.58,1.9c0,0.28,0.03,0.55,0.1,0.83
			c0.07,0.3,0.09,0.54,0.11,0.77c0.02,0.21,0.03,0.43,0.09,0.7c0.13,0.55,0.48,1.15,1.01,1.73c0.4,0.42,0.53,0.77,0.64,1.26
			c0.1,0.41,0.25,0.89,0.61,1.29c0.01,0.01,0.02,0.01,0.03,0.02c0-0.01,0-0.02-0.02-0.04c-0.14-0.18-0.38-0.67-0.44-1.33
			c-0.05-0.62-0.33-1.06-0.56-1.31c-0.2-0.23-0.41-0.49-0.58-0.97c-0.02-0.06-0.03-0.12-0.03-0.17c0-0.13,0.07-0.2,0.1-0.22
			c0.12-0.09,0.3-0.07,0.47,0.05c0.26,0.19,0.69,0.53,1.13,1.01c0.49,0.54,0.97,1.24,1.23,2.11c0.02,0.06,0.04,0.12,0.06,0.18
			c0.01,0.03,0.01,0.04,0.02,0.05c0-0.01,0-0.01,0-0.01c0,0,0-0.01,0-0.02c0-0.01,0-0.01,0-0.02c-0.1-1.13-0.9-2.53-1.97-3.48
			c-0.05-0.04-0.09-0.09-0.14-0.13l-0.05-0.04c-0.48-0.4-1.07-0.89-1.24-1.73c-0.04-0.18-0.06-0.36-0.06-0.53
			c0-0.52,0.19-1,0.5-1.57c0.04-0.08,0.08-0.15,0.13-0.23c0.22-0.38,0.33-0.88,0.33-1.47c0-0.64-0.13-1.38-0.4-2.18
			C35.61,24,35.52,23.79,35.43,23.6z"/>
		<path class="st1" d="M18.76,35.11c0.02-0.01,0.04-0.07,0-0.17c-0.26-0.75-0.49-1.9-0.55-2.24c-0.03-0.16-0.01-0.26,0.06-0.31
			c0.08-0.06,0.21-0.03,0.4,0.08c0.45,0.26,0.95,0.71,1.38,1.23c0.23,0.29,0.63,0.64,1.2,0.74c0.09,0.02,0.14-0.02,0.15-0.05
			c0-0.01,0-0.01,0-0.02c-0.01-0.04,0.01-0.22-0.07-0.25c-0.36-0.11-0.54-0.33-0.9-0.8c-0.05-0.01-0.14-0.09-0.27-0.17
			c-0.25-0.14-0.62-0.66-0.76-0.77c-0.13-0.12-0.91-0.63-1.03-0.67c-0.8-0.28-1.03-1.07-1.22-1.36l-0.01-0.02
			c-0.2-0.31-0.42-0.65-0.65-1c0.03,0.05-0.32-0.49-0.4-0.61c0,0,0,0,0-0.01c-0.07-0.11-0.4-0.31-0.37-0.17
			c0.02,0.13,0.17,0.52,0.26,0.62c0.09,0.1,0.4,0.63,0.43,0.79c0.03,0.16,0.41,0.67,0.5,0.83h0c0.28,0.46,0.51,0.87,0.65,1.17
			c0.23,0.48,0.31,0.67,0.42,1.15c0.14,0.6,0.41,1.46,0.68,1.93C18.71,35.09,18.75,35.12,18.76,35.11z"/>
	</g>
	<g>
		<path class="st2" d="M26.22,2.06C12.96,2.06,2.22,12.8,2.22,26.05c0,13.25,10.74,23.99,23.99,23.99
			c13.25,0,23.99-10.74,23.99-23.99C50.21,12.8,39.47,2.06,26.22,2.06z M46.81,26.05c0,11.35-9.24,20.59-20.6,20.59
			c-11.36,0-20.6-9.24-20.6-20.59c0-11.36,9.24-20.6,20.6-20.6C37.57,5.45,46.81,14.7,46.81,26.05z"/>
		<path class="st2" d="M26.22,6.82c-10.6,0-19.23,8.63-19.23,19.23s8.63,19.23,19.23,19.23c10.6,0,19.23-8.63,19.23-19.23
			S36.82,6.82,26.22,6.82z M26.22,44.67c-0.14,0-0.28-0.02-0.42-0.02c-0.02-0.29-0.02-0.57-0.03-0.66c0-0.17,0.3-0.63,0.85-0.54
			c0.27,0.04,0.52-0.09,0.53-0.26c0.01-0.09-0.05-0.5,0.05-0.5c0.45,0.03,0.25-0.38,0.3-0.54c0.35,0,0.71-0.02,1.07-0.06
			c0.03,0.01,0.07,0.02,0.1,0.03c0.03,0.12,0.26,1.22,0.47,2.28C28.19,44.57,27.22,44.67,26.22,44.67z M15.07,40.93l0.04-0.16
			l0.16-0.77l0.01-0.02l0.16-0.76v-1.39c0,0,0.03-0.13,0.07-0.34c0.11,0,0.19-0.08,0.1-0.13c-0.02-0.01-0.04-0.03-0.07-0.05
			c0.06-0.27,0.14-0.63,0.23-1.02c0.13-0.53,0.35-0.47,0.51-0.36c0.05,0.05,0.11,0.11,0.17,0.17l0,0l0.01,0.01l0.05,0.05l0.07,0.07
			l0,0c0.34,0.35,0.72,0.71,0.89,0.68c0.43-0.06,0.39,5,0.38,5.11c-0.02,0.21,0,0.44,0.04,0.66C16.89,42.18,15.95,41.59,15.07,40.93
			z M7.6,26.05c0-7.53,4.5-14.01,10.94-16.94c-0.01,0.17-0.03,0.33-0.09,0.5c-0.19,0.63-0.29,1.21-0.27,2.02
			c0.02,0.82,0.01,2.05-0.03,3.17c-0.03,1.05-0.17,2.89-0.14,4.49c-0.21,0.11-0.42,0.24-0.63,0.39c-0.11-1.61,0.05-3.54-0.27-5.32
			c-0.16-0.89-1.03-0.88-1.3-0.05c-0.09,0.27-0.15,0.44-0.24,0.68c-0.13,0.33-0.32,0.48-0.71,0.54c-0.47,0.08-1.02,0.23-1.36,0.38
			c-0.08,0.04-0.15,0.1-0.19,0.19l0,0l0,0c-0.05,0.09-0.07,0.21-0.05,0.35c0.07,0.67,0.16,2.27,0.27,4.38
			c-0.24,0.08-0.46,0.21-0.64,0.41c-0.41,0.47-0.55,1.11-0.28,1.99c0.39,1.26,0.31,1.89,0,2.68c-0.62,1.56-0.27,3.77,0.97,5.32
			c0.02,0.03,0.05,0.06,0.07,0.08c0.11,0.12,0.23,0.19,0.35,0.22c0,0-0.01-0.01-0.02-0.01c0.13,3.38,0.24,6.6,0.31,8.8
			C10.21,36.92,7.6,31.78,7.6,26.05z M29.65,8.76c-0.02,1.14-0.1,2.46-0.21,3.74c-0.16-0.02-0.31-0.03-0.48-0.03
			c-0.28,0.01-0.54-0.02-0.79-0.09c-0.73-0.2-1.3-0.21-1.71-0.02c0,0-0.02,0.01-0.02,0.01c0.03-0.47,0.05-0.96,0.04-1.37
			c0.01,0,0.01,0,0.02,0c0-0.19-0.01-0.37-0.03-0.57c-0.01,0-0.01,0-0.02,0c-0.01-0.15-0.03-0.3-0.04-0.45
			c-0.02-0.24-0.06-0.47-0.09-0.69c-0.14-0.76-0.35-1.35-0.63-1.75c-0.02-0.03-0.05-0.05-0.08-0.08c0.2-0.01,0.4-0.03,0.61-0.03
			c1.15,0,2.26,0.12,3.35,0.32C29.62,8.08,29.65,8.41,29.65,8.76z M36.42,20.13c0.04,0.21,0.1,0.43,0.2,0.67
			c0.15,0.36,0.24,0.68,0.29,0.96c0.04,0.23,0.04,0.42,0.02,0.59c-0.02,0.11-0.02,0.21,0,0.3c0.04,0.22,0.16,0.39,0.27,0.56
			c0.01,0.01,0.02,0.03,0.03,0.05c-0.05,0.02-0.1,0.04-0.15,0.06c-0.07-0.07-0.14-0.13-0.21-0.2c-0.08-0.09-0.16-0.18-0.24-0.27
			c-0.02-0.06-0.05-0.11-0.06-0.18c-0.01-0.06,0-0.3,0.02-0.35c0.16-0.44-0.32-1.38-0.41-1.52c-0.06-0.09-0.21-0.31-0.3-0.5
			c-0.02-0.08-0.21-0.7,0.09-1.02c0.12-0.14,0.44-0.35,0.62-0.44c0.15-0.08,0.2-0.03,0.21,0.08c-0.12,0.09-0.22,0.2-0.29,0.34
			C36.39,19.49,36.36,19.79,36.42,20.13z M37.97,38.95c-0.05,0.06-0.11,0.11-0.18,0.16c-3.11,2.15-7.13,1.93-7.36,1.87
			c-0.22-0.06-1.59-0.03-1.71-0.02c-0.13,0.01-0.19,0.13-0.27,0.15c-0.08,0.02-0.31,0.09-0.01,0.13c0.3,0.04,1.72-0.05,1.84-0.05
			c2.52,0.1,4.44-0.43,4.89-0.56c0.33-0.09,1.58-0.64,2.35-1.19c-0.44,0.55-2.73,2.93-10.45,2.22c-0.72-0.22-0.87-0.76-0.93-0.94
			c-0.05-0.18-1.1-0.65-1.33-0.67c-0.24-0.03-0.2-0.22-0.02-0.28c0.18-0.05-0.17-0.22-0.38-0.31c-0.87-0.35-0.43-0.93-0.18-0.84
			c0.25,0.1,1.15,0.41,1.46,0.45c0.31,0.04,0.09-0.16-0.04-0.21c-0.13-0.05-0.85-0.25-1.05-0.35c-0.81-0.41,0.05-0.9,0.36-0.86
			c0.12,0.02,0.97,0.22,1.27,0.31c0.3,0.09,0.15-0.07-0.12-0.17c-0.27-0.09-0.4-0.14-0.72-0.25c-0.32-0.11,0-0.14,0.09-0.15
			c0.09-0.02,0.68,0.16,0.63,0.05c-0.07-0.15-0.5-0.26-0.92-0.44c-0.47-0.19-2.08-1.99,0.39-1.32c0.23,0.07,0.28-0.24,0.18-0.29
			c-0.1-0.05-1.41-0.59-1.63-0.65c-0.64-0.18-0.67-0.87-0.54-0.82c0.12,0.05,1.26,0.5,1.42,0.5c0.16,0,0.17-0.24,0.02-0.31
			c-0.15-0.07-1.12-0.43-1.29-0.47c-0.17-0.04-0.39-0.16-0.34-0.26c0.04-0.07-0.05-0.08-0.16-0.15c-0.03-0.11-0.06-0.21-0.09-0.32
			c0.08-0.02,0.18-0.02,0.32,0.03c0.32,0.11,0.16-0.14,0.06-0.21c-0.07-0.05-0.22-0.14-0.36-0.25c0.01,0,0.02-0.01,0.03-0.01
			c0.5,0.05,1.74,0.37,2.63,0.78c0.13,0.06,0.23,0.01,0.28-0.07c0.04-0.08,0.02-0.19-0.11-0.27c-0.93-0.53-2.25-1.03-2.92-1.16
			c-0.14-0.03-0.21-0.21-0.25-0.37c0.04,0.01,0.07,0.01,0.11,0.02c0.18,0.01,0.06-0.11-0.14-0.17l-0.07-0.33
			c0-0.02-0.01-0.05-0.02-0.07c0.09,0.01,0.19,0.03,0.25,0.02c0.18-0.01,0.08-0.06-0.12-0.16c-0.07-0.03-0.13-0.07-0.18-0.1
			c-0.02-0.09-0.04-0.18-0.06-0.27c0.09,0.01,0.21,0.04,0.37,0.02c0.24-0.02,0.1-0.18-0.07-0.24c-0.12-0.04-0.24-0.06-0.37-0.09
			c-0.04-0.17-0.08-0.34-0.13-0.51c0.05-0.01,0.11-0.01,0.19-0.01c0.21,0.01,0.31-0.05,0.28-0.11c-0.06-0.16-0.42-0.13-0.54-0.14
			c0,0,0,0-0.01,0c-0.07-0.23-0.15-0.47-0.23-0.71c0.05-0.02,0.11-0.03,0.15-0.03c0.1,0.01,0.12-0.32-0.25-0.26h0
			c-0.19-0.51-0.07-0.91,0.39-1.27c0.25-0.2,0.85-0.41,1.08-0.39c0.06,0,0.1,0.01,0.14,0.04c0.02,0.02,0.08,0.07,0.1,0.09
			c0.03,0.04,0.05,0.09,0.07,0.16c0.17,0.65,0.55,1.38,0.97,1.85c0.4,0.45,0.63,0.84,0.75,1.28c0.07,0.24,0.2,0.24,0.23,0.23
			c0.04-0.01,0.16-0.05,0.14-0.3c-0.03-0.46-0.28-1.07-0.63-1.55c-0.38-0.5-0.69-1.15-0.77-1.62c-0.08-0.46-0.02-0.84,0.11-1.31
			c0.24-0.87,0.89-1.67,1.42-2.08c0.64-0.49,0.99-1.3,0.93-2.17c-0.01-0.08,0.04-0.13,0.08-0.14c0.06-0.01,0.06,0.02,0.1,0.11
			c0.47,0.97,0.95,1.77,1.63,2.2c0.83,0.53,1.39,1.16,1.39,1.85c0,0.59-0.21,1.16-0.82,1.55c-2.09,1.36-1.7,3.16-1.01,4.44
			c0.36,0.66,0.6,0.99,0.84,1.31l0.03,0.04c0.22,0.3,0.25,0.65,0.09,0.98c-0.54,1.09-0.52,2.23,0.06,3.04c0.36,0.5,0.65,1,0.79,1.34
			c0.09,0.21,0.21,0.25,0.29,0.22c0.08-0.03,0.14-0.13,0.09-0.31c-0.14-0.49-0.43-1.01-0.64-1.39l-0.07-0.13
			c-0.3-0.56-0.22-1.58-0.03-2.04l0.27-0.59l0.11-0.25c0.04-0.09,0.1-0.16,0.17-0.17c0.04-0.01,0.08,0.01,0.12,0.06
			c0.36,0.39,0.65,1.03,0.84,1.45l0.04,0.08c0.21,0.45,0.54,0.65,0.86,0.8c0.57,0.27,1.3,0.72,1.51,1.35
			c0.06,0.16,0.16,0.2,0.23,0.18c0.1-0.02,0.15-0.13,0.12-0.25c-0.17-0.79-0.72-1.17-1.4-1.65l-0.08-0.05
			c-0.43-0.3-0.59-0.44-0.74-0.82c0,0-0.17-0.44-0.17-0.44c-0.25-0.67-0.46-1.25-1.03-1.58l-0.34-0.18
			c-0.24-0.12-0.42-0.21-0.58-0.41c-0.71-0.89-1.08-1.79-1.03-2.53c0.05-0.66,0.51-1.32,1.28-1.81c0.86-0.55,1.35-1.4,1.3-2.27
			c0-0.07,0.02-0.13,0.06-0.16c0.06-0.05,0.17-0.07,0.27-0.05c1.12,0.26,1.8,0.97,2,2.12c0.03,0.18,0.14,0.24,0.24,0.22
			c0.1-0.02,0.2-0.12,0.18-0.29c-0.07-0.61-0.22-2.02-1.73-2.64c-0.16-0.11-0.29-0.16-0.38-0.15c0,0-0.06,0-0.08,0
			c-0.03-0.01-0.3-0.07-0.3-0.07c0,0-0.11-0.02-0.11-0.02c-0.21-0.03-0.39-0.06-0.52-0.28c-0.4-0.73-0.99-1.15-1.46-1.43
			c-0.51-0.31-0.9-0.93-1.25-1.55c-0.36-0.63-0.71-1.16-1.49-1.23c-0.86-0.06-1.57-0.33-2.16-0.76c-0.06-0.06-0.1-0.12-0.11-0.15
			c-0.04-0.15,0.14-0.13,0.31-0.21c0.18-0.08,0.84,0.33,1.1,0.26c0.26-0.06,0.81-0.05,1.15,0.2c0.23,0.17,0.66,0.35,0.96,0.45
			c0.35,0.34,0.64,0.68,0.89,1.02c0.1,0.14,0.19,0.27,0.2,0.33c0.03,0.19,0.37,0.53,0.6,1.01c0.23,0.46,1.12,0.74,1.34,0.8h0
			c0.06-0.04,0.14-0.06,0.22-0.07c0.17-0.01,0.35-0.02,0.54-0.03c0.01,0,0.02,0,0.02,0c0.19-0.01,0.4-0.02,0.6-0.01
			c0.01,0,0.01,0,0.02,0c0.41,0.01,0.82,0.05,1.18,0.19h0c0.02-0.04,0.07-0.01,0.14,0.06c0.08,0.04,0.16,0.08,0.23,0.13
			c0.15,0.1,0.27,0.22,0.38,0.36c0.03,0.04,0.05,0.09,0.08,0.13c0.07,0.1,0.14,0.2,0.2,0.31c0.16,0.18,0.43,0.67,0.61,1.09
			c0.41,1.22,0.39,2.19-0.12,2.94c-0.57,0.84-0.75,1.86-0.51,2.87c0.07,0.29,0.08,0.51,0.1,0.74c0.02,0.22,0.03,0.44,0.1,0.72
			c0.13,0.58,0.5,1.21,1.06,1.81c0.37,0.39,0.49,0.7,0.6,1.17c0.1,0.44,0.26,0.94,0.65,1.37c0.08,0.09,0.2,0.1,0.28,0.04
			c0.06-0.05,0.09-0.17,0.01-0.29c-0.01-0.02-0.34-0.46-0.41-1.24c-0.06-0.67-0.36-1.14-0.6-1.42c-0.19-0.22-0.38-0.46-0.55-0.92
			c-0.03-0.09-0.03-0.16,0.01-0.19c0.04-0.03,0.15-0.03,0.26,0.05c0.56,0.4,1.91,1.52,2.34,3.2c0.05,0.18,0.15,0.23,0.23,0.22
			c0.02,0,0.04-0.02,0.05-0.04c0.02,0.05,0.04,0.11,0.05,0.14c0.08,0.23,0.11,0.9,0.09,1.2c-0.03,0.29-0.5,1.3-0.62,1.48
			C38.16,38.73,38.07,38.84,37.97,38.95z M18.21,32.7c0.06,0.35,0.29,1.49,0.55,2.24c0.04,0.1,0.02,0.16,0,0.17
			c-0.02,0.01-0.06-0.02-0.11-0.1c-0.27-0.47-0.55-1.32-0.68-1.93c-0.11-0.48-0.19-0.67-0.42-1.15c-0.15-0.3-0.38-0.71-0.65-1.17h0
			c-0.1-0.16-0.48-0.67-0.5-0.83c-0.03-0.16-0.34-0.7-0.43-0.79c-0.09-0.1-0.24-0.48-0.26-0.62c-0.03-0.14,0.3,0.06,0.37,0.17
			c0,0,0,0.01,0,0.01c0.09,0.12,0.44,0.66,0.4,0.61c0.22,0.35,0.45,0.69,0.65,1l0.01,0.02c0.19,0.29,0.42,1.07,1.22,1.36
			c0.12,0.04,0.9,0.56,1.03,0.67c0.13,0.12,0.51,0.63,0.76,0.77c0.14,0.08,0.22,0.16,0.27,0.17c0.36,0.47,0.54,0.69,0.9,0.8
			c0.08,0.03,0.06,0.21,0.07,0.25c0,0.01,0,0.01,0,0.02c-0.01,0.04-0.07,0.07-0.15,0.05c-0.57-0.1-0.97-0.45-1.2-0.74
			c-0.43-0.52-0.93-0.97-1.38-1.23c-0.19-0.1-0.32-0.13-0.4-0.08C18.2,32.44,18.18,32.53,18.21,32.7z M13.3,30.09
			c-0.16-0.11-0.33-0.45-0.2-0.36c0.13,0.09,0.5,0.35,0.66,0.46c0.16,0.11,0.28,0,0.04-0.14c-0.23-0.14-0.62-0.54-0.76-0.65
			c-0.13-0.11-0.21-0.42-0.08-0.33c0.13,0.09,0.58,0.43,0.7,0.54c0.11,0.12,0.18-0.03,0.09-0.13c-0.09-0.1-0.5-0.45-0.74-0.65
			c-0.4-0.35-0.28-0.94-0.14-0.92c0.13,0.02,1.03,0.79,1.19,0.93c0.11,0.09,0.2-0.04,0.05-0.2c-0.15-0.17-0.98-0.88-1.1-0.97
			c-0.32-0.25-0.23-0.68-0.22-0.71c0.03-0.07,0.14-0.17,0.21-0.12c0.13,0.09,0.81,0.76,0.89,0.86c0.09,0.1,0.2-0.04,0.07-0.13
			c-0.13-0.09-0.59-0.56-0.75-0.72c-0.17-0.16,0-0.28,0.15-0.21c0.15,0.07,0.67,0.65,0.82,0.71c0.15,0.07,0.13-0.06,0.05-0.12
			c-0.08-0.06-0.94-0.87-1.05-0.97c-0.05-0.05-0.16-0.13-0.09-0.25c0.1-0.18,0.12-0.33,0.39-0.17c0.08,0.05,0.27,0.21,0.35,0.28
			c0.08,0.08,0.18-0.01,0.09-0.11c-0.09-0.1-0.46-0.38-0.57-0.47c-0.11-0.1-0.05-0.29,0.13-0.19c0.18,0.11,0.65,0.54,0.7,0.6
			c0.06,0.06,0.3,0.01,0.12-0.12c-0.19-0.13-0.94-0.88-0.96-0.96c-0.05-0.23-0.08-1.07,0.04-0.96c0.11,0.12,0.42,0.28,0.61,0.47
			c0.2,0.2,0.12-0.09,0.01-0.23c-0.09-0.11-0.69-0.54-0.98-1.04c-0.03-0.08-0.06-0.15-0.09-0.22c-0.32-0.78,0.01-1.51,0.67-1.8
			c0.25-0.06,0.51-0.05,0.71,0.01c0.17,0.06,0.26,0.18,0.25,0.25c-0.01,0.06-0.1,0.11-0.25,0.13c-0.37,0.04-0.67,0.23-0.81,0.52
			c-0.13,0.25-0.12,0.54,0.01,0.77c0.13,0.22,0.26,0.41,0.45,0.67l0.41,0.59c0.58,0.86,0.66,2.22,0.54,3.12
			c-0.06,0.47-0.14,1.11-0.01,1.95c0.13,0.83,0.01,1.48-0.35,2.03c-0.13,0.19-0.28,0.3-0.44,0.3c-0.06,0-0.3-0.1-0.39-0.2
			c-0.14-0.15-0.53-0.67-0.25-0.79C13.57,30.39,13.46,30.2,13.3,30.09z M19.15,18.98c0.26-0.09,0.56-0.21,0.82-0.47
			c0.25-0.25,0.55-0.48,0.88-0.67l-0.02,0.01l0.05-0.03c0.55-0.31,1.2-0.53,1.9-0.63c0.01,0,0.41-0.09,0.41-0.09
			c0.19-0.02,0.53-0.02,1.02,0.02c0,0,0.56,0.05,0.56,0.05c0,0,0.45,0.05,0.45,0.05c0.07,0.01,0.22,0.05,0.43,0.12
			c0.48,0.12,0.92,0.29,1.31,0.49c0.06,0.03,0.24,0.11,0.27,0.13l0,0l0.02,0.02l-0.01-0.01l0.03,0.02c0.35,0.21,0.67,0.44,0.93,0.69
			c0.73,0.68,1.22,1.36,1.52,1.77l0.19,0.25c0.03,0.03,0.05,0.06,0.08,0.09c0.61,0.72,1.38,0.82,2.39,0.88l0.07,0
			c0.41,0.03,0.91,0.06,1.41,0.27c0.02,0.01,0.03,0.01,0.05,0.02c0.01,0,0.09,0.04,0.09,0.04l0.03,0.02c0.4,0.2,0.74,0.52,1.03,0.93
			c0.14,0.19,0.26,0.41,0.37,0.65c0.09,0.2,0.18,0.4,0.26,0.63c0.26,0.79,0.4,1.54,0.4,2.18c0,0.58-0.11,1.09-0.33,1.47
			c-0.05,0.08-0.08,0.15-0.13,0.23c-0.31,0.57-0.5,1.05-0.5,1.57c0,0.17,0.02,0.35,0.06,0.53c0.17,0.84,0.77,1.34,1.24,1.73
			l0.05,0.04c0.05,0.04,0.09,0.09,0.14,0.13c1.07,0.95,1.87,2.35,1.97,3.48c0,0.01,0,0.01,0,0.02c0,0.01,0,0.01,0,0.02
			c0,0.01,0,0.01,0,0.01c-0.01-0.01-0.01-0.03-0.02-0.05c-0.02-0.06-0.04-0.12-0.06-0.18c-0.26-0.87-0.74-1.57-1.23-2.11
			c-0.43-0.48-0.86-0.82-1.13-1.01c-0.17-0.12-0.35-0.14-0.47-0.05c-0.04,0.03-0.1,0.1-0.1,0.22c0,0.05,0.01,0.11,0.03,0.17
			c0.17,0.48,0.38,0.74,0.58,0.97c0.23,0.26,0.5,0.69,0.56,1.31c0.06,0.66,0.31,1.15,0.44,1.33c0.02,0.02,0.02,0.03,0.02,0.04
			c-0.01,0-0.02,0-0.03-0.02c-0.36-0.4-0.51-0.88-0.61-1.29c-0.11-0.49-0.25-0.83-0.64-1.26c-0.54-0.58-0.89-1.18-1.01-1.73
			c-0.06-0.27-0.08-0.49-0.09-0.7c-0.02-0.23-0.03-0.46-0.11-0.77c-0.07-0.28-0.1-0.56-0.1-0.83c0-0.67,0.2-1.33,0.58-1.9
			c0.3-0.44,0.45-0.95,0.45-1.53c0-0.22-0.04-0.46-0.08-0.71c-0.06-0.35-0.15-0.71-0.3-1.11c-0.61-1.58-1.44-2.22-2.88-2.22
			c-1.1,0-2.21-0.14-2.97-1.23c-0.29-0.41-0.59-0.83-0.96-1.25c-0.05-0.06-0.1-0.12-0.16-0.18c-0.15-0.16-0.31-0.32-0.49-0.48
			c-0.14-0.12-0.28-0.24-0.43-0.34c-0.14-0.09-0.28-0.18-0.41-0.26c-0.79-0.45-1.72-0.67-3.04-0.74c-0.07-0.01-0.14,0.01-0.2,0.03
			c-0.07,0.03-0.12,0.07-0.15,0.13c-0.01,0.01-0.01,0.03-0.01,0.04c-0.01,0.04-0.03,0.07-0.03,0.11c0,0.07,0.02,0.14,0.07,0.21
			c0.34,0.46,0.78,0.83,1.29,1.1c0.51,0.27,1.11,0.43,1.76,0.48c0.69,0.06,1.02,0.55,1.35,1.14c0.36,0.65,0.77,1.29,1.32,1.62
			c0.48,0.29,1.03,0.67,1.4,1.36c0.16,0.3,0.42,0.34,0.65,0.37l0.1,0.02l0.32,0.07h0.02l0.09,0c0.02,0,0.1,0.01,0.29,0.13
			c1.26,0.52,1.54,1.56,1.64,2.5c0,0.01,0,0.02,0,0.02c0,0.05-0.02,0.07-0.03,0.07c0,0-0.02-0.02-0.04-0.08
			c-0.27-1.53-1.31-2.07-2.14-2.26c-0.16-0.04-0.32-0.01-0.43,0.08c-0.08,0.07-0.12,0.17-0.12,0.28c0,0.01,0,0.02,0,0.03
			c0,0.03,0,0.07,0,0.1c0,0.77-0.45,1.52-1.22,2.01c-0.81,0.52-1.31,1.23-1.36,1.95c0,0.05,0,0.1,0,0.15c0,0.75,0.38,1.63,1.07,2.5
			c0.19,0.24,0.4,0.34,0.64,0.46l0.33,0.17c0.51,0.29,0.72,0.85,0.95,1.48l0.17,0.45c0.17,0.42,0.36,0.59,0.81,0.9l0.08,0.05
			c0.68,0.48,1.18,0.82,1.33,1.54c0,0,0,0.01,0,0.01c0-0.01-0.01-0.01-0.01-0.03c-0.22-0.7-0.99-1.18-1.6-1.46
			c-0.27-0.13-0.58-0.3-0.78-0.71l-0.04-0.08c-0.2-0.43-0.5-1.08-0.88-1.5c-0.08-0.09-0.18-0.13-0.29-0.11
			c-0.13,0.02-0.24,0.13-0.3,0.28l-0.11,0.24l-0.27,0.6c-0.11,0.26-0.19,0.68-0.19,1.11c0,0.39,0.06,0.79,0.22,1.08l0.07,0.13
			c0.21,0.37,0.49,0.88,0.62,1.35c0.01,0.03,0.01,0.05,0.01,0.07c-0.01-0.02-0.03-0.05-0.05-0.09c-0.14-0.35-0.45-0.86-0.81-1.37
			c-0.28-0.39-0.42-0.86-0.42-1.37c0-0.48,0.12-0.99,0.37-1.49c0.08-0.17,0.12-0.34,0.12-0.51c0-0.23-0.08-0.46-0.23-0.66
			l-0.03-0.04c-0.23-0.32-0.47-0.64-0.83-1.29c-0.66-1.21-1.02-2.92,0.95-4.2c0.67-0.43,1.03-1.03,1.03-1.68
			c0-0.76-0.49-1.49-1.38-2.05c-0.66-0.42-1.27-1.16-1.72-2.1c-0.1-0.2-0.25-0.24-0.37-0.21c-0.13,0.04-0.21,0.16-0.21,0.3
			c0,0.01,0,0.02,0,0.03c0,0.06,0.01,0.13,0.01,0.19c0,0.73-0.31,1.41-0.86,1.82c-0.56,0.43-1.23,1.26-1.48,2.18
			c-0.09,0.34-0.15,0.64-0.15,0.95c0,0.14,0.01,0.29,0.04,0.44c0.09,0.49,0.41,1.18,0.8,1.7c0.34,0.45,0.57,1.02,0.6,1.46
			c0,0.01,0,0.02,0,0.03c0,0.02,0,0.02,0,0.04c-0.01-0.02-0.02-0.04-0.02-0.06c-0.13-0.46-0.37-0.88-0.79-1.35
			c-0.4-0.45-0.78-1.16-0.93-1.78c-0.02-0.09-0.05-0.16-0.1-0.22l0-0.01l-0.02-0.01l-0.12-0.11l-0.01-0.01
			c-0.07-0.04-0.14-0.06-0.23-0.06c-0.27-0.01-0.91,0.2-1.2,0.43c-0.19,0.15-0.33,0.31-0.42,0.48c-0.09,0.16-0.13,0.32-0.13,0.5
			c0,0.11,0.02,0.22,0.05,0.33c0,0.01,0.01,0.02,0.01,0.03c0.02,0.06,0.03,0.12,0.06,0.19c0.17,0.43,0.3,0.85,0.41,1.26
			c0.03,0.1,0.05,0.2,0.08,0.3c0.08,0.31,0.14,0.61,0.2,0.89c0.01,0.04,0.02,0.09,0.03,0.13l0.04,0.19l0.05,0.22l0.01,0.03
			c0.07,0.33,0.21,0.51,0.4,0.55c0.64,0.13,1.97,0.62,2.86,1.13c0.02,0.02,0.03,0.02,0.03,0.03c-0.01,0-0.02,0-0.03-0.01
			c-0.95-0.44-2.19-0.75-2.69-0.8c-0.07-0.01-0.14,0.02-0.19,0.06c-0.02,0.01-0.04,0.02-0.05,0.03c-0.05,0.05-0.08,0.13-0.08,0.21
			c0,0.03,0,0.06,0.01,0.08c0.26,1.06,0.89,2.82,1.49,3.94c0.01,0.02,0.01,0.03,0.01,0.04c-0.01-0.01-0.01-0.01-0.02-0.02
			c-0.47-0.62-1.01-1.75-1.46-3.01c-0.31-0.86-0.66-2.12-0.84-2.92c-0.17-0.73-0.32-1.13-0.63-1.92l-0.14-0.37
			c-0.08-0.21-0.12-0.43-0.12-0.63c0-0.19,0.05-0.38,0.12-0.56c0.02-0.05,0.03-0.11,0.06-0.16c0.29-0.57,0.95-1.03,1.8-1.24
			c0.46-0.12,0.73-0.51,0.82-0.8c0.23-0.79,0.73-1.51,1.52-2.22c0.47-0.43,0.54-0.93,0.59-1.37l0.01-0.05
			c0.01-0.08,0.01-0.15,0.01-0.22c0-0.41-0.19-0.67-0.62-0.83c-0.24-0.09-0.45-0.19-0.66-0.28c-0.83-0.39-1.47-0.86-2.01-1.72
			c-0.15-0.23-0.35-0.47-0.73-0.4c-0.47,0.09-1.04,0.42-1.32,0.69c-0.2,0.2-0.29,0.43-0.29,0.7c0,0.05,0,0.09,0.01,0.14l0.04,0.69
			l0.01,0.25l0.01,0.18l0,0.03c0,0.05,0,0.1,0,0.15c0,0.1-0.01,0.2-0.03,0.29c-0.02,0.13-0.04,0.26-0.08,0.39
			c-0.04,0.15-0.1,0.32-0.17,0.48c-0.02,0.04-0.03,0.07-0.04,0.11c-0.06,0.12-0.12,0.25-0.19,0.39c-0.02,0.04-0.04,0.08-0.06,0.12
			c-0.01,0.02-0.02,0.04-0.03,0.05c-0.14,0.26-0.23,0.62-0.23,0.99c0,0.06,0,0.12,0.01,0.18c0.02,0.27,0.03,0.54,0.03,0.8
			c0,0.4-0.04,0.78-0.13,1.14c-0.02,0.09-0.06,0.18-0.09,0.26c-0.11,0.3-0.26,0.57-0.5,0.8c-0.02,0.02-0.02,0.01-0.03,0.02
			c0-0.01,0-0.01,0.01-0.02c0.36-0.63,0.46-1.28,0.46-1.88c0-0.4-0.04-0.79-0.08-1.13l-0.02-0.18c-0.01-0.08-0.01-0.16-0.01-0.24
			c0-0.33,0.06-0.68,0.17-0.96l0.12-0.29c0.1-0.23,0.2-0.48,0.27-0.72c0.05-0.16,0.07-0.35,0.07-0.56c0-0.27-0.03-0.57-0.06-0.92
			c-0.02-0.2-0.11-0.37-0.24-0.46c-0.09-0.06-0.24-0.12-0.46-0.05c-1.5,0.45-2.88,1.47-3.73,2.74c0.45-1,1.15-1.72,1.89-2.24
			c0.21-0.15,0.42-0.28,0.63-0.4C18.41,19.28,18.79,19.11,19.15,18.98z M28.43,17.96c-0.18-0.22,0.14-0.03,0.16-0.15
			c0-0.01,0-0.02,0-0.02c0.84,0.11,1.71,0.45,2.55,1.01c1.07,0.71,1.96,1.7,2.51,2.71c-0.42-0.14-0.85-0.21-1.18-0.23l-0.07-0.01
			c-1-0.05-1.75,0.05-2.33-0.7l-0.18-0.25c-0.26-0.36-0.69-0.94-1.28-1.54c-0.29-0.33-0.59-0.67-0.66-0.77
			c-0.14-0.17,0.1-0.18,0.2-0.06c0.1,0.11,0.41,0.39,0.51,0.33C28.74,18.25,28.61,18.18,28.43,17.96z M19.86,25.63
			c0.11-0.03,0.25-0.03,0.4,0.01c0.24,0.06,0.53,0.12,0.55-0.06c0.01-0.11-0.19-0.13-0.64-0.31c-0.12-0.05-0.19-0.11-0.23-0.17
			c0.01-0.07,0.01-0.15,0.01-0.23c0.06-0.09,0.19-0.17,0.4-0.16c0.21,0.01,0.31-0.09,0.25-0.18c-0.06-0.08-0.29-0.05-0.46-0.14
			c-0.07-0.03-0.13-0.11-0.19-0.2c-0.01-0.14-0.01-0.27-0.02-0.41c-0.01-0.09,0.01-0.18,0.01-0.27c0.08-0.06,0.2-0.1,0.38-0.07
			c0.15,0.02,0.23-0.15,0.01-0.21c-0.21-0.05-0.23-0.07-0.35-0.11c0.03-0.15,0.08-0.3,0.14-0.42c0.06-0.12,0.11-0.22,0.16-0.33
			c0.12,0.03,0.23,0.08,0.36,0.12c0.17,0.06,0.2-0.08,0.04-0.17c-0.11-0.06-0.19-0.12-0.29-0.17c0.05-0.1,0.08-0.2,0.12-0.3
			c0.13,0.02,0.32,0.13,0.49,0.18c0.23,0.08,0.26-0.17,0.02-0.29c-0.08-0.04-0.27-0.1-0.41-0.16c0.06-0.18,0.09-0.36,0.11-0.54
			c0.19,0.03,0.47,0.11,0.47,0.11s0.23-0.23,0-0.3c-0.11-0.03-0.16,0.01-0.47-0.13c0-0.03,0.01-0.07,0-0.1c0,0-0.01-0.24-0.02-0.38
			c0.04-0.02,0.07-0.03,0.1-0.02c0.11,0.02,0.61,0.19,0.91,0.13c0.31-0.06,0.22-0.26,0-0.34c-0.23-0.08-0.83-0.21-1.03-0.31
			c-0.01-0.01-0.01-0.03-0.01-0.04l-0.01-0.19c0.07-0.23,0.29-0.54,0.47-0.6c0.29-0.09,1.03-0.68,1.71,0.23
			c0.12,0.17,0.48,0.3,0.61,0.4c0.04,0.03,0.13,0.09,0.22,0.15c0.13,0.11,0.27,0.22,0.41,0.31c0.04,0.04,0.08,0.08,0.1,0.11
			c0.04,0.08,0.13,0.11,0.23,0.11c0.27,0.15,0.56,0.29,0.88,0.42c0.42,0.16,0.56,0.32,0.5,0.79l-0.01,0.05
			c-0.06,0.43-0.09,0.84-0.51,1.23c-0.81,0.73-1.32,1.49-1.57,2.31c-0.08,0.25-0.26,0.54-0.65,0.63c-0.86,0.22-1.48,0.71-1.81,1.29
			c-0.05-0.07-0.12-0.11-0.15-0.13c-0.05-0.04-0.01-0.21-0.09-0.27c-0.08-0.05-0.96-0.3-1.31-0.42
			C19.78,25.95,19.82,25.79,19.86,25.63z M19.45,27.13c0.2,0.01,0.62,0.19,0.96,0.27c0.19,0.04,0.33,0.14,0.41,0.17
			c0.09,0.03,0.14,0.06,0.15,0.1c0.01,0.03,0,0.06-0.02,0.07c-0.04,0.04-0.15,0.05-0.26,0.02l-0.29-0.08
			c-0.35-0.09-0.84-0.21-1.02-0.31c-0.14-0.08-0.15-0.15-0.14-0.2C19.25,27.1,19.29,27.12,19.45,27.13z M20.7,27.2
			c-0.17-0.04-0.5-0.16-0.76-0.27c-0.15-0.06-0.28-0.11-0.33-0.12c-0.08-0.03-0.13-0.09-0.13-0.14c-0.01-0.04,0-0.07,0.03-0.1
			c0.03-0.02,0.08-0.03,0.17,0.01c0.16,0.08,1,0.36,1.24,0.43c0.13,0.04,0.14,0.08,0.13,0.12C21.03,27.22,20.88,27.24,20.7,27.2z
			 M26.81,17.36c-0.06,0.01-0.13-0.04-0.2-0.1c0.1,0,0.2,0.01,0.31,0.01C26.9,17.32,26.88,17.36,26.81,17.36z M16.14,20.77
			l-0.31-2.96l-0.27-2.43l0,0c0.05-0.07,0.09-0.15,0.12-0.24c0.09-0.23,0.15-0.4,0.24-0.69c0.11-0.34,0.33-0.49,0.5-0.47
			c0.19,0.01,0.34,0.21,0.39,0.5c0.2,1.11,0.2,2.27,0.21,3.4c0,0.71,0.01,1.38,0.06,2.01C16.75,20.13,16.43,20.43,16.14,20.77z
			 M35.36,30.17c-0.04-0.17-0.05-0.33-0.05-0.49c0-0.4,0.12-0.78,0.32-1.2c0.03,1.17,0.34,2.23,0.81,3.23
			C36.01,31.35,35.51,30.9,35.36,30.17z M36.49,18.25c-0.1-0.07-0.37-0.09-0.48-0.1c-0.13-0.01-0.56,0.12-0.79,0.11
			c-0.24,0-0.44,0.22-0.38,0.41c0.07,0.19,0.03,0.59,0.01,0.75c-0.02,0.16,0.2,0.48,0.3,0.54c0.1,0.06,0.2,0.43,0.09,0.48
			c-0.05,0.02-0.12,0.04-0.16,0.07c-0.87-1.01-1.91-1.82-3.09-2.42c0,0,0,0,0,0c0,0,0,0,0-0.01c-0.04-0.02-0.08-0.03-0.12-0.05
			c0,0,0,0,0,0c-1.29-0.64-2.71-1.03-4.18-1.12c0,0,0,0,0,0c-0.05-0.01-0.09-0.02-0.14-0.02c-0.02,0-0.03-0.01-0.04-0.01
			c-0.01,0.01-0.02,0.02-0.04,0.02c-0.1,0-0.21,0-0.31-0.01c-0.1-0.09-0.21-0.22-0.25-0.25c-0.06-0.05-0.16,0-0.11,0.08
			c0.03,0.04,0.08,0.11,0.12,0.17c-0.17,0-0.33-0.02-0.5-0.01c-0.13,0.01-0.4,0.11-0.55,0.21c-0.02,0.02-0.04,0.03-0.06,0.05
			c-0.01,0.01-0.02,0.02-0.03,0.03c-0.02-0.01-0.05-0.02-0.07-0.02c-0.15-0.05-0.36-0.11-0.46-0.12c0,0-0.15-0.02-0.28-0.03
			c-0.07-0.03-0.13-0.05-0.16-0.06c-0.12-0.03-0.11-0.08-0.06-0.18c3.27-1.57,7.97-1.69,11.87,1.46
			C36.58,18.23,36.53,18.24,36.49,18.25z M29.1,15.27c-0.55,0.02-2.14,0.22-2.67,0.32c-0.04-0.2,0.11-1.22,0.32-1.3
			c0.21-0.01,1.47-0.21,1.66-0.21c0.37-0.01,0.58-0.08,0.87-0.07C29.23,14.48,29.17,14.9,29.1,15.27z M26.06,13.88
			c-1.61,0.58-2.95,1.91-4.35,2.84c-0.24,0.16-0.2,0.28-0.07,0.35c-0.35,0.12-1.51,0.95-2.2,1.54c-0.72,0.19-1.21-0.95-0.31-2.69
			c0.01-0.08,0.71-1.25,0.74-1.3c0.5-1.07,1.35-1.92,2.19-2.67c1.67-1.5,2.39-2.66,3.08-4.17c0.03-0.07,0.07-0.09,0.09-0.1
			c0.02,0,0.27,0.34,0.3,0.41c-0.04,0.03,0.19,0.48,0.11,0.55c-0.08,0.07-0.17-0.04-0.31-0.1c-0.13-0.06-0.18,0.12-0.04,0.22
			c0.13,0.1,0.41,0.29,0.47,0.35c0.06,0.06,0.11,0.31-0.02,0.28c-0.13-0.04-0.45-0.28-0.63-0.43c-0.18-0.15-0.26,0.12-0.16,0.18
			c0.1,0.06,0.57,0.53,0.73,0.62c0.16,0.08,0.05,0.22,0.07,0.42c-0.62,0.68-1.05,1.45-1.3,2.34c-0.02,0.07-0.02,0.13-0.01,0.19
			c0.02,0.09,0.06,0.17,0.13,0.22c0.12,0.09,0.29,0.1,0.43,0.01c0.34-0.2,0.81-0.28,1.03-0.16c0.22,0.12,0.43,0.02,0.59-0.05l0.01,0
			c0.32-0.15,0.8-0.13,1.43,0.05c0.07,0.02,0.15,0.03,0.22,0.04c0.03-0.01,0.06-0.02,0.09-0.02h0.01c0.1,0,0.17,0.03,0.24,0.07
			c0.11,0.01,0.22,0.02,0.34,0.01c0.16,0,0.31,0.01,0.46,0.03L30,13.08c0.09,0.04,0.16,0.09,0.25,0.15
			C28.91,13.31,27.31,13.43,26.06,13.88z M24.63,7.87C24.57,8,23.55,9.68,23.57,9.7c-0.06,0.08-1.38,1.45-1.36,1.54
			c-0.14,0.13-0.28,0.26-0.43,0.4c-0.19,0.17-0.94,0.95-1.42,1.51c0.18-0.74,0.49-2.06,0.57-2.68c0-0.01,0-0.03,0.01-0.04v0
			c0.07-0.62,0.17-1.7,0.22-2.27c1.13-0.32,2.3-0.54,3.51-0.64C24.66,7.59,24.66,7.71,24.63,7.87z M18.08,37.36
			c-0.03-0.04-0.06-0.07-0.09-0.11c1.45,1.76,3.31,3.17,5.53,3.95h-0.01c0.24,0.92,0.5,2.27,0.7,3.36c-2.1-0.23-4.09-0.82-5.92-1.68
			C18.26,41.08,18.17,38.93,18.08,37.36z M29.06,42.1l0.16-0.02c0.51,0.09,1.02,0.07,1.53-0.05c1.93,0.04,3.72-0.28,5.19-0.93
			c1.39-0.61,2.44-1.49,3.03-2.53c0.47-0.83,0.63-1.71,0.47-2.58c-0.09-0.54-0.31-1.08-0.64-1.59l-0.04-0.06
			c-1.02-1.58-1.99-3.1-2.3-4.86c-0.13-0.71-0.01-1.48,0.13-2.29c0.09-0.59,0.07-1.25-0.04-1.91c-0.11-0.64-0.32-1.28-0.6-1.86
			c0.05,0.05,0.09,0.11,0.14,0.15c0.22,0.22,0.51,0.53,0.81,0.62c0.3,0.08,0.75,0,1-0.19c0.23-0.18,0.16-0.34,0.03-0.51
			c-0.07-0.14-0.19-0.32-0.32-0.51c-0.16-0.23-0.28-0.43-0.24-0.71c0.07-0.41-0.05-0.97-0.32-1.66c-0.44-1.07-0.18-1.62,0.36-1.76
			c0.23-0.06,0.26-0.32,0.1-0.46c-2.5-2.23-5.38-3.08-8.04-3.02c0.08-0.44,0.16-0.98,0.23-1.57c0.11-0.01,0.21-0.02,0.32-0.02
			c0.33,0.01,0.77,0.02,1.08,0.03c0.21,0.01,0.42-0.11,0.37-0.22c-0.05-0.11-0.27-0.6-0.59-0.67c-0.17-0.04-0.7-0.34-1.03-0.45
			c0.11-1.24,0.19-2.6,0.22-3.8c0.01-0.29-0.01-0.57-0.04-0.84c8.45,1.76,14.82,9.26,14.82,18.23c0,9.14-6.62,16.74-15.31,18.31
			L29.06,42.1z"/>
		<path class="st2" d="M35.84,39.22c-0.45,0.12-2.84,0.93-3.3,0.71c-0.34-0.16-1.04,0.4-0.48,0.43c0.56,0.03,3.2-0.31,3.61-0.56
			C36.11,39.56,36.29,39.09,35.84,39.22z"/>
		<polygon class="st2" points="27.25,17.95 27.25,17.95 27.25,17.95 		"/>
	</g>
</g>
</svg>
