<?xml version="1.0" encoding="utf-8"?>
<!-- Generator: Adobe Illustrator 23.0.3, SVG Export Plug-In . SVG Version: 6.00 Build 0)  -->
<svg version="1.1" id="Layer_1" xmlns="http://www.w3.org/2000/svg" xmlns:xlink="http://www.w3.org/1999/xlink" x="0px" y="0px"
	 viewBox="0 0 54 54" style="enable-background:new 0 0 54 54;" xml:space="preserve">
<style type="text/css">
	.st0{fill:#FFFFFF;}
	.st1{fill:#002E5A;}
	.st2{clip-path:url(#SVGID_2_);}
</style>
<path class="st0" d="M51.53,27.13c0,13.72-11.12,24.84-24.84,24.84c-13.72,0-24.84-11.12-24.84-24.84
	c0-13.72,11.12-24.84,24.84-24.84C40.4,2.29,51.53,13.41,51.53,27.13z"/>
<path class="st1" d="M50.68,27.13c0,13.25-10.74,23.99-23.99,23.99c-13.25,0-23.99-10.74-23.99-23.99
	c0-13.25,10.74-23.99,23.99-23.99C39.94,3.14,50.68,13.88,50.68,27.13z"/>
<g>
	<path class="st0" d="M47.59,27.13c0,11.54-9.36,20.9-20.9,20.9c-11.54,0-20.9-9.36-20.9-20.9c0-11.55,9.36-20.91,20.9-20.91
		C38.23,6.23,47.59,15.58,47.59,27.13z"/>
	<path class="st1" d="M26.69,48.34c-11.7,0-21.21-9.51-21.21-21.21c0-11.7,9.52-21.21,21.21-21.21c11.7,0,21.21,9.52,21.21,21.21
		C47.9,38.83,38.38,48.34,26.69,48.34z M26.69,6.53c-11.36,0-20.6,9.24-20.6,20.6c0,11.35,9.24,20.59,20.6,20.59
		c11.36,0,20.6-9.24,20.6-20.59C47.28,15.78,38.04,6.53,26.69,6.53z"/>
</g>
<path class="st1" d="M26.69,46.36c-10.6,0-19.23-8.63-19.23-19.23S16.08,7.9,26.69,7.9c10.6,0,19.23,8.63,19.23,19.23
	S37.29,46.36,26.69,46.36z M26.69,8.51c-10.27,0-18.62,8.35-18.62,18.62s8.35,18.62,18.62,18.62c10.26,0,18.61-8.35,18.61-18.62
	S36.95,8.51,26.69,8.51z"/>
<g>
	<defs>
		<circle id="SVGID_1_" cx="26.69" cy="27.13" r="18.79"/>
	</defs>
	<clipPath id="SVGID_2_">
		<use xlink:href="#SVGID_1_"  style="overflow:visible;"/>
	</clipPath>
	<g class="st2">
		<path class="st0" d="M27.68,27.78c-0.29-0.07-2.28-0.89-2.31-0.92c-0.16-0.12-0.03-0.37,0.28-0.25c0.12,0.05,2.05,0.79,2.2,0.84
			C28.05,27.51,28.1,27.88,27.68,27.78z"/>
		<g>
			<path class="st1" d="M21.07,5.78c0.14,0.02,0.38-0.07,0.34-0.15c-0.04-0.08-0.08-0.05-0.24-0.05
				C20.96,5.59,20.92,5.76,21.07,5.78z"/>
			<path class="st1" d="M22.12,8.26c0.13,0.09,0.84,0.2,1.05,0.21c0.21,0.01,0.18-0.17,0.09-0.15c-0.09,0.02-1.21-0.25-1.36-0.25
				c-0.13,0-0.34-0.12-0.44-0.15c-0.1-0.03-0.3-0.13-0.23,0L21.2,7.99C21.29,8.08,21.99,8.17,22.12,8.26z"/>
			<path class="st1" d="M22.33,6.98c0,0-0.06-0.22-0.2-0.22c-0.14,0-0.24,0.09-0.3,0.1C21.61,6.9,22.33,6.98,22.33,6.98z"/>
			<path class="st1" d="M21.36,6.26c-0.17,0.13,0.33,0.03,0.27-0.02C21.57,6.17,21.44,6.2,21.36,6.26z"/>
			<path class="st1" d="M21.57,6.7c0.01-0.07-0.11-0.12-0.19-0.06l-0.02,0.05c-0.02,0.17,0.17,0.18,0.17,0.18S21.56,6.77,21.57,6.7z
				"/>
			<path class="st1" d="M36.38,40.38c0.16-0.09,0.23-0.27,0.06-0.22c-0.17,0.05-1.08,0.35-1.25,0.27c-0.13-0.06-0.4,0.15-0.18,0.16
				C35.22,40.6,36.22,40.47,36.38,40.38z"/>
			<path class="st1" d="M21.54,7.19c0.09,0.06,0.55,0.25,0.67,0.27c0.12,0.03,0.52-0.07,0.25-0.11c-0.26-0.05-0.59-0.22-0.73-0.24
				C21.59,7.09,21.46,7.14,21.54,7.19z"/>
			<path class="st1" d="M24.47,7.34c0.12,0.02,0.32-0.1,0.32-0.1s-0.24,0.07-0.26-0.04C24.5,7.03,24.34,7.31,24.47,7.34z"/>
			<path class="st1" d="M22.35,7.85c0.1,0.05,0.33,0.15,0.44,0.13c0.11-0.02,0.28-0.12,0.2-0.15c-0.07-0.03-0.35-0.01-0.52-0.09
				C22.26,7.64,22.25,7.8,22.35,7.85z"/>
			<path class="st1" d="M38.56,39.94c0.11-0.24-0.06,0.08-0.3,0.25c-3.11,2.15-7.13,1.93-7.36,1.87c-0.22-0.06-1.59-0.03-1.71-0.02
				c-0.13,0.01-0.19,0.13-0.27,0.15c-0.08,0.02-0.31,0.09-0.01,0.13c0.3,0.04,1.72-0.05,1.84-0.05c2.52,0.1,4.44-0.43,4.89-0.56
				C36.09,41.58,38.22,40.64,38.56,39.94z"/>
			<path class="st1" d="M24.87,19.84c-0.04-0.15,0.14-0.13,0.31-0.21c0.18-0.08,0.84,0.33,1.1,0.26c0.26-0.06,0.81-0.05,1.15,0.2
				c0.33,0.25,1.09,0.52,1.26,0.54c0.17,0.02,0.3,0.21,0.2,0.29c-0.1,0.08,0.56,0.79,0.6,0.98c0.03,0.19,0.37,0.53,0.6,1.01
				c0.24,0.49,1.23,0.78,1.38,0.82c0.15,0.04,0.24,0.25,0.39,0.22c0.16-0.03-0.02-0.19-0.03-0.25c-0.02-0.06,0.09-0.03,0.2,0.01
				c0.1,0.05,0.21,0.19,0.23,0.12c0.02-0.07,0.05-0.07,0.19-0.02c0.14,0.06,0.15,0.15,0.24,0.17c0.08,0.02,0.06-0.04-0.02-0.14
				c-0.08-0.1,0.03-0.2,0.13-0.14c0.11,0.06,0.34,0.36,0.48,0.35c0.14-0.01-0.02-0.17-0.05-0.3c-0.04-0.12,0.12-0.12,0.21,0
				c0.08,0.11,0.38,0.42,0.58,0.43c0.19,0.02-0.04-0.22-0.03-0.35c0.01-0.13,0.1-0.05,0.21,0.07c0.1,0.13,0.6,0.85,0.72,0.79
				c0.12-0.07,0.74,1.06,0.88,1.57c0.14,0.51,0.31,0.42,0.29,0.34c-0.73-2.68-1.59-2.85-1.86-3.04c-0.28-0.19-4.09-1.04-4.13-1.24
				c-0.04-0.21-0.79-1.08-0.79-1.08s-0.55-0.74-0.65-0.84c-0.1-0.1-1.4-0.96-1.75-1.13c-0.35-0.16-0.65-0.18-1.27-0.34
				c-0.62-0.16-0.64-0.19-0.95-0.27c-0.3-0.08-0.7,0.42-0.77,0.56c0.28,0.29,0.71,0.73,1.06,1.13c0.22,0.07,0.44,0.12,0.47,0.12
				C25.49,20.46,24.91,20,24.87,19.84z"/>
			<path class="st1" d="M29.67,38.54c-0.21-0.01-0.3-0.03-0.48-0.05c-0.18-0.03-0.27,0.14-0.13,0.2c0.14,0.06,0.39,0.1,0.54,0.07
				C29.76,38.73,29.88,38.55,29.67,38.54z"/>
			<path class="st1" d="M28.6,37.28c0.2-0.05,0.13-0.18,0.12-0.22c-0.01-0.05-0.53-0.14-0.63-0.18c-0.18-0.06-0.31,0.19-0.11,0.25
				C28.2,37.19,28.4,37.33,28.6,37.28z"/>
			<path class="st1" d="M28.94,37.9c-0.2-0.02-0.45-0.11-0.59-0.14c-0.19-0.03-0.29,0.18-0.14,0.22c0.16,0.04,0.55,0.15,0.63,0.13
				C28.91,38.1,29.05,37.91,28.94,37.9z"/>
			<path class="st1" d="M29.5,39.31c0.09,0.07,1.02,0.16,1.16,0.12c0.14-0.04,0.22-0.14,0.21-0.18c0-0.05-0.13-0.08-0.28-0.02
				c-0.15,0.06-0.77-0.02-0.86-0.04C29.56,39.14,29.41,39.24,29.5,39.31z"/>
			<path class="st1" d="M29.62,40.03c0.09,0.07,1.02,0.16,1.16,0.12c0.14-0.04,0.22-0.14,0.21-0.18c0-0.05-0.13-0.08-0.28-0.02
				c-0.15,0.06-0.77-0.02-0.86-0.05C29.69,39.86,29.53,39.96,29.62,40.03z"/>
			<path class="st1" d="M30.03,40.62c0.09,0.07,1.02,0.16,1.15,0.12c0.14-0.04,0.22-0.14,0.21-0.18c0-0.05-0.12-0.08-0.28-0.02
				c-0.15,0.06-0.77-0.02-0.87-0.04C30.09,40.45,29.93,40.55,30.03,40.62z"/>
		</g>
		<path class="st1" d="M37.98,19.47L37.98,19.47c-2.5-2.23-5.38-3.08-8.04-3.02c0.08-0.45,0.16-1,0.23-1.61
			c0.32,0.02,0.97,0.03,1.39,0.05c0.21,0.01,0.42-0.11,0.37-0.22c-0.05-0.11-0.27-0.6-0.59-0.67c-0.17-0.04-0.7-0.34-1.03-0.45
			c0.11-1.24,0.19-2.6,0.22-3.8c0.05-2.63-1.42-4.67-3.73-4.76c-0.4-0.02-0.58-0.27-0.49-0.76c0.15-0.8,0.49-1.81,0.74-2.62
			c0.13-0.42-0.11-0.82-0.51-0.75C26.26,0.9,26,0.92,25.76,0.87C25.52,0.82,25.21,1,25.21,1c-0.32,0.13-0.46,0.43-0.53,0.65
			c-0.07,0.22-0.59,1.51-0.67,1.71c-0.08,0.2-0.16,1.06-0.34,0.82c-0.12-0.17-0.22-0.2-0.28-0.26c-0.11-0.86-0.17-1.72-0.24-2.11
			c-0.1-0.55-0.63-0.66-0.97-0.24c-0.15,0.19-0.29,0.38-0.46,0.55c-0.19,0.19-0.41,0.23-0.67,0.18c-0.26-0.05-0.5,0.05-0.68,0.24
			c-0.19,0.21-0.54,0.28-0.78,0.13c-0.17-0.11-0.34-0.23-0.54-0.26c-0.2-0.03-0.32,0.08-0.3,0.25c0.09,0.87,0.23,1.78,0.3,2.53
			l0.08,1.48c0,0.65-0.01,1.3-0.05,1.73c-0.06,0.6-0.08,1.16-0.04,1.56c0.03,0.3-0.01,0.5-0.09,0.74c-0.19,0.63-0.29,1.21-0.27,2.02
			c0.02,0.82,0.01,2.05-0.03,3.17c-0.03,1.11-0.19,3.08-0.13,4.73c0.01,0,0.01-0.01,0.02-0.01c-0.25,0.15-0.49,0.31-0.71,0.48
			c0.02-0.02,0.04-0.03,0.06-0.05v-0.01c-0.15-1.66,0.05-3.7-0.28-5.57c-0.16-0.89-1.03-0.88-1.3-0.05
			c-0.09,0.27-0.15,0.44-0.24,0.68c-0.13,0.33-0.32,0.48-0.71,0.54c-0.47,0.08-1.02,0.23-1.36,0.38c-0.18,0.08-0.28,0.27-0.25,0.54
			c0.07,0.67,0.16,2.27,0.27,4.38c-0.24,0.08-0.46,0.21-0.64,0.41c-0.41,0.47-0.55,1.11-0.28,1.99c0.39,1.26,0.31,1.89,0,2.68
			c-0.62,1.56-0.27,3.77,0.97,5.32c0.02,0.03,0.05,0.06,0.07,0.08c0.11,0.12,0.23,0.19,0.35,0.22c0,0-0.01-0.01-0.02-0.01
			c0.18,4.69,0.33,9.07,0.37,10.85c-0.01,0.25,0.15,0.53,0.43,0.74c0.41,0.31,0.91,0.07,1.14-0.2c0.23-0.28,0.53-0.1,0.54,0.3
			c0.02,0.34,0.29,0.57,0.47,0.73c0.17,0.14,0.41,0.32,0.63,0.49c0.36,0.29,0.73,0.19,0.74-0.07l0,0c-0.02-1.92-0.12-4.97-0.24-7.02
			c-0.03-0.04-0.06-0.07-0.09-0.11c1.45,1.76,3.31,3.17,5.53,3.95h-0.01l0,0c0.46,1.79,1.02,5.15,1.03,5.23
			c0.06,0.38,0.43,0.73,1.11,0.78c0.42,0.03,0.84-0.19,1.2-0.26c0.37-0.06,0.69,0.07,0.99,0.24c0.5,0.29,1.28,0.33,1.8,0.08
			c0.32-0.16,0.41-0.41,0.35-0.64c0,0.01,0.01,0.01,0.01,0.03l-0.94-4.56l0.16-0.02c0.51,0.09,1.02,0.07,1.53-0.05
			c1.93,0.04,3.72-0.28,5.19-0.93c1.39-0.61,2.44-1.49,3.03-2.53c0.47-0.83,0.63-1.71,0.47-2.58c-0.09-0.54-0.31-1.08-0.64-1.59
			l-0.04-0.06c-1.02-1.58-1.99-3.1-2.3-4.86c-0.13-0.71-0.01-1.48,0.13-2.29c0.09-0.59,0.07-1.25-0.04-1.91
			c-0.14-0.81-0.44-1.63-0.84-2.31c0,0,1.03,0.47,1.88,0.91v0c0.32,0.16,0.5-0.08,0.38-0.33c-0.07-0.14-0.2-0.35-0.35-0.58
			c-0.16-0.23-0.28-0.43-0.24-0.71c0.07-0.41-0.05-0.97-0.32-1.66c-0.44-1.07-0.18-1.62,0.36-1.76
			C38.12,19.88,38.15,19.62,37.98,19.47z M30.31,47.8c-0.01-0.02-0.01-0.03-0.01-0.04C30.3,47.77,30.3,47.78,30.31,47.8z
			 M29.58,16.35c-0.55,0.02-2.14,0.22-2.67,0.32c-0.04-0.2,0.11-1.22,0.32-1.3c0.21-0.01,1.47-0.21,1.66-0.21
			c0.37-0.01,0.58-0.08,0.87-0.07C29.7,15.56,29.64,15.98,29.58,16.35z M20.16,13.69c0.09-0.01,0.2-0.04,0.5,0.02
			c0.31,0.06,0.11-0.13,0.02-0.16c-0.1-0.03-0.32-0.07-0.58-0.1c-0.72-0.08-0.55-0.49-0.32-0.49c0.23,0,0.91,0.06,1.17,0.08
			c0.26,0.02,0.15-0.13-0.02-0.19c-0.17-0.06-0.72-0.1-0.96-0.16c-0.76-0.19-0.58-0.59-0.39-0.55c0.19,0.04,0.86,0.1,1.07,0.16
			c0.22,0.05,0.21-0.2-0.03-0.25c-0.24-0.05-0.92-0.2-1.02-0.23c-0.1-0.03-0.3-0.4,0.25-0.42c0.25-0.01,1.12,0.15,1.37,0.17
			c0.26,0.03,0.22-0.06,0.04-0.17c-0.18-0.1-1.09-0.26-1.36-0.35c-0.27-0.09-0.5-0.36-0.08-0.33c0.42,0.04,0.83,0.13,1.18,0.18
			c0.35,0.05,0.22-0.17,0.03-0.2c-0.19-0.04-0.97-0.25-1.23-0.32c-0.27-0.07-0.31-0.35-0.15-0.31c0.17,0.04,1.23,0.29,1.51,0.33
			c0.29,0.04,0.3-0.14,0.01-0.23c-0.29-0.09-1.28-0.35-1.59-0.43c-0.31-0.08-0.25-0.25-0.04-0.22c0.21,0.03,1.34,0.25,1.67,0.3
			c0.33,0.06,0.09-0.22-0.11-0.28c-0.2-0.06-1.23-0.22-1.44-0.34c-0.21-0.13-0.21-0.29-0.01-0.18c0.2,0.1,0.74,0.03,0.63-0.04
			c-0.11-0.07-0.25-0.23-0.08-0.21c0.16,0.02,0.39,0.14,0.58,0.17c0.19,0.04,0.18-0.03-0.03-0.16c-0.2-0.13-0.6-0.17-0.8-0.23
			c-0.19-0.05-0.31-0.33-0.12-0.3c0.19,0.04,0.71,0.22,1.04,0.3c0.33,0.08,0.21-0.11-0.02-0.13c-0.23-0.03-0.74-0.28-1.17-0.46
			c-0.42-0.18-0.2-0.26,0.05-0.24c0.26,0.03,0.59,0.22,0.72,0.26c0.12,0.05,0.3-0.01,0.03-0.1c-0.27-0.09-0.58-0.29-0.8-0.34
			c-0.22-0.05-0.25-0.23,0.03-0.21c0.28,0.02,0.82,0.22,1.11,0.29c0.29,0.07,0.43-0.12,0.1-0.18c-0.33-0.05-1.05-0.36-1.17-0.39
			c-0.12-0.02-0.2-0.22-0.04-0.2c0.16,0.02,0.63,0.17,0.77,0.19c0.14,0.02,0.28-0.09-0.07-0.13c-0.35-0.03-0.47-0.19-0.77-0.3
			c-0.29-0.11-0.06-0.24,0.1-0.22c0.16,0.02,0.58,0.15,0.84,0.22c0.26,0.07,0.14-0.12-0.12-0.16c-0.26-0.04-0.78-0.28-0.99-0.4
			c-0.2-0.13-0.19-0.17,0.05-0.15c0.23,0.03,0.58,0.17,0.89,0.25c0.31,0.08,0.4-0.09,0.18-0.15c-0.22-0.05-0.91-0.37-1.04-0.41
			c-0.12-0.05-0.23-0.17-0.07-0.15c0.17,0.02,0.53,0.14,0.73,0.21c0.2,0.08,0.44-0.1,0.19-0.2c-0.25-0.1-0.78-0.25-1.02-0.35
			c-0.25-0.09-0.13-0.21,0.03-0.21c0.16,0,0.77,0.21,1,0.21c0.23,0.01,0.18-0.15-0.05-0.15c-0.23,0-0.85-0.29-1.01-0.42
			c-0.17-0.13-0.07-0.13,0.12-0.11c0.19,0.01,0.41,0.09,0.55,0.11c0.14,0.02,0.31-0.08,0-0.12c-0.3-0.04-0.4-0.16-0.61-0.21
			c-0.22-0.05-0.17-0.2-0.08-0.21c0.09-0.02,0.23,0.03,0.33,0.06c0.1,0.03,0.59-0.04,0.24-0.09c-0.35-0.05-0.28-0.16-0.48-0.26
			c-0.2-0.1-0.34-0.1-0.19-0.15c0.15-0.05,0.26,0.02,0.54,0.06c0.28,0.04,0.51,0.14,0.46-0.01c-0.05-0.15-0.22-0.05-0.84-0.22
			c-0.63-0.17-0.43-0.2-0.34-0.35c0.06-0.11,0.21-0.05,0.33-0.08c0.31,0.16,0.75,0.08,0.99-0.19c0.08-0.09,0.25-0.23,0.48-0.18
			c0.35,0.07,0.63,0,0.85-0.23c0.13-0.13,0.25-0.28,0.35-0.42l0.12-0.15c0.11-0.14,0.25-0.21,0.37-0.17
			c0.11,0.03,0.2,0.14,0.23,0.32c0.04,0.22,0.08,0.6,0.13,1.05c0.05,0.51,0.11,1.08,0.19,1.63c0.07,0.46,0.33,0.51,0.41,0.52
			c0.2,0.01,0.37-0.14,0.44-0.38c0-0.01,0-0.03,0.01-0.04c0.06,0.02,0.16-0.08,0.13-0.14c-0.03-0.08,0.08-0.23,0.12-0.27
			c0.05-0.04,0.13-0.2,0.1-0.29c-0.03-0.09,0.08-0.32,0.19-0.51c0.08-0.15,0.02-0.29-0.04-0.44c0.05-0.15,0.1-0.3,0.15-0.44
			c0.04,0.05,0.1,0.01,0.19,0.06c0.1,0.06,0.34-0.17,0.35-0.28c0.01-0.11,0.2-0.56,0.27-0.69c0.05-0.1,0.15-0.35,0.16-0.54
			c0.3,0.06,0.6,0.03,0.83-0.01c0.09-0.02,0.16,0.01,0.22,0.07c0.04,0.04,0.06,0.1,0.07,0.16c0.02,0.08,0.01,0.17-0.02,0.25
			l-0.08,0.26c-0.24,0.78-0.53,1.66-0.66,2.38c-0.03,0.16-0.03,0.31-0.01,0.44c0.02,0.12,0.07,0.22,0.14,0.31
			c0.12,0.16,0.31,0.24,0.56,0.25c1.77,0.07,3.07,1.4,3.42,3.35c0.07,0.38,0.1,0.78,0.09,1.2c-0.02,1.14-0.1,2.46-0.21,3.74
			c-0.16-0.02-0.31-0.03-0.48-0.03c-0.28,0.01-0.54-0.02-0.79-0.09c-0.73-0.2-1.3-0.21-1.71-0.02c0,0-0.02,0.01-0.02,0.01
			c0.03-0.47,0.05-0.96,0.04-1.37c0.03-0.01,0.08,0.01,0.11,0c0.1-0.02,0.12,0.1,0.12,0.24c0,0.12,0.01,0.74,0.03,0.88
			c0.02,0.14,0.15,0.02,0.13-0.07c-0.01-0.09,0.01-0.23,0.01-0.48c0-0.25-0.03-0.99-0.05-1.2c-0.02-0.18,0-0.43-0.05-0.6
			c-0.05-0.17-0.17-0.05-0.16,0.08c0.01,0.13-0.01,0.31,0.01,0.52c0.02,0.18-0.06,0.08-0.19,0.07c-0.01-0.15-0.03-0.3-0.04-0.45
			c-0.02-0.24-0.06-0.47-0.09-0.69c-0.14-0.76-0.35-1.35-0.63-1.75c-0.12-0.17-0.27-0.26-0.43-0.28c-0.02-0.17-0.18-0.15-0.24-0.16
			c-0.06-0.01-0.18-0.16-0.17-0.23c0.01-0.06,0.18-0.17-0.07-0.25c-0.24-0.09-0.23-0.02-0.3,0.05c-0.07,0.07-0.38,0.07-0.21,0.17
			c0.17,0.1,0.47,0.24,0.42,0.3c-0.05,0.05-0.07,0.13-0.18,0.09c-0.11-0.04-0.4-0.1-0.51-0.13c-0.11-0.03-0.2,0.08-0.07,0.13
			c0.14,0.04,0.47-0.04,0.57,0.06c0.04,0.04,0.23-0.01,0.12,0.58c-0.06,0.13-1.08,1.81-1.06,1.83c-0.06,0.08-1.38,1.45-1.36,1.54
			c-0.14,0.13-0.28,0.26-0.43,0.4c-0.26,0.23-1.59,1.64-1.82,1.99c-0.08-0.03-0.22-0.09-0.38-0.15
			C19.32,14.28,19.54,13.74,20.16,13.69z M20.33,15.7c0.5-1.07,1.35-1.92,2.19-2.67c1.67-1.5,2.39-2.66,3.08-4.17
			c0.03-0.07,0.07-0.09,0.09-0.1c0.02,0,0.27,0.34,0.3,0.41c-0.04,0.03,0.19,0.48,0.11,0.55c-0.08,0.07-0.17-0.04-0.31-0.1
			c-0.13-0.06-0.18,0.12-0.04,0.22c0.13,0.1,0.41,0.29,0.47,0.35c0.06,0.06,0.11,0.31-0.02,0.28c-0.13-0.04-0.45-0.28-0.63-0.43
			c-0.18-0.15-0.26,0.12-0.16,0.18c0.1,0.06,0.57,0.53,0.73,0.62c0.16,0.08,0.05,0.22,0.07,0.42c-0.62,0.68-1.05,1.45-1.3,2.34
			c-0.02,0.07-0.02,0.13-0.01,0.19c0.02,0.09,0.06,0.17,0.13,0.22c0.12,0.09,0.29,0.1,0.43,0.01c0.34-0.2,0.81-0.28,1.03-0.16
			c0.22,0.12,0.43,0.02,0.59-0.05l0.01,0c0.32-0.15,0.8-0.13,1.43,0.05c0.28,0.08,0.59,0.11,0.91,0.1c0.16,0,0.31,0.01,0.46,0.03
			l0.57,0.16c0.14,0.06,0.28,0.14,0.4,0.24c-0.03,0.07-0.06,0.11-0.14,0.13c-0.17,0.05-1.29,0.19-1.28,0.19
			c-0.08,0.02-0.16,0.03-0.24,0.04c-0.19-0.17-0.66-0.47-0.72-0.58c-0.07-0.11-0.23,0.01-0.14,0.1c0.09,0.09,0.41,0.36,0.53,0.49
			c-0.07,0-0.19,0-0.33,0.01c-0.01-0.01-0.02-0.02-0.03-0.03c-0.15-0.13-0.37-0.37-0.5-0.5c-0.13-0.13-0.25,0.02-0.13,0.1
			c0.12,0.08,0.29,0.36,0.33,0.42c0,0.01,0,0.01,0,0.02c-0.04,0-0.07,0.01-0.11,0.01c-0.05-0.01-0.12-0.04-0.16-0.08
			c-0.09-0.09-0.42-0.36-0.53-0.44c-0.12-0.08-0.28-0.03-0.22,0.04c0.06,0.07,0.46,0.32,0.51,0.44c0.02,0.04,0,0.07-0.03,0.08
			c-0.02,0-0.05,0-0.07,0.01c-0.06,0-0.14-0.03-0.2-0.09c-0.15-0.13-0.37-0.37-0.49-0.42c-0.11-0.06-0.16,0.08-0.07,0.19
			c0.1,0.11,0.28,0.18,0.34,0.32c0.01,0.03,0.01,0.06,0,0.09c0,0-0.01,0-0.01,0c-0.07,0.02-0.13,0.04-0.19,0.06
			c-0.03-0.01-0.06-0.03-0.09-0.05c-0.15-0.13-0.26-0.31-0.4-0.39c-0.14-0.08-0.29-0.05-0.19,0.06c0.1,0.11,0.46,0.28,0.47,0.38
			c0.01,0.04-0.01,0.09-0.03,0.11c-0.01,0.01-0.03,0.02-0.04,0.02c-0.03,0-0.06,0-0.09-0.03c-0.09-0.08-0.09-0.06-0.23-0.14
			c-0.14-0.07-0.11,0.23,0.03,0.33c0.01,0.01,0.02,0.01,0.02,0.02c-0.07,0.05-0.14,0.11-0.21,0.17c-0.16-0.15-0.54-0.39-0.54-0.39
			s-0.26-0.05-0.12,0.05c0.15,0.1,0.39,0.34,0.31,0.43c-0.09,0.09-0.37-0.11-0.52-0.19c-0.14-0.08-0.23-0.01-0.14,0.08
			c0.09,0.09,0.5,0.22,0.55,0.36c0.05,0.14-0.03,0.23-0.22,0.17c-0.19-0.07-0.41-0.15-0.58-0.25c-0.17-0.1-0.14,0.1-0.05,0.16
			c0.09,0.06,0.55,0.38,0.45,0.5c-0.11,0.12-0.63-0.12-0.78-0.22c-0.14-0.1-0.27,0.03-0.16,0.11c0.11,0.08,0.68,0.39,0.57,0.51
			c-0.11,0.12-0.62-0.22-0.74-0.33c-0.12-0.11-0.21-0.02-0.11,0.09c0.09,0.11,0.68,0.39,0.57,0.51c-0.11,0.12-0.79-0.27-0.96-0.36
			c-0.17-0.1-0.26,0.1-0.1,0.17c0.17,0.07,1,0.48,0.8,0.67c-0.2,0.19-0.79-0.29-1.04-0.43c-0.25-0.13-0.35,0.01-0.18,0.13
			c0.17,0.13,0.58,0.36,0.69,0.46c0.12,0.11,0.15,0.25-0.08,0.14c-0.22-0.11-1.04-0.58-1.22-0.57c-0.18,0-0.21,0.14-0.01,0.23
			c0.2,0.09,0.81,0.29,0.94,0.42c0.13,0.13-0.1,0.12-0.29,0.05c-0.19-0.07-0.68-0.39-0.8-0.37c-0.12,0.02-0.31,0-0.08,0.14
			c0.23,0.14,0.73,0.25,0.56,0.31c-0.17,0.06-0.51,0.04-0.8,0.04c-0.22,0-1.54,0.92-2.28,1.56c-0.72,0.19-1.21-0.95-0.31-2.69
			C19.6,16.92,20.3,15.75,20.33,15.7z M18.61,21.61c0.05-0.04,0.13-0.06,0.2-0.03c0.16,0.08,0.97,0.51,1.1,0.6
			c0.06,0.04,0.09,0.1,0.06,0.16c-0.03,0.07-0.14,0.11-0.29,0.06c-0.14-0.05-0.41-0.2-0.65-0.34c-0.18-0.1-0.35-0.2-0.42-0.22
			c-0.06-0.02-0.08-0.07-0.08-0.09C18.53,21.7,18.55,21.65,18.61,21.61z M17.88,22.25c0-0.03,0.03-0.06,0.07-0.08
			c0.05-0.02,0.13-0.01,0.18,0.05l0,0c0.06,0.07,1.37,0.66,1.58,0.71c0.19,0.05,0.18,0.1,0.17,0.12c-0.01,0.04-0.07,0.15-0.31,0.14
			c-0.27-0.01-1.01-0.38-1.43-0.61l-0.26-0.14C17.79,22.41,17.87,22.28,17.88,22.25z M21.39,28.1c0.13,0.04,0.14,0.08,0.13,0.12
			c-0.02,0.07-0.17,0.1-0.34,0.05c-0.17-0.04-0.5-0.16-0.76-0.27c-0.15-0.06-0.28-0.11-0.33-0.12c-0.08-0.03-0.13-0.09-0.13-0.14
			c-0.01-0.04,0-0.07,0.03-0.1c0.03-0.02,0.08-0.03,0.17,0.01C20.31,27.75,21.15,28.03,21.39,28.1z M19.25,35.2
			c0-0.02,0-0.03,0.01-0.04c0.04-0.04,0.19,0.01,1.16,0.38c0.28,0.11,0.55,0.21,0.61,0.23c0.14,0.03,0.91,0.3,0.94,0.43
			c0.01,0.05,0.03,0.11,0,0.16c-0.02,0.04-0.1,0.17-0.15,0.18c-0.09,0.02-0.77-0.24-0.77-0.24c-0.46-0.19-1.35-0.49-1.49-0.52
			c-0.23-0.05-0.31-0.33-0.3-0.45C19.26,35.28,19.27,35.24,19.25,35.2z M22.39,36.11l-0.16-0.09c-0.08-0.04-0.1-0.1-0.1-0.13
			c0-0.04,0.02-0.07,0.06-0.09c0.05-0.02,0.13-0.03,0.22,0.03c0.03,0.02,0.12,0.06,0.21,0.09c0.22,0.09,0.85,0.28,0.86,0.32
			c0.01,0.03,0,0.09-0.04,0.13c-0.03,0.04-0.07,0.06-0.11,0.06C23.25,36.43,22.54,36.19,22.39,36.11z M23.23,34.79
			c-0.01,0.03-0.05,0.08-0.16,0.08c-0.14,0-1.34-0.4-1.55-0.46l-0.09-0.03l-0.07-0.02c-0.08-0.01-0.16-0.02-0.19-0.16
			c0-0.05-0.02-0.23,0.02-0.24c0.09-0.04,1.34,0.41,1.49,0.43c0.17,0.02,0.33,0.03,0.4,0.08C23.17,34.53,23.25,34.74,23.23,34.79z
			 M22.73,33.83c-0.24,0.02-1.54-0.47-1.71-0.57c-0.06-0.03-0.25-0.12-0.48-0.22c-0.53-0.23-1-0.42-1.11-0.46
			c-0.56-0.22-1.28-0.26-1.22-0.69c0.01-0.06,0.08-0.24,0.12-0.26c0.02-0.02,0.08-0.03,0.14,0.02c0.04,0.03,0.17,0.08,0.32,0.13
			c0.23,0.08,0.98,0.41,1.24,0.48c0.24,0.07,2.25,0.86,2.34,0.88c0.15,0.04,0.3,0.07,0.37,0.15c0.02,0.02,0.04,0.05,0.04,0.09
			c0,0.03,0,0.11,0,0.14C22.78,33.62,22.9,33.81,22.73,33.83z M15.95,28.66c0.02-0.07,0.04-0.2,0.24-0.11
			c0.08,0.04,2.79,1.06,2.91,1.1c0.02,0.01,0.06,0.2,0.05,0.22c-0.02,0.06-0.16,0.1-0.25,0.07l-1.87-0.66
			c-0.51-0.15-1-0.31-1.08-0.45C15.92,28.75,15.94,28.71,15.95,28.66z M15.83,31.38c0.12,0,1.11,0.49,1.21,0.57
			c0.23,0.18,0.34,0.78,0.35,0.79c0.08,0.08-0.69-0.23-0.83-0.27c-0.28-0.09-0.75-0.27-0.8-0.34c-0.05-0.07-0.07-0.24-0.04-0.28
			C15.74,31.8,15.72,31.38,15.83,31.38z M15.84,33.25c0.02-0.06,0.03-0.34,0.09-0.34c0.03,0,1.51,0.44,1.55,0.46
			c0.3,0.14,0.29,0.72,0.29,0.72c-0.02,0.04-0.06,0.06-0.1,0.06c-0.08,0.01-1.23-0.4-1.34-0.43c-0.11-0.02-0.35-0.08-0.41-0.13
			C15.88,33.55,15.82,33.32,15.84,33.25z M16.76,29.79c-0.01-0.05,0.04-0.19,0.13-0.21c0.09-0.02,0.96,0.33,1.15,0.41
			c0.22,0.09,0.35,0.15,0.39,0.19c0.05,0.04,0.06,0.12,0.05,0.16c-0.01,0.04-0.04,0.16-0.07,0.17c-0.02,0.01-0.07,0.01-0.12-0.05
			C18.17,30.33,16.77,29.88,16.76,29.79z M22.53,32.59c0.02,0.09,0,0.17-0.06,0.21c-0.07,0.04-2.52-0.88-2.64-0.97
			c-0.03-0.03-1.15-0.49-1.3-0.61c-0.04-0.04,0.07-0.21,0.09-0.24c0.05-0.06,0.14-0.1,0.23-0.04c0.09,0.06,1.27,0.4,1.47,0.48
			l0.33,0.14c0.24,0.11,1.1,0.42,1.2,0.45l0.08,0.02c0.08,0.01,0.19,0.03,0.38,0.13C22.54,32.27,22.53,32.56,22.53,32.59z
			 M22.32,31.72c-0.02,0.1-0.2,0.09-0.24,0.06c0,0-2.21-0.88-2.41-0.93c-0.32-0.09-0.68-0.16-0.69-0.28
			c-0.01-0.1,0.12-0.61,0.95-0.25c0.17,0.07,2.16,0.73,2.16,0.73c0.16,0.06,0.14,0.25,0.21,0.44C22.3,31.49,22.36,31.55,22.32,31.72
			z M16.03,24.81c0.07-0.12,0.31-0.12,0.38-0.04c0.07,0.08,2.87,1.15,3.12,1.2c0.1,0.02,0.13,0.06,0.14,0.09
			c0.01,0.04-0.01,0.55-0.05,0.59c-0.06,0.06-0.17,0.11-0.28,0.08c-0.22-0.05-3.18-1.32-3.33-1.45c-0.03-0.03-0.08-0.08-0.07-0.12
			C15.95,25.16,16.01,24.85,16.03,24.81z M16.04,25.94c0.05,0.03,0.23,0.09,0.38,0.15c0.11,0.04,0.2,0.08,0.24,0.09
			c0.07,0.03,1.45,0.55,1.93,0.74l0.34,0.13c0.07,0.03,0.12,0.1,0.13,0.15c0,0.02-0.02,0.18-0.04,0.2
			c-0.02,0.02,0.04,0.22-0.49,0.06c-0.71-0.21-2.87-0.75-2.75-1.37C15.79,26.05,15.99,25.91,16.04,25.94z M21.14,28.84l-0.29-0.08
			c-0.35-0.09-0.84-0.21-1.02-0.31c-0.14-0.08-0.15-0.15-0.14-0.2c0.02-0.08,0.07-0.05,0.22-0.05c0.2,0.01,0.62,0.19,0.96,0.27
			c0.19,0.04,0.33,0.14,0.41,0.17c0.09,0.03,0.14,0.06,0.15,0.1c0.01,0.03,0,0.06-0.02,0.07C21.36,28.87,21.26,28.87,21.14,28.84z
			 M19.45,25.26c-0.1,0.06-1.27-0.43-1.53-0.5c-0.26-0.06-1-0.39-1.19-0.48c-0.08-0.04-0.11-0.15-0.11-0.18
			c0.01-0.07,0.12-0.35,0.2-0.37c0.04-0.01,0.21,0,0.25,0.05c0.06,0.06,0.93,0.43,1.17,0.49c0.14,0.03,0.43,0.15,0.71,0.26
			c0.22,0.1,0.44,0.18,0.53,0.21c0.08,0.02,0.1,0.06,0.1,0.09C19.6,24.89,19.51,25.23,19.45,25.26z M17.32,22.88
			c0.06,0,0.22,0.03,0.24,0.08c0.07,0.08,1.2,0.55,1.81,0.8c0.1,0.04,0.3,0.13,0.3,0.18c0,0.16-0.14,0.27-0.29,0.28
			c-0.29,0.01-2.01-0.83-2.11-0.95c-0.04-0.05-0.1-0.15-0.09-0.17C17.18,23.07,17.26,22.88,17.32,22.88z M14.37,17.33
			c0.15,0.07,1.07,0.43,1.19,0.48c0.13,0.05,0.14-0.09,0.04-0.14c-0.1-0.05-0.67-0.41-0.85-0.5c-0.18-0.08,0.07-0.13,0.17-0.1
			c0.1,0.03,0.53,0.16,0.66,0.21c0.12,0.05,0.24-0.07,0.16-0.12c-0.07-0.05-0.16-0.16-0.36-0.28l0,0c0.39-0.09,0.62-0.28,0.76-0.65
			c0.09-0.23,0.15-0.4,0.24-0.69l0,0c0.11-0.34,0.33-0.49,0.5-0.47c0.19,0.01,0.34,0.2,0.39,0.5c0.2,1.11,0.2,2.27,0.21,3.4
			c0,0.73,0.01,1.41,0.06,2.05c-0.33,0.26-0.64,0.56-0.93,0.89l-0.01-0.02c0,0-0.09,0.01-0.27,0.02c-0.18,0.01-0.33-0.17-0.2-0.19
			c0.13-0.02,0.25-0.16,0.13-0.17c-0.12,0-0.19-0.03-0.43-0.08c-0.24-0.05-0.22-0.21-0.11-0.24c0.11-0.02,0.29,0.07,0.44,0.16
			c0.15,0.09,0.37-0.14,0.13-0.19c-0.24-0.05-0.58-0.29-0.87-0.33c-0.28-0.04-0.37-0.26-0.15-0.2c0.22,0.05,0.52,0.09,0.81,0.11
			c0.28,0.02,0.17-0.17,0.03-0.21c-0.15-0.04-0.67-0.13-0.89-0.21c-0.22-0.08-0.18-0.25-0.02-0.25c0.16,0,0.85,0.24,1.04,0.3
			c0.19,0.06,0.28-0.14-0.06-0.22c-0.34-0.08-0.96-0.34-1.08-0.39c-0.12-0.04-0.15-0.18,0.06-0.15c0.22,0.03,0.8,0.21,0.92,0.23
			c0.12,0.03,0.17-0.06-0.06-0.11c-0.24-0.05-0.76-0.35-1-0.4c-0.24-0.05-0.2-0.22-0.03-0.18c0.17,0.04,0.81,0.25,1,0.29
			c0.19,0.04,0.23-0.11-0.08-0.17c-0.31-0.06-0.92-0.37-1.14-0.45c-0.22-0.08-0.18-0.25,0.03-0.19c0.22,0.05,0.61,0.31,0.79,0.3
			c0.18-0.01,0.12-0.11-0.02-0.13c-0.14-0.02-0.61-0.31-0.73-0.38c-0.13-0.07-0.07-0.13,0.02-0.14c0.09-0.02,0.35,0.15,0.47,0.17
			c0.12,0.02,0.21-0.11,0.05-0.15c-0.17-0.04-0.5-0.21-0.67-0.25c-0.16-0.04-0.12-0.18,0-0.16c0.12,0.02,0.54,0.18,0.71,0.22
			c0.17,0.04,0.18-0.03,0.01-0.07c-0.17-0.04-0.8-0.36-1.03-0.49C14.16,17.46,14.22,17.27,14.37,17.33z M16.23,27.3
			c1.14,0.28,2.18,0.79,2.86,1.04c0.54,0.2,0.18,0.35,0.33,0.43c0.18,0.1,0.55,0.25,1.09,0.44c0.49,0.17,0.96,0.33,1.08,0.4
			c0.12,0.07,0.15,0.3,0.14,0.36c0,0.05-0.03,0.08-0.07,0.1c-0.05,0.02-0.11,0-0.16-0.05c-0.08-0.08-0.72-0.29-1.34-0.51
			c-0.6-0.21-1.22-0.42-1.41-0.53c-0.22-0.12-0.56-0.22-0.85-0.31c-0.25-0.08-0.48-0.15-0.62-0.23c-0.42-0.23-0.93-0.32-1.35-0.57
			C15.87,27.85,15.97,27.23,16.23,27.3z M13.95,31.51c0.09-0.04-0.02-0.23-0.18-0.34c-0.16-0.11-0.33-0.45-0.2-0.36
			c0.13,0.09,0.5,0.35,0.66,0.46c0.16,0.11,0.28,0,0.04-0.14c-0.23-0.14-0.62-0.54-0.76-0.65c-0.13-0.11-0.21-0.42-0.08-0.33
			c0.13,0.09,0.58,0.43,0.7,0.54c0.11,0.12,0.18-0.03,0.09-0.13c-0.09-0.1-0.5-0.45-0.74-0.65c-0.4-0.35-0.28-0.94-0.14-0.92
			c0.13,0.02,1.03,0.79,1.19,0.93c0.11,0.09,0.2-0.04,0.05-0.2c-0.15-0.17-0.98-0.88-1.1-0.97c-0.32-0.25-0.23-0.68-0.22-0.71
			c0.03-0.07,0.14-0.17,0.21-0.12c0.13,0.09,0.81,0.76,0.89,0.86c0.09,0.1,0.2-0.04,0.07-0.13c-0.13-0.09-0.59-0.56-0.75-0.72
			c-0.17-0.16,0-0.28,0.15-0.21c0.15,0.07,0.67,0.65,0.82,0.71c0.15,0.07,0.13-0.06,0.05-0.12c-0.08-0.06-0.94-0.87-1.05-0.97
			c-0.05-0.05-0.16-0.13-0.09-0.25c0.1-0.18,0.12-0.33,0.39-0.17c0.08,0.05,0.27,0.21,0.35,0.28c0.08,0.08,0.18-0.01,0.09-0.11
			c-0.09-0.1-0.46-0.38-0.57-0.47c-0.11-0.1-0.05-0.29,0.13-0.19c0.18,0.11,0.65,0.54,0.7,0.6c0.06,0.06,0.3,0.01,0.12-0.12
			c-0.19-0.13-0.94-0.88-0.96-0.96c-0.05-0.23-0.08-1.07,0.04-0.96c0.11,0.12,0.42,0.28,0.61,0.47c0.2,0.2,0.12-0.09,0.01-0.23
			c-0.09-0.11-0.69-0.54-0.98-1.04c-0.03-0.08-0.06-0.15-0.09-0.22c-0.32-0.78,0.01-1.51,0.67-1.8c0.25-0.06,0.51-0.05,0.71,0.01
			c0.17,0.06,0.26,0.18,0.25,0.25c-0.01,0.06-0.1,0.11-0.25,0.13c-0.37,0.04-0.67,0.23-0.81,0.52c-0.13,0.25-0.12,0.55,0.01,0.77
			c0.13,0.22,0.26,0.41,0.45,0.67l0.41,0.59c0.58,0.86,0.66,2.22,0.54,3.12c-0.06,0.47-0.14,1.11-0.01,1.95
			c0.13,0.83,0.01,1.48-0.35,2.03c-0.13,0.19-0.28,0.3-0.44,0.3c-0.06,0-0.3-0.1-0.39-0.2C14.06,32.15,13.66,31.63,13.95,31.51z
			 M16.39,43.78c-0.07,0.03-0.14,0.09-0.21,0.16c-0.12,0.14-0.42,0.35-0.7,0.25l-0.03-0.07c-0.04-0.13,0.05-0.32,0.2-0.3
			c0.14,0.02,0.46-0.13,0.48-0.2c0.02-0.07,0.26-0.12,0.26-0.02C16.39,43.65,16.4,43.71,16.39,43.78z M18.5,45.56
			c-0.05,0.04-0.21,0.03-0.39-0.11l-0.04-0.04c0.02-0.08,0.11-0.17,0.2-0.21c0.1,0.08,0.2,0.16,0.23,0.25
			C18.5,45.47,18.53,45.53,18.5,45.56z M18.32,43.09c-0.05,0.56,0.17,1.2,0.18,1.77c-0.07-0.04-0.13-0.09-0.18-0.13l-0.16-0.11
			c-0.12-0.09-2.9-2.42-3.1-2.19c-0.03,0.04-0.07,0.08-0.11,0.14c0,0,0.15-0.28,0.05-0.36c-0.1-0.07-0.02-0.42,0.05-0.52
			c0.07-0.1,0.11,0,0.28,0.06c0.16,0.06,0.1-0.12,0.02-0.17c-0.07-0.06-0.21-0.1-0.3-0.17c-0.08-0.08-0.09-0.25,0.01-0.18
			c0.1,0.07,0.2,0.07,0.34,0.14c0.15,0.06,0.1-0.08,0-0.15c-0.1-0.07-0.25-0.13-0.38-0.24c-0.13-0.11-0.05-0.28,0.08-0.19
			c0.13,0.09,0.32,0.19,0.52,0.31c0.2,0.12,0.14-0.15,0-0.19c-0.14-0.04-0.4-0.25-0.51-0.31c-0.16-0.1-0.29-0.53,0.02-0.5
			c0.21,0.02,0.36,0.16,0.55,0.25c0.18,0.08,0.23-0.09,0.07-0.21c-0.15-0.13-0.48-0.32-0.65-0.42c-0.21-0.11-0.12-0.46,0.08-0.44
			c0.09,0.01,0.26,0.09,0.38,0.15c0.12,0.07,0.19-0.06,0.09-0.13c-0.1-0.07-0.28-0.16-0.38-0.23c-0.1-0.07-0.11-0.41,0.09-0.29
			c0.2,0.12,0.25,0.12,0.42,0.18c0.16,0.06,0.12-0.12,0.05-0.18c-0.08-0.05-0.37-0.16-0.5-0.25c-0.13-0.09-0.08-0.29,0.07-0.2
			c0.14,0.09,0.34,0.17,0.47,0.23c0.14,0.06,0.29-0.05,0.19-0.12c-0.1-0.07-0.24-0.19-0.35-0.23c-0.6-0.21-0.34-2.29,0.73-1.48
			c0.24,0.18,1.18,1.32,1.48,1.27C18.37,37.92,18.33,42.98,18.32,43.09z M16.53,35.21c-0.14-0.03-0.46-0.73-0.29-0.77
			c0.15-0.03,1.37,0.42,1.65,0.48c0.48,0.11,0.47,0.84,0.22,0.8C17.77,35.66,16.72,35.26,16.53,35.21z M23.13,40.73
			c-0.11-0.03-1.81-0.73-1.96-0.85c-0.16-0.12-0.06-0.52,0.25-0.4c0.12,0.04,1.73,0.68,1.88,0.74
			C24.08,40.54,23.98,40.99,23.13,40.73z M19.97,36.99c-0.19-0.04-0.38-0.2-0.45-0.36c-0.03-0.07,0.1-0.3,0.6-0.13
			c0.17,0.06,0.83,0.32,1.21,0.41l0.25,0.07l0.17,0.05c0.15,0.05,1.15,0.4,1.23,0.43c0.25,0.11,1.08,0.39,1.3,0.45
			c0.08,0.02,0.09,0.23,0.05,0.34C24.21,38.66,20.15,37.03,19.97,36.99z M27.37,47.93c-0.29-0.02-1.12,0.2-1.43,0.28
			c-0.3,0.08-0.31-0.13-0.29-0.27c0.02-0.14,0.31-0.4,0.51-0.53c0.21-0.12,0.63-0.36,0.77-0.22c0.29,0.29,0.5,0.3,0.81,0.52
			C28.07,47.93,27.66,47.95,27.37,47.93z M29.72,48.15c0,0.21-0.49,0.3-0.72,0.34c-0.22,0.04-0.72-0.22-0.93-0.35
			c-0.22-0.14,0.07-0.38,0.2-0.47c0.17-0.12,0.41-0.03,0.56,0.03c0.11,0.04,0.48-0.06,0.62,0.01C29.6,47.76,29.73,47.93,29.72,48.15
			z M28.49,47.09c-0.2,0.05-0.36,0.08-0.52,0.06c0.04-0.07,0.06-0.16-0.04-0.18c-0.2-0.04-0.57-0.33-0.64-0.43
			c-0.08-0.1-0.05,0.03-0.19-0.01c-0.14-0.03-0.28-0.04-0.56,0c-0.28,0.04-0.28-1.27-0.29-1.46c0-0.17,0.3-0.63,0.85-0.54
			c0.27,0.04,0.52-0.09,0.53-0.26c0.01-0.09-0.05-0.5,0.05-0.5c0.45,0.03,0.25-0.38,0.3-0.54c0.35,0,0.71-0.02,1.07-0.06
			c0.03,0.01,0.07,0.02,0.1,0.03c0.04,0.19,0.6,2.9,0.81,3.92C29.47,46.89,28.9,46.99,28.49,47.09z M36.53,28.38
			c0.01-0.05,0.02-0.09,0.02-0.13C36.55,28.29,36.54,28.33,36.53,28.38z M36.56,28.2c0.01-0.03,0.01-0.06,0.01-0.1
			C36.57,28.13,36.56,28.17,36.56,28.2z M36.58,28.05c0-0.03,0-0.06,0-0.09C36.58,27.99,36.58,28.02,36.58,28.05z M36.58,27.9
			c0.01-0.03,0.01-0.05,0.01-0.08C36.59,27.85,36.59,27.87,36.58,27.9z M36.52,26.69c-0.01-0.05-0.02-0.1-0.02-0.15
			C36.5,26.59,36.51,26.64,36.52,26.69z M36.59,27.75c0-0.03,0-0.05,0-0.08C36.59,27.7,36.59,27.73,36.59,27.75z M36.59,27.61
			c0-0.03,0-0.06,0-0.09C36.59,27.55,36.59,27.58,36.59,27.61z M36.59,27.46c0-0.03,0-0.06,0-0.08
			C36.59,27.4,36.59,27.43,36.59,27.46z M36.58,27.3c0-0.03,0-0.06,0-0.09C36.58,27.25,36.58,27.28,36.58,27.3z M36.58,27.15
			c-0.01-0.03-0.01-0.06-0.01-0.09C36.57,27.09,36.57,27.12,36.58,27.15z M36.56,27c0-0.03-0.01-0.07-0.01-0.1
			C36.55,26.93,36.56,26.97,36.56,27z M36.54,26.85c-0.01-0.04-0.01-0.09-0.02-0.13C36.53,26.76,36.53,26.8,36.54,26.85z
			 M35.94,24.76c-0.02-0.04-0.03-0.07-0.05-0.11C35.91,24.68,35.92,24.72,35.94,24.76z M36.49,26.49c-0.01-0.04-0.02-0.07-0.02-0.11
			C36.47,26.42,36.48,26.45,36.49,26.49z M36.45,26.32c0-0.03-0.01-0.07-0.02-0.1C36.44,26.25,36.45,26.29,36.45,26.32z
			 M36.42,26.16c-0.01-0.03-0.02-0.06-0.02-0.09C36.4,26.1,36.41,26.13,36.42,26.16z M36.38,26c-0.01-0.03-0.02-0.06-0.02-0.09
			C36.36,25.94,36.37,25.97,36.38,26z M36.34,25.85c-0.01-0.03-0.01-0.06-0.02-0.09C36.32,25.78,36.33,25.81,36.34,25.85z
			 M36.29,25.69c0-0.03-0.02-0.06-0.02-0.09C36.28,25.63,36.29,25.66,36.29,25.69z M36.25,25.53c-0.01-0.03-0.02-0.06-0.03-0.09
			C36.23,25.48,36.23,25.51,36.25,25.53z M36.19,25.38c-0.01-0.03-0.02-0.06-0.03-0.09C36.17,25.32,36.18,25.35,36.19,25.38z
			 M36.14,25.23c-0.02-0.03-0.03-0.06-0.04-0.09C36.11,25.17,36.13,25.2,36.14,25.23z M36.08,25.09c-0.02-0.04-0.03-0.08-0.05-0.12
			C36.05,25,36.07,25.05,36.08,25.09z M36.02,24.94c-0.02-0.05-0.04-0.1-0.07-0.15C35.98,24.84,36,24.89,36.02,24.94z M35.55,24.05
			c-0.02-0.03-0.03-0.05-0.05-0.07C35.52,24,35.53,24.02,35.55,24.05z M35.86,24.6c-0.02-0.03-0.03-0.06-0.05-0.09
			C35.83,24.53,35.85,24.56,35.86,24.6z M35.79,24.45c-0.02-0.03-0.03-0.05-0.05-0.08C35.75,24.4,35.77,24.42,35.79,24.45z
			 M35.71,24.31c-0.01-0.03-0.03-0.05-0.04-0.08C35.68,24.26,35.69,24.29,35.71,24.31z M35.63,24.18c-0.01-0.03-0.03-0.05-0.05-0.08
			C35.6,24.13,35.62,24.15,35.63,24.18z M36.18,28.25c-0.48,2.94,0.96,5.2,2.36,7.38l0.04,0.06c0.25,0.39,0.56,1.12,0.63,1.35
			c0.08,0.23,0.11,0.9,0.09,1.2c-0.03,0.3-0.5,1.3-0.62,1.48c-0.11,0.19-0.4,0.51-0.6,0.68c-0.04,0.04-1.89,3.13-10.54,2.33
			c-0.72-0.22-0.87-0.76-0.93-0.94c-0.05-0.18-1.1-0.65-1.33-0.67c-0.24-0.03-0.2-0.22-0.02-0.28c0.18-0.05-0.17-0.22-0.38-0.31
			c-0.87-0.35-0.43-0.93-0.18-0.84c0.25,0.1,1.15,0.41,1.46,0.45c0.31,0.04,0.09-0.16-0.04-0.21c-0.13-0.05-0.85-0.25-1.05-0.35
			c-0.81-0.41,0.05-0.9,0.36-0.86c0.12,0.02,0.97,0.22,1.27,0.31c0.3,0.09,0.15-0.07-0.12-0.17c-0.27-0.09-0.4-0.14-0.72-0.25
			c-0.32-0.11,0-0.14,0.09-0.15c0.09-0.02,0.68,0.16,0.63,0.05c-0.07-0.15-0.5-0.26-0.92-0.44c-0.47-0.19-2.08-1.99,0.39-1.32
			c0.23,0.07,0.28-0.24,0.18-0.29c-0.1-0.05-1.41-0.59-1.63-0.65c-0.64-0.18-0.67-0.87-0.54-0.82c0.12,0.05,1.26,0.5,1.42,0.5
			c0.16,0,0.17-0.24,0.02-0.31c-0.15-0.07-1.12-0.43-1.29-0.47c-0.17-0.04-0.39-0.16-0.34-0.26c0.05-0.1-0.13-0.08-0.3-0.26
			c-0.17-0.18,0.04-0.29,0.36-0.18c0.32,0.11,0.16-0.14,0.06-0.21c-0.11-0.08-0.39-0.23-0.57-0.44c-0.19-0.22-0.26-0.68-0.36-0.85
			c-0.1-0.17,0.15-0.05,0.34-0.04c0.19,0.01,0.05-0.13-0.17-0.18c-0.22-0.06-0.26-0.19-0.34-0.34c-0.07-0.15,0.35-0.01,0.54-0.02
			c0.18-0.01,0.08-0.06-0.12-0.16c-0.21-0.11-0.39-0.21-0.39-0.33c0-0.12,0.21,0.01,0.51-0.02c0.24-0.02,0.1-0.18-0.07-0.24
			c-0.17-0.06-0.35-0.04-0.53-0.15c-0.18-0.11-0.09-0.18-0.12-0.31c-0.03-0.14,0.13-0.15,0.34-0.14c0.21,0.01,0.31-0.05,0.28-0.11
			c-0.06-0.16-0.42-0.13-0.54-0.14c-0.12,0-0.27-0.18-0.16-0.26c0.1-0.09-0.05-0.29-0.16-0.35c-0.1-0.05,0.14-0.13,0.23-0.13
			c0.1,0.01,0.12-0.32-0.25-0.26c-0.39,0.06-0.15-0.3-0.16-0.65c-0.01-0.35,0.09-0.3-0.03-0.44c-0.12-0.14-0.55,0.35-0.49,0.04
			c0.06-0.32-0.14-0.39-0.19-0.43c-0.05-0.04-0.01-0.21-0.09-0.27c-0.08-0.05-1.11-0.34-1.39-0.45c-0.28-0.11,0.03-0.59,0.63-0.43
			c0.24,0.06,0.53,0.12,0.55-0.06c0.01-0.11-0.19-0.13-0.64-0.31c-0.45-0.17-0.32-0.58,0.17-0.56c0.21,0.01,0.31-0.09,0.25-0.18
			c-0.06-0.08-0.29-0.05-0.46-0.14c-0.29-0.15-0.59-1.06,0.18-0.95c0.15,0.02,0.23-0.15,0.01-0.21c-0.22-0.05-0.22-0.07-0.37-0.12
			c-0.15-0.04,0.03-0.73,0.19-0.76c0.16-0.03,0.32,0.09,0.5,0.15c0.17,0.06,0.2-0.08,0.04-0.17c-0.16-0.09-0.29-0.18-0.42-0.25
			c-0.13-0.07,0.03-0.12,0.13-0.2c0.1-0.08,0.37,0.09,0.61,0.17c0.23,0.08,0.26-0.17,0.02-0.29c-0.14-0.07-0.58-0.17-0.57-0.29
			c0-0.12,0.02-0.43,0.16-0.43c0.14,0,0.59,0.12,0.59,0.12s0.23-0.23,0-0.3c-0.12-0.04-0.15,0.02-0.54-0.16
			c-0.32-0.15-0.01-0.5,0.16-0.47c0.11,0.02,0.61,0.19,0.91,0.13c0.31-0.06,0.22-0.26,0-0.34c-0.23-0.08-0.83-0.21-1.03-0.31
			c-0.2-0.1,0.18-0.75,0.45-0.83c0.29-0.09,1.03-0.68,1.71,0.23c0.12,0.17,0.48,0.3,0.61,0.4c0.13,0.09,0.63,0.4,0.73,0.57
			c0.1,0.17,0.35,0.14,0.63,0.01c0.15-0.07-0.12-0.45-0.5-0.89c-0.21-0.07-0.42-0.15-0.49-0.2c-0.15-0.12-0.64-0.79-0.57-0.93l0,0
			c-0.18-0.19-0.3-0.3-0.3-0.3l-0.42-0.36c1.24-0.22,2.66-0.05,4.31,0.48c0,0,2.54,2.82,2.57,2.88c0.04,0.06,0.43,0.19,0.54,0.1
			c0.1-0.08-0.03-0.55-0.24-0.55c-0.21,0-0.44-0.71-0.58-0.86c-0.13-0.15-1.09-1.23-1.22-1.41c-0.14-0.17,0.1-0.18,0.2-0.06
			c0.1,0.11,0.41,0.39,0.51,0.33c0.1-0.05-0.04-0.12-0.22-0.34c-0.18-0.22,0.14-0.03,0.16-0.15c0-0.01,0-0.02,0-0.02
			c0.84,0.11,1.71,0.45,2.55,1.01c1.24,0.82,2.27,2.02,2.76,3.19l0.02,0.05l0.04,0.03C35.79,24.27,36.43,26.69,36.18,28.25z
			 M36.61,24.07c0,0.05,0,0.09,0.01,0.14c-0.11-0.06-0.21-0.12-0.31-0.17c-0.09-0.29-0.56-0.85-0.66-0.93
			c-0.11-0.09,0.1-0.26,0.4-0.04C36.35,23.29,36.61,23.86,36.61,24.07z M35.7,19.33c-0.24,0-0.44,0.22-0.38,0.41
			c0.07,0.19,0.03,0.59,0.01,0.75c-0.02,0.16,0.2,0.48,0.3,0.54c0.1,0.06,0.2,0.43,0.09,0.48c-0.12,0.05-0.28,0.08-0.22,0.24
			c0.06,0.16-0.07,0.39-0.13,0.29c-0.06-0.1-0.1-0.22-0.17-0.42c-0.07-0.21-0.22-0.27-0.15-0.07c0.07,0.21,0.09,0.34,0.16,0.54
			c0.07,0.21-0.1,0.3-0.16,0.05c-0.06-0.25-0.27-0.48-0.31-0.68c-0.03-0.2-0.16-0.13-0.11,0.07c0.05,0.19-0.1,0.3-0.18,0.05
			c-0.08-0.25-0.33-0.99-0.4-1.19c-0.07-0.21-0.23-0.18-0.19-0.08c0.05,0.1,0.07,0.3,0.08,0.39c0.02,0.09-0.14,0.24-0.17,0.05
			c-0.04-0.2-0.16-0.44-0.19-0.59c-0.03-0.15-0.32-0.33-0.24-0.14c0.08,0.19,0.05,0.3,0.06,0.52c0.01,0.22-0.13,0.05-0.16-0.05
			c-0.03-0.1-0.12-0.29-0.15-0.43c-0.04-0.13-0.19-0.26-0.17-0.14c0.02,0.12,0.04,0.24-0.05,0.21c-0.1-0.03-0.12-0.21-0.15-0.33
			c-0.04-0.12-0.17-0.47-0.24-0.64c-0.06-0.18-0.26-0.22-0.19-0.11c0.07,0.11,0.09,0.42,0.13,0.57c0.04,0.15-0.2,0.08-0.24-0.02
			c-0.03-0.1-0.28-0.62-0.35-0.75c-0.07-0.13-0.21-0.04-0.13,0.07c0.08,0.11,0.16,0.36,0.2,0.51c0.05,0.15-0.2-0.09-0.26-0.16
			c-0.06-0.07-0.24-0.39-0.3-0.54c-0.06-0.14-0.26-0.12-0.17,0c0.08,0.13,0.06,0.16,0.12,0.34c0.06,0.18-0.22-0.02-0.27-0.09
			c-0.04-0.07-0.29-0.53-0.33-0.64c-0.03-0.12-0.23-0.01-0.13,0.13c0.1,0.14,0.06,0.25,0.11,0.37c0.05,0.12-0.29-0.09-0.33-0.19
			c-0.05-0.1-0.27-0.46-0.39-0.68c-0.12-0.23-0.15,0.01-0.1,0.11c0.05,0.1,0.16,0.28,0.18,0.44c0.03,0.15-0.13,0.07-0.17,0
			c-0.04-0.07-0.17-0.38-0.22-0.47c-0.05-0.1-0.33-0.19-0.14,0.16c0.19,0.36,0.05,0.3-0.05,0.3c-0.11,0-0.24-0.13-0.24-0.13
			s-0.09-0.24-0.14-0.4c-0.04-0.17-0.17-0.1-0.13-0.02c0.05,0.07,0.01,0.21,0.03,0.36c0.03,0.15-0.16,0.05-0.18-0.03
			c-0.01-0.08-0.15-0.33-0.2-0.39c-0.04-0.06-0.18-0.06-0.12,0.01c0.06,0.07,0.07,0.17,0.08,0.31c0.01,0.14-0.02,0.14-0.08,0.08
			c-0.06-0.07-0.2-0.18-0.31-0.33c-0.1-0.15-0.3,0.08-0.39,0.1c-0.09,0.01-0.35-0.3-0.41-0.35c-0.06-0.05-0.16,0-0.11,0.08
			c0.05,0.09,0.22,0.23,0.17,0.33c-0.04,0.1,0.02,0.29-0.15,0.31c-0.17,0.01-0.37-0.31-0.55-0.32c-0.19-0.01-0.42,0.01-0.49,0.15
			c0,0-0.01,0-0.01,0.01c-0.19-0.04-0.37-0.07-0.55-0.1c-0.17-0.07-0.33-0.14-0.4-0.16c-0.12-0.03-0.11-0.08-0.06-0.18
			c3.27-1.57,7.97-1.69,11.87,1.46c-0.04,0.01-0.08,0.02-0.12,0.03c-0.1-0.07-0.37-0.09-0.48-0.1
			C36.36,19.22,35.93,19.34,35.7,19.33z M37.27,20c-0.12,0.09-0.22,0.2-0.29,0.34c-0.11,0.24-0.14,0.53-0.08,0.88
			c0.04,0.21,0.1,0.43,0.2,0.67c0.15,0.36,0.24,0.68,0.29,0.96c0.04,0.23,0.04,0.42,0.02,0.59c-0.02,0.11-0.02,0.21,0,0.3
			c0.04,0.22,0.16,0.39,0.27,0.56c0.11,0.17,0.27,0.41,0.34,0.55c0.01,0.02,0.02,0.03,0.02,0.05c0,0.02,0,0.03,0,0.04
			c-0.01,0-0.14-0.03-0.21-0.07c-0.16-0.09-0.43-0.38-0.63-0.7c-0.07-0.14-0.12-0.26-0.15-0.41c-0.01-0.06,0-0.3,0.02-0.35
			c0.16-0.44-0.32-1.38-0.41-1.52c-0.06-0.09-0.21-0.31-0.3-0.5c-0.02-0.08-0.21-0.7,0.09-1.02c0.12-0.14,0.44-0.35,0.62-0.44
			C37.21,19.84,37.26,19.89,37.27,20z"/>
		<path class="st0" d="M27.8,18.98c-0.01-0.01-0.01-0.01-0.02-0.02c-0.02-0.03-0.13-0.08-0.3-0.15c-0.42-0.21-0.86-0.37-1.33-0.49
			c-0.2-0.07-0.37-0.11-0.45-0.12c-0.09-0.01-0.25-0.03-0.45-0.05c-0.19-0.02-0.37-0.04-0.56-0.05c-0.39-0.03-0.8-0.05-1.04-0.02
			c-0.1,0.01-0.25,0.04-0.41,0.09c-0.7,0.11-1.36,0.32-1.94,0.65c-0.01,0-0.02,0.01-0.02,0.01c-0.33,0.19-0.63,0.42-0.9,0.68
			c-0.25,0.25-0.55,0.37-0.79,0.45c-1.57,0.56-3.09,1.61-3.81,3.42c-0.04,0.11,0.06,0.17,0.12,0.08c0.96-1.57,2.54-2.54,3.83-2.92
			c0.38-0.11,0.57,0.16,0.59,0.43c0.06,0.6,0.1,1.1,0,1.45c-0.1,0.35-0.25,0.68-0.38,1.01c-0.13,0.33-0.21,0.81-0.17,1.24
			c0.1,0.89,0.29,2.04-0.34,3.15c-0.09,0.15,0.02,0.25,0.16,0.11c0.78-0.75,0.8-1.93,0.72-3.07c-0.03-0.46,0.07-0.87,0.21-1.13
			c0.43-0.81,0.65-1.36,0.61-2.03c-0.03-0.39-0.03-0.81-0.07-1.16c-0.04-0.34,0.07-0.58,0.26-0.77c0.26-0.26,0.81-0.59,1.27-0.67
			c0.32-0.06,0.49,0.12,0.64,0.36c0.65,1.05,1.46,1.56,2.72,2.04c0.5,0.19,0.6,0.5,0.54,0.96c-0.06,0.45-0.11,0.94-0.57,1.36
			c-0.81,0.73-1.31,1.47-1.54,2.26c-0.09,0.3-0.34,0.64-0.75,0.74c-1.5,0.38-2.4,1.46-1.92,2.71c0.4,1.04,0.58,1.45,0.77,2.28
			c0.19,0.83,0.55,2.1,0.85,2.94c0.46,1.3,1.02,2.43,1.47,3.04c0.12,0.16,0.25,0.05,0.16-0.12c-0.62-1.15-1.23-2.91-1.48-3.92
			c-0.03-0.13,0.04-0.29,0.21-0.27c0.5,0.05,1.75,0.37,2.66,0.79c0.15,0.07,0.24-0.09,0.09-0.18c-0.88-0.5-2.21-1.01-2.89-1.15
			c-0.18-0.04-0.28-0.25-0.33-0.48c-0.2-0.89-0.39-1.95-0.82-3.03c-0.26-0.66-0.02-1.08,0.41-1.43c0.27-0.21,0.89-0.42,1.14-0.41
			c0.07,0,0.13,0.02,0.19,0.05c0.04,0.04,0.08,0.08,0.12,0.11c0.04,0.06,0.06,0.12,0.08,0.19c0.15,0.6,0.52,1.33,0.95,1.82
			c0.44,0.48,0.66,0.89,0.77,1.31c0.07,0.24,0.22,0.22,0.2-0.04c-0.03-0.42-0.25-1.01-0.61-1.51c-0.37-0.49-0.7-1.16-0.79-1.66
			c-0.09-0.5-0.01-0.9,0.11-1.35c0.24-0.88,0.89-1.7,1.45-2.12c0.56-0.43,0.96-1.18,0.89-2.1c-0.02-0.23,0.26-0.37,0.41-0.07
			c0.45,0.93,1.07,1.7,1.75,2.13c1.69,1.07,1.76,2.67,0.36,3.58c-1.85,1.2-1.8,2.82-0.98,4.32c0.37,0.68,0.62,1.01,0.86,1.34
			c0.25,0.33,0.27,0.72,0.1,1.08c-0.53,1.06-0.51,2.17,0.05,2.95c0.42,0.58,0.68,1.06,0.8,1.35c0.11,0.26,0.28,0.2,0.21-0.04
			c-0.15-0.54-0.5-1.12-0.7-1.5c-0.32-0.6-0.22-1.65-0.03-2.11c0.15-0.37,0.29-0.64,0.38-0.85c0.09-0.2,0.28-0.31,0.44-0.14
			c0.39,0.43,0.7,1.12,0.9,1.55c0.2,0.43,0.52,0.62,0.82,0.76c0.68,0.31,1.35,0.79,1.55,1.41c0.07,0.21,0.22,0.12,0.18-0.03
			c-0.17-0.78-0.73-1.15-1.44-1.65c-0.43-0.3-0.61-0.45-0.78-0.86c-0.34-0.85-0.5-1.6-1.16-1.98c-0.41-0.24-0.7-0.3-0.95-0.61
			c-0.72-0.9-1.1-1.83-1.05-2.59c0.05-0.76,0.62-1.43,1.32-1.88c0.81-0.52,1.31-1.33,1.27-2.19c-0.01-0.25,0.22-0.35,0.45-0.3
			c0.84,0.19,1.81,0.73,2.07,2.19c0.04,0.24,0.26,0.17,0.24-0.04c-0.08-0.77-0.29-2-1.68-2.57c-0.13-0.09-0.26-0.15-0.35-0.15
			c-0.03,0-0.06,0-0.09,0c-0.1-0.02-0.2-0.05-0.31-0.07c-0.25-0.04-0.52-0.04-0.69-0.34c-0.37-0.68-0.91-1.09-1.43-1.4
			c-0.52-0.31-0.92-0.93-1.29-1.58c-0.36-0.65-0.71-1.13-1.42-1.18c-1.22-0.09-2.27-0.57-2.98-1.53c-0.12-0.17-0.03-0.4,0.24-0.39
			c1.78,0.1,2.85,0.45,3.83,1.32c0.69,0.61,1.14,1.25,1.6,1.89c0.76,1.08,1.84,1.27,3.05,1.27c1.3,0,2.16,0.5,2.79,2.16
			c0.47,1.25,0.55,2.36-0.05,3.26c-0.58,0.86-0.71,1.88-0.49,2.8c0.14,0.57,0.07,0.89,0.2,1.46c0.13,0.57,0.49,1.18,1.04,1.77
			c0.37,0.4,0.51,0.73,0.62,1.21c0.12,0.49,0.28,0.94,0.63,1.33c0.1,0.11,0.26,0.01,0.15-0.14c-0.11-0.15-0.37-0.61-0.43-1.28
			c-0.06-0.67-0.37-1.13-0.58-1.37c-0.21-0.25-0.4-0.49-0.56-0.95c-0.11-0.32,0.15-0.43,0.41-0.24c0.94,0.67,2.01,1.8,2.38,3.25
			c0.06,0.21,0.21,0.19,0.2-0.01c-0.1-1.24-1.02-2.76-2.15-3.69c-0.47-0.39-1.09-0.88-1.26-1.73c-0.18-0.84,0.1-1.49,0.56-2.27
			c0.46-0.79,0.48-2.09-0.06-3.72c-0.43-1.3-1.06-1.94-1.7-2.27v0c-0.02-0.02-0.07-0.04-0.13-0.06c-0.56-0.25-1.12-0.27-1.55-0.29
			c-0.97-0.05-1.78-0.14-2.4-0.93c-0.25-0.33-0.8-1.19-1.72-2.04"/>
		<path class="st1" d="M23.65,17.99l-0.43,0.1c-0.72,0.11-1.38,0.33-1.96,0.66c-0.01,0,0,0,0,0l-0.01,0l-0.01,0.01
			c-0.35,0.2-0.66,0.44-0.92,0.7c-0.23,0.23-0.5,0.34-0.76,0.43c-1.32,0.47-3.07,1.46-3.87,3.48c-0.04,0.11,0,0.2,0.07,0.23
			c0.07,0.04,0.16,0.01,0.2-0.07c0.82-1.34,2.23-2.42,3.78-2.88c0.13-0.04,0.23-0.03,0.31,0.03c0.09,0.06,0.15,0.18,0.17,0.33
			c0.06,0.6,0.1,1.09,0,1.41c-0.07,0.24-0.17,0.48-0.26,0.71l-0.12,0.29c-0.12,0.29-0.22,0.79-0.17,1.28c0,0,0.02,0.19,0.02,0.19
			c0.1,0.85,0.22,1.9-0.35,2.91c-0.08,0.14-0.04,0.23,0.02,0.28c0.06,0.05,0.17,0.06,0.29-0.06c0.81-0.77,0.83-1.97,0.74-3.14
			c-0.03-0.4,0.04-0.8,0.2-1.08c0.45-0.84,0.67-1.39,0.62-2.08c0,0-0.02-0.46-0.02-0.46l-0.04-0.7c-0.03-0.28,0.04-0.5,0.23-0.7
			c0.25-0.25,0.79-0.57,1.22-0.64c0.26-0.05,0.41,0.08,0.55,0.31c0.69,1.12,1.44,1.71,2.63,2.17c0.42,0.16,0.56,0.32,0.5,0.79
			l-0.01,0.05c-0.06,0.43-0.09,0.84-0.51,1.23c-0.81,0.73-1.32,1.49-1.57,2.31c-0.08,0.25-0.26,0.54-0.65,0.63
			c-0.9,0.23-1.55,0.75-1.87,1.37c-0.24,0.46-0.26,0.98-0.06,1.5l0.14,0.37c0.3,0.79,0.45,1.18,0.62,1.9
			c0.19,0.81,0.54,2.08,0.85,2.95c0.45,1.28,1.01,2.42,1.48,3.06c0.1,0.13,0.21,0.13,0.27,0.09c0.07-0.05,0.11-0.16,0.04-0.31
			c-0.59-1.11-1.21-2.85-1.47-3.9c-0.01-0.05,0-0.1,0.03-0.13c0.02-0.02,0.05-0.03,0.09-0.03c0.5,0.05,1.74,0.37,2.63,0.78
			c0.13,0.06,0.23,0.01,0.28-0.07c0.04-0.08,0.02-0.19-0.11-0.27c-0.93-0.53-2.25-1.03-2.92-1.16c-0.15-0.03-0.22-0.24-0.26-0.41
			L23.2,32c-0.17-0.79-0.36-1.69-0.72-2.6c-0.22-0.54-0.1-0.95,0.38-1.32c0.25-0.2,0.85-0.41,1.08-0.39c0.06,0,0.1,0.01,0.14,0.04
			c0.02,0.02,0.08,0.07,0.1,0.09c0.03,0.04,0.05,0.09,0.07,0.16c0.17,0.65,0.55,1.38,0.97,1.85c0.4,0.45,0.63,0.84,0.75,1.28
			c0.07,0.24,0.2,0.24,0.23,0.23c0.04-0.01,0.16-0.05,0.14-0.3c-0.03-0.46-0.28-1.07-0.63-1.55c-0.38-0.5-0.69-1.15-0.77-1.62
			c-0.08-0.46-0.02-0.84,0.11-1.31c0.24-0.87,0.89-1.67,1.42-2.08c0.64-0.49,0.99-1.3,0.93-2.17c-0.01-0.08,0.04-0.13,0.08-0.14
			c0.06-0.01,0.06,0.02,0.1,0.11c0.47,0.97,0.95,1.77,1.63,2.2c0.83,0.53,1.39,1.16,1.39,1.85c0,0.59-0.21,1.16-0.82,1.55
			c-2.09,1.36-1.7,3.16-1.01,4.44c0.36,0.66,0.6,0.99,0.84,1.31l0.03,0.04c0.22,0.3,0.25,0.65,0.09,0.98
			c-0.54,1.09-0.52,2.23,0.06,3.04c0.36,0.5,0.65,1,0.79,1.34c0.09,0.21,0.21,0.25,0.29,0.22c0.08-0.03,0.14-0.13,0.09-0.31
			c-0.14-0.49-0.43-1.01-0.64-1.39l-0.07-0.13c-0.3-0.56-0.22-1.58-0.03-2.04l0.27-0.59l0.11-0.25c0.04-0.09,0.1-0.16,0.17-0.17
			c0.04-0.01,0.08,0.01,0.12,0.06c0.36,0.39,0.65,1.03,0.84,1.45l0.04,0.08c0.21,0.45,0.54,0.65,0.86,0.8
			c0.57,0.27,1.3,0.72,1.51,1.35c0.06,0.16,0.16,0.2,0.23,0.18c0.1-0.02,0.15-0.13,0.12-0.25c-0.17-0.79-0.72-1.17-1.4-1.65
			l-0.08-0.05c-0.43-0.3-0.59-0.44-0.74-0.82c0,0-0.17-0.44-0.17-0.44c-0.25-0.67-0.46-1.25-1.03-1.58l-0.34-0.18
			c-0.24-0.12-0.42-0.21-0.58-0.41c-0.71-0.89-1.08-1.79-1.03-2.53c0.05-0.66,0.51-1.32,1.28-1.81c0.86-0.55,1.35-1.4,1.3-2.27
			c0-0.07,0.02-0.13,0.06-0.16c0.06-0.05,0.17-0.07,0.27-0.05c1.12,0.26,1.8,0.97,2,2.12c0.03,0.18,0.14,0.24,0.24,0.22
			c0.1-0.02,0.2-0.12,0.18-0.29c-0.07-0.6-0.22-2.02-1.73-2.64c-0.16-0.11-0.29-0.16-0.38-0.15c0,0-0.06,0-0.08,0
			c-0.03-0.01-0.3-0.07-0.3-0.07c0,0-0.11-0.02-0.11-0.02c-0.21-0.03-0.39-0.06-0.52-0.28c-0.4-0.73-0.99-1.15-1.46-1.43
			c-0.51-0.31-0.9-0.93-1.25-1.55c-0.36-0.63-0.71-1.16-1.49-1.23c-1.27-0.09-2.25-0.6-2.92-1.5c-0.02-0.03-0.04-0.07-0.04-0.1
			c0-0.02,0-0.04,0.02-0.06c0.03-0.05,0.09-0.08,0.18-0.08c1.8,0.1,2.82,0.45,3.78,1.3c0.69,0.61,1.14,1.26,1.58,1.88
			c0.81,1.16,1.98,1.31,3.12,1.31c1.14,0,2.04,0.35,2.71,2.1c0.51,1.34,0.49,2.38-0.04,3.18c-0.57,0.84-0.75,1.86-0.51,2.87
			c0.07,0.29,0.08,0.51,0.1,0.74c0.02,0.22,0.03,0.44,0.1,0.72c0.13,0.58,0.5,1.21,1.06,1.81c0.37,0.39,0.49,0.71,0.6,1.17
			c0.1,0.44,0.26,0.94,0.65,1.37c0.08,0.09,0.2,0.1,0.28,0.04c0.06-0.05,0.09-0.17,0.01-0.29c-0.01-0.02-0.34-0.46-0.41-1.24
			c-0.06-0.67-0.36-1.14-0.6-1.42c-0.19-0.22-0.38-0.46-0.55-0.92c-0.03-0.09-0.03-0.16,0.01-0.19c0.04-0.03,0.15-0.03,0.26,0.05
			c0.56,0.4,1.91,1.52,2.34,3.2c0.05,0.18,0.15,0.23,0.23,0.22c0.08-0.02,0.16-0.1,0.15-0.25c-0.1-1.23-0.99-2.78-2.18-3.76l0,0
			l-0.05-0.04c-0.45-0.38-1.02-0.85-1.18-1.63c-0.04-0.17-0.05-0.33-0.05-0.49c0-0.56,0.22-1.07,0.6-1.72
			c0.24-0.41,0.36-0.94,0.36-1.56c0-0.66-0.14-1.42-0.41-2.24c-0.39-1.15-0.95-1.91-1.72-2.3c-0.01,0-0.08-0.19-0.08-0.19
			c-0.54-0.24-1.15-0.36-1.59-0.39l-0.07-0.01c-1-0.05-1.75,0.05-2.33-0.7l-0.18-0.25c-0.3-0.42-0.8-1.11-1.54-1.8
			c-0.27-0.26-0.6-0.5-0.96-0.71c-0.03-0.04-0.09-0.07-0.33-0.18c-0.41-0.2-0.86-0.37-1.34-0.5c-0.15-0.05-0.36-0.11-0.46-0.12l0,0
			c0,0-0.45-0.05-0.45-0.05c0,0-0.56-0.05-0.56-0.05C24.2,17.97,23.85,17.97,23.65,17.99z M21.36,18.9c0.55-0.31,1.2-0.53,1.9-0.63
			c0.01,0,0.41-0.09,0.41-0.09c0.19-0.02,0.53-0.02,1.02,0.02c0,0,0.56,0.05,0.56,0.05c0,0,0.45,0.05,0.45,0.05
			c0.07,0.01,0.22,0.05,0.43,0.12c0.48,0.12,0.92,0.29,1.31,0.49c0.06,0.03,0.24,0.11,0.27,0.13l0,0l0.02,0.02l-0.02-0.01l0,0
			l0.03,0.03c0.35,0.21,0.67,0.44,0.93,0.69c0.73,0.68,1.22,1.36,1.52,1.77l0.19,0.25c0.63,0.8,1.42,0.91,2.46,0.97l0,0l0.07,0
			c0.42,0.03,0.94,0.06,1.45,0.28c0.01,0,0.09,0.04,0.09,0.04l0.03,0.02c0.74,0.37,1.28,1.1,1.66,2.22c0.26,0.79,0.4,1.54,0.4,2.18
			c0,0.58-0.11,1.09-0.33,1.47c-0.39,0.68-0.63,1.21-0.63,1.81c0,0.17,0.02,0.35,0.06,0.53c0.17,0.84,0.77,1.34,1.24,1.73l0.05,0.04
			c1.15,0.95,2.02,2.45,2.12,3.63c0,0.01,0,0.01,0,0.02c0,0.01,0,0.01,0,0.01c-0.01-0.01-0.01-0.03-0.02-0.05
			c-0.44-1.74-1.84-2.88-2.41-3.3c-0.17-0.12-0.35-0.14-0.47-0.05c-0.04,0.03-0.1,0.1-0.1,0.22c0,0.05,0.01,0.11,0.03,0.17
			c0.17,0.48,0.38,0.74,0.58,0.97c0.23,0.26,0.5,0.69,0.56,1.31c0.06,0.66,0.31,1.15,0.44,1.33c0.02,0.02,0.02,0.03,0.02,0.04
			c-0.01,0-0.02,0-0.03-0.02c-0.36-0.4-0.51-0.88-0.61-1.29c-0.11-0.49-0.25-0.83-0.64-1.26c-0.54-0.58-0.89-1.18-1.01-1.73
			c-0.06-0.27-0.08-0.49-0.09-0.7c-0.02-0.23-0.03-0.46-0.11-0.77c-0.07-0.28-0.1-0.56-0.1-0.83c0-0.67,0.2-1.33,0.58-1.9
			c0.3-0.44,0.45-0.95,0.45-1.53c0-0.54-0.13-1.14-0.38-1.81c-0.61-1.58-1.44-2.22-2.88-2.22c-1.1,0-2.21-0.14-2.97-1.23
			c-0.44-0.63-0.9-1.28-1.61-1.91c-0.98-0.87-2.07-1.25-3.88-1.35c-0.16-0.01-0.29,0.05-0.35,0.17c-0.02,0.05-0.04,0.1-0.04,0.15
			c0,0.07,0.02,0.14,0.07,0.21c0.69,0.93,1.74,1.47,3.05,1.57c0.69,0.06,1.02,0.55,1.35,1.14c0.36,0.65,0.77,1.29,1.32,1.62
			c0.48,0.29,1.03,0.67,1.4,1.36c0.16,0.3,0.42,0.34,0.65,0.37l0.1,0.02l0.32,0.07h0.02l0.09,0c0.02,0,0.1,0.01,0.29,0.13
			c1.26,0.52,1.54,1.56,1.64,2.5c0,0.01,0,0.02,0,0.02c0,0.05-0.02,0.07-0.03,0.07c0,0-0.02-0.02-0.04-0.08
			c-0.27-1.53-1.31-2.07-2.14-2.26c-0.16-0.04-0.32-0.01-0.43,0.08c-0.08,0.07-0.12,0.17-0.12,0.28c0,0.01,0,0.02,0,0.03
			c0,0.03,0,0.07,0,0.1c0,0.77-0.45,1.52-1.22,2.01c-0.81,0.52-1.31,1.23-1.36,1.95c0,0.05,0,0.1,0,0.15c0,0.75,0.38,1.63,1.07,2.5
			c0.19,0.24,0.4,0.34,0.64,0.46l0.33,0.17c0.51,0.29,0.72,0.85,0.95,1.48l0.17,0.45c0.17,0.42,0.36,0.59,0.81,0.9l0.08,0.05
			c0.68,0.48,1.18,0.82,1.33,1.54c0,0,0,0.01,0,0.01c0-0.01-0.01-0.01-0.01-0.03c-0.22-0.7-0.99-1.18-1.6-1.46
			c-0.27-0.13-0.58-0.3-0.78-0.71l-0.04-0.08c-0.2-0.43-0.5-1.08-0.88-1.5c-0.08-0.09-0.18-0.13-0.29-0.11
			c-0.13,0.02-0.24,0.13-0.3,0.28l-0.11,0.24l-0.27,0.6c-0.11,0.26-0.19,0.68-0.19,1.11c0,0.39,0.06,0.79,0.22,1.08l0.07,0.13
			c0.21,0.37,0.49,0.88,0.62,1.35c0.01,0.03,0.01,0.05,0.01,0.07c-0.01-0.02-0.03-0.05-0.05-0.09c-0.14-0.35-0.45-0.86-0.81-1.37
			c-0.28-0.39-0.42-0.86-0.42-1.37c0-0.48,0.12-0.99,0.37-1.49c0.08-0.17,0.12-0.34,0.12-0.51c0-0.23-0.08-0.46-0.23-0.66
			l-0.03-0.04c-0.23-0.32-0.47-0.64-0.83-1.29c-0.66-1.21-1.02-2.92,0.95-4.2c0.67-0.43,1.03-1.03,1.03-1.68
			c0-0.76-0.49-1.49-1.38-2.05c-0.66-0.42-1.27-1.16-1.72-2.1c-0.1-0.2-0.25-0.24-0.37-0.21c-0.13,0.04-0.21,0.16-0.21,0.3
			c0,0.01,0,0.02,0,0.03c0,0.06,0.01,0.13,0.01,0.19c0,0.73-0.31,1.41-0.86,1.82c-0.56,0.43-1.23,1.26-1.48,2.18
			c-0.09,0.34-0.15,0.64-0.15,0.95c0,0.14,0.01,0.29,0.04,0.44c0.09,0.49,0.41,1.18,0.8,1.7c0.34,0.45,0.57,1.02,0.6,1.46
			c0,0.01,0,0.02,0,0.03c0,0.02,0,0.02,0,0.04c-0.01-0.02-0.02-0.04-0.02-0.06c-0.13-0.46-0.37-0.88-0.79-1.35
			c-0.4-0.45-0.78-1.16-0.93-1.78c-0.02-0.09-0.05-0.16-0.1-0.22l0-0.01l-0.02-0.01l-0.12-0.11l-0.01-0.01
			c-0.07-0.04-0.14-0.06-0.23-0.06c-0.27-0.01-0.91,0.2-1.2,0.43c-0.37,0.29-0.55,0.61-0.55,0.98c0,0.17,0.04,0.35,0.12,0.55
			c0.36,0.9,0.55,1.79,0.72,2.57l0.1,0.44c0.07,0.33,0.21,0.51,0.4,0.55c0.64,0.13,1.97,0.63,2.86,1.13
			c0.02,0.02,0.03,0.02,0.03,0.03c-0.01,0-0.02,0-0.03-0.01c-0.95-0.44-2.19-0.75-2.69-0.8c-0.1-0.01-0.18,0.02-0.24,0.09
			c-0.05,0.05-0.08,0.13-0.08,0.21c0,0.03,0,0.06,0.01,0.08c0.26,1.06,0.89,2.82,1.49,3.94c0.01,0.02,0.01,0.03,0.01,0.04
			c-0.01-0.01-0.01-0.01-0.02-0.02c-0.47-0.62-1.01-1.75-1.46-3.01c-0.31-0.86-0.66-2.12-0.84-2.92c-0.17-0.73-0.32-1.13-0.63-1.92
			l-0.14-0.37c-0.08-0.21-0.12-0.43-0.12-0.63c0-0.25,0.06-0.49,0.18-0.72c0.29-0.57,0.95-1.03,1.8-1.24
			c0.46-0.12,0.73-0.51,0.82-0.8c0.23-0.79,0.73-1.51,1.52-2.22c0.47-0.43,0.54-0.93,0.59-1.37l0.01-0.05
			c0.01-0.08,0.01-0.15,0.01-0.22c0-0.41-0.19-0.67-0.62-0.83c-1.19-0.45-2-0.93-2.67-2c-0.15-0.23-0.35-0.47-0.73-0.4
			c-0.47,0.09-1.04,0.42-1.32,0.69c-0.2,0.2-0.29,0.43-0.29,0.7c0,0.05,0,0.09,0.01,0.14l0.04,0.69l0.02,0.46c0,0.05,0,0.1,0,0.15
			c0,0.58-0.21,1.09-0.61,1.83c-0.14,0.26-0.23,0.62-0.23,0.99c0,0.06,0,0.12,0.01,0.18c0.02,0.27,0.03,0.54,0.03,0.8
			c0,0.85-0.15,1.65-0.72,2.2c-0.02,0.02-0.02,0.01-0.03,0.02c0-0.01,0-0.01,0.01-0.02c0.36-0.63,0.46-1.28,0.46-1.88
			c0-0.4-0.04-0.79-0.08-1.13l-0.02-0.18c-0.01-0.08-0.01-0.16-0.01-0.24c0-0.33,0.06-0.68,0.17-0.96l0.12-0.29
			c0.1-0.23,0.2-0.48,0.27-0.72c0.05-0.16,0.07-0.35,0.07-0.56c0-0.27-0.03-0.57-0.06-0.92c-0.02-0.2-0.11-0.37-0.24-0.46
			c-0.09-0.06-0.24-0.12-0.46-0.05c-1.5,0.45-2.88,1.47-3.73,2.74c0.81-1.8,2.42-2.71,3.65-3.15c0.26-0.09,0.56-0.21,0.82-0.47
			c0.25-0.25,0.55-0.48,0.88-0.67l-0.02,0.01L21.36,18.9z M34.6,22.95L34.6,22.95l-0.02-0.01C34.59,22.94,34.6,22.94,34.6,22.95z"/>
		<g>
			<path class="st0" d="M21.8,35.19c-0.36-0.11-0.54-0.33-0.9-0.8c-0.05-0.01-0.14-0.09-0.27-0.17c-0.25-0.14-0.62-0.66-0.76-0.77
				c-0.13-0.12-0.91-0.63-1.03-0.67c-0.8-0.28-1.03-1.07-1.22-1.36l-0.01-0.02l0,0c-0.2-0.31-0.42-0.65-0.65-1l0,0
				c0.03,0.05-0.32-0.49-0.4-0.61c0,0,0,0,0-0.01c-0.07-0.11-0.4-0.31-0.37-0.17c0.02,0.13,0.17,0.52,0.26,0.62
				c0.09,0.1,0.4,0.63,0.43,0.79c0.03,0.16,0.41,0.67,0.5,0.83h0c0.28,0.46,0.51,0.87,0.65,1.17c0.23,0.48,0.31,0.67,0.42,1.15
				c0.14,0.6,0.41,1.46,0.68,1.93c0.05,0.08,0.09,0.11,0.11,0.1c0.02-0.01,0.04-0.07,0-0.17c-0.26-0.75-0.49-1.9-0.55-2.24
				c-0.03-0.16-0.01-0.26,0.06-0.31c0.08-0.06,0.21-0.03,0.4,0.08c0.45,0.26,0.95,0.71,1.38,1.23c0.23,0.29,0.63,0.64,1.2,0.74
				c0.09,0.02,0.14-0.02,0.15-0.05c0-0.01,0-0.01,0-0.02C21.86,35.41,21.88,35.22,21.8,35.19z"/>
		</g>
	</g>
</g>
</svg>
