<?xml version="1.0" encoding="utf-8"?>
<!-- Generator: Adobe Illustrator 18.0.0, SVG Export Plug-In . SVG Version: 6.00 Build 0)  -->
<!DOCTYPE svg PUBLIC "-//W3C//DTD SVG 1.1//EN" "http://www.w3.org/Graphics/SVG/1.1/DTD/svg11.dtd">
<svg version="1.1" id="Layer_1" xmlns="http://www.w3.org/2000/svg" xmlns:xlink="http://www.w3.org/1999/xlink" x="0px" y="0px"
	 viewBox="0 0 155.5 51.2" enable-background="new 0 0 155.5 51.2" xml:space="preserve">
<g>
	<path fill="#FFFFFF" d="M49.7,26.3c0,13.7-11.1,24.8-24.8,24.8C11.1,51.2,0,40.1,0,26.3C0,12.6,11.1,1.5,24.8,1.5
		C38.6,1.5,49.7,12.6,49.7,26.3z"/>
	<g>
		<path fill="#183059" d="M59.4,12.3c-0.3,0-0.4,0-0.2-0.4l0.6-1.7c0.3-0.7,0.4-1,0.4-1.1h0c0.1,0.1,0.2,0.4,0.4,1.1l0.6,1.7
			c0.1,0.3,0.1,0.4-0.3,0.4H59.4z M61,13c0.4,0,0.4,0,0.6,0.4l0.7,1.9c0.2,0.6,0.1,0.7-0.4,0.8l-0.3,0c-0.1,0.1-0.1,0.3,0,0.4
			c0.5,0,1.1,0,1.7,0c0.7,0,1.3,0,1.8,0c0.1-0.1,0.1-0.3,0-0.4L65,16c-0.7-0.1-0.8-0.2-1.1-1.2l-2-6c-0.2-0.6-0.4-1.3-0.6-1.9
			c-0.1-0.1-0.1-0.1-0.2-0.1c0,0-0.5,0.6-1,0.7c0,0.2-0.1,0.6-0.3,1l-1.9,5.1c-0.3,0.8-0.5,1.4-0.7,1.7c-0.2,0.5-0.4,0.6-0.8,0.7
			l-0.4,0.1c-0.1,0.1-0.1,0.3,0,0.4c0.5,0,0.9,0,1.4,0c0.6,0,1.1,0,1.5,0c0.1-0.1,0.1-0.3,0-0.4L58.4,16c-0.5-0.1-0.6-0.1-0.3-1
			l0.6-1.7c0.1-0.4,0.1-0.4,0.5-0.4H61z"/>
		<path fill="#183059" d="M78.2,16.1c0.1,0.1,0.1,0.4,0,0.4c-0.6,0-1.2,0-1.7,0c-0.7,0-1.3,0-1.9,0c-0.1-0.1-0.2-0.3,0-0.4l0.4-0.1
			c0.6-0.1,0.6-0.2,0.6-1.2v-4.5V9h0c-0.4,0.8-0.6,1.2-0.9,1.8l-1.2,2.5c-0.5,1-1.2,2.6-1.4,3.2c-0.1,0.1-0.3,0.1-0.4,0
			c-0.2-0.8-0.9-2.2-1.2-2.9L69.2,11c-0.3-0.6-0.7-1.5-0.8-1.9h0c0,0.7-0.1,1.8-0.1,2.4c0,0.9-0.1,2.1-0.1,3.3c0,0.9,0,1.2,0.6,1.3
			l0.5,0.1c0.1,0.1,0.1,0.4,0,0.4c-0.5,0-1,0-1.5,0c-0.5,0-1,0-1.5,0c-0.1-0.1-0.1-0.3,0-0.4l0.2,0c0.7-0.1,0.8-0.3,0.9-1.2
			c0.1-0.9,0.1-1.8,0.2-3.3c0.1-1,0.1-2.1,0.1-3c0-0.7-0.2-1-0.8-1.1l-0.5-0.1c-0.1-0.1-0.1-0.4,0.1-0.4c0.4,0,0.8,0,1.3,0
			c0.5,0,1,0,1.5,0c0.1,0.9,0.4,1.6,0.8,2.4l1.6,3.3c0.1,0.2,0.5,1,0.7,1.3c0.2-0.4,0.4-0.8,0.7-1.5l1.3-2.7C74.9,8.8,75.3,8,75.6,7
			c0.4,0,0.9,0,1.2,0c0.6,0,1.1,0,1.5,0c0.2,0.1,0.2,0.3,0,0.4l-0.5,0.1C77.2,7.6,77,7.9,77,8.6c0,2.1,0,4.2,0.1,6.3
			c0,1,0.2,1.1,0.7,1.1L78.2,16.1z"/>
		<path fill="#183059" d="M81.3,9.1c0-1.5-0.1-1.5-0.8-1.6l-0.2,0c-0.1-0.1-0.1-0.4,0-0.4c0.5,0,1.2,0,1.8,0h2.7c0.9,0,1.7,0,1.9,0
			c0.1,0.2,0.1,1.4,0.2,2c-0.1,0.1-0.3,0.1-0.5,0.1c-0.2-0.8-0.4-1.2-0.9-1.3c-0.3-0.1-0.8-0.1-1.1-0.1h-1c-0.6,0-0.6,0-0.6,0.8v2.4
			c0,0.4,0,0.4,0.3,0.4h0.7c1.2,0,1.5,0,1.6-0.6l0.1-0.5c0.1-0.1,0.4-0.1,0.5,0c0,0.4,0,0.9,0,1.4c0,0.5,0,1,0,1.5
			c-0.1,0.1-0.3,0.1-0.5,0l-0.1-0.6c-0.1-0.6-0.3-0.6-1.6-0.6h-0.7c-0.3,0-0.3,0-0.3,0.4v1.8c0,0.7,0,1.2,0.2,1.5
			c0.2,0.2,0.4,0.3,1.6,0.3c1.8,0,2.1-0.4,2.6-1.5c0.1-0.1,0.4-0.1,0.5,0.1c-0.1,0.6-0.4,1.7-0.6,2.1c-0.6,0-1.8,0-3.5,0h-1.6
			c-0.6,0-1.5,0-2.1,0c-0.1-0.1-0.1-0.3,0-0.4l0.5-0.1c0.7-0.1,0.8-0.1,0.8-1.6V9.1z"/>
		<path fill="#183059" d="M91.9,8.3c0-0.7,0-0.7,0.8-0.7c1.2,0,2,1,2,2.1c0,1.3-0.6,2-2,2c-0.7,0-0.7,0-0.7-0.5V8.3z M90.2,14.4
			c0,1.5-0.1,1.5-0.8,1.6l-0.3,0c-0.1,0.1-0.1,0.4,0,0.4c0.7,0,1.3,0,1.9,0c0.6,0,1.3,0,1.9,0c0.1-0.1,0.1-0.3,0-0.4l-0.3,0
			c-0.7-0.1-0.8-0.1-0.8-1.6v-1.8c0-0.3,0-0.3,0.4-0.3c0.5,0,0.6,0.1,0.9,0.5c0.3,0.6,0.7,1.3,1.1,1.9c0.9,1.3,1.6,1.9,3,1.9
			c0.5,0,0.8,0,0.9-0.1c0-0.1,0-0.2,0-0.3c-0.2,0-0.6-0.1-1-0.4c-0.7-0.6-1.4-1.8-2.5-3.7c-0.1-0.1-0.1-0.2,0-0.2
			c0.7-0.3,1.7-0.9,1.7-2.2c0-1-0.5-1.7-1.3-2.1C94.5,7.2,93.6,7,92.5,7c-1.2,0-2.4,0-3.3,0.1c-0.1,0.1-0.1,0.3,0,0.4l0.4,0
			c0.7,0.1,0.7,0.2,0.7,1.6V14.4z"/>
		<path fill="#183059" d="M101.9,14.4c0,1.5,0.1,1.5,0.8,1.6l0.3,0c0.1,0.1,0.1,0.4,0,0.4c-0.6,0-1.3,0-1.9,0s-1.3,0-1.9,0
			c-0.1-0.1-0.1-0.3,0-0.4l0.3,0c0.7-0.1,0.8-0.1,0.8-1.6V9.1c0-1.5-0.1-1.5-0.8-1.6l-0.3,0c-0.1-0.1-0.1-0.4,0-0.4
			c0.6,0,1.3,0,1.9,0c0.6,0,1.3,0,1.9,0c0.1,0.1,0.1,0.3,0,0.4l-0.3,0c-0.7,0.1-0.8,0.1-0.8,1.6V14.4z"/>
		<path fill="#183059" d="M113.7,9.5c-0.1,0.1-0.4,0.1-0.5,0c-0.2-0.9-0.9-2.1-2.8-2.1c-1.8,0-3.6,1.3-3.6,4.2c0,3,1.9,4.5,3.7,4.5
			c1.8,0,2.6-1.2,3-2.1c0.1-0.1,0.4-0.1,0.4,0.1c-0.1,1-0.5,1.9-0.7,2.2c-0.2,0-0.3,0.1-0.5,0.1c-0.3,0.1-1.3,0.3-2.2,0.3
			c-1.4,0-2.6-0.3-3.6-1c-1.2-0.8-2-2-2-3.9c0-1.7,0.7-3,1.8-3.8c1.1-0.8,2.5-1.2,3.9-1.2c0.8,0,1.8,0.1,2.5,0.3
			c0.2,0,0.3,0.1,0.4,0.1C113.5,7.6,113.5,8.4,113.7,9.5z"/>
		<path fill="#183059" d="M118.1,12.3c-0.3,0-0.4,0-0.2-0.4l0.6-1.7c0.3-0.7,0.4-1,0.4-1.1h0c0.1,0.1,0.2,0.4,0.4,1.1l0.6,1.7
			c0.1,0.3,0.1,0.4-0.3,0.4H118.1z M119.7,13c0.4,0,0.4,0,0.6,0.4l0.7,1.9c0.2,0.6,0.1,0.7-0.4,0.8l-0.3,0c-0.1,0.1-0.1,0.3,0,0.4
			c0.5,0,1.1,0,1.7,0c0.7,0,1.3,0,1.8,0c0.1-0.1,0.1-0.3,0-0.4l-0.2,0c-0.7-0.1-0.8-0.2-1.1-1.2l-2-6c-0.2-0.6-0.4-1.3-0.6-1.9
			c-0.1-0.1-0.1-0.1-0.2-0.1c0,0-0.5,0.6-1,0.7c0,0.2-0.1,0.6-0.3,1l-1.9,5.1c-0.3,0.8-0.5,1.4-0.7,1.7c-0.2,0.5-0.4,0.6-0.8,0.7
			l-0.4,0.1c-0.1,0.1-0.1,0.3,0,0.4c0.5,0,0.9,0,1.4,0c0.6,0,1.1,0,1.5,0c0.1-0.1,0.1-0.3,0-0.4l-0.4-0.1c-0.5-0.1-0.6-0.1-0.3-1
			l0.6-1.7c0.1-0.4,0.1-0.4,0.5-0.4H119.7z"/>
		<path fill="#183059" d="M134,14c0,0.4,0,2.2,0,2.5c-0.1,0.2-0.3,0.2-0.5,0.2c-0.2-0.3-0.6-0.8-1.7-1.9l-3.3-3.8
			c-0.9-1-1.4-1.6-1.6-1.8c0,0,0,0.2,0,0.9v2.8c0,1.1,0,2.4,0.3,2.8c0.1,0.2,0.4,0.3,0.7,0.4l0.3,0c0.1,0.1,0.1,0.4,0,0.4
			c-0.5,0-1.1,0-1.6,0c-0.6,0-1,0-1.5,0c-0.1-0.1-0.1-0.3,0-0.4l0.3-0.1c0.3,0,0.5-0.1,0.6-0.3c0.2-0.4,0.2-1.7,0.2-2.8V9.5
			c0-1.1,0-1.3-0.5-1.7c-0.2-0.1-0.6-0.2-0.8-0.3l-0.2,0c-0.1-0.1-0.1-0.4,0.1-0.4c0.5,0.1,1.3,0,1.7,0c0.3,0,0.6,0,1,0
			c0.2,0.6,1.8,2.4,2.3,2.9l1.4,1.5c0.6,0.7,1.9,2.2,2.1,2.2c0,0,0-0.1,0-0.3v-2.8c0-1.1,0-2.4-0.3-2.8c-0.1-0.2-0.4-0.3-0.7-0.4
			l-0.3,0c-0.1-0.1-0.1-0.4,0-0.4c0.6,0,1.1,0,1.6,0c0.6,0,1,0,1.5,0c0.1,0.1,0.1,0.3,0,0.4l-0.3,0.1c-0.3,0-0.5,0.1-0.6,0.3
			c-0.2,0.4-0.2,1.7-0.2,2.8V14z"/>
		<path fill="#183059" d="M64.9,24c-0.1,0.1-0.4,0.1-0.5,0c-0.2-0.9-0.9-2.1-2.8-2.1c-1.8,0-3.6,1.3-3.6,4.2c0,3,1.9,4.5,3.7,4.5
			c1.8,0,2.6-1.2,3-2.1c0.1-0.1,0.4-0.1,0.4,0.1c-0.1,1-0.5,1.9-0.7,2.2c-0.2,0-0.3,0.1-0.5,0.1c-0.3,0.1-1.3,0.3-2.2,0.3
			c-1.4,0-2.6-0.3-3.6-1c-1.2-0.8-2-2-2-3.9c0-1.7,0.7-3,1.8-3.8c1.1-0.8,2.5-1.2,3.9-1.2c0.8,0,1.8,0.1,2.5,0.3
			c0.2,0,0.3,0.1,0.4,0.1C64.7,22.2,64.8,23,64.9,24z"/>
		<path fill="#183059" d="M71.5,22c2.3,0,3.2,2.5,3.2,4.6c0,2.9-1.3,4.1-2.9,4.1c-2.4,0-3.3-2.7-3.3-4.6C68.5,23,70.1,22,71.5,22z
			 M71.7,21.4c-3,0-5.1,2.1-5.1,5c0,2.5,1.8,4.8,5.1,4.8c2.9,0,5-2.1,5-4.9C76.6,23.8,74.9,21.4,71.7,21.4z"/>
		<path fill="#183059" d="M81.1,28.7c0,0.7,0,1.2,0.2,1.5c0.2,0.2,0.4,0.3,1.5,0.3c1.6,0,1.8-0.1,2.5-1.5c0.1-0.1,0.4,0,0.4,0.1
			c-0.1,0.6-0.4,1.7-0.6,2.1c-0.6,0-1.8,0-3.4,0h-1.5c-0.7,0-1.4,0-2,0c-0.1-0.1-0.2-0.3,0-0.4l0.4-0.1c0.7-0.1,0.8-0.1,0.8-1.6
			v-5.3c0-1.5-0.1-1.5-0.8-1.6L78.3,22c-0.1-0.1-0.1-0.4,0-0.4c0.7,0,1.4,0,2,0c0.6,0,1.3,0,1.9,0c0.1,0.1,0.1,0.3,0,0.4l-0.3,0.1
			c-0.7,0.1-0.8,0.1-0.8,1.6V28.7z"/>
		<path fill="#183059" d="M89.7,28.7c0,0.7,0,1.2,0.2,1.5c0.2,0.2,0.4,0.3,1.5,0.3c1.6,0,1.8-0.1,2.5-1.5c0.1-0.1,0.4,0,0.4,0.1
			c-0.1,0.6-0.4,1.7-0.6,2.1c-0.6,0-1.8,0-3.4,0h-1.5c-0.7,0-1.4,0-2,0c-0.1-0.1-0.2-0.3,0-0.4l0.4-0.1c0.7-0.1,0.8-0.1,0.8-1.6
			v-5.3c0-1.5-0.1-1.5-0.8-1.6L86.8,22c-0.1-0.1-0.1-0.4,0-0.4c0.7,0,1.3,0,2,0c0.6,0,1.3,0,1.9,0c0.1,0.1,0.1,0.3,0,0.4l-0.3,0.1
			c-0.7,0.1-0.8,0.1-0.8,1.6V28.7z"/>
		<path fill="#183059" d="M96.6,23.7c0-1.5-0.1-1.5-0.8-1.6l-0.2,0c-0.1-0.1-0.1-0.4,0-0.4c0.5,0,1.2,0,1.8,0h2.7c0.9,0,1.7,0,1.9,0
			c0.1,0.2,0.1,1.4,0.2,2c-0.1,0.1-0.3,0.1-0.5,0.1c-0.2-0.8-0.4-1.2-0.9-1.3c-0.3-0.1-0.8-0.1-1.1-0.1h-1c-0.6,0-0.6,0-0.6,0.8v2.4
			c0,0.4,0,0.4,0.3,0.4h0.7c1.2,0,1.5,0,1.6-0.6l0.1-0.5c0.1-0.1,0.4-0.1,0.5,0c0,0.4,0,0.9,0,1.4c0,0.5,0,1,0,1.5
			c-0.1,0.1-0.3,0.1-0.5,0l-0.1-0.6c-0.1-0.6-0.3-0.6-1.6-0.6h-0.7c-0.3,0-0.3,0-0.3,0.4v1.8c0,0.7,0,1.2,0.2,1.5
			c0.2,0.2,0.4,0.3,1.6,0.3c1.8,0,2.1-0.4,2.6-1.5c0.1-0.1,0.4-0.1,0.5,0.1c-0.1,0.6-0.4,1.7-0.6,2.1c-0.6,0-1.8,0-3.5,0h-1.6
			c-0.6,0-1.5,0-2.1,0c-0.1-0.1-0.1-0.3,0-0.4l0.5-0.1c0.7-0.1,0.8-0.1,0.8-1.6V23.7z"/>
		<path fill="#183059" d="M113,29.6c0,0.5,0.1,0.9,0.3,1c0,0.1,0,0.2,0,0.2c-0.2,0-0.4,0-0.7,0.1c-0.9,0.2-1.9,0.4-2.8,0.4
			c-1.7,0-3.3-0.5-4.4-1.6c-0.8-0.9-1.3-2.1-1.3-3.3c0-1.2,0.4-2.4,1.3-3.3c1-1.1,2.6-1.7,4.5-1.7c0.7,0,1.4,0.1,1.9,0.2
			c0.3,0.1,0.7,0.1,0.9,0.1c0,0.4,0.1,1.2,0.2,2.3c-0.1,0.1-0.4,0.2-0.5,0c-0.3-1.4-1.3-2.1-2.7-2.1c-2.5,0-3.7,1.8-3.7,4.2
			c0,1.1,0.3,2.4,1,3.3c0.8,0.9,1.9,1.2,2.7,1.2c0.7,0,1.1-0.1,1.3-0.3c0.1-0.1,0.1-0.4,0.1-0.9V29c0-1,0-1.1-1-1.3l-0.5-0.1
			c-0.1-0.1-0.1-0.3,0-0.4c0.6,0,1.2,0,2.2,0c0.6,0,1.1,0,1.7,0c0.1,0.1,0.2,0.3,0,0.4l-0.3,0c-0.5,0.1-0.6,0.2-0.6,1.1V29.6z"/>
		<path fill="#183059" d="M116.5,23.7c0-1.5-0.1-1.5-0.8-1.6l-0.2,0c-0.1-0.1-0.1-0.4,0-0.4c0.5,0,1.2,0,1.8,0h2.7
			c0.9,0,1.7,0,1.9,0c0.1,0.2,0.1,1.4,0.2,2c-0.1,0.1-0.3,0.1-0.5,0.1c-0.2-0.8-0.4-1.2-0.9-1.3c-0.3-0.1-0.8-0.1-1.1-0.1h-1
			c-0.6,0-0.6,0-0.6,0.8v2.4c0,0.4,0,0.4,0.3,0.4h0.7c1.2,0,1.5,0,1.6-0.6l0.1-0.5c0.1-0.1,0.4-0.1,0.5,0c0,0.4,0,0.9,0,1.4
			c0,0.5,0,1,0,1.5c-0.1,0.1-0.3,0.1-0.5,0l-0.1-0.6c-0.1-0.6-0.3-0.6-1.6-0.6h-0.7c-0.3,0-0.3,0-0.3,0.4v1.8c0,0.7,0,1.2,0.2,1.5
			c0.2,0.2,0.4,0.3,1.6,0.3c1.8,0,2.1-0.4,2.6-1.5c0.1-0.1,0.4-0.1,0.5,0.1c-0.1,0.6-0.4,1.7-0.6,2.1c-0.6,0-1.8,0-3.5,0h-1.6
			c-0.6,0-1.5,0-2.1,0c-0.1-0.1-0.1-0.3,0-0.4l0.5-0.1c0.7-0.1,0.8-0.1,0.8-1.6V23.7z"/>
		<path fill="#183059" d="M129.4,30.7c-0.3,0-0.5-0.3-0.5-0.7c0-1.1,0.7-2.7,1.4-3.6c0.4-0.5,0.7-0.6,0.9-0.6c0.4,0,0.5,0.4,0.5,0.8
			c0,0.9-0.7,2.6-1.2,3.4C130,30.5,129.7,30.7,129.4,30.7z M127.6,29.4c0,1,0.6,1.9,1.8,1.9c0.6,0,1.4-0.2,2.2-1
			c1-0.9,1.4-2.2,1.4-3.1c0-1.1-0.5-1.9-1.7-1.9c-0.6,0-1.3,0.2-2.2,1C128.2,27,127.6,28.3,127.6,29.4z"/>
		<path fill="#183059" d="M137.4,26.1c-0.5,1.4-1.1,4-1.6,5.4c-0.4,1.1-0.7,2-1.1,2.4c-0.3,0.4-1.1,1-1.9,1c-0.7,0-1.2-0.5-1.2-1
			c0-0.4,0.3-0.7,0.5-0.7c0.2,0,0.3,0.1,0.4,0.3c0.3,0.4,0.6,0.7,0.8,0.7c0.2,0,0.4-0.2,0.7-1.2c0.5-1.7,1.2-4.5,1.9-7h-1.3
			c-0.1-0.2,0-0.5,0.2-0.6h1.3c0.3-1.1,0.6-2.1,1.2-2.9c0.7-1,1.6-1.6,2.7-1.6c0.9,0,1.4,0.5,1.4,1.1c0,0.6-0.5,1-0.8,1
			c-0.2,0-0.3-0.1-0.3-0.3c-0.1-1-0.5-1.3-0.8-1.3c-0.3,0-0.7,0.4-1,1c-0.5,0.9-0.8,2-1.1,3.1h1.7c0.1,0.2,0.1,0.5-0.2,0.6H137.4z"
			/>
		<path fill="#183059" d="M64.8,38.6c-0.1,0.1-0.4,0.1-0.5,0c-0.2-0.9-0.9-2.1-2.8-2.1c-1.8,0-3.6,1.3-3.6,4.2c0,3,1.9,4.5,3.7,4.5
			c1.8,0,2.6-1.2,3-2.1c0.1-0.1,0.4-0.1,0.4,0.1c-0.1,1-0.5,1.9-0.7,2.2c-0.2,0-0.3,0.1-0.5,0.1c-0.3,0.1-1.3,0.3-2.2,0.3
			c-1.4,0-2.6-0.3-3.6-1c-1.2-0.8-2-2-2-3.9c0-1.7,0.7-3,1.8-3.8c1.1-0.8,2.5-1.2,3.9-1.2c0.8,0,1.8,0.1,2.5,0.3
			c0.2,0,0.3,0.1,0.4,0.1C64.6,36.7,64.6,37.5,64.8,38.6z"/>
		<path fill="#183059" d="M69.2,41.5c-0.3,0-0.4,0-0.2-0.4l0.6-1.7c0.3-0.7,0.4-1,0.4-1.1h0c0.1,0.1,0.2,0.4,0.4,1.1l0.6,1.7
			c0.1,0.3,0.1,0.4-0.3,0.4H69.2z M70.8,42.1c0.4,0,0.4,0,0.6,0.4l0.7,1.9c0.2,0.6,0.1,0.7-0.4,0.8l-0.3,0c-0.1,0.1-0.1,0.3,0,0.4
			c0.5,0,1.1,0,1.7,0c0.7,0,1.3,0,1.8,0c0.1-0.1,0.1-0.3,0-0.4l-0.2,0C74.1,45,74,44.9,73.7,44l-2-6c-0.2-0.6-0.4-1.3-0.6-1.9
			C70.9,36,70.9,36,70.8,36c0,0-0.5,0.6-1,0.7c0,0.2-0.1,0.6-0.3,1l-1.9,5.1c-0.3,0.8-0.5,1.4-0.7,1.7c-0.2,0.5-0.4,0.6-0.8,0.7
			l-0.4,0.1c-0.1,0.1-0.1,0.3,0,0.4c0.5,0,0.9,0,1.4,0c0.6,0,1.1,0,1.5,0c0.1-0.1,0.1-0.3,0-0.4l-0.4-0.1c-0.5-0.1-0.6-0.1-0.3-0.9
			l0.6-1.7c0.1-0.4,0.1-0.4,0.5-0.4H70.8z"/>
		<path fill="#183059" d="M79,37.4c0-0.7,0-0.7,0.8-0.7c1.2,0,2,1,2,2.1c0,1.3-0.6,2-2,2c-0.7,0-0.7,0-0.7-0.5V37.4z M77.3,43.5
			c0,1.5-0.1,1.5-0.8,1.6l-0.3,0c-0.1,0.1-0.1,0.4,0,0.4c0.7,0,1.3,0,1.9,0c0.6,0,1.3,0,1.9,0c0.1-0.1,0.1-0.3,0-0.4l-0.3,0
			C79.1,45.1,79,45,79,43.5v-1.8c0-0.3,0-0.3,0.4-0.3c0.5,0,0.6,0.1,0.9,0.5c0.3,0.6,0.7,1.3,1.1,1.9c0.9,1.3,1.6,1.9,3,1.9
			c0.5,0,0.8,0,0.9-0.1c0-0.1,0-0.2,0-0.3c-0.2,0-0.6-0.1-1-0.4c-0.7-0.6-1.4-1.8-2.5-3.7c-0.1-0.1-0.1-0.2,0-0.2
			c0.7-0.3,1.7-0.9,1.7-2.2c0-1-0.5-1.7-1.3-2.1c-0.6-0.3-1.6-0.5-2.7-0.5c-1.2,0-2.4,0-3.3,0.1c-0.1,0.1-0.1,0.3,0,0.4l0.4,0
			c0.7,0.1,0.7,0.2,0.7,1.6V43.5z"/>
		<path fill="#183059" d="M89,38c0-0.7,0-1,0.1-1.1c0.1-0.1,0.6-0.2,1.2-0.2c2.4,0,4,1.4,4,4.2c0,2.4-1.1,4.2-3.7,4.2
			c-1.5,0-1.6-0.7-1.6-2.1V38z M87.3,43.5c0,1.5-0.1,1.5-0.8,1.6l-0.3,0c-0.1,0.1-0.1,0.4,0,0.4c0.6,0,1.3,0,1.8,0
			c0.5,0,1.2,0.1,2.1,0.1c1.3,0,2.5-0.2,3.5-0.7c1.8-0.9,2.5-2.5,2.5-4.1c0-2.1-1.2-3.6-2.9-4.2c-1-0.4-2-0.5-3.4-0.5
			c-1.4,0-2.5,0-3.6,0.1c-0.1,0.1-0.1,0.3,0,0.4l0.3,0c0.7,0.1,0.7,0.3,0.7,1.6V43.5z"/>
		<path fill="#183059" d="M100.8,43.5c0,1.5,0.1,1.5,0.8,1.6l0.3,0c0.1,0.1,0.1,0.4,0,0.4c-0.6,0-1.3,0-1.9,0c-0.6,0-1.3,0-1.9,0
			c-0.1-0.1-0.1-0.3,0-0.4l0.3,0c0.7-0.1,0.8-0.1,0.8-1.6v-5.3c0-1.5-0.1-1.5-0.8-1.6l-0.3,0c-0.1-0.1-0.1-0.4,0-0.4
			c0.6,0,1.3,0,1.9,0c0.6,0,1.3,0,1.9,0c0.1,0.1,0.1,0.3,0,0.4l-0.3,0c-0.7,0.1-0.8,0.1-0.8,1.6V43.5z"/>
		<path fill="#183059" d="M108.7,36.6c2.3,0,3.2,2.5,3.2,4.6c0,2.9-1.3,4.1-2.9,4.1c-2.4,0-3.3-2.7-3.3-4.6
			C105.8,37.6,107.3,36.6,108.7,36.6z M108.9,36c-3,0-5.1,2.1-5.1,5c0,2.5,1.8,4.8,5.1,4.8c2.9,0,5-2.1,5-4.9
			C113.9,38.3,112.2,36,108.9,36z"/>
		<path fill="#183059" d="M118.5,43.2c0,0.7,0,1.2,0.2,1.5c0.2,0.2,0.4,0.3,1.5,0.3c1.6,0,1.8-0.1,2.5-1.5c0.1-0.1,0.4,0,0.4,0.1
			c-0.1,0.6-0.4,1.7-0.6,2.1c-0.6,0-1.8,0-3.4,0h-1.5c-0.7,0-1.4,0-2,0c-0.1-0.1-0.2-0.3,0-0.4l0.4-0.1c0.7-0.1,0.8-0.1,0.8-1.6
			v-5.3c0-1.5-0.1-1.5-0.8-1.6l-0.4-0.1c-0.1-0.1-0.1-0.4,0-0.4c0.7,0,1.3,0,2,0c0.6,0,1.3,0,1.9,0c0.1,0.1,0.1,0.3,0,0.4l-0.3,0.1
			c-0.7,0.1-0.8,0.1-0.8,1.6V43.2z"/>
		<path fill="#183059" d="M129.1,36.6c2.3,0,3.2,2.5,3.2,4.6c0,2.9-1.3,4.1-2.9,4.1c-2.4,0-3.3-2.7-3.3-4.6
			C126.1,37.6,127.7,36.6,129.1,36.6z M129.3,36c-3,0-5.1,2.1-5.1,5c0,2.5,1.8,4.8,5.1,4.8c2.9,0,5-2.1,5-4.9
			C134.3,38.3,132.6,36,129.3,36z"/>
		<path fill="#183059" d="M144.9,44.1c0,0.5,0.1,0.9,0.3,1c0,0.1,0,0.2,0,0.2c-0.2,0-0.4,0-0.7,0.1c-0.9,0.2-1.9,0.4-2.8,0.4
			c-1.7,0-3.3-0.5-4.4-1.6c-0.8-0.9-1.3-2.1-1.3-3.3c0-1.2,0.4-2.4,1.3-3.3c1-1.1,2.6-1.7,4.5-1.7c0.7,0,1.4,0.1,1.9,0.2
			c0.3,0.1,0.7,0.1,0.9,0.1c0,0.4,0.1,1.2,0.2,2.3c-0.1,0.1-0.4,0.2-0.5,0c-0.3-1.4-1.3-2.1-2.7-2.1c-2.5,0-3.7,1.8-3.7,4.2
			c0,1.1,0.3,2.4,1,3.3c0.8,0.9,1.9,1.2,2.7,1.2c0.7,0,1.1-0.1,1.3-0.3c0.1-0.1,0.1-0.4,0.1-0.9v-0.5c0-1,0-1.1-1-1.3l-0.5-0.1
			c-0.1-0.1-0.1-0.3,0-0.4c0.6,0,1.2,0,2.2,0c0.6,0,1.1,0,1.7,0c0.1,0.1,0.2,0.3,0,0.4l-0.3,0c-0.5,0.1-0.6,0.2-0.6,1.1V44.1z"/>
		<path fill="#183059" d="M150,42.7c0-0.8-0.1-1-0.5-1.8l-1.7-3.4c-0.3-0.6-0.4-0.8-1.1-0.9l-0.4-0.1c-0.1-0.1-0.1-0.4,0.1-0.4
			c0.6,0,1.2,0,1.8,0c0.6,0,1.5,0,1.8,0c0.1,0.1,0.1,0.3,0,0.4l-0.4,0.1c-0.2,0-0.3,0.1-0.3,0.2c0,0.1,0.1,0.3,0.3,0.7
			c0.6,1.2,1.1,2.4,1.6,3.4c0.6-1.1,1.1-2.1,1.7-3.1c0.2-0.5,0.4-0.8,0.4-1c0-0.1-0.1-0.2-0.3-0.2l-0.4-0.1c-0.1-0.1-0.1-0.3,0-0.4
			c0.6,0,1.1,0,1.5,0c0.4,0,0.9,0,1.3,0c0.1,0.1,0.1,0.3,0,0.4l-0.4,0.1c-0.6,0.1-0.8,0.4-1.5,1.6c-0.5,0.8-0.9,1.6-1.3,2.4
			c-0.4,0.7-0.5,1-0.5,2v0.9c0,1.5,0.1,1.5,0.8,1.6l0.5,0.1c0.1,0.1,0.1,0.4,0,0.4c-0.9,0-1.5,0-2.1,0c-0.7,0-1.3,0-2.1,0
			c-0.1-0.1-0.1-0.3,0-0.4l0.5-0.1c0.7-0.1,0.8-0.1,0.8-1.6V42.7z"/>
	</g>
	<g>
		<path fill="#FFFFFF" stroke="#183059" stroke-width="0.6143" d="M48.5,26.3C48.5,39.4,37.9,50,24.8,50C11.8,50,1.2,39.4,1.2,26.3
			c0-13.1,10.6-23.7,23.7-23.7C37.9,2.7,48.5,13.3,48.5,26.3z"/>
		<path fill="#183059" d="M48.8,26.3c0,13.2-10.7,24-24,24c-13.3,0-24-10.7-24-24c0-13.3,10.7-24,24-24
			C38.1,2.3,48.8,13.1,48.8,26.3z"/>
		<path fill="#FFFFFF" d="M25.8,26.9c-0.3-0.1-2.3-0.9-2.3-0.9c-0.2-0.1,0-0.4,0.3-0.3c0.1,0,2.1,0.8,2.2,0.8
			C26.2,26.7,26.2,27,25.8,26.9z"/>
		<path fill="#FFFFFF" stroke="#183059" stroke-width="0.6143" d="M45.7,26.3c0,11.5-9.4,20.9-20.9,20.9c-11.5,0-20.9-9.4-20.9-20.9
			c0-11.6,9.4-20.9,20.9-20.9C36.4,5.4,45.7,14.8,45.7,26.3z"/>
		<g>
			<defs>
				<path id="SVGID_1_" d="M43.7,26.3c0,10.5-8.5,18.9-18.9,18.9c-10.5,0-18.9-8.5-18.9-18.9c0-10.5,8.5-18.9,18.9-18.9
					C35.2,7.4,43.7,15.9,43.7,26.3z"/>
			</defs>
			<use xlink:href="#SVGID_1_"  overflow="visible" fill="#FFFFFF"/>
			<clipPath id="SVGID_2_">
				<use xlink:href="#SVGID_1_"  overflow="visible"/>
			</clipPath>
			<g clip-path="url(#SVGID_2_)">
				<path fill="#183059" d="M19.2,4.9c0.1,0,0.4-0.1,0.3-0.2c0-0.1-0.1-0.1-0.2,0C19.1,4.7,19.1,4.9,19.2,4.9z"/>
				<path fill="#183059" d="M20.3,7.4c0.1,0.1,0.8,0.2,1,0.2c0.2,0,0.2-0.2,0.1-0.2c-0.1,0-1.2-0.2-1.4-0.2c-0.1,0-0.3-0.1-0.4-0.2
					c-0.1,0-0.3-0.1-0.2,0l0,0.1C19.4,7.2,20.1,7.3,20.3,7.4z"/>
				<path fill="#183059" d="M20.5,6.1c0,0-0.1-0.2-0.2-0.2C20.1,5.9,20,6,20,6C19.8,6.1,20.5,6.1,20.5,6.1z"/>
				<path fill="#183059" d="M19.5,5.4c-0.2,0.1,0.3,0,0.3,0C19.7,5.3,19.6,5.4,19.5,5.4z"/>
				<path fill="#183059" d="M19.7,5.9c0-0.1-0.1-0.1-0.2-0.1l0,0C19.5,6,19.7,6,19.7,6S19.7,5.9,19.7,5.9z"/>
				<path fill="#183059" d="M34.5,39.5c0.2-0.1,0.2-0.3,0.1-0.2c-0.2,0-1.1,0.4-1.3,0.3c-0.1-0.1-0.4,0.2-0.2,0.2
					C33.4,39.7,34.4,39.6,34.5,39.5z"/>
				<path fill="#183059" d="M19.7,6.3c0.1,0.1,0.5,0.2,0.7,0.3c0.1,0,0.5-0.1,0.3-0.1c-0.3,0-0.6-0.2-0.7-0.2
					C19.7,6.2,19.6,6.3,19.7,6.3z"/>
				<path fill="#183059" d="M22.6,6.5c0.1,0,0.3-0.1,0.3-0.1s-0.2,0.1-0.3,0C22.6,6.2,22.5,6.5,22.6,6.5z"/>
				<path fill="#183059" d="M20.5,7c0.1,0.1,0.3,0.1,0.4,0.1C21,7.1,21.2,7,21.1,7c-0.1,0-0.3,0-0.5-0.1C20.4,6.8,20.4,7,20.5,7z"/>
				<path fill="#183059" d="M36.7,39.1c0.1-0.2-0.1,0.1-0.3,0.2c-3.1,2.1-7.1,1.9-7.4,1.9c-0.2-0.1-1.6,0-1.7,0
					c-0.1,0-0.2,0.1-0.3,0.1c-0.1,0-0.3,0.1,0,0.1c0.3,0,1.7-0.1,1.8,0c2.5,0.1,4.4-0.4,4.9-0.6C34.2,40.7,36.4,39.8,36.7,39.1z"/>
				<path fill="#183059" d="M23,19c0-0.2,0.1-0.1,0.3-0.2c0.2-0.1,0.8,0.3,1.1,0.3c0.3-0.1,0.8,0,1.1,0.2c0.3,0.2,1.1,0.5,1.3,0.5
					c0.2,0,0.3,0.2,0.2,0.3c-0.1,0.1,0.6,0.8,0.6,1c0,0.2,0.4,0.5,0.6,1c0.2,0.5,1.2,0.8,1.4,0.8c0.2,0,0.2,0.3,0.4,0.2
					c0.2,0,0-0.2,0-0.3c0-0.1,0.1,0,0.2,0c0.1,0,0.2,0.2,0.2,0.1c0-0.1,0.1-0.1,0.2,0c0.1,0.1,0.2,0.2,0.2,0.2c0.1,0,0.1,0,0-0.1
					c-0.1-0.1,0-0.2,0.1-0.1c0.1,0.1,0.3,0.4,0.5,0.4c0.1,0,0-0.2-0.1-0.3c0-0.1,0.1-0.1,0.2,0c0.1,0.1,0.4,0.4,0.6,0.4
					c0.2,0,0-0.2,0-0.3c0-0.1,0.1-0.1,0.2,0.1c0.1,0.1,0.6,0.9,0.7,0.8c0.1-0.1,0.7,1.1,0.9,1.6c0.1,0.5,0.3,0.4,0.3,0.3
					c-0.7-2.7-1.6-2.9-1.9-3c-0.3-0.2-4.1-1-4.1-1.2c0-0.2-0.8-1.1-0.8-1.1s-0.6-0.7-0.6-0.8c-0.1-0.1-1.4-1-1.8-1.1
					c-0.4-0.2-0.6-0.2-1.3-0.3c-0.6-0.2-0.6-0.2-1-0.3c-0.3-0.1-0.7,0.4-0.8,0.6c0.3,0.3,0.7,0.7,1.1,1.1c0.2,0.1,0.4,0.1,0.5,0.1
					C23.6,19.6,23,19.2,23,19z"/>
				<path fill="#183059" d="M27.8,37.7c-0.2,0-0.3,0-0.5-0.1c-0.2,0-0.3,0.1-0.1,0.2c0.1,0.1,0.4,0.1,0.5,0.1
					C27.9,37.9,28,37.7,27.8,37.7z"/>
				<path fill="#183059" d="M26.7,36.4c0.2-0.1,0.1-0.2,0.1-0.2c0-0.1-0.5-0.1-0.6-0.2c-0.2-0.1-0.3,0.2-0.1,0.2
					C26.3,36.3,26.5,36.5,26.7,36.4z"/>
				<path fill="#183059" d="M27.1,37.1c-0.2,0-0.5-0.1-0.6-0.1c-0.2,0-0.3,0.2-0.1,0.2c0.2,0,0.5,0.1,0.6,0.1
					C27.1,37.2,27.2,37.1,27.1,37.1z"/>
				<path fill="#183059" d="M27.6,38.5c0.1,0.1,1,0.2,1.2,0.1c0.1,0,0.2-0.1,0.2-0.2c0,0-0.1-0.1-0.3,0c-0.2,0.1-0.8,0-0.9,0
					C27.7,38.3,27.5,38.4,27.6,38.5z"/>
				<path fill="#183059" d="M27.8,39.2c0.1,0.1,1,0.2,1.2,0.1c0.1,0,0.2-0.1,0.2-0.2c0,0-0.1-0.1-0.3,0c-0.2,0.1-0.8,0-0.9,0
					C27.8,39,27.7,39.1,27.8,39.2z"/>
				<path fill="#183059" d="M28.2,39.8c0.1,0.1,1,0.2,1.2,0.1c0.1,0,0.2-0.1,0.2-0.2c0,0-0.1-0.1-0.3,0c-0.2,0.1-0.8,0-0.9,0
					C28.2,39.6,28.1,39.7,28.2,39.8z"/>
			</g>
			<path clip-path="url(#SVGID_2_)" fill="#183059" d="M36.1,18.6L36.1,18.6c-2.5-2.2-5.4-3.1-8-3c0.1-0.5,0.2-1,0.2-1.6
				c0.3,0,1,0,1.4,0c0.2,0,0.4-0.1,0.4-0.2c-0.1-0.1-0.3-0.6-0.6-0.7c-0.2,0-0.7-0.3-1-0.4c0.1-1.2,0.2-2.6,0.2-3.8
				c0.1-2.6-1.4-4.7-3.7-4.8c-0.4,0-0.6-0.3-0.5-0.8c0.1-0.8,0.5-1.8,0.7-2.6c0.1-0.4-0.1-0.8-0.5-0.8c-0.3,0-0.5,0.1-0.8,0
				c-0.2-0.1-0.5,0.1-0.5,0.1c-0.3,0.1-0.5,0.4-0.5,0.6c-0.1,0.2-0.6,1.5-0.7,1.7c-0.1,0.2-0.2,1.1-0.3,0.8
				c-0.1-0.2-0.2-0.2-0.3-0.3c-0.1-0.9-0.2-1.7-0.2-2.1c-0.1-0.5-0.6-0.7-1-0.2c-0.2,0.2-0.3,0.4-0.5,0.6c-0.2,0.2-0.4,0.2-0.7,0.2
				c-0.3-0.1-0.5,0-0.7,0.2C18.3,1.9,18,2,17.7,1.8c-0.2-0.1-0.3-0.2-0.5-0.3c-0.2,0-0.3,0.1-0.3,0.2c0.1,0.9,0.2,1.8,0.3,2.5
				l0.1,1.5c0,0.7,0,1.3-0.1,1.7c-0.1,0.6-0.1,1.2,0,1.6c0,0.3,0,0.5-0.1,0.7c-0.2,0.6-0.3,1.2-0.3,2c0,0.8,0,2.1,0,3.2
				c0,1.1-0.2,3.1-0.1,4.7c0,0,0,0,0,0c-0.2,0.1-0.5,0.3-0.7,0.5c0,0,0,0,0.1-0.1v0c-0.1-1.7,0.1-3.7-0.3-5.6
				c-0.2-0.9-1-0.9-1.3-0.1c-0.1,0.3-0.1,0.4-0.2,0.7c-0.1,0.3-0.3,0.5-0.7,0.5c-0.5,0.1-1,0.2-1.4,0.4c-0.2,0.1-0.3,0.3-0.3,0.5
				c0.1,0.7,0.2,2.3,0.3,4.4c-0.2,0.1-0.5,0.2-0.6,0.4c-0.4,0.5-0.6,1.1-0.3,2c0.4,1.3,0.3,1.9,0,2.7c-0.6,1.6-0.3,3.8,1,5.3
				c0,0,0,0.1,0.1,0.1c0.1,0.1,0.2,0.2,0.4,0.2c0,0,0,0,0,0c0.2,4.7,0.3,9.1,0.4,10.9c0,0.2,0.1,0.5,0.4,0.7
				c0.4,0.3,0.9,0.1,1.1-0.2c0.2-0.3,0.5-0.1,0.5,0.3c0,0.3,0.3,0.6,0.5,0.7c0.2,0.1,0.4,0.3,0.6,0.5c0.4,0.3,0.7,0.2,0.7-0.1l0,0
				c0-1.9-0.1-5-0.2-7c0,0-0.1-0.1-0.1-0.1c1.5,1.8,3.3,3.2,5.5,3.9h0l0,0c0.5,1.8,1,5.2,1,5.2c0.1,0.4,0.4,0.7,1.1,0.8
				c0.4,0,0.8-0.2,1.2-0.3c0.4-0.1,0.7,0.1,1,0.2c0.5,0.3,1.3,0.3,1.8,0.1c0.3-0.2,0.4-0.4,0.4-0.6c0,0,0,0,0,0l-0.9-4.6l0.2,0
				c0.5,0.1,1,0.1,1.5-0.1c1.9,0,3.7-0.3,5.2-0.9c1.4-0.6,2.4-1.5,3-2.5c0.5-0.8,0.6-1.7,0.5-2.6c-0.1-0.5-0.3-1.1-0.6-1.6l0-0.1
				c-1-1.6-2-3.1-2.3-4.9c-0.1-0.7,0-1.5,0.1-2.3c0.1-0.6,0.1-1.2,0-1.9c-0.1-0.8-0.4-1.6-0.8-2.3c0,0,1,0.5,1.9,0.9v0
				c0.3,0.2,0.5-0.1,0.4-0.3c-0.1-0.1-0.2-0.4-0.4-0.6c-0.2-0.2-0.3-0.4-0.2-0.7c0.1-0.4,0-1-0.3-1.7c-0.4-1.1-0.2-1.6,0.4-1.8
				C36.3,19,36.3,18.8,36.1,18.6z M28.4,47C28.4,46.9,28.4,46.9,28.4,47C28.4,46.9,28.4,46.9,28.4,47z M27.7,15.5
				c-0.5,0-2.1,0.2-2.7,0.3c0-0.2,0.1-1.2,0.3-1.3c0.2,0,1.5-0.2,1.7-0.2c0.4,0,0.6-0.1,0.9-0.1C27.8,14.7,27.8,15.1,27.7,15.5z
				 M18.3,12.8c0.1,0,0.2,0,0.5,0c0.3,0.1,0.1-0.1,0-0.2c-0.1,0-0.3-0.1-0.6-0.1c-0.7-0.1-0.6-0.5-0.3-0.5c0.2,0,0.9,0.1,1.2,0.1
				c0.3,0,0.2-0.1,0-0.2c-0.2-0.1-0.7-0.1-1-0.2c-0.8-0.2-0.6-0.6-0.4-0.6c0.2,0,0.9,0.1,1.1,0.2c0.2,0.1,0.2-0.2,0-0.3
				c-0.2-0.1-0.9-0.2-1-0.2c-0.1,0-0.3-0.4,0.3-0.4c0.3,0,1.1,0.1,1.4,0.2c0.3,0,0.2-0.1,0-0.2c-0.2-0.1-1.1-0.3-1.4-0.3
				c-0.3-0.1-0.5-0.4-0.1-0.3c0.4,0,0.8,0.1,1.2,0.2c0.4,0.1,0.2-0.2,0-0.2c-0.2,0-1-0.3-1.2-0.3c-0.3-0.1-0.3-0.3-0.1-0.3
				c0.2,0,1.2,0.3,1.5,0.3c0.3,0,0.3-0.1,0-0.2C19,9.2,18,9,17.7,8.9c-0.3-0.1-0.3-0.3,0-0.2c0.2,0,1.3,0.2,1.7,0.3
				c0.3,0.1,0.1-0.2-0.1-0.3c-0.2-0.1-1.2-0.2-1.4-0.3c-0.2-0.1-0.2-0.3,0-0.2c0.2,0.1,0.7,0,0.6,0c-0.1-0.1-0.2-0.2-0.1-0.2
				c0.2,0,0.4,0.1,0.6,0.2c0.2,0,0.2,0,0-0.2c-0.2-0.1-0.6-0.2-0.8-0.2c-0.2-0.1-0.3-0.3-0.1-0.3c0.2,0,0.7,0.2,1,0.3
				c0.3,0.1,0.2-0.1,0-0.1c-0.2,0-0.7-0.3-1.2-0.5c-0.4-0.2-0.2-0.3,0.1-0.2c0.3,0,0.6,0.2,0.7,0.3c0.1,0,0.3,0,0-0.1
				c-0.3-0.1-0.6-0.3-0.8-0.3c-0.2-0.1-0.2-0.2,0-0.2c0.3,0,0.8,0.2,1.1,0.3c0.3,0.1,0.4-0.1,0.1-0.2c-0.3-0.1-1.1-0.4-1.2-0.4
				c-0.1,0-0.2-0.2,0-0.2c0.2,0,0.6,0.2,0.8,0.2c0.1,0,0.3-0.1-0.1-0.1c-0.4,0-0.5-0.2-0.8-0.3c-0.3-0.1-0.1-0.2,0.1-0.2
				c0.2,0,0.6,0.2,0.8,0.2c0.3,0.1,0.1-0.1-0.1-0.2c-0.3,0-0.8-0.3-1-0.4c-0.2-0.1-0.2-0.2,0-0.1c0.2,0,0.6,0.2,0.9,0.3
				c0.3,0.1,0.4-0.1,0.2-0.1c-0.2-0.1-0.9-0.4-1-0.4c-0.1,0-0.2-0.2-0.1-0.1c0.2,0,0.5,0.1,0.7,0.2c0.2,0.1,0.4-0.1,0.2-0.2
				c-0.2-0.1-0.8-0.3-1-0.3c-0.2-0.1-0.1-0.2,0-0.2c0.2,0,0.8,0.2,1,0.2c0.2,0,0.2-0.1-0.1-0.2c-0.2,0-0.9-0.3-1-0.4
				c-0.2-0.1-0.1-0.1,0.1-0.1c0.2,0,0.4,0.1,0.5,0.1c0.1,0,0.3-0.1,0-0.1c-0.3,0-0.4-0.2-0.6-0.2c-0.2-0.1-0.2-0.2-0.1-0.2
				c0.1,0,0.2,0,0.3,0.1c0.1,0,0.6,0,0.2-0.1c-0.4-0.1-0.3-0.2-0.5-0.3c-0.2-0.1-0.3-0.1-0.2-0.1c0.2-0.1,0.3,0,0.5,0.1
				c0.3,0,0.5,0.1,0.5,0c0-0.1-0.2-0.1-0.8-0.2c-0.6-0.2-0.4-0.2-0.3-0.4c0.1-0.1,0.2,0,0.3-0.1c0.3,0.2,0.7,0.1,1-0.2
				c0.1-0.1,0.2-0.2,0.5-0.2c0.3,0.1,0.6,0,0.9-0.2c0.1-0.1,0.2-0.3,0.4-0.4l0.1-0.1c0.1-0.1,0.2-0.2,0.4-0.2c0.1,0,0.2,0.1,0.2,0.3
				C21,1.3,21,1.7,21,2.1c0,0.5,0.1,1.1,0.2,1.6c0.1,0.5,0.3,0.5,0.4,0.5c0.2,0,0.4-0.1,0.4-0.4c0,0,0,0,0,0c0.1,0,0.2-0.1,0.1-0.1
				c0-0.1,0.1-0.2,0.1-0.3c0.1,0,0.1-0.2,0.1-0.3c0-0.1,0.1-0.3,0.2-0.5c0.1-0.2,0-0.3,0-0.4c0-0.2,0.1-0.3,0.1-0.4
				c0,0.1,0.1,0,0.2,0.1c0.1,0.1,0.3-0.2,0.3-0.3c0-0.1,0.2-0.6,0.3-0.7c0-0.1,0.1-0.4,0.2-0.5c0.3,0.1,0.6,0,0.8,0
				c0.1,0,0.2,0,0.2,0.1c0,0,0.1,0.1,0.1,0.2c0,0.1,0,0.2,0,0.3l-0.1,0.3c-0.2,0.8-0.5,1.7-0.7,2.4c0,0.2,0,0.3,0,0.4
				c0,0.1,0.1,0.2,0.1,0.3c0.1,0.2,0.3,0.2,0.6,0.3c1.8,0.1,3.1,1.4,3.4,3.4c0.1,0.4,0.1,0.8,0.1,1.2c0,1.1-0.1,2.5-0.2,3.7
				c-0.2,0-0.3,0-0.5,0c-0.3,0-0.5,0-0.8-0.1c-0.7-0.2-1.3-0.2-1.7,0c0,0,0,0,0,0c0-0.5,0-1,0-1.4c0,0,0.1,0,0.1,0
				c0.1,0,0.1,0.1,0.1,0.2c0,0.1,0,0.7,0,0.9c0,0.1,0.1,0,0.1-0.1c0-0.1,0-0.2,0-0.5c0-0.2,0-1-0.1-1.2c0-0.2,0-0.4,0-0.6
				c-0.1-0.2-0.2-0.1-0.2,0.1c0,0.1,0,0.3,0,0.5c0,0.2-0.1,0.1-0.2,0.1c0-0.2,0-0.3,0-0.4c0-0.2-0.1-0.5-0.1-0.7
				c-0.1-0.8-0.3-1.3-0.6-1.8c-0.1-0.2-0.3-0.3-0.4-0.3c0-0.2-0.2-0.2-0.2-0.2c-0.1,0-0.2-0.2-0.2-0.2c0-0.1,0.2-0.2-0.1-0.3
				c-0.2-0.1-0.2,0-0.3,0.1C23,7,22.7,7,22.9,7.1c0.2,0.1,0.5,0.2,0.4,0.3c0,0.1-0.1,0.1-0.2,0.1c-0.1,0-0.4-0.1-0.5-0.1
				c-0.1,0-0.2,0.1-0.1,0.1c0.1,0,0.5,0,0.6,0.1c0,0,0.2,0,0.1,0.6c-0.1,0.1-1.1,1.8-1.1,1.8c-0.1,0.1-1.4,1.5-1.4,1.5
				c-0.1,0.1-0.3,0.3-0.4,0.4c-0.3,0.2-1.6,1.6-1.8,2c-0.1,0-0.2-0.1-0.4-0.2C17.5,13.4,17.7,12.9,18.3,12.8z M18.5,14.9
				c0.5-1.1,1.4-1.9,2.2-2.7c1.7-1.5,2.4-2.7,3.1-4.2c0-0.1,0.1-0.1,0.1-0.1c0,0,0.3,0.3,0.3,0.4c0,0,0.2,0.5,0.1,0.6
				c-0.1,0.1-0.2,0-0.3-0.1c-0.1-0.1-0.2,0.1,0,0.2c0.1,0.1,0.4,0.3,0.5,0.4c0.1,0.1,0.1,0.3,0,0.3c-0.1,0-0.4-0.3-0.6-0.4
				c-0.2-0.2-0.3,0.1-0.2,0.2c0.1,0.1,0.6,0.5,0.7,0.6c0.2,0.1,0,0.2,0.1,0.4c-0.6,0.7-1,1.4-1.3,2.3c0,0.1,0,0.1,0,0.2
				c0,0.1,0.1,0.2,0.1,0.2c0.1,0.1,0.3,0.1,0.4,0c0.3-0.2,0.8-0.3,1-0.2c0.2,0.1,0.4,0,0.6,0l0,0c0.3-0.1,0.8-0.1,1.4,0
				c0.3,0.1,0.6,0.1,0.9,0.1c0.2,0,0.3,0,0.5,0l0.6,0.2c0.1,0.1,0.3,0.1,0.4,0.2c0,0.1-0.1,0.1-0.1,0.1c-0.2,0-1.3,0.2-1.3,0.2
				c-0.1,0-0.2,0-0.2,0c-0.2-0.2-0.7-0.5-0.7-0.6c-0.1-0.1-0.2,0-0.1,0.1c0.1,0.1,0.4,0.4,0.5,0.5c-0.1,0-0.2,0-0.3,0c0,0,0,0,0,0
				c-0.2-0.1-0.4-0.4-0.5-0.5c-0.1-0.1-0.3,0-0.1,0.1c0.1,0.1,0.3,0.4,0.3,0.4c0,0,0,0,0,0c0,0-0.1,0-0.1,0c-0.1,0-0.1,0-0.2-0.1
				c-0.1-0.1-0.4-0.4-0.5-0.4c-0.1-0.1-0.3,0-0.2,0c0.1,0.1,0.5,0.3,0.5,0.4c0,0,0,0.1,0,0.1c0,0,0,0-0.1,0c-0.1,0-0.1,0-0.2-0.1
				c-0.2-0.1-0.4-0.4-0.5-0.4c-0.1-0.1-0.2,0.1-0.1,0.2c0.1,0.1,0.3,0.2,0.3,0.3c0,0,0,0.1,0,0.1c0,0,0,0,0,0c-0.1,0-0.1,0-0.2,0.1
				c0,0-0.1,0-0.1,0c-0.1-0.1-0.3-0.3-0.4-0.4c-0.1-0.1-0.3-0.1-0.2,0.1c0.1,0.1,0.5,0.3,0.5,0.4c0,0,0,0.1,0,0.1c0,0,0,0,0,0
				c0,0-0.1,0-0.1,0c-0.1-0.1-0.1-0.1-0.2-0.1c-0.1-0.1-0.1,0.2,0,0.3c0,0,0,0,0,0c-0.1,0.1-0.1,0.1-0.2,0.2
				c-0.2-0.2-0.5-0.4-0.5-0.4s-0.3-0.1-0.1,0c0.1,0.1,0.4,0.3,0.3,0.4c-0.1,0.1-0.4-0.1-0.5-0.2c-0.1-0.1-0.2,0-0.1,0.1
				c0.1,0.1,0.5,0.2,0.5,0.4c0.1,0.1,0,0.2-0.2,0.2c-0.2-0.1-0.4-0.2-0.6-0.3c-0.2-0.1-0.1,0.1,0,0.2c0.1,0.1,0.6,0.4,0.4,0.5
				c-0.1,0.1-0.6-0.1-0.8-0.2c-0.1-0.1-0.3,0-0.2,0.1c0.1,0.1,0.7,0.4,0.6,0.5c-0.1,0.1-0.6-0.2-0.7-0.3c-0.1-0.1-0.2,0-0.1,0.1
				c0.1,0.1,0.7,0.4,0.6,0.5c-0.1,0.1-0.8-0.3-1-0.4c-0.2-0.1-0.3,0.1-0.1,0.2c0.2,0.1,1,0.5,0.8,0.7c-0.2,0.2-0.8-0.3-1-0.4
				c-0.3-0.1-0.4,0-0.2,0.1c0.2,0.1,0.6,0.4,0.7,0.5c0.1,0.1,0.1,0.3-0.1,0.1c-0.2-0.1-1-0.6-1.2-0.6c-0.2,0-0.2,0.1,0,0.2
				c0.2,0.1,0.8,0.3,0.9,0.4c0.1,0.1-0.1,0.1-0.3,0.1c-0.2-0.1-0.7-0.4-0.8-0.4c-0.1,0-0.3,0-0.1,0.1c0.2,0.1,0.7,0.3,0.6,0.3
				c-0.2,0.1-0.5,0-0.8,0c-0.2,0-1.5,0.9-2.3,1.6c-0.7,0.2-1.2-0.9-0.3-2.7C17.7,16.1,18.4,14.9,18.5,14.9z M16.7,20.8
				c0.1,0,0.1-0.1,0.2,0c0.2,0.1,1,0.5,1.1,0.6c0.1,0,0.1,0.1,0.1,0.2c0,0.1-0.1,0.1-0.3,0.1c-0.1,0-0.4-0.2-0.7-0.3
				C17,21.1,16.8,21,16.8,21c-0.1,0-0.1-0.1-0.1-0.1C16.7,20.9,16.7,20.8,16.7,20.8z M16,21.4C16,21.4,16,21.3,16,21.4
				c0.1-0.1,0.2-0.1,0.2,0l0,0c0.1,0.1,1.4,0.7,1.6,0.7c0.2,0,0.2,0.1,0.2,0.1c0,0-0.1,0.2-0.3,0.1c-0.3,0-1-0.4-1.4-0.6L16,21.6
				C15.9,21.6,16,21.4,16,21.4z M19.5,27.3c0.1,0,0.1,0.1,0.1,0.1c0,0.1-0.2,0.1-0.3,0.1c-0.2,0-0.5-0.2-0.8-0.3
				c-0.1-0.1-0.3-0.1-0.3-0.1c-0.1,0-0.1-0.1-0.1-0.1c0,0,0-0.1,0-0.1c0,0,0.1,0,0.2,0C18.5,26.9,19.3,27.2,19.5,27.3z M17.4,34.4
				C17.4,34.3,17.4,34.3,17.4,34.4c0-0.1,0.2,0,1.2,0.3c0.3,0.1,0.5,0.2,0.6,0.2c0.1,0,0.9,0.3,0.9,0.4c0,0,0,0.1,0,0.2
				c0,0-0.1,0.2-0.1,0.2c-0.1,0-0.8-0.2-0.8-0.2c-0.5-0.2-1.3-0.5-1.5-0.5c-0.2,0-0.3-0.3-0.3-0.4C17.4,34.4,17.4,34.4,17.4,34.4z
				 M20.5,35.3l-0.2-0.1c-0.1,0-0.1-0.1-0.1-0.1c0,0,0-0.1,0.1-0.1c0,0,0.1,0,0.2,0c0,0,0.1,0.1,0.2,0.1c0.2,0.1,0.9,0.3,0.9,0.3
				c0,0,0,0.1,0,0.1c0,0-0.1,0.1-0.1,0.1C21.4,35.6,20.7,35.3,20.5,35.3z M21.4,33.9c0,0,0,0.1-0.2,0.1c-0.1,0-1.3-0.4-1.5-0.5
				l-0.1,0l-0.1,0c-0.1,0-0.2,0-0.2-0.2c0,0,0-0.2,0-0.2c0.1,0,1.3,0.4,1.5,0.4c0.2,0,0.3,0,0.4,0.1C21.3,33.7,21.4,33.9,21.4,33.9z
				 M20.9,33c-0.2,0-1.5-0.5-1.7-0.6c-0.1,0-0.3-0.1-0.5-0.2c-0.5-0.2-1-0.4-1.1-0.5c-0.6-0.2-1.3-0.3-1.2-0.7
				c0-0.1,0.1-0.2,0.1-0.3c0,0,0.1,0,0.1,0c0,0,0.2,0.1,0.3,0.1c0.2,0.1,1,0.4,1.2,0.5c0.2,0.1,2.2,0.9,2.3,0.9
				c0.2,0,0.3,0.1,0.4,0.1c0,0,0,0.1,0,0.1c0,0,0,0.1,0,0.1C20.9,32.8,21,33,20.9,33z M14.1,27.8c0-0.1,0-0.2,0.2-0.1
				c0.1,0,2.8,1.1,2.9,1.1c0,0,0.1,0.2,0.1,0.2c0,0.1-0.2,0.1-0.3,0.1l-1.9-0.7c-0.5-0.1-1-0.3-1.1-0.5
				C14.1,27.9,14.1,27.9,14.1,27.8z M14,30.5c0.1,0,1.1,0.5,1.2,0.6c0.2,0.2,0.3,0.8,0.4,0.8c0.1,0.1-0.7-0.2-0.8-0.3
				c-0.3-0.1-0.7-0.3-0.8-0.3c0-0.1-0.1-0.2,0-0.3C13.9,31,13.9,30.5,14,30.5z M14,32.4c0-0.1,0-0.3,0.1-0.3c0,0,1.5,0.4,1.6,0.5
				c0.3,0.1,0.3,0.7,0.3,0.7c0,0-0.1,0.1-0.1,0.1c-0.1,0-1.2-0.4-1.3-0.4c-0.1,0-0.3-0.1-0.4-0.1C14,32.7,14,32.5,14,32.4z
				 M14.9,28.9c0-0.1,0-0.2,0.1-0.2c0.1,0,1,0.3,1.2,0.4c0.2,0.1,0.4,0.2,0.4,0.2c0,0,0.1,0.1,0,0.2c0,0,0,0.2-0.1,0.2
				c0,0-0.1,0-0.1,0C16.3,29.5,14.9,29,14.9,28.9z M20.7,31.7c0,0.1,0,0.2-0.1,0.2c-0.1,0-2.5-0.9-2.6-1c0,0-1.2-0.5-1.3-0.6
				c0,0,0.1-0.2,0.1-0.2c0-0.1,0.1-0.1,0.2,0c0.1,0.1,1.3,0.4,1.5,0.5l0.3,0.1c0.2,0.1,1.1,0.4,1.2,0.5l0.1,0c0.1,0,0.2,0,0.4,0.1
				C20.7,31.4,20.7,31.7,20.7,31.7z M20.5,30.9c0,0.1-0.2,0.1-0.2,0.1c0,0-2.2-0.9-2.4-0.9c-0.3-0.1-0.7-0.2-0.7-0.3
				c0-0.1,0.1-0.6,1-0.2c0.2,0.1,2.2,0.7,2.2,0.7c0.2,0.1,0.1,0.3,0.2,0.4C20.4,30.6,20.5,30.7,20.5,30.9z M14.2,24
				c0.1-0.1,0.3-0.1,0.4,0c0.1,0.1,2.9,1.2,3.1,1.2c0.1,0,0.1,0.1,0.1,0.1c0,0,0,0.5,0,0.6c-0.1,0.1-0.2,0.1-0.3,0.1
				c-0.2-0.1-3.2-1.3-3.3-1.4c0,0-0.1-0.1-0.1-0.1C14.1,24.3,14.1,24,14.2,24z M14.2,25.1c0.1,0,0.2,0.1,0.4,0.1
				c0.1,0,0.2,0.1,0.2,0.1c0.1,0,1.4,0.5,1.9,0.7l0.3,0.1c0.1,0,0.1,0.1,0.1,0.1c0,0,0,0.2,0,0.2c0,0,0,0.2-0.5,0.1
				c-0.7-0.2-2.9-0.7-2.7-1.4C13.9,25.2,14.1,25.1,14.2,25.1z M19.3,28L19,27.9c-0.4-0.1-0.8-0.2-1-0.3c-0.1-0.1-0.2-0.2-0.1-0.2
				c0-0.1,0.1-0.1,0.2,0c0.2,0,0.6,0.2,1,0.3c0.2,0,0.3,0.1,0.4,0.2c0.1,0,0.1,0.1,0.1,0.1c0,0,0,0.1,0,0.1C19.5,28,19.4,28,19.3,28
				z M17.6,24.4c-0.1,0.1-1.3-0.4-1.5-0.5c-0.3-0.1-1-0.4-1.2-0.5c-0.1,0-0.1-0.1-0.1-0.2c0-0.1,0.1-0.3,0.2-0.4c0,0,0.2,0,0.3,0
				c0.1,0.1,0.9,0.4,1.2,0.5c0.1,0,0.4,0.1,0.7,0.3c0.2,0.1,0.4,0.2,0.5,0.2c0.1,0,0.1,0.1,0.1,0.1C17.7,24,17.6,24.4,17.6,24.4z
				 M15.5,22c0.1,0,0.2,0,0.2,0.1c0.1,0.1,1.2,0.6,1.8,0.8c0.1,0,0.3,0.1,0.3,0.2c0,0.2-0.1,0.3-0.3,0.3c-0.3,0-2-0.8-2.1-0.9
				c0,0-0.1-0.1-0.1-0.2C15.3,22.2,15.4,22,15.5,22z M12.5,16.5c0.1,0.1,1.1,0.4,1.2,0.5c0.1,0,0.1-0.1,0-0.1
				c-0.1-0.1-0.7-0.4-0.8-0.5c-0.2-0.1,0.1-0.1,0.2-0.1c0.1,0,0.5,0.2,0.7,0.2c0.1,0,0.2-0.1,0.2-0.1c-0.1-0.1-0.2-0.2-0.4-0.3l0,0
				c0.4-0.1,0.6-0.3,0.8-0.7c0.1-0.2,0.1-0.4,0.2-0.7l0,0c0.1-0.3,0.3-0.5,0.5-0.5c0.2,0,0.3,0.2,0.4,0.5c0.2,1.1,0.2,2.3,0.2,3.4
				c0,0.7,0,1.4,0.1,2.1c-0.3,0.3-0.6,0.6-0.9,0.9l0,0c0,0-0.1,0-0.3,0c-0.2,0-0.3-0.2-0.2-0.2c0.1,0,0.2-0.2,0.1-0.2
				c-0.1,0-0.2,0-0.4-0.1c-0.2-0.1-0.2-0.2-0.1-0.2c0.1,0,0.3,0.1,0.4,0.2c0.2,0.1,0.4-0.1,0.1-0.2c-0.2,0-0.6-0.3-0.9-0.3
				c-0.3,0-0.4-0.3-0.2-0.2c0.2,0.1,0.5,0.1,0.8,0.1c0.3,0,0.2-0.2,0-0.2c-0.1,0-0.7-0.1-0.9-0.2c-0.2-0.1-0.2-0.2,0-0.3
				c0.2,0,0.9,0.2,1,0.3c0.2,0.1,0.3-0.1-0.1-0.2c-0.3-0.1-1-0.3-1.1-0.4c-0.1,0-0.1-0.2,0.1-0.2c0.2,0,0.8,0.2,0.9,0.2
				c0.1,0,0.2-0.1-0.1-0.1c-0.2,0-0.8-0.3-1-0.4c-0.2-0.1-0.2-0.2,0-0.2c0.2,0,0.8,0.3,1,0.3c0.2,0,0.2-0.1-0.1-0.2
				c-0.3-0.1-0.9-0.4-1.1-0.4c-0.2-0.1-0.2-0.2,0-0.2c0.2,0.1,0.6,0.3,0.8,0.3c0.2,0,0.1-0.1,0-0.1c-0.1,0-0.6-0.3-0.7-0.4
				c-0.1-0.1-0.1-0.1,0-0.1c0.1,0,0.3,0.1,0.5,0.2c0.1,0,0.2-0.1,0-0.1c-0.2,0-0.5-0.2-0.7-0.3c-0.2,0-0.1-0.2,0-0.2
				c0.1,0,0.5,0.2,0.7,0.2c0.2,0,0.2,0,0-0.1c-0.2,0-0.8-0.4-1-0.5C12.3,16.6,12.4,16.4,12.5,16.5z M14.4,26.5
				c1.1,0.3,2.2,0.8,2.9,1c0.5,0.2,0.2,0.4,0.3,0.4c0.2,0.1,0.5,0.2,1.1,0.4c0.5,0.2,1,0.3,1.1,0.4c0.1,0.1,0.1,0.3,0.1,0.4
				c0,0,0,0.1-0.1,0.1c0,0-0.1,0-0.2-0.1c-0.1-0.1-0.7-0.3-1.3-0.5c-0.6-0.2-1.2-0.4-1.4-0.5c-0.2-0.1-0.6-0.2-0.9-0.3
				c-0.2-0.1-0.5-0.1-0.6-0.2c-0.4-0.2-0.9-0.3-1.3-0.6C14,27,14.1,26.4,14.4,26.5z M12.1,30.7c0.1,0,0-0.2-0.2-0.3
				c-0.2-0.1-0.3-0.4-0.2-0.4c0.1,0.1,0.5,0.3,0.7,0.5c0.2,0.1,0.3,0,0-0.1c-0.2-0.1-0.6-0.5-0.8-0.7c-0.1-0.1-0.2-0.4-0.1-0.3
				c0.1,0.1,0.6,0.4,0.7,0.5c0.1,0.1,0.2,0,0.1-0.1c-0.1-0.1-0.5-0.4-0.7-0.7c-0.4-0.3-0.3-0.9-0.1-0.9c0.1,0,1,0.8,1.2,0.9
				c0.1,0.1,0.2,0,0.1-0.2c-0.2-0.2-1-0.9-1.1-1c-0.3-0.3-0.2-0.7-0.2-0.7c0-0.1,0.1-0.2,0.2-0.1c0.1,0.1,0.8,0.8,0.9,0.9
				c0.1,0.1,0.2,0,0.1-0.1c-0.1-0.1-0.6-0.6-0.7-0.7c-0.2-0.2,0-0.3,0.1-0.2c0.1,0.1,0.7,0.6,0.8,0.7c0.1,0.1,0.1-0.1,0-0.1
				c-0.1-0.1-0.9-0.9-1-1c-0.1,0-0.2-0.1-0.1-0.3c0.1-0.2,0.1-0.3,0.4-0.2c0.1,0.1,0.3,0.2,0.3,0.3c0.1,0.1,0.2,0,0.1-0.1
				c-0.1-0.1-0.5-0.4-0.6-0.5c-0.1-0.1-0.1-0.3,0.1-0.2c0.2,0.1,0.6,0.5,0.7,0.6c0.1,0.1,0.3,0,0.1-0.1c-0.2-0.1-0.9-0.9-1-1
				c0-0.2-0.1-1.1,0-1c0.1,0.1,0.4,0.3,0.6,0.5c0.2,0.2,0.1-0.1,0-0.2c-0.1-0.1-0.7-0.5-1-1c0-0.1-0.1-0.2-0.1-0.2
				c-0.3-0.8,0-1.5,0.7-1.8c0.2-0.1,0.5-0.1,0.7,0c0.2,0.1,0.3,0.2,0.2,0.3c0,0.1-0.1,0.1-0.3,0.1c-0.4,0-0.7,0.2-0.8,0.5
				c-0.1,0.3-0.1,0.5,0,0.8c0.1,0.2,0.3,0.4,0.5,0.7l0.4,0.6c0.6,0.9,0.7,2.2,0.5,3.1c-0.1,0.5-0.1,1.1,0,1.9c0.1,0.8,0,1.5-0.4,2
				c-0.1,0.2-0.3,0.3-0.4,0.3c-0.1,0-0.3-0.1-0.4-0.2C12.2,31.3,11.8,30.8,12.1,30.7z M14.5,42.9c-0.1,0-0.1,0.1-0.2,0.2
				c-0.1,0.1-0.4,0.3-0.7,0.2l0-0.1c0-0.1,0.1-0.3,0.2-0.3c0.1,0,0.5-0.1,0.5-0.2c0-0.1,0.3-0.1,0.3,0
				C14.5,42.8,14.5,42.9,14.5,42.9z M16.6,44.7c0,0-0.2,0-0.4-0.1l0,0c0-0.1,0.1-0.2,0.2-0.2c0.1,0.1,0.2,0.2,0.2,0.2
				C16.6,44.6,16.7,44.7,16.6,44.7z M16.5,42.2c-0.1,0.6,0.2,1.2,0.2,1.8c-0.1,0-0.1-0.1-0.2-0.1l-0.2-0.1c-0.1-0.1-2.9-2.4-3.1-2.2
				c0,0-0.1,0.1-0.1,0.1c0,0,0.2-0.3,0.1-0.4c-0.1-0.1,0-0.4,0-0.5c0.1-0.1,0.1,0,0.3,0.1c0.2,0.1,0.1-0.1,0-0.2
				c-0.1-0.1-0.2-0.1-0.3-0.2c-0.1-0.1-0.1-0.3,0-0.2c0.1,0.1,0.2,0.1,0.3,0.1c0.1,0.1,0.1-0.1,0-0.2c-0.1-0.1-0.3-0.1-0.4-0.2
				c-0.1-0.1,0-0.3,0.1-0.2c0.1,0.1,0.3,0.2,0.5,0.3c0.2,0.1,0.1-0.2,0-0.2c-0.1,0-0.4-0.3-0.5-0.3c-0.2-0.1-0.3-0.5,0-0.5
				c0.2,0,0.4,0.2,0.6,0.2c0.2,0.1,0.2-0.1,0.1-0.2c-0.2-0.1-0.5-0.3-0.7-0.4c-0.2-0.1-0.1-0.5,0.1-0.4c0.1,0,0.3,0.1,0.4,0.2
				c0.1,0.1,0.2-0.1,0.1-0.1c-0.1-0.1-0.3-0.2-0.4-0.2c-0.1-0.1-0.1-0.4,0.1-0.3c0.2,0.1,0.3,0.1,0.4,0.2c0.2,0.1,0.1-0.1,0-0.2
				c-0.1-0.1-0.4-0.2-0.5-0.2c-0.1-0.1-0.1-0.3,0.1-0.2c0.1,0.1,0.3,0.2,0.5,0.2c0.1,0.1,0.3,0,0.2-0.1c-0.1-0.1-0.2-0.2-0.4-0.2
				c-0.6-0.2-0.3-2.3,0.7-1.5c0.2,0.2,1.2,1.3,1.5,1.3C16.5,37.1,16.5,42.1,16.5,42.2z M14.7,34.4c-0.1,0-0.5-0.7-0.3-0.8
				c0.1,0,1.4,0.4,1.7,0.5c0.5,0.1,0.5,0.8,0.2,0.8C15.9,34.8,14.9,34.4,14.7,34.4z M21.3,39.9c-0.1,0-1.8-0.7-2-0.8
				c-0.2-0.1-0.1-0.5,0.3-0.4c0.1,0,1.7,0.7,1.9,0.7C22.2,39.7,22.1,40.1,21.3,39.9z M18.1,36.1c-0.2,0-0.4-0.2-0.4-0.4
				c0-0.1,0.1-0.3,0.6-0.1c0.2,0.1,0.8,0.3,1.2,0.4l0.3,0.1l0.2,0.1c0.2,0.1,1.1,0.4,1.2,0.4c0.3,0.1,1.1,0.4,1.3,0.4
				c0.1,0,0.1,0.2,0.1,0.3C22.3,37.8,18.3,36.2,18.1,36.1z M25.5,47.1c-0.3,0-1.1,0.2-1.4,0.3c-0.3,0.1-0.3-0.1-0.3-0.3
				c0-0.1,0.3-0.4,0.5-0.5c0.2-0.1,0.6-0.4,0.8-0.2c0.3,0.3,0.5,0.3,0.8,0.5C26.2,47.1,25.8,47.1,25.5,47.1z M27.9,47.3
				c0,0.2-0.5,0.3-0.7,0.3c-0.2,0-0.7-0.2-0.9-0.4c-0.2-0.1,0.1-0.4,0.2-0.5c0.2-0.1,0.4,0,0.6,0c0.1,0,0.5-0.1,0.6,0
				C27.7,46.9,27.9,47.1,27.9,47.3z M26.6,46.2c-0.2,0.1-0.4,0.1-0.5,0.1c0-0.1,0.1-0.2,0-0.2c-0.2,0-0.6-0.3-0.6-0.4
				c-0.1-0.1-0.1,0-0.2,0c-0.1,0-0.3,0-0.6,0c-0.3,0-0.3-1.3-0.3-1.5c0-0.2,0.3-0.6,0.9-0.5c0.3,0,0.5-0.1,0.5-0.3
				c0-0.1,0-0.5,0.1-0.5c0.5,0,0.3-0.4,0.3-0.5c0.4,0,0.7,0,1.1-0.1c0,0,0.1,0,0.1,0c0,0.2,0.6,2.9,0.8,3.9
				C27.6,46,27,46.1,26.6,46.2z M34.7,27.5c0,0,0-0.1,0-0.1C34.7,27.4,34.7,27.5,34.7,27.5z M34.7,27.4
				C34.7,27.3,34.7,27.3,34.7,27.4C34.7,27.3,34.7,27.3,34.7,27.4z M34.7,27.2C34.7,27.2,34.7,27.1,34.7,27.2
				C34.7,27.1,34.7,27.2,34.7,27.2z M34.7,27.1C34.7,27,34.7,27,34.7,27.1C34.7,27,34.7,27,34.7,27.1z M34.7,25.8c0-0.1,0-0.1,0-0.2
				C34.6,25.7,34.7,25.8,34.7,25.8z M34.7,26.9C34.7,26.9,34.7,26.9,34.7,26.9C34.7,26.9,34.7,26.9,34.7,26.9z M34.7,26.8
				C34.7,26.7,34.7,26.7,34.7,26.8C34.7,26.7,34.7,26.7,34.7,26.8z M34.7,26.6C34.7,26.6,34.7,26.6,34.7,26.6
				C34.7,26.6,34.7,26.6,34.7,26.6z M34.7,26.5C34.7,26.4,34.7,26.4,34.7,26.5C34.7,26.4,34.7,26.4,34.7,26.5z M34.7,26.3
				C34.7,26.3,34.7,26.2,34.7,26.3C34.7,26.2,34.7,26.3,34.7,26.3z M34.7,26.1c0,0,0-0.1,0-0.1C34.7,26.1,34.7,26.1,34.7,26.1z
				 M34.7,26c0,0,0-0.1,0-0.1C34.7,25.9,34.7,26,34.7,26z M34.1,23.9c0,0,0-0.1-0.1-0.1C34,23.8,34.1,23.9,34.1,23.9z M34.6,25.6
				c0,0,0-0.1,0-0.1C34.6,25.6,34.6,25.6,34.6,25.6z M34.6,25.5C34.6,25.4,34.6,25.4,34.6,25.5C34.6,25.4,34.6,25.4,34.6,25.5z
				 M34.6,25.3C34.6,25.3,34.5,25.2,34.6,25.3C34.5,25.2,34.6,25.3,34.6,25.3z M34.5,25.2C34.5,25.1,34.5,25.1,34.5,25.2
				C34.5,25.1,34.5,25.1,34.5,25.2z M34.5,25C34.5,25,34.5,24.9,34.5,25C34.5,24.9,34.5,25,34.5,25z M34.4,24.8
				C34.4,24.8,34.4,24.8,34.4,24.8C34.4,24.8,34.4,24.8,34.4,24.8z M34.4,24.7C34.4,24.7,34.4,24.6,34.4,24.7
				C34.4,24.6,34.4,24.7,34.4,24.7z M34.3,24.5C34.3,24.5,34.3,24.5,34.3,24.5C34.3,24.5,34.3,24.5,34.3,24.5z M34.3,24.4
				C34.3,24.4,34.3,24.3,34.3,24.4C34.3,24.3,34.3,24.4,34.3,24.4z M34.2,24.2c0,0,0-0.1,0-0.1C34.2,24.2,34.2,24.2,34.2,24.2z
				 M34.2,24.1c0,0,0-0.1-0.1-0.1C34.1,24,34.1,24,34.2,24.1z M33.7,23.2C33.7,23.2,33.7,23.2,33.7,23.2
				C33.7,23.2,33.7,23.2,33.7,23.2z M34,23.7C34,23.7,34,23.7,34,23.7C34,23.7,34,23.7,34,23.7z M33.9,23.6
				C33.9,23.6,33.9,23.6,33.9,23.6C33.9,23.6,33.9,23.6,33.9,23.6z M33.8,23.5C33.8,23.4,33.8,23.4,33.8,23.5
				C33.8,23.4,33.8,23.4,33.8,23.5z M33.8,23.3C33.8,23.3,33.7,23.3,33.8,23.3C33.7,23.3,33.8,23.3,33.8,23.3z M34.3,27.4
				c-0.5,2.9,1,5.2,2.4,7.4l0,0.1c0.2,0.4,0.6,1.1,0.6,1.3c0.1,0.2,0.1,0.9,0.1,1.2c0,0.3-0.5,1.3-0.6,1.5c-0.1,0.2-0.4,0.5-0.6,0.7
				c0,0-1.9,3.1-10.5,2.3c-0.7-0.2-0.9-0.8-0.9-0.9c-0.1-0.2-1.1-0.6-1.3-0.7c-0.2,0-0.2-0.2,0-0.3c0.2-0.1-0.2-0.2-0.4-0.3
				c-0.9-0.4-0.4-0.9-0.2-0.8c0.3,0.1,1.1,0.4,1.5,0.4c0.3,0,0.1-0.2,0-0.2c-0.1,0-0.8-0.2-1-0.4c-0.8-0.4,0.1-0.9,0.4-0.9
				c0.1,0,1,0.2,1.3,0.3c0.3,0.1,0.1-0.1-0.1-0.2c-0.3-0.1-0.4-0.1-0.7-0.2c-0.3-0.1,0-0.1,0.1-0.2c0.1,0,0.7,0.2,0.6,0.1
				c-0.1-0.1-0.5-0.3-0.9-0.4c-0.5-0.2-2.1-2,0.4-1.3c0.2,0.1,0.3-0.2,0.2-0.3c-0.1-0.1-1.4-0.6-1.6-0.6c-0.6-0.2-0.7-0.9-0.5-0.8
				c0.1,0,1.3,0.5,1.4,0.5c0.2,0,0.2-0.2,0-0.3c-0.2-0.1-1.1-0.4-1.3-0.5c-0.2,0-0.4-0.2-0.3-0.3c0-0.1-0.1-0.1-0.3-0.3
				c-0.2-0.2,0-0.3,0.4-0.2c0.3,0.1,0.2-0.1,0.1-0.2c-0.1-0.1-0.4-0.2-0.6-0.4c-0.2-0.2-0.3-0.7-0.4-0.8c-0.1-0.2,0.2-0.1,0.3,0
				c0.2,0,0-0.1-0.2-0.2c-0.2-0.1-0.3-0.2-0.3-0.3c-0.1-0.2,0.3,0,0.5,0c0.2,0,0.1-0.1-0.1-0.2c-0.2-0.1-0.4-0.2-0.4-0.3
				c0-0.1,0.2,0,0.5,0c0.2,0,0.1-0.2-0.1-0.2c-0.2-0.1-0.4,0-0.5-0.2c-0.2-0.1-0.1-0.2-0.1-0.3c0-0.1,0.1-0.2,0.3-0.1
				c0.2,0,0.3,0,0.3-0.1c-0.1-0.2-0.4-0.1-0.5-0.1c-0.1,0-0.3-0.2-0.2-0.3c0.1-0.1-0.1-0.3-0.2-0.3c-0.1,0,0.1-0.1,0.2-0.1
				c0.1,0,0.1-0.3-0.3-0.3c-0.4,0.1-0.2-0.3-0.2-0.7c0-0.3,0.1-0.3,0-0.4c-0.1-0.1-0.6,0.4-0.5,0c0.1-0.3-0.1-0.4-0.2-0.4
				c-0.1,0,0-0.2-0.1-0.3c-0.1-0.1-1.1-0.3-1.4-0.5c-0.3-0.1,0-0.6,0.6-0.4c0.2,0.1,0.5,0.1,0.5-0.1c0-0.1-0.2-0.1-0.6-0.3
				c-0.5-0.2-0.3-0.6,0.2-0.6c0.2,0,0.3-0.1,0.3-0.2c-0.1-0.1-0.3-0.1-0.5-0.1c-0.3-0.2-0.6-1.1,0.2-1c0.2,0,0.2-0.2,0-0.2
				c-0.2-0.1-0.2-0.1-0.4-0.1c-0.1,0,0-0.7,0.2-0.8c0.2,0,0.3,0.1,0.5,0.1c0.2,0.1,0.2-0.1,0-0.2c-0.2-0.1-0.3-0.2-0.4-0.3
				c-0.1-0.1,0-0.1,0.1-0.2c0.1-0.1,0.4,0.1,0.6,0.2c0.2,0.1,0.3-0.2,0-0.3c-0.1-0.1-0.6-0.2-0.6-0.3c0-0.1,0-0.4,0.2-0.4
				c0.1,0,0.6,0.1,0.6,0.1s0.2-0.2,0-0.3c-0.1,0-0.1,0-0.5-0.2c-0.3-0.2,0-0.5,0.2-0.5c0.1,0,0.6,0.2,0.9,0.1c0.3-0.1,0.2-0.3,0-0.3
				c-0.2-0.1-0.8-0.2-1-0.3c-0.2-0.1,0.2-0.7,0.4-0.8c0.3-0.1,1-0.7,1.7,0.2c0.1,0.2,0.5,0.3,0.6,0.4c0.1,0.1,0.6,0.4,0.7,0.6
				c0.1,0.2,0.3,0.1,0.6,0c0.1-0.1-0.1-0.5-0.5-0.9c-0.2-0.1-0.4-0.1-0.5-0.2c-0.2-0.1-0.6-0.8-0.6-0.9l0,0
				c-0.2-0.2-0.3-0.3-0.3-0.3l-0.4-0.4c1.2-0.2,2.7-0.1,4.3,0.5c0,0,2.5,2.8,2.6,2.9c0,0.1,0.4,0.2,0.5,0.1c0.1-0.1,0-0.5-0.2-0.5
				c-0.2,0-0.4-0.7-0.6-0.9c-0.1-0.1-1.1-1.2-1.2-1.4c-0.1-0.2,0.1-0.2,0.2-0.1c0.1,0.1,0.4,0.4,0.5,0.3c0.1-0.1,0-0.1-0.2-0.3
				c-0.2-0.2,0.1,0,0.2-0.1c0,0,0,0,0,0c0.8,0.1,1.7,0.5,2.6,1c1.2,0.8,2.3,2,2.8,3.2l0,0l0,0C33.9,23.4,34.6,25.8,34.3,27.4z
				 M34.8,23.2c0,0,0,0.1,0,0.1c-0.1-0.1-0.2-0.1-0.3-0.2c-0.1-0.3-0.6-0.8-0.7-0.9c-0.1-0.1,0.1-0.3,0.4,0
				C34.5,22.4,34.7,23,34.8,23.2z M33.8,18.5c-0.2,0-0.4,0.2-0.4,0.4c0.1,0.2,0,0.6,0,0.7c0,0.2,0.2,0.5,0.3,0.5
				c0.1,0.1,0.2,0.4,0.1,0.5c-0.1,0.1-0.3,0.1-0.2,0.2c0.1,0.2-0.1,0.4-0.1,0.3c-0.1-0.1-0.1-0.2-0.2-0.4c-0.1-0.2-0.2-0.3-0.2-0.1
				c0.1,0.2,0.1,0.3,0.2,0.5c0.1,0.2-0.1,0.3-0.2,0c-0.1-0.3-0.3-0.5-0.3-0.7c0-0.2-0.2-0.1-0.1,0.1c0,0.2-0.1,0.3-0.2,0
				c-0.1-0.3-0.3-1-0.4-1.2c-0.1-0.2-0.2-0.2-0.2-0.1c0,0.1,0.1,0.3,0.1,0.4c0,0.1-0.1,0.2-0.2,0c0-0.2-0.2-0.4-0.2-0.6
				c0-0.1-0.3-0.3-0.2-0.1c0.1,0.2,0.1,0.3,0.1,0.5c0,0.2-0.1,0.1-0.2,0c0-0.1-0.1-0.3-0.2-0.4c0-0.1-0.2-0.3-0.2-0.1
				c0,0.1,0,0.2-0.1,0.2c-0.1,0-0.1-0.2-0.2-0.3c0-0.1-0.2-0.5-0.2-0.6c-0.1-0.2-0.3-0.2-0.2-0.1c0.1,0.1,0.1,0.4,0.1,0.6
				c0,0.1-0.2,0.1-0.2,0c0-0.1-0.3-0.6-0.3-0.7c-0.1-0.1-0.2,0-0.1,0.1c0.1,0.1,0.2,0.4,0.2,0.5c0,0.1-0.2-0.1-0.3-0.2
				c-0.1-0.1-0.2-0.4-0.3-0.5c-0.1-0.1-0.3-0.1-0.2,0c0.1,0.1,0.1,0.2,0.1,0.3c0.1,0.2-0.2,0-0.3-0.1c0-0.1-0.3-0.5-0.3-0.6
				c0-0.1-0.2,0-0.1,0.1c0.1,0.1,0.1,0.3,0.1,0.4c0.1,0.1-0.3-0.1-0.3-0.2c0-0.1-0.3-0.5-0.4-0.7c-0.1-0.2-0.2,0-0.1,0.1
				c0,0.1,0.2,0.3,0.2,0.4c0,0.2-0.1,0.1-0.2,0c0-0.1-0.2-0.4-0.2-0.5c0-0.1-0.3-0.2-0.1,0.2c0.2,0.4,0.1,0.3-0.1,0.3
				c-0.1,0-0.2-0.1-0.2-0.1s-0.1-0.2-0.1-0.4c0-0.2-0.2-0.1-0.1,0c0,0.1,0,0.2,0,0.4c0,0.2-0.2,0-0.2,0c0-0.1-0.2-0.3-0.2-0.4
				c0-0.1-0.2-0.1-0.1,0c0.1,0.1,0.1,0.2,0.1,0.3c0,0.1,0,0.1-0.1,0.1c-0.1-0.1-0.2-0.2-0.3-0.3c-0.1-0.2-0.3,0.1-0.4,0.1
				c-0.1,0-0.3-0.3-0.4-0.3c-0.1-0.1-0.2,0-0.1,0.1c0,0.1,0.2,0.2,0.2,0.3c0,0.1,0,0.3-0.1,0.3c-0.2,0-0.4-0.3-0.6-0.3
				c-0.2,0-0.4,0-0.5,0.1c0,0,0,0,0,0c-0.2,0-0.4-0.1-0.6-0.1c-0.2-0.1-0.3-0.1-0.4-0.2c-0.1,0-0.1-0.1-0.1-0.2
				c3.3-1.6,8-1.7,11.9,1.5c0,0-0.1,0-0.1,0c-0.1-0.1-0.4-0.1-0.5-0.1C34.5,18.4,34.1,18.5,33.8,18.5z M35.4,19.1
				c-0.1,0.1-0.2,0.2-0.3,0.3C35,19.7,35,20,35,20.4c0,0.2,0.1,0.4,0.2,0.7c0.1,0.4,0.2,0.7,0.3,1c0,0.2,0,0.4,0,0.6
				c0,0.1,0,0.2,0,0.3c0,0.2,0.2,0.4,0.3,0.6c0.1,0.2,0.3,0.4,0.3,0.6c0,0,0,0,0,0c0,0,0,0,0,0c0,0-0.1,0-0.2-0.1
				c-0.2-0.1-0.4-0.4-0.6-0.7c-0.1-0.1-0.1-0.3-0.1-0.4c0-0.1,0-0.3,0-0.3c0.2-0.4-0.3-1.4-0.4-1.5c-0.1-0.1-0.2-0.3-0.3-0.5
				c0-0.1-0.2-0.7,0.1-1c0.1-0.1,0.4-0.3,0.6-0.4C35.4,19,35.4,19,35.4,19.1z"/>
			<path clip-path="url(#SVGID_2_)" fill="#FFFFFF" d="M25.9,18.1C25.9,18.1,25.9,18.1,25.9,18.1c0,0-0.1-0.1-0.3-0.2
				c-0.4-0.2-0.9-0.4-1.3-0.5c-0.2-0.1-0.4-0.1-0.4-0.1c-0.1,0-0.2,0-0.5,0c-0.2,0-0.4,0-0.6,0c-0.4,0-0.8,0-1,0
				c-0.1,0-0.2,0-0.4,0.1c-0.7,0.1-1.4,0.3-1.9,0.7c0,0,0,0,0,0c-0.3,0.2-0.6,0.4-0.9,0.7c-0.3,0.3-0.6,0.4-0.8,0.5
				c-1.6,0.6-3.1,1.6-3.8,3.4c0,0.1,0.1,0.2,0.1,0.1c1-1.6,2.5-2.5,3.8-2.9c0.4-0.1,0.6,0.2,0.6,0.4c0.1,0.6,0.1,1.1,0,1.4
				c-0.1,0.3-0.3,0.7-0.4,1c-0.1,0.3-0.2,0.8-0.2,1.2c0.1,0.9,0.3,2-0.3,3.1c-0.1,0.2,0,0.2,0.2,0.1c0.8-0.7,0.8-1.9,0.7-3.1
				c0-0.5,0.1-0.9,0.2-1.1c0.4-0.8,0.7-1.4,0.6-2c0-0.4,0-0.8-0.1-1.2c0-0.3,0.1-0.6,0.3-0.8c0.3-0.3,0.8-0.6,1.3-0.7
				c0.3-0.1,0.5,0.1,0.6,0.4c0.7,1,1.5,1.6,2.7,2c0.5,0.2,0.6,0.5,0.5,1c-0.1,0.5-0.1,0.9-0.6,1.4c-0.8,0.7-1.3,1.5-1.5,2.3
				c-0.1,0.3-0.3,0.6-0.8,0.7c-1.5,0.4-2.4,1.5-1.9,2.7c0.4,1,0.6,1.5,0.8,2.3c0.2,0.8,0.5,2.1,0.8,2.9c0.5,1.3,1,2.4,1.5,3
				c0.1,0.2,0.2,0.1,0.2-0.1c-0.6-1.2-1.2-2.9-1.5-3.9c0-0.1,0-0.3,0.2-0.3c0.5,0.1,1.7,0.4,2.7,0.8c0.2,0.1,0.2-0.1,0.1-0.2
				c-0.9-0.5-2.2-1-2.9-1.1c-0.2,0-0.3-0.3-0.3-0.5c-0.2-0.9-0.4-1.9-0.8-3c-0.3-0.7,0-1.1,0.4-1.4c0.3-0.2,0.9-0.4,1.1-0.4
				c0.1,0,0.1,0,0.2,0c0,0,0.1,0.1,0.1,0.1c0,0.1,0.1,0.1,0.1,0.2c0.2,0.6,0.5,1.3,1,1.8c0.4,0.5,0.7,0.9,0.8,1.3
				c0.1,0.2,0.2,0.2,0.2,0c0-0.4-0.2-1-0.6-1.5c-0.4-0.5-0.7-1.2-0.8-1.7c-0.1-0.5,0-0.9,0.1-1.4c0.2-0.9,0.9-1.7,1.4-2.1
				c0.6-0.4,1-1.2,0.9-2.1c0-0.2,0.3-0.4,0.4-0.1c0.5,0.9,1.1,1.7,1.8,2.1c1.7,1.1,1.8,2.7,0.4,3.6c-1.8,1.2-1.8,2.8-1,4.3
				c0.4,0.7,0.6,1,0.9,1.3c0.2,0.3,0.3,0.7,0.1,1.1c-0.5,1.1-0.5,2.2,0.1,2.9c0.4,0.6,0.7,1.1,0.8,1.4c0.1,0.3,0.3,0.2,0.2,0
				c-0.2-0.5-0.5-1.1-0.7-1.5c-0.3-0.6-0.2-1.6,0-2.1c0.2-0.4,0.3-0.6,0.4-0.8c0.1-0.2,0.3-0.3,0.4-0.1c0.4,0.4,0.7,1.1,0.9,1.6
				c0.2,0.4,0.5,0.6,0.8,0.8c0.7,0.3,1.4,0.8,1.6,1.4c0.1,0.2,0.2,0.1,0.2,0c-0.2-0.8-0.7-1.2-1.4-1.6c-0.4-0.3-0.6-0.5-0.8-0.9
				c-0.3-0.8-0.5-1.6-1.2-2c-0.4-0.2-0.7-0.3-0.9-0.6c-0.7-0.9-1.1-1.8-1-2.6c0.1-0.8,0.6-1.4,1.3-1.9c0.8-0.5,1.3-1.3,1.3-2.2
				c0-0.2,0.2-0.4,0.4-0.3c0.8,0.2,1.8,0.7,2.1,2.2c0,0.2,0.3,0.2,0.2,0c-0.1-0.8-0.3-2-1.7-2.6c-0.1-0.1-0.3-0.2-0.3-0.1
				c0,0-0.1,0-0.1,0c-0.1,0-0.2,0-0.3-0.1c-0.3,0-0.5,0-0.7-0.3c-0.4-0.7-0.9-1.1-1.4-1.4c-0.5-0.3-0.9-0.9-1.3-1.6
				c-0.4-0.7-0.7-1.1-1.4-1.2c-1.2-0.1-2.3-0.6-3-1.5c-0.1-0.2,0-0.4,0.2-0.4c1.8,0.1,2.8,0.4,3.8,1.3c0.7,0.6,1.1,1.3,1.6,1.9
				c0.8,1.1,1.8,1.3,3,1.3c1.3,0,2.2,0.5,2.8,2.2c0.5,1.2,0.6,2.4-0.1,3.3c-0.6,0.9-0.7,1.9-0.5,2.8c0.1,0.6,0.1,0.9,0.2,1.5
				c0.1,0.6,0.5,1.2,1,1.8c0.4,0.4,0.5,0.7,0.6,1.2c0.1,0.5,0.3,0.9,0.6,1.3c0.1,0.1,0.3,0,0.1-0.1c-0.1-0.1-0.4-0.6-0.4-1.3
				c-0.1-0.7-0.4-1.1-0.6-1.4c-0.2-0.2-0.4-0.5-0.6-0.9c-0.1-0.3,0.2-0.4,0.4-0.2c0.9,0.7,2,1.8,2.4,3.3c0.1,0.2,0.2,0.2,0.2,0
				c-0.1-1.2-1-2.8-2.1-3.7c-0.5-0.4-1.1-0.9-1.3-1.7c-0.2-0.8,0.1-1.5,0.6-2.3c0.5-0.8,0.5-2.1-0.1-3.7c-0.4-1.3-1.1-1.9-1.7-2.3v0
				c0,0-0.1,0-0.1-0.1c-0.6-0.2-1.1-0.3-1.6-0.3c-1-0.1-1.8-0.1-2.4-0.9c-0.3-0.3-0.8-1.2-1.7-2"/>
			<path clip-path="url(#SVGID_2_)" fill="#183059" d="M21.8,17.1l-0.4,0.1c-0.7,0.1-1.4,0.3-2,0.7c0,0,0,0,0,0l0,0l0,0
				c-0.3,0.2-0.7,0.4-0.9,0.7C18.2,18.8,18,19,17.7,19c-1.3,0.5-3.1,1.5-3.9,3.5c0,0.1,0,0.2,0.1,0.2c0.1,0,0.2,0,0.2-0.1
				c0.8-1.3,2.2-2.4,3.8-2.9c0.1,0,0.2,0,0.3,0c0.1,0.1,0.2,0.2,0.2,0.3c0.1,0.6,0.1,1.1,0,1.4c-0.1,0.2-0.2,0.5-0.3,0.7L18,22.6
				c-0.1,0.3-0.2,0.8-0.2,1.3c0,0,0,0.2,0,0.2c0.1,0.8,0.2,1.9-0.4,2.9c-0.1,0.1,0,0.2,0,0.3c0.1,0,0.2,0.1,0.3-0.1
				c0.8-0.8,0.8-2,0.7-3.1c0-0.4,0-0.8,0.2-1.1c0.4-0.8,0.7-1.4,0.6-2.1c0,0,0-0.5,0-0.5l0-0.7c0-0.3,0-0.5,0.2-0.7
				c0.3-0.2,0.8-0.6,1.2-0.6c0.3,0,0.4,0.1,0.5,0.3c0.7,1.1,1.4,1.7,2.6,2.2c0.4,0.2,0.6,0.3,0.5,0.8l0,0.1
				c-0.1,0.4-0.1,0.8-0.5,1.2c-0.8,0.7-1.3,1.5-1.6,2.3c-0.1,0.3-0.3,0.5-0.7,0.6c-0.9,0.2-1.5,0.8-1.9,1.4c-0.2,0.5-0.3,1-0.1,1.5
				l0.1,0.4c0.3,0.8,0.5,1.2,0.6,1.9c0.2,0.8,0.5,2.1,0.8,2.9c0.5,1.3,1,2.4,1.5,3.1c0.1,0.1,0.2,0.1,0.3,0.1c0.1,0,0.1-0.2,0-0.3
				c-0.6-1.1-1.2-2.9-1.5-3.9c0,0,0-0.1,0-0.1c0,0,0.1,0,0.1,0c0.5,0.1,1.7,0.4,2.6,0.8c0.1,0.1,0.2,0,0.3-0.1c0-0.1,0-0.2-0.1-0.3
				c-0.9-0.5-2.3-1-2.9-1.2c-0.1,0-0.2-0.2-0.3-0.4l-0.1-0.4c-0.2-0.8-0.4-1.7-0.7-2.6c-0.2-0.5-0.1-0.9,0.4-1.3
				c0.3-0.2,0.9-0.4,1.1-0.4c0.1,0,0.1,0,0.1,0c0,0,0.1,0.1,0.1,0.1c0,0,0.1,0.1,0.1,0.2c0.2,0.7,0.5,1.4,1,1.9
				c0.4,0.4,0.6,0.8,0.8,1.3c0.1,0.2,0.2,0.2,0.2,0.2c0,0,0.2,0,0.1-0.3c0-0.5-0.3-1.1-0.6-1.6c-0.4-0.5-0.7-1.2-0.8-1.6
				c-0.1-0.5,0-0.8,0.1-1.3c0.2-0.9,0.9-1.7,1.4-2.1c0.6-0.5,1-1.3,0.9-2.2c0-0.1,0-0.1,0.1-0.1c0.1,0,0.1,0,0.1,0.1
				c0.5,1,0.9,1.8,1.6,2.2c0.8,0.5,1.4,1.2,1.4,1.9c0,0.6-0.2,1.2-0.8,1.6c-2.1,1.4-1.7,3.2-1,4.4c0.4,0.7,0.6,1,0.8,1.3l0,0
				c0.2,0.3,0.3,0.6,0.1,1c-0.5,1.1-0.5,2.2,0.1,3c0.4,0.5,0.7,1,0.8,1.3c0.1,0.2,0.2,0.2,0.3,0.2c0.1,0,0.1-0.1,0.1-0.3
				c-0.1-0.5-0.4-1-0.6-1.4l-0.1-0.1c-0.3-0.6-0.2-1.6,0-2l0.3-0.6l0.1-0.2c0-0.1,0.1-0.2,0.2-0.2c0,0,0.1,0,0.1,0.1
				c0.4,0.4,0.7,1,0.8,1.4l0,0.1c0.2,0.5,0.5,0.7,0.9,0.8c0.6,0.3,1.3,0.7,1.5,1.4c0.1,0.2,0.2,0.2,0.2,0.2c0.1,0,0.1-0.1,0.1-0.3
				c-0.2-0.8-0.7-1.2-1.4-1.6l-0.1-0.1c-0.4-0.3-0.6-0.4-0.7-0.8c0,0-0.2-0.4-0.2-0.4c-0.2-0.7-0.5-1.3-1-1.6l-0.3-0.2
				c-0.2-0.1-0.4-0.2-0.6-0.4c-0.7-0.9-1.1-1.8-1-2.5c0-0.7,0.5-1.3,1.3-1.8c0.9-0.6,1.3-1.4,1.3-2.3c0-0.1,0-0.1,0.1-0.2
				c0.1-0.1,0.2-0.1,0.3,0c1.1,0.3,1.8,1,2,2.1c0,0.2,0.1,0.2,0.2,0.2c0.1,0,0.2-0.1,0.2-0.3c-0.1-0.6-0.2-2-1.7-2.6
				c-0.2-0.1-0.3-0.2-0.4-0.2c0,0-0.1,0-0.1,0c0,0-0.3-0.1-0.3-0.1c0,0-0.1,0-0.1,0c-0.2,0-0.4-0.1-0.5-0.3c-0.4-0.7-1-1.2-1.5-1.4
				c-0.5-0.3-0.9-0.9-1.3-1.5c-0.4-0.6-0.7-1.2-1.5-1.2c-1.3-0.1-2.3-0.6-2.9-1.5c0,0,0-0.1,0-0.1c0,0,0,0,0-0.1
				c0-0.1,0.1-0.1,0.2-0.1c1.8,0.1,2.8,0.5,3.8,1.3c0.7,0.6,1.1,1.3,1.6,1.9c0.8,1.2,2,1.3,3.1,1.3c1.1,0,2,0.4,2.7,2.1
				c0.5,1.3,0.5,2.4,0,3.2c-0.6,0.8-0.7,1.9-0.5,2.9c0.1,0.3,0.1,0.5,0.1,0.7c0,0.2,0,0.4,0.1,0.7c0.1,0.6,0.5,1.2,1.1,1.8
				c0.4,0.4,0.5,0.7,0.6,1.2c0.1,0.4,0.3,0.9,0.7,1.4c0.1,0.1,0.2,0.1,0.3,0c0.1-0.1,0.1-0.2,0-0.3c0,0-0.3-0.5-0.4-1.2
				c-0.1-0.7-0.4-1.1-0.6-1.4c-0.2-0.2-0.4-0.5-0.5-0.9c0-0.1,0-0.2,0-0.2c0,0,0.1,0,0.3,0.1c0.6,0.4,1.9,1.5,2.3,3.2
				c0,0.2,0.2,0.2,0.2,0.2c0.1,0,0.2-0.1,0.1-0.3c-0.1-1.2-1-2.8-2.2-3.8l0,0l-0.1,0c-0.5-0.4-1-0.8-1.2-1.6c0-0.2-0.1-0.3-0.1-0.5
				c0-0.6,0.2-1.1,0.6-1.7c0.2-0.4,0.4-0.9,0.4-1.6c0-0.7-0.1-1.4-0.4-2.2c-0.4-1.2-0.9-1.9-1.7-2.3c0,0-0.1-0.2-0.1-0.2
				c-0.5-0.2-1.2-0.4-1.6-0.4l-0.1,0c-1-0.1-1.8,0-2.3-0.7l-0.2-0.3c-0.3-0.4-0.8-1.1-1.5-1.8c-0.3-0.3-0.6-0.5-1-0.7
				c0,0-0.1-0.1-0.3-0.2c-0.4-0.2-0.9-0.4-1.3-0.5c-0.2,0-0.4-0.1-0.5-0.1l0,0c0,0-0.5,0-0.5,0c0,0-0.6,0-0.6,0
				C22.3,17.1,22,17.1,21.8,17.1z M19.5,18.1c0.6-0.3,1.2-0.5,1.9-0.6c0,0,0.4-0.1,0.4-0.1c0.2,0,0.5,0,1,0c0,0,0.6,0,0.6,0
				c0,0,0.5,0,0.5,0c0.1,0,0.2,0,0.4,0.1c0.5,0.1,0.9,0.3,1.3,0.5c0.1,0,0.2,0.1,0.3,0.1l0,0l0,0l0,0l0,0l0,0
				c0.4,0.2,0.7,0.4,0.9,0.7c0.7,0.7,1.2,1.4,1.5,1.8l0.2,0.3c0.6,0.8,1.4,0.9,2.5,1l0,0l0.1,0c0.4,0,0.9,0.1,1.5,0.3
				c0,0,0.1,0,0.1,0l0,0c0.7,0.4,1.3,1.1,1.7,2.2c0.3,0.8,0.4,1.5,0.4,2.2c0,0.6-0.1,1.1-0.3,1.5c-0.4,0.7-0.6,1.2-0.6,1.8
				c0,0.2,0,0.3,0.1,0.5c0.2,0.8,0.8,1.3,1.2,1.7l0.1,0c1.2,1,2,2.4,2.1,3.6c0,0,0,0,0,0c0,0,0,0,0,0c0,0,0,0,0-0.1
				c-0.4-1.7-1.8-2.9-2.4-3.3c-0.2-0.1-0.4-0.1-0.5,0c0,0-0.1,0.1-0.1,0.2c0,0,0,0.1,0,0.2c0.2,0.5,0.4,0.7,0.6,1
				c0.2,0.3,0.5,0.7,0.6,1.3c0.1,0.7,0.3,1.1,0.4,1.3c0,0,0,0,0,0c0,0,0,0,0,0c-0.4-0.4-0.5-0.9-0.6-1.3c-0.1-0.5-0.2-0.8-0.6-1.3
				c-0.5-0.6-0.9-1.2-1-1.7c-0.1-0.3-0.1-0.5-0.1-0.7c0-0.2,0-0.5-0.1-0.8c-0.1-0.3-0.1-0.6-0.1-0.8c0-0.7,0.2-1.3,0.6-1.9
				c0.3-0.4,0.4-0.9,0.4-1.5c0-0.5-0.1-1.1-0.4-1.8c-0.6-1.6-1.4-2.2-2.9-2.2c-1.1,0-2.2-0.1-3-1.2c-0.4-0.6-0.9-1.3-1.6-1.9
				c-1-0.9-2.1-1.2-3.9-1.3c-0.2,0-0.3,0.1-0.4,0.2c0,0,0,0.1,0,0.1c0,0.1,0,0.1,0.1,0.2c0.7,0.9,1.7,1.5,3,1.6
				c0.7,0.1,1,0.5,1.4,1.1c0.4,0.6,0.8,1.3,1.3,1.6c0.5,0.3,1,0.7,1.4,1.4c0.2,0.3,0.4,0.3,0.6,0.4l0.1,0l0.3,0.1h0l0.1,0
				c0,0,0.1,0,0.3,0.1c1.3,0.5,1.5,1.6,1.6,2.5c0,0,0,0,0,0c0,0.1,0,0.1,0,0.1c0,0,0,0,0-0.1c-0.3-1.5-1.3-2.1-2.1-2.3
				c-0.2,0-0.3,0-0.4,0.1c-0.1,0.1-0.1,0.2-0.1,0.3c0,0,0,0,0,0c0,0,0,0.1,0,0.1c0,0.8-0.5,1.5-1.2,2c-0.8,0.5-1.3,1.2-1.4,1.9
				c0,0,0,0.1,0,0.1c0,0.8,0.4,1.6,1.1,2.5c0.2,0.2,0.4,0.3,0.6,0.5l0.3,0.2c0.5,0.3,0.7,0.8,1,1.5l0.2,0.4c0.2,0.4,0.4,0.6,0.8,0.9
				l0.1,0.1c0.7,0.5,1.2,0.8,1.3,1.5c0,0,0,0,0,0c0,0,0,0,0,0c-0.2-0.7-1-1.2-1.6-1.5c-0.3-0.1-0.6-0.3-0.8-0.7l0-0.1
				c-0.2-0.4-0.5-1.1-0.9-1.5c-0.1-0.1-0.2-0.1-0.3-0.1c-0.1,0-0.2,0.1-0.3,0.3l-0.1,0.2l-0.3,0.6c-0.1,0.3-0.2,0.7-0.2,1.1
				c0,0.4,0.1,0.8,0.2,1.1l0.1,0.1c0.2,0.4,0.5,0.9,0.6,1.4c0,0,0,0.1,0,0.1c0,0,0,0-0.1-0.1c-0.1-0.3-0.4-0.9-0.8-1.4
				c-0.3-0.4-0.4-0.9-0.4-1.4c0-0.5,0.1-1,0.4-1.5c0.1-0.2,0.1-0.3,0.1-0.5c0-0.2-0.1-0.5-0.2-0.7l0,0c-0.2-0.3-0.5-0.6-0.8-1.3
				c-0.7-1.2-1-2.9,1-4.2c0.7-0.4,1-1,1-1.7c0-0.8-0.5-1.5-1.4-2.1c-0.7-0.4-1.3-1.2-1.7-2.1c-0.1-0.2-0.3-0.2-0.4-0.2
				c-0.1,0-0.2,0.2-0.2,0.3c0,0,0,0,0,0c0,0.1,0,0.1,0,0.2c0,0.7-0.3,1.4-0.9,1.8c-0.6,0.4-1.2,1.3-1.5,2.2c-0.1,0.3-0.2,0.6-0.2,1
				c0,0.1,0,0.3,0,0.4c0.1,0.5,0.4,1.2,0.8,1.7c0.3,0.5,0.6,1,0.6,1.5c0,0,0,0,0,0c0,0,0,0,0,0c0,0,0,0,0-0.1
				c-0.1-0.5-0.4-0.9-0.8-1.3c-0.4-0.4-0.8-1.2-0.9-1.8c0-0.1-0.1-0.2-0.1-0.2l0,0l0,0l-0.1-0.1l0,0c-0.1,0-0.1-0.1-0.2-0.1
				c-0.3,0-0.9,0.2-1.2,0.4c-0.4,0.3-0.6,0.6-0.6,1c0,0.2,0,0.4,0.1,0.6c0.4,0.9,0.5,1.8,0.7,2.6l0.1,0.4c0.1,0.3,0.2,0.5,0.4,0.5
				c0.6,0.1,2,0.6,2.9,1.1c0,0,0,0,0,0c0,0,0,0,0,0c-0.9-0.4-2.2-0.7-2.7-0.8c-0.1,0-0.2,0-0.2,0.1c0,0.1-0.1,0.1-0.1,0.2
				c0,0,0,0.1,0,0.1c0.3,1.1,0.9,2.8,1.5,3.9c0,0,0,0,0,0c0,0,0,0,0,0c-0.5-0.6-1-1.7-1.5-3c-0.3-0.9-0.7-2.1-0.8-2.9
				c-0.2-0.7-0.3-1.1-0.6-1.9l-0.1-0.4c-0.1-0.2-0.1-0.4-0.1-0.6c0-0.3,0.1-0.5,0.2-0.7c0.3-0.6,1-1,1.8-1.2
				c0.5-0.1,0.7-0.5,0.8-0.8c0.2-0.8,0.7-1.5,1.5-2.2c0.5-0.4,0.5-0.9,0.6-1.4l0-0.1c0-0.1,0-0.2,0-0.2c0-0.4-0.2-0.7-0.6-0.8
				c-1.2-0.5-2-0.9-2.7-2c-0.1-0.2-0.4-0.5-0.7-0.4c-0.5,0.1-1,0.4-1.3,0.7c-0.2,0.2-0.3,0.4-0.3,0.7c0,0,0,0.1,0,0.1l0,0.7l0,0.5
				c0,0.1,0,0.1,0,0.2c0,0.6-0.2,1.1-0.6,1.8c-0.1,0.3-0.2,0.6-0.2,1c0,0.1,0,0.1,0,0.2c0,0.3,0,0.5,0,0.8c0,0.9-0.1,1.7-0.7,2.2
				c0,0,0,0,0,0c0,0,0,0,0,0c0.4-0.6,0.5-1.3,0.5-1.9c0-0.4,0-0.8-0.1-1.1l0-0.2c0-0.1,0-0.2,0-0.2c0-0.3,0.1-0.7,0.2-1
				c0,0,0.1-0.3,0.1-0.3c0.1-0.2,0.2-0.5,0.3-0.7c0-0.2,0.1-0.3,0.1-0.6c0-0.3,0-0.6-0.1-0.9c0-0.2-0.1-0.4-0.2-0.5
				c-0.1-0.1-0.2-0.1-0.5,0c-1.5,0.5-2.9,1.5-3.7,2.7c0.8-1.8,2.4-2.7,3.7-3.2c0.3-0.1,0.6-0.2,0.8-0.5
				C18.8,18.5,19.1,18.3,19.5,18.1L19.5,18.1L19.5,18.1z M32.7,22.1L32.7,22.1L32.7,22.1C32.7,22.1,32.7,22.1,32.7,22.1z"/>
			<g clip-path="url(#SVGID_2_)">
				<path fill="#FFFFFF" d="M19.9,34.3c-0.4-0.1-0.5-0.3-0.9-0.8c0,0-0.1-0.1-0.3-0.2c-0.2-0.1-0.6-0.7-0.8-0.8
					c-0.1-0.1-0.9-0.6-1-0.7c-0.8-0.3-1-1.1-1.2-1.4l0,0l0,0c-0.2-0.3-0.4-0.7-0.6-1l0,0c0,0.1-0.3-0.5-0.4-0.6c0,0,0,0,0,0
					c-0.1-0.1-0.4-0.3-0.4-0.2c0,0.1,0.2,0.5,0.3,0.6c0.1,0.1,0.4,0.6,0.4,0.8c0,0.2,0.4,0.7,0.5,0.8h0c0.3,0.5,0.5,0.9,0.7,1.2
					c0.2,0.5,0.3,0.7,0.4,1.1c0.1,0.6,0.4,1.5,0.7,1.9c0.1,0.1,0.1,0.1,0.1,0.1c0,0,0-0.1,0-0.2c-0.3-0.8-0.5-1.9-0.6-2.2
					c0-0.2,0-0.3,0.1-0.3c0.1-0.1,0.2,0,0.4,0.1c0.4,0.3,0.9,0.7,1.4,1.2c0.2,0.3,0.6,0.6,1.2,0.7c0.1,0,0.1,0,0.2-0.1c0,0,0,0,0,0
					C20,34.6,20,34.4,19.9,34.3z"/>
			</g>
			<use xlink:href="#SVGID_1_"  overflow="visible" fill="none" stroke="#183059" stroke-width="0.6143"/>
		</g>
	</g>
</g>
</svg>
